<svg width="52" height="9" viewBox="0 0 52 9" fill="none" xmlns="http://www.w3.org/2000/svg">
<path d="M5.39619 6.32C5.48286 6.51334 5.48619 6.70334 5.40619 6.89C5.32619 7.07 5.19952 7.23667 5.02619 7.39C4.85286 7.54334 4.65286 7.67667 4.42619 7.79C4.20619 7.90334 3.99619 7.98334 3.79619 8.03C3.57619 8.07667 3.34286 8.09667 3.09619 8.09C2.85619 8.09 2.61286 8.06 2.36619 8C2.12619 7.94667 1.88952 7.86667 1.65619 7.76C1.42952 7.64667 1.21952 7.51 1.02619 7.35C0.792858 7.15667 0.609525 6.92667 0.476191 6.66C0.349525 6.38667 0.256191 6.09667 0.196191 5.79C0.136191 5.48334 0.102858 5.17667 0.0961914 4.87C0.0961914 4.55667 0.106191 4.26334 0.126191 3.99C0.146191 3.74334 0.196191 3.48667 0.276191 3.22C0.356191 2.95334 0.466191 2.69334 0.606191 2.44C0.752858 2.18 0.926192 1.94 1.12619 1.72C1.33286 1.5 1.57286 1.31334 1.84619 1.16C2.05286 1.04 2.28286 0.960002 2.53619 0.920003C2.79619 0.873336 3.05619 0.863336 3.31619 0.890002C3.58286 0.910003 3.83286 0.966669 4.06619 1.06C4.30619 1.14667 4.50952 1.26667 4.67619 1.42C4.78286 1.51334 4.89286 1.64334 5.00619 1.81C5.12619 1.97667 5.21286 2.14667 5.26619 2.32C5.31952 2.49334 5.31952 2.65667 5.26619 2.81C5.21952 2.95667 5.08619 3.05667 4.86619 3.11C4.77286 3.13667 4.68953 3.14334 4.61619 3.13C4.54286 3.11 4.47619 3.08 4.41619 3.04C4.35619 2.99334 4.29952 2.94 4.24619 2.88C4.19286 2.82 4.14286 2.76 4.09619 2.7C3.93619 2.50667 3.74953 2.37667 3.53619 2.31C3.32286 2.23667 3.10952 2.22 2.89619 2.26C2.68953 2.29334 2.49286 2.38 2.30619 2.52C2.12619 2.65334 1.98619 2.82667 1.88619 3.04C1.77952 3.26667 1.69286 3.51667 1.62619 3.79C1.56619 4.05667 1.53286 4.33 1.52619 4.61C1.51952 4.88334 1.54286 5.15 1.59619 5.41C1.65619 5.67 1.75619 5.9 1.89619 6.1C2.00286 6.26 2.13286 6.39 2.28619 6.49C2.44619 6.59 2.61619 6.66 2.79619 6.7C2.97619 6.74 3.15619 6.74667 3.33619 6.72C3.52286 6.69334 3.70286 6.63334 3.87619 6.54C3.92952 6.51334 3.98619 6.47667 4.04619 6.43C4.11286 6.37667 4.17952 6.32334 4.24619 6.27C4.31286 6.21667 4.37952 6.16667 4.44619 6.12C4.51952 6.07334 4.59619 6.04 4.67619 6.02C4.79619 5.98 4.92619 5.98334 5.06619 6.03C5.21286 6.07667 5.32286 6.17334 5.39619 6.32Z" fill="white"/>
<path d="M7.50935 1.16C7.95602 0.993336 8.35935 0.920002 8.71935 0.940002C9.08602 0.960002 9.41269 1.05334 9.69935 1.22C9.98602 1.38 10.2294 1.59667 10.4294 1.87C10.636 2.14334 10.8027 2.45 10.9294 2.79C11.0294 3.04334 11.106 3.31 11.1594 3.59C11.2127 3.87 11.2427 4.15 11.2494 4.43C11.2627 4.70334 11.2527 4.97334 11.2194 5.24C11.1927 5.50667 11.146 5.75334 11.0794 5.98C11.0394 6.13334 10.9927 6.27334 10.9394 6.4C10.886 6.52667 10.8227 6.65334 10.7494 6.78C10.5827 7.06667 10.366 7.3 10.0994 7.48C9.83935 7.66 9.55269 7.78667 9.23935 7.86C9.02602 7.91334 8.80602 7.94 8.57935 7.94C8.35269 7.93334 8.12935 7.90334 7.90935 7.85C7.68935 7.79 7.47602 7.70667 7.26935 7.6C7.06935 7.48667 6.88602 7.34667 6.71935 7.18C6.51269 6.98 6.34269 6.75 6.20935 6.49C6.07602 6.22334 5.97269 5.94667 5.89935 5.66C5.82602 5.36667 5.77935 5.07334 5.75935 4.78C5.73935 4.48667 5.73935 4.20667 5.75935 3.94C5.77935 3.69334 5.82602 3.43 5.89935 3.15C5.97935 2.87 6.09269 2.6 6.23935 2.34C6.38602 2.08 6.56269 1.84667 6.76935 1.64C6.98269 1.42667 7.22935 1.26667 7.50935 1.16ZM9.84935 5.44C9.92935 5.12667 9.96269 4.77334 9.94935 4.38C9.93602 3.98667 9.87269 3.61667 9.75935 3.27C9.68602 3.05667 9.59269 2.87 9.47935 2.71C9.37269 2.54334 9.24269 2.41667 9.08935 2.33C8.94269 2.24334 8.76935 2.2 8.56935 2.2C8.36935 2.2 8.14602 2.26 7.89935 2.38C7.75269 2.45334 7.62602 2.55334 7.51935 2.68C7.41935 2.80667 7.33602 2.95 7.26935 3.11C7.20935 3.27 7.15935 3.43667 7.11935 3.61C7.08602 3.78334 7.06602 3.95 7.05935 4.11C7.04602 4.28334 7.04269 4.46667 7.04935 4.66C7.05602 4.84667 7.07602 5.03667 7.10935 5.23C7.14935 5.41667 7.20269 5.59667 7.26935 5.77C7.33602 5.93667 7.42602 6.08667 7.53935 6.22C7.71269 6.42 7.91269 6.56 8.13935 6.64C8.37269 6.71334 8.60269 6.72334 8.82935 6.67C9.19602 6.59 9.47602 6.34667 9.66935 5.94C9.74935 5.79334 9.80935 5.62667 9.84935 5.44Z" fill="white"/>
<path d="M18.127 7.28C18.1204 7.36 18.1104 7.44334 18.097 7.53C18.0837 7.61667 18.0604 7.69667 18.027 7.77C17.9937 7.85 17.9504 7.91 17.897 7.95C17.8237 8.01667 17.737 8.05334 17.637 8.06C17.5437 8.09334 17.4537 8.10334 17.367 8.09C17.2804 8.07667 17.2004 8.05334 17.127 8.02C17.0337 7.96 16.9637 7.89 16.917 7.81C16.877 7.72334 16.847 7.63334 16.827 7.54C16.807 7.44667 16.797 7.35 16.797 7.25C16.797 7.15 16.797 7.05667 16.797 6.97V6.19L16.787 4.66C16.787 4.55334 16.787 4.47 16.787 4.41C16.787 4.35 16.787 4.29667 16.787 4.25C16.787 4.19667 16.7837 4.14 16.777 4.08C16.777 4.01334 16.777 3.92 16.777 3.8C16.777 3.78 16.777 3.74667 16.777 3.7C16.7837 3.64667 16.7804 3.51 16.767 3.29C16.507 3.72334 16.2904 4.07334 16.117 4.34C15.9504 4.6 15.807 4.80334 15.687 4.95C15.5737 5.09 15.4737 5.18667 15.387 5.24C15.3004 5.28667 15.2104 5.31334 15.117 5.32C15.0637 5.32667 15.0104 5.31667 14.957 5.29C14.9037 5.26334 14.8504 5.23 14.797 5.19C14.7504 5.15 14.7037 5.11 14.657 5.07C14.617 5.02334 14.5837 4.98 14.557 4.94C14.397 4.74 14.217 4.5 14.017 4.22C13.817 3.94 13.6104 3.6 13.397 3.2C13.397 3.20667 13.3937 3.31667 13.387 3.53C13.387 3.74334 13.387 4.01 13.387 4.33C13.387 4.64334 13.3837 4.98334 13.377 5.35C13.377 5.71 13.3737 6.04667 13.367 6.36C13.367 6.67334 13.3637 6.93667 13.357 7.15C13.3504 7.35667 13.3437 7.46 13.337 7.46C13.337 7.57334 13.3104 7.68 13.257 7.78C13.2037 7.87334 13.1304 7.95 13.037 8.01C12.9504 8.07 12.847 8.10334 12.727 8.11C12.607 8.11667 12.477 8.08334 12.337 8.01C12.2504 7.95667 12.1837 7.88 12.137 7.78C12.097 7.68 12.0704 7.58667 12.057 7.5C12.0504 7.40667 12.0437 7.31667 12.037 7.23C12.037 7.14334 12.037 7.05334 12.037 6.96L12.047 6.18L12.057 4.64V3.3C12.057 2.72 12.077 2.15 12.117 1.59C12.117 1.51667 12.1237 1.45 12.137 1.39C12.157 1.32334 12.1804 1.26 12.207 1.2C12.2604 1.09334 12.3304 1.01334 12.417 0.960002C12.517 0.900002 12.6237 0.870002 12.737 0.870002C12.7837 0.870002 12.827 0.873336 12.867 0.880002C12.9137 0.880002 12.957 0.883336 12.997 0.890002C13.1304 0.916669 13.2437 0.996669 13.337 1.13C13.437 1.25667 13.5304 1.36667 13.617 1.46C13.6704 1.52 13.727 1.59334 13.787 1.68C13.847 1.76667 13.907 1.85667 13.967 1.95C14.027 2.04334 14.0837 2.13334 14.137 2.22C14.1904 2.30667 14.237 2.38334 14.277 2.45C14.4504 2.73 14.6037 2.98667 14.737 3.22C14.877 3.45334 15.007 3.65334 15.127 3.82C15.147 3.8 15.1704 3.77334 15.197 3.74C15.2237 3.7 15.2504 3.66 15.277 3.62C15.3104 3.57334 15.337 3.53 15.357 3.49C15.3837 3.45 15.4037 3.41667 15.417 3.39C15.4837 3.28334 15.5504 3.18 15.617 3.08C15.6837 2.97334 15.7537 2.86334 15.827 2.75C15.907 2.63 15.987 2.5 16.067 2.36C16.1537 2.22 16.2537 2.06 16.367 1.88C16.4137 1.8 16.4737 1.70334 16.547 1.59C16.6204 1.47667 16.7037 1.36667 16.797 1.26C16.8904 1.15334 16.987 1.06334 17.087 0.990002C17.1937 0.910002 17.3004 0.870002 17.407 0.870002C17.4604 0.870002 17.507 0.873336 17.547 0.880002C17.587 0.880002 17.627 0.883336 17.667 0.890002C17.747 0.896669 17.8237 0.933336 17.897 1C17.9504 1.05334 17.9904 1.11 18.017 1.17C18.0437 1.25667 18.0604 1.33 18.067 1.39C18.0737 1.43667 18.077 1.48 18.077 1.52C18.0837 1.56 18.087 1.6 18.087 1.64C18.087 2.01334 18.0904 2.38334 18.097 2.75C18.1037 3.11667 18.107 3.48667 18.107 3.86C18.107 4.31334 18.107 4.78 18.107 5.26C18.1137 5.74 18.117 6.20667 18.117 6.66C18.117 6.75334 18.1204 6.85334 18.127 6.96C18.1337 7.06667 18.1337 7.17334 18.127 7.28Z" fill="white"/>
<path d="M25.0009 7.28C24.9942 7.36 24.9842 7.44334 24.9709 7.53C24.9576 7.61667 24.9342 7.69667 24.9009 7.77C24.8676 7.85 24.8242 7.91 24.7709 7.95C24.6976 8.01667 24.6109 8.05334 24.5109 8.06C24.4176 8.09334 24.3276 8.10334 24.2409 8.09C24.1542 8.07667 24.0742 8.05334 24.0009 8.02C23.9076 7.96 23.8376 7.89 23.7909 7.81C23.7509 7.72334 23.7209 7.63334 23.7009 7.54C23.6809 7.44667 23.6709 7.35 23.6709 7.25C23.6709 7.15 23.6709 7.05667 23.6709 6.97V6.19L23.6609 4.66C23.6609 4.55334 23.6609 4.47 23.6609 4.41C23.6609 4.35 23.6609 4.29667 23.6609 4.25C23.6609 4.19667 23.6576 4.14 23.6509 4.08C23.6509 4.01334 23.6509 3.92 23.6509 3.8C23.6509 3.78 23.6509 3.74667 23.6509 3.7C23.6576 3.64667 23.6542 3.51 23.6409 3.29C23.3809 3.72334 23.1642 4.07334 22.9909 4.34C22.8242 4.6 22.6809 4.80334 22.5609 4.95C22.4476 5.09 22.3476 5.18667 22.2609 5.24C22.1742 5.28667 22.0842 5.31334 21.9909 5.32C21.9376 5.32667 21.8842 5.31667 21.8309 5.29C21.7776 5.26334 21.7242 5.23 21.6709 5.19C21.6242 5.15 21.5776 5.11 21.5309 5.07C21.4909 5.02334 21.4576 4.98 21.4309 4.94C21.2709 4.74 21.0909 4.5 20.8909 4.22C20.6909 3.94 20.4842 3.6 20.2709 3.2C20.2709 3.20667 20.2676 3.31667 20.2609 3.53C20.2609 3.74334 20.2609 4.01 20.2609 4.33C20.2609 4.64334 20.2576 4.98334 20.2509 5.35C20.2509 5.71 20.2476 6.04667 20.2409 6.36C20.2409 6.67334 20.2376 6.93667 20.2309 7.15C20.2242 7.35667 20.2176 7.46 20.2109 7.46C20.2109 7.57334 20.1842 7.68 20.1309 7.78C20.0776 7.87334 20.0042 7.95 19.9109 8.01C19.8242 8.07 19.7209 8.10334 19.6009 8.11C19.4809 8.11667 19.3509 8.08334 19.2109 8.01C19.1242 7.95667 19.0576 7.88 19.0109 7.78C18.9709 7.68 18.9442 7.58667 18.9309 7.5C18.9242 7.40667 18.9176 7.31667 18.9109 7.23C18.9109 7.14334 18.9109 7.05334 18.9109 6.96L18.9209 6.18L18.9309 4.64V3.3C18.9309 2.72 18.9509 2.15 18.9909 1.59C18.9909 1.51667 18.9976 1.45 19.0109 1.39C19.0309 1.32334 19.0542 1.26 19.0809 1.2C19.1342 1.09334 19.2042 1.01334 19.2909 0.960002C19.3909 0.900002 19.4976 0.870002 19.6109 0.870002C19.6576 0.870002 19.7009 0.873336 19.7409 0.880002C19.7876 0.880002 19.8309 0.883336 19.8709 0.890002C20.0042 0.916669 20.1176 0.996669 20.2109 1.13C20.3109 1.25667 20.4042 1.36667 20.4909 1.46C20.5442 1.52 20.6009 1.59334 20.6609 1.68C20.7209 1.76667 20.7809 1.85667 20.8409 1.95C20.9009 2.04334 20.9576 2.13334 21.0109 2.22C21.0642 2.30667 21.1109 2.38334 21.1509 2.45C21.3242 2.73 21.4776 2.98667 21.6109 3.22C21.7509 3.45334 21.8809 3.65334 22.0009 3.82C22.0209 3.8 22.0442 3.77334 22.0709 3.74C22.0976 3.7 22.1242 3.66 22.1509 3.62C22.1842 3.57334 22.2109 3.53 22.2309 3.49C22.2576 3.45 22.2776 3.41667 22.2909 3.39C22.3576 3.28334 22.4242 3.18 22.4909 3.08C22.5576 2.97334 22.6276 2.86334 22.7009 2.75C22.7809 2.63 22.8609 2.5 22.9409 2.36C23.0276 2.22 23.1276 2.06 23.2409 1.88C23.2876 1.8 23.3476 1.70334 23.4209 1.59C23.4942 1.47667 23.5776 1.36667 23.6709 1.26C23.7642 1.15334 23.8609 1.06334 23.9609 0.990002C24.0676 0.910002 24.1742 0.870002 24.2809 0.870002C24.3342 0.870002 24.3809 0.873336 24.4209 0.880002C24.4609 0.880002 24.5009 0.883336 24.5409 0.890002C24.6209 0.896669 24.6976 0.933336 24.7709 1C24.8242 1.05334 24.8642 1.11 24.8909 1.17C24.9176 1.25667 24.9342 1.33 24.9409 1.39C24.9476 1.43667 24.9509 1.48 24.9509 1.52C24.9576 1.56 24.9609 1.6 24.9609 1.64C24.9609 2.01334 24.9642 2.38334 24.9709 2.75C24.9776 3.11667 24.9809 3.48667 24.9809 3.86C24.9809 4.31334 24.9809 4.78 24.9809 5.26C24.9876 5.74 24.9909 6.20667 24.9909 6.66C24.9909 6.75334 24.9942 6.85334 25.0009 6.96C25.0076 7.06667 25.0076 7.17334 25.0009 7.28Z" fill="white"/>
<path d="M31.2448 1.47C31.2848 1.79 31.3081 2.16334 31.3148 2.59C31.3214 3.01 31.3148 3.43667 31.2948 3.87C31.2814 4.29667 31.2514 4.70334 31.2048 5.09C31.1581 5.47 31.1014 5.77667 31.0348 6.01C30.9881 6.15 30.9314 6.29667 30.8648 6.45C30.8048 6.59667 30.7381 6.73 30.6648 6.85C30.5581 7.03 30.4281 7.19 30.2748 7.33C30.1214 7.46334 29.9514 7.58 29.7648 7.68C29.5848 7.77334 29.3914 7.84667 29.1848 7.9C28.9848 7.95334 28.7848 7.98334 28.5848 7.99C28.2314 8.00334 27.8948 7.95334 27.5748 7.84C27.2614 7.72 26.9714 7.53334 26.7048 7.28C26.5048 7.08667 26.3448 6.88 26.2248 6.66C26.1048 6.44 26.0114 6.21 25.9448 5.97C25.8781 5.72334 25.8348 5.47 25.8148 5.21C25.8014 4.95 25.7948 4.68334 25.7948 4.41C25.7948 4.28334 25.7914 4.12667 25.7848 3.94C25.7848 3.74667 25.7848 3.55 25.7848 3.35C25.7848 3.14334 25.7848 2.94334 25.7848 2.75C25.7848 2.55667 25.7881 2.39334 25.7948 2.26C25.7948 2.17334 25.7948 2.08 25.7948 1.98C25.7948 1.87334 25.7981 1.77 25.8048 1.67C25.8181 1.56334 25.8381 1.46334 25.8648 1.37C25.8914 1.27 25.9314 1.18 25.9848 1.1C26.0448 1.01334 26.1281 0.950002 26.2348 0.910002C26.3414 0.870002 26.4514 0.850002 26.5648 0.850002C26.6848 0.850002 26.7981 0.873336 26.9048 0.920003C27.0114 0.966669 27.0981 1.03334 27.1648 1.12C27.1981 1.17334 27.2214 1.22667 27.2348 1.28C27.2481 1.33334 27.2581 1.39334 27.2648 1.46C27.2781 1.68 27.2848 1.93 27.2848 2.21C27.2914 2.49 27.2914 2.76334 27.2848 3.03C27.2848 3.29 27.2814 3.53 27.2748 3.75C27.2681 3.97 27.2648 4.13334 27.2648 4.24C27.2648 4.64 27.2848 5.00334 27.3248 5.33C27.3648 5.65 27.4581 5.91667 27.6048 6.13C27.7381 6.32334 27.8948 6.44667 28.0748 6.5C28.2548 6.55334 28.4348 6.57 28.6148 6.55C28.7814 6.53 28.9481 6.47 29.1148 6.37C29.2881 6.26334 29.4248 6.11 29.5248 5.91C29.5648 5.83667 29.5981 5.75334 29.6248 5.66C29.6514 5.56667 29.6714 5.48 29.6848 5.4C29.7114 5.14667 29.7348 4.85334 29.7548 4.52C29.7748 4.18 29.7914 3.83334 29.8048 3.48C29.8181 3.12667 29.8248 2.78 29.8248 2.44C29.8248 2.1 29.8214 1.79334 29.8148 1.52C29.8281 1.4 29.8648 1.29 29.9248 1.19C29.9781 1.10334 30.0548 1.02667 30.1548 0.960002C30.2548 0.893335 30.3914 0.860002 30.5648 0.860002C30.7048 0.866669 30.8181 0.903336 30.9048 0.970003C30.9914 1.03 31.0614 1.09667 31.1148 1.17C31.1748 1.25667 31.2181 1.35667 31.2448 1.47Z" fill="white"/>
<path d="M37.5615 7.24C37.5549 7.35334 37.5382 7.47334 37.5115 7.6C37.4915 7.72667 37.4282 7.83 37.3215 7.91C37.2415 7.97667 37.1515 8.01667 37.0515 8.03C36.9515 8.04334 36.8515 8.03667 36.7515 8.01C36.6582 7.99 36.5682 7.95667 36.4815 7.91C36.3949 7.85667 36.3249 7.79334 36.2715 7.72C36.0449 7.44 35.8349 7.15334 35.6415 6.86C35.4549 6.56 35.2649 6.26 35.0715 5.96L34.2315 4.69C34.1182 4.51 33.9982 4.31 33.8715 4.09C33.7449 3.86334 33.6149 3.65334 33.4815 3.46L33.4515 7.28V7.37C33.4515 7.47667 33.4315 7.58334 33.3915 7.69C33.3582 7.79 33.2982 7.87667 33.2115 7.95C33.1449 8.00334 33.0582 8.04 32.9515 8.06C32.7849 8.09334 32.6449 8.08334 32.5315 8.03C32.4249 7.97667 32.3382 7.90334 32.2715 7.81C32.2115 7.71667 32.1682 7.61 32.1415 7.49C32.1215 7.36334 32.1182 7.24 32.1315 7.12V6.95L32.1515 6.17L32.1615 4.72C32.1682 4.50667 32.1715 4.29 32.1715 4.07C32.1715 3.84334 32.1715 3.61334 32.1715 3.38C32.1649 3.09334 32.1649 2.79 32.1715 2.47C32.1849 2.15 32.1982 1.85 32.2115 1.57C32.2249 1.41667 32.2615 1.28667 32.3215 1.18C32.3482 1.08667 32.4182 1.00667 32.5315 0.940002C32.6049 0.893335 32.6982 0.863335 32.8115 0.850002C32.9315 0.836669 33.0349 0.840002 33.1215 0.860002C33.1549 0.873336 33.1882 0.890002 33.2215 0.910002C33.2549 0.923336 33.2882 0.940002 33.3215 0.960002C33.3549 0.986669 33.3849 1.01334 33.4115 1.04C33.4449 1.06667 33.4749 1.09667 33.5015 1.13C33.5349 1.16334 33.5649 1.2 33.5915 1.24C33.6182 1.27334 33.6449 1.30667 33.6715 1.34C33.6915 1.38 33.7115 1.41667 33.7315 1.45C33.7515 1.48334 33.7749 1.51667 33.8015 1.55L33.9115 1.71L36.2215 5.35V4.69C36.2215 4.47667 36.2182 4.26 36.2115 4.04C36.2115 3.81334 36.2082 3.58 36.2015 3.34C36.2015 3.06 36.2015 2.76 36.2015 2.44C36.2082 2.12 36.2182 1.82 36.2315 1.54C36.2315 1.42667 36.2649 1.29667 36.3315 1.15C36.3649 1.06334 36.4215 0.993336 36.5015 0.940002C36.5815 0.886669 36.6715 0.850002 36.7715 0.830003C36.8715 0.810002 36.9715 0.810002 37.0715 0.830003C37.1715 0.850002 37.2582 0.890002 37.3315 0.950002C37.3515 0.970002 37.3715 0.993336 37.3915 1.02C37.4115 1.04667 37.4282 1.07667 37.4415 1.11C37.4749 1.19667 37.4949 1.27334 37.5015 1.34C37.5215 1.43334 37.5315 1.51667 37.5315 1.59C37.5315 2.42334 37.5315 3.27334 37.5315 4.14C37.5382 5.00667 37.5449 5.85667 37.5515 6.69C37.5515 6.78334 37.5549 6.87667 37.5615 6.97C37.5682 7.05667 37.5682 7.14667 37.5615 7.24Z" fill="white"/>
<path d="M38.4558 6.94L38.4658 6.15L38.4758 4.68C38.4825 4.46667 38.4858 4.24667 38.4858 4.02C38.4858 3.79334 38.4858 3.56 38.4858 3.32C38.4858 3.08 38.4858 2.86667 38.4858 2.68C38.4858 2.49334 38.4925 2.28334 38.5058 2.05V2.01C38.5125 1.94334 38.5158 1.87667 38.5158 1.81C38.5224 1.73667 38.5258 1.66334 38.5258 1.59C38.5325 1.47 38.5691 1.34 38.6358 1.2C38.6824 1.10667 38.7524 1.02667 38.8458 0.960002C38.9524 0.906669 39.0558 0.880002 39.1558 0.880002C39.2091 0.880002 39.2558 0.883336 39.2958 0.890002C39.3424 0.890002 39.3858 0.893336 39.4258 0.900002C39.5124 0.913336 39.5891 0.953336 39.6558 1.02C39.6958 1.05334 39.7324 1.10667 39.7658 1.18C39.7791 1.22 39.7891 1.26 39.7958 1.3C39.8091 1.33334 39.8191 1.37 39.8258 1.41C39.8325 1.45667 39.8358 1.5 39.8358 1.54C39.8424 1.58 39.8458 1.62 39.8458 1.66C39.8458 1.70667 39.8424 1.75 39.8358 1.79C39.8358 1.82334 39.8358 1.86 39.8358 1.9V2.07L39.7758 7.26V7.36C39.7758 7.38 39.7724 7.40667 39.7658 7.44C39.7658 7.46667 39.7625 7.5 39.7558 7.54C39.7425 7.57334 39.7291 7.61 39.7158 7.65C39.7091 7.68334 39.6991 7.72 39.6858 7.76C39.6658 7.79334 39.6425 7.82667 39.6158 7.86C39.5958 7.88667 39.5691 7.91334 39.5358 7.94C39.4824 7.99334 39.3958 8.03 39.2758 8.05C39.0958 8.09 38.9258 8.07334 38.7658 8C38.6858 7.94667 38.6291 7.88 38.5958 7.8C38.5758 7.78 38.5658 7.76 38.5658 7.74C38.5591 7.72667 38.5525 7.71667 38.5458 7.71C38.5391 7.70334 38.5325 7.69334 38.5258 7.68C38.5125 7.64667 38.5024 7.61334 38.4958 7.58C38.4891 7.54 38.4858 7.5 38.4858 7.46C38.4791 7.42667 38.4725 7.39334 38.4658 7.36C38.4658 7.32667 38.4625 7.29334 38.4558 7.26C38.4491 7.20667 38.4491 7.15 38.4558 7.09V6.94Z" fill="white"/>
<path d="M45.8424 1.23C45.9157 1.31667 45.9524 1.40667 45.9524 1.5C45.9524 1.54 45.9491 1.58334 45.9424 1.63C45.9424 1.67 45.9391 1.70667 45.9324 1.74C45.9124 1.81334 45.8691 1.88334 45.8024 1.95C45.7491 1.99 45.6757 2.02 45.5824 2.04C45.5357 2.05334 45.4891 2.06334 45.4424 2.07C45.3957 2.07667 45.3457 2.08667 45.2924 2.1C45.2457 2.10667 45.1991 2.11 45.1524 2.11C45.1057 2.11 45.0557 2.11 45.0024 2.11H44.4924C44.3724 2.11667 44.2524 2.12 44.1324 2.12C44.0191 2.12 43.9057 2.12 43.7924 2.12C43.7991 2.32667 43.8024 2.55 43.8024 2.79C43.8024 3.02334 43.7991 3.29667 43.7924 3.61C43.7924 3.92334 43.7891 4.28667 43.7824 4.7C43.7824 5.11334 43.7824 5.59334 43.7824 6.14V6.9C43.7824 6.96667 43.7857 7.01667 43.7924 7.05C43.7924 7.07667 43.7924 7.10334 43.7924 7.13C43.7924 7.15 43.7891 7.17667 43.7824 7.21C43.7691 7.27 43.7591 7.34 43.7524 7.42C43.7524 7.45334 43.7491 7.48667 43.7424 7.52C43.7357 7.54667 43.7257 7.57667 43.7124 7.61C43.6857 7.63667 43.6724 7.65667 43.6724 7.67L43.6424 7.73C43.6091 7.79667 43.5457 7.86 43.4524 7.92C43.3057 7.99334 43.1424 8.01 42.9624 7.97C42.8491 7.95667 42.7624 7.92667 42.7024 7.88C42.6424 7.82 42.5991 7.76 42.5724 7.7C42.5324 7.62667 42.5091 7.55667 42.5024 7.49C42.4824 7.43 42.4724 7.36667 42.4724 7.3V2.16C42.4324 2.16 42.3491 2.16 42.2224 2.16C42.0957 2.16 41.9591 2.16 41.8124 2.16C41.6724 2.15334 41.5391 2.14667 41.4124 2.14C41.2857 2.13334 41.1991 2.12667 41.1524 2.12C41.1124 2.11334 41.0491 2.10334 40.9624 2.09C40.8824 2.07667 40.8157 2.06334 40.7624 2.05C40.6224 2.01 40.5124 1.94667 40.4324 1.86C40.3591 1.77334 40.3224 1.67667 40.3224 1.57C40.3224 1.53 40.3224 1.49 40.3224 1.45C40.3224 1.41 40.3291 1.37334 40.3424 1.34C40.3624 1.26 40.4157 1.19334 40.5024 1.14C40.5291 1.12 40.5691 1.09667 40.6224 1.07C40.6824 1.03667 40.7391 1.01334 40.7924 1C40.8724 0.973335 40.9724 0.953335 41.0924 0.940002C41.1457 0.933336 41.1991 0.930002 41.2524 0.930002C41.3057 0.930002 41.3624 0.930002 41.4224 0.930002C41.6557 0.930002 41.8757 0.930002 42.0824 0.930002C42.2957 0.930002 42.5191 0.926669 42.7524 0.920003C43.1391 0.913336 43.5224 0.913336 43.9024 0.920003C44.2891 0.920003 44.6724 0.926669 45.0524 0.940002C45.1391 0.946669 45.2224 0.956669 45.3024 0.970003C45.3824 0.983336 45.4624 1.00667 45.5424 1.04C45.6024 1.06 45.6591 1.08667 45.7124 1.12C45.7657 1.14667 45.8091 1.18334 45.8424 1.23Z" fill="white"/>
<path d="M51.9024 1.35C51.9091 1.38334 51.9091 1.41667 51.9024 1.45C51.9024 1.48334 51.8924 1.52 51.8724 1.56C51.8458 1.65334 51.8158 1.73667 51.7824 1.81C51.7424 1.90334 51.6924 1.98334 51.6324 2.05C51.6058 2.09 51.5791 2.13 51.5524 2.17C51.5324 2.20334 51.5124 2.23667 51.4924 2.27L51.3624 2.44L50.0824 4.29L49.8524 4.58V7.24C49.8391 7.27334 49.8324 7.30667 49.8324 7.34C49.8324 7.37334 49.8291 7.41 49.8224 7.45C49.8091 7.48334 49.7991 7.51667 49.7924 7.55C49.7858 7.57667 49.7758 7.60667 49.7624 7.64C49.7491 7.66667 49.7424 7.68667 49.7424 7.7C49.7358 7.71334 49.7291 7.72334 49.7224 7.73C49.7224 7.73667 49.7191 7.74667 49.7124 7.76C49.6724 7.82667 49.6158 7.88667 49.5424 7.94C49.3958 8.01334 49.2291 8.03 49.0424 7.99C48.9358 7.97667 48.8558 7.94334 48.8024 7.89C48.7691 7.87 48.7424 7.84667 48.7224 7.82C48.7024 7.79334 48.6824 7.76334 48.6624 7.73C48.6491 7.69 48.6358 7.65334 48.6224 7.62C48.6091 7.58667 48.5991 7.55334 48.5924 7.52C48.5791 7.48667 48.5724 7.45667 48.5724 7.43C48.5724 7.39667 48.5724 7.36667 48.5724 7.34V4.61L48.3524 4.27L47.0524 2.43L46.9424 2.25C46.9024 2.19 46.8524 2.12 46.7924 2.04C46.7391 1.96667 46.6924 1.88667 46.6524 1.8C46.6258 1.76 46.6024 1.72 46.5824 1.68C46.5691 1.63334 46.5558 1.58667 46.5424 1.54C46.5224 1.47334 46.5191 1.40667 46.5324 1.34C46.5524 1.25334 46.5924 1.18 46.6524 1.12C46.7191 1.06 46.7891 1.01334 46.8624 0.980002C46.9558 0.913336 47.0624 0.886669 47.1824 0.900002C47.2558 0.900002 47.3191 0.913336 47.3724 0.940002C47.4258 0.966669 47.4791 0.996669 47.5324 1.03C47.5924 1.07667 47.6491 1.12667 47.7024 1.18C47.7624 1.23334 47.8158 1.29 47.8624 1.35C47.9158 1.41667 47.9658 1.48 48.0124 1.54C48.0591 1.59334 48.1058 1.65667 48.1524 1.73L48.1824 1.77C48.3424 1.98334 48.4924 2.19 48.6324 2.39C48.7724 2.58334 48.9191 2.79334 49.0724 3.02C49.0858 3.03334 49.1058 3.06 49.1324 3.1C49.1591 3.14 49.1891 3.18667 49.2224 3.24C49.2491 3.19334 49.2724 3.15334 49.2924 3.12C49.3191 3.08 49.3391 3.05334 49.3524 3.04C49.5058 2.81334 49.6524 2.6 49.7924 2.4C49.9324 2.2 50.0824 1.99334 50.2424 1.78L50.2624 1.74C50.3158 1.68 50.3624 1.62 50.4024 1.56C50.4491 1.49334 50.4991 1.42667 50.5524 1.36C50.6391 1.24 50.7558 1.13667 50.9024 1.05C51.0091 0.976669 51.1191 0.930002 51.2324 0.910002C51.3591 0.896669 51.4691 0.923336 51.5624 0.990002C51.6024 1.01667 51.6391 1.04 51.6724 1.06C51.7124 1.08 51.7458 1.10334 51.7724 1.13C51.8258 1.19 51.8691 1.26334 51.9024 1.35Z" fill="white"/>
</svg>
