<svg width="32" height="9" viewBox="0 0 32 9" fill="none" xmlns="http://www.w3.org/2000/svg">
<path d="M4.95158 1.55003C5.20492 1.78337 5.39158 2.06337 5.51158 2.39003C5.63158 2.71003 5.67825 3.03003 5.65158 3.35003C5.62492 3.6567 5.52825 3.94003 5.36158 4.20003C5.19492 4.45337 4.94158 4.6467 4.60158 4.78003C4.33492 4.89337 4.07158 4.97337 3.81158 5.02003C3.55158 5.0667 3.26492 5.10337 2.95158 5.13003C2.81158 5.14337 2.69158 5.15337 2.59158 5.16003C2.49825 5.16003 2.38825 5.16337 2.26158 5.17003C2.23492 5.17003 2.18825 5.17003 2.12158 5.17003C2.06158 5.17003 2.01825 5.17337 1.99158 5.18003V7.25003C1.97158 7.3767 1.94492 7.5067 1.91158 7.64003C1.88492 7.77337 1.80825 7.8767 1.68158 7.95003C1.60825 7.99003 1.51825 8.01337 1.41158 8.02003C1.30492 8.0267 1.20825 8.02337 1.12158 8.01003C1.02825 7.9967 0.948249 7.97337 0.881582 7.94003C0.821582 7.90003 0.771582 7.83337 0.731582 7.74003C0.704915 7.68003 0.678249 7.61337 0.651582 7.54003C0.631582 7.46003 0.621582 7.36337 0.621582 7.25003V1.72003C0.621582 1.67337 0.624915 1.63003 0.631582 1.59003C0.638249 1.55003 0.644915 1.51003 0.651582 1.47003C0.664915 1.4367 0.674915 1.40003 0.681582 1.36003C0.688249 1.32003 0.698249 1.28337 0.711582 1.25003C0.724915 1.2167 0.738249 1.1867 0.751582 1.16003C0.771582 1.13337 0.794915 1.11003 0.821582 1.09003C0.854915 1.0567 0.904915 1.0267 0.971582 1.00003C1.04492 0.973367 1.15158 0.960033 1.29158 0.960033H1.31158C1.51825 0.9467 1.74825 0.9367 2.00158 0.930034C2.25492 0.9167 2.46492 0.920034 2.63158 0.940034C2.72492 0.953367 2.81158 0.963367 2.89158 0.970034C2.97158 0.970034 3.04825 0.973367 3.12158 0.980034C3.20158 0.9867 3.28158 0.993367 3.36158 1.00003C3.44158 1.0067 3.52158 1.0167 3.60158 1.03003C3.66825 1.04337 3.72825 1.05337 3.78158 1.06003C3.84158 1.0667 3.90158 1.0767 3.96158 1.09003C4.01492 1.10337 4.07158 1.1167 4.13158 1.13003C4.19825 1.14337 4.25825 1.1667 4.31158 1.20003C4.45158 1.24003 4.56825 1.29003 4.66158 1.35003C4.75492 1.41003 4.85158 1.4767 4.95158 1.55003ZM4.35158 3.20003C4.35825 3.04003 4.32492 2.90003 4.25158 2.78003C4.18492 2.66003 4.08825 2.56003 3.96158 2.48003C3.83492 2.40003 3.69158 2.3367 3.53158 2.29003C3.37158 2.24337 3.21158 2.21003 3.05158 2.19003C3.01158 2.19003 2.95492 2.19003 2.88158 2.19003C2.81492 2.18337 2.74158 2.18003 2.66158 2.18003C2.58158 2.17337 2.50492 2.17003 2.43158 2.17003C2.36492 2.16337 2.31158 2.16003 2.27158 2.16003C2.23825 2.15337 2.19825 2.15003 2.15158 2.15003C2.10492 2.15003 2.05158 2.15003 1.99158 2.15003C1.99825 2.3567 2.00158 2.5567 2.00158 2.75003C2.00158 2.9367 2.00158 3.14003 2.00158 3.36003C1.99492 3.48003 1.99158 3.60003 1.99158 3.72003C1.99158 3.84003 1.99158 3.9567 1.99158 4.07003L2.61158 4.06003C2.77158 4.06003 2.94825 4.05003 3.14158 4.03003C3.33492 4.01003 3.51825 3.97003 3.69158 3.91003C3.86492 3.85003 4.01158 3.76337 4.13158 3.65003C4.25825 3.5367 4.33158 3.3867 4.35158 3.20003Z" fill="white"/>
<path d="M8.01545 1.16003C8.46211 0.993367 8.86545 0.920034 9.22545 0.940034C9.59211 0.960034 9.91878 1.05337 10.2054 1.22003C10.4921 1.38003 10.7354 1.5967 10.9354 1.87003C11.1421 2.14337 11.3088 2.45003 11.4354 2.79003C11.5354 3.04337 11.6121 3.31003 11.6654 3.59003C11.7188 3.87003 11.7488 4.15003 11.7554 4.43003C11.7688 4.70337 11.7588 4.97337 11.7254 5.24003C11.6988 5.5067 11.6521 5.75337 11.5854 5.98003C11.5454 6.13337 11.4988 6.27337 11.4454 6.40003C11.3921 6.5267 11.3288 6.65337 11.2554 6.78003C11.0888 7.0667 10.8721 7.30003 10.6054 7.48003C10.3454 7.66003 10.0588 7.7867 9.74545 7.86003C9.53211 7.91337 9.31211 7.94003 9.08545 7.94003C8.85878 7.93337 8.63545 7.90337 8.41545 7.85003C8.19545 7.79003 7.98211 7.7067 7.77545 7.60003C7.57545 7.4867 7.39211 7.3467 7.22545 7.18003C7.01878 6.98003 6.84878 6.75003 6.71545 6.49003C6.58211 6.22337 6.47878 5.9467 6.40545 5.66003C6.33211 5.3667 6.28545 5.07337 6.26545 4.78003C6.24545 4.4867 6.24545 4.2067 6.26545 3.94003C6.28545 3.69337 6.33211 3.43003 6.40545 3.15003C6.48545 2.87003 6.59878 2.60003 6.74545 2.34003C6.89211 2.08003 7.06878 1.8467 7.27545 1.64003C7.48878 1.4267 7.73545 1.2667 8.01545 1.16003ZM10.3554 5.44003C10.4354 5.1267 10.4688 4.77337 10.4554 4.38003C10.4421 3.9867 10.3788 3.6167 10.2654 3.27003C10.1921 3.0567 10.0988 2.87003 9.98545 2.71003C9.87878 2.54337 9.74878 2.4167 9.59545 2.33003C9.44878 2.24337 9.27545 2.20003 9.07545 2.20003C8.87545 2.20003 8.65211 2.26003 8.40545 2.38003C8.25878 2.45337 8.13211 2.55337 8.02545 2.68003C7.92545 2.8067 7.84211 2.95003 7.77545 3.11003C7.71545 3.27003 7.66545 3.4367 7.62545 3.61003C7.59211 3.78337 7.57211 3.95003 7.56545 4.11003C7.55211 4.28337 7.54878 4.4667 7.55545 4.66003C7.56211 4.8467 7.58211 5.0367 7.61545 5.23003C7.65545 5.4167 7.70878 5.5967 7.77545 5.77003C7.84211 5.9367 7.93211 6.0867 8.04545 6.22003C8.21878 6.42003 8.41878 6.56003 8.64545 6.64003C8.87878 6.71337 9.10878 6.72337 9.33545 6.67003C9.70211 6.59003 9.98211 6.3467 10.1754 5.94003C10.2554 5.79337 10.3154 5.6267 10.3554 5.44003Z" fill="white"/>
<path d="M17.1631 7.24003C17.1765 7.27337 17.1831 7.32337 17.1831 7.39003C17.1831 7.45003 17.1831 7.50003 17.1831 7.54003C17.1831 7.59337 17.1731 7.64337 17.1531 7.69003C17.1331 7.7367 17.1065 7.78003 17.0731 7.82003C17.0131 7.90003 16.9265 7.96003 16.8131 8.00003C16.6531 8.05337 16.5031 8.08003 16.3631 8.08003C16.2898 8.0867 16.2131 8.09003 16.1331 8.09003C16.0531 8.09003 15.9731 8.0967 15.8931 8.11003H15.8531C15.3398 8.1167 14.8098 8.1167 14.2631 8.11003C14.1298 8.10337 13.9798 8.10337 13.8131 8.11003C13.6465 8.12337 13.4831 8.12003 13.3231 8.10003C13.1631 8.0867 13.0165 8.05003 12.8831 7.99003C12.7565 7.92337 12.6665 7.82003 12.6131 7.68003C12.5998 7.6467 12.5898 7.6167 12.5831 7.59003C12.5765 7.5567 12.5731 7.52337 12.5731 7.49003C12.5465 7.26337 12.5365 7.04003 12.5431 6.82003C12.5498 6.60003 12.5531 6.38337 12.5531 6.17003L12.5731 4.72003V3.38003C12.5731 3.14003 12.5731 2.9267 12.5731 2.74003C12.5798 2.55337 12.5865 2.3467 12.5931 2.12003V2.07003C12.5998 2.00337 12.6031 1.9367 12.6031 1.87003C12.6098 1.80337 12.6131 1.7367 12.6131 1.67003C12.6265 1.5167 12.6631 1.3867 12.7231 1.28003C12.7631 1.18003 12.8331 1.10003 12.9331 1.04003C13.0198 0.980034 13.1231 0.950034 13.2431 0.950034C13.2898 0.950034 13.3331 0.953367 13.3731 0.960033C13.4198 0.960033 13.4631 0.963367 13.5031 0.970034C13.5431 0.9767 13.5798 0.990034 13.6131 1.01003C13.6531 1.03003 13.6931 1.0567 13.7331 1.09003C13.7731 1.1367 13.8098 1.19337 13.8431 1.26003C13.8698 1.33337 13.8865 1.4067 13.8931 1.48003C13.8998 1.5267 13.9065 1.57003 13.9131 1.61003C13.9198 1.65003 13.9231 1.69003 13.9231 1.73003C13.9098 1.77003 13.9031 1.81003 13.9031 1.85003C13.9031 1.89003 13.9031 1.9267 13.9031 1.96003V2.14003L13.8631 6.85003L15.8431 6.87003H16.3131C16.3531 6.87003 16.3965 6.87337 16.4431 6.88003C16.4898 6.88003 16.5365 6.88337 16.5831 6.89003C16.6365 6.8967 16.6831 6.90337 16.7231 6.91003C16.7631 6.9167 16.8031 6.9267 16.8431 6.94003C16.9165 6.96003 16.9765 6.99337 17.0231 7.04003C17.0965 7.1067 17.1431 7.17337 17.1631 7.24003Z" fill="white"/>
<path d="M18.0668 6.94003L18.0768 6.15003L18.0868 4.68003C18.0935 4.4667 18.0968 4.2467 18.0968 4.02003C18.0968 3.79337 18.0968 3.56003 18.0968 3.32003C18.0968 3.08003 18.0968 2.8667 18.0968 2.68003C18.0968 2.49337 18.1035 2.28337 18.1168 2.05003V2.01003C18.1235 1.94337 18.1268 1.8767 18.1268 1.81003C18.1335 1.7367 18.1368 1.66337 18.1368 1.59003C18.1435 1.47003 18.1802 1.34003 18.2468 1.20003C18.2935 1.1067 18.3635 1.0267 18.4568 0.960033C18.5635 0.9067 18.6668 0.880034 18.7668 0.880034C18.8202 0.880034 18.8668 0.883367 18.9068 0.890034C18.9535 0.890034 18.9968 0.893367 19.0368 0.900034C19.1235 0.913367 19.2002 0.953367 19.2668 1.02003C19.3068 1.05337 19.3435 1.1067 19.3768 1.18003C19.3902 1.22003 19.4002 1.26003 19.4068 1.30003C19.4202 1.33337 19.4302 1.37003 19.4368 1.41003C19.4435 1.4567 19.4468 1.50003 19.4468 1.54003C19.4535 1.58003 19.4568 1.62003 19.4568 1.66003C19.4568 1.7067 19.4535 1.75003 19.4468 1.79003C19.4468 1.82337 19.4468 1.86003 19.4468 1.90003V2.07003L19.3868 7.26003V7.36003C19.3868 7.38003 19.3835 7.4067 19.3768 7.44003C19.3768 7.4667 19.3735 7.50003 19.3668 7.54003C19.3535 7.57337 19.3402 7.61003 19.3268 7.65003C19.3202 7.68337 19.3102 7.72003 19.2968 7.76003C19.2768 7.79337 19.2535 7.8267 19.2268 7.86003C19.2068 7.8867 19.1802 7.91337 19.1468 7.94003C19.0935 7.99337 19.0068 8.03003 18.8868 8.05003C18.7068 8.09003 18.5368 8.07337 18.3768 8.00003C18.2968 7.9467 18.2402 7.88003 18.2068 7.80003C18.1868 7.78003 18.1768 7.76003 18.1768 7.74003C18.1702 7.7267 18.1635 7.7167 18.1568 7.71003C18.1502 7.70337 18.1435 7.69337 18.1368 7.68003C18.1235 7.6467 18.1135 7.61337 18.1068 7.58003C18.1002 7.54003 18.0968 7.50003 18.0968 7.46003C18.0902 7.4267 18.0835 7.39337 18.0768 7.36003C18.0768 7.3267 18.0735 7.29337 18.0668 7.26003C18.0602 7.2067 18.0602 7.15003 18.0668 7.09003V6.94003Z" fill="white"/>
<path d="M25.6438 6.32003C25.7305 6.51337 25.7338 6.70337 25.6538 6.89003C25.5738 7.07003 25.4472 7.2367 25.2738 7.39003C25.1005 7.54337 24.9005 7.6767 24.6738 7.79003C24.4538 7.90337 24.2438 7.98337 24.0438 8.03003C23.8238 8.0767 23.5905 8.0967 23.3438 8.09003C23.1038 8.09003 22.8605 8.06003 22.6138 8.00003C22.3738 7.9467 22.1372 7.8667 21.9038 7.76003C21.6772 7.6467 21.4672 7.51003 21.2738 7.35003C21.0405 7.1567 20.8572 6.9267 20.7238 6.66003C20.5972 6.3867 20.5038 6.0967 20.4438 5.79003C20.3838 5.48337 20.3505 5.1767 20.3438 4.87003C20.3438 4.5567 20.3538 4.26337 20.3738 3.99003C20.3938 3.74337 20.4438 3.4867 20.5238 3.22003C20.6038 2.95337 20.7138 2.69337 20.8538 2.44003C21.0005 2.18003 21.1738 1.94003 21.3738 1.72003C21.5805 1.50003 21.8205 1.31337 22.0938 1.16003C22.3005 1.04003 22.5305 0.960034 22.7838 0.920034C23.0438 0.873367 23.3038 0.863367 23.5638 0.890034C23.8305 0.910034 24.0805 0.966701 24.3138 1.06003C24.5538 1.1467 24.7572 1.2667 24.9238 1.42003C25.0305 1.51337 25.1405 1.64337 25.2538 1.81003C25.3738 1.9767 25.4605 2.1467 25.5138 2.32003C25.5672 2.49337 25.5672 2.6567 25.5138 2.81003C25.4672 2.9567 25.3338 3.0567 25.1138 3.11003C25.0205 3.1367 24.9372 3.14337 24.8638 3.13003C24.7905 3.11003 24.7238 3.08003 24.6638 3.04003C24.6038 2.99337 24.5472 2.94003 24.4938 2.88003C24.4405 2.82003 24.3905 2.76003 24.3438 2.70003C24.1838 2.5067 23.9972 2.3767 23.7838 2.31003C23.5705 2.2367 23.3572 2.22003 23.1438 2.26003C22.9372 2.29337 22.7405 2.38003 22.5538 2.52003C22.3738 2.65337 22.2338 2.8267 22.1338 3.04003C22.0272 3.2667 21.9405 3.5167 21.8738 3.79003C21.8138 4.0567 21.7805 4.33003 21.7738 4.61003C21.7672 4.88337 21.7905 5.15003 21.8438 5.41003C21.9038 5.67003 22.0038 5.90003 22.1438 6.10003C22.2505 6.26003 22.3805 6.39003 22.5338 6.49003C22.6938 6.59003 22.8638 6.66003 23.0438 6.70003C23.2238 6.74003 23.4038 6.7467 23.5838 6.72003C23.7705 6.69337 23.9505 6.63337 24.1238 6.54003C24.1772 6.51337 24.2338 6.4767 24.2938 6.43003C24.3605 6.3767 24.4272 6.32337 24.4938 6.27003C24.5605 6.2167 24.6272 6.1667 24.6938 6.12003C24.7672 6.07337 24.8438 6.04003 24.9238 6.02003C25.0438 5.98003 25.1738 5.98337 25.3138 6.03003C25.4605 6.0767 25.5705 6.17337 25.6438 6.32003Z" fill="white"/>
<path d="M31.367 1.35003C31.3737 1.38337 31.3737 1.4167 31.367 1.45003C31.367 1.48337 31.357 1.52003 31.337 1.56003C31.3103 1.65337 31.2803 1.7367 31.247 1.81003C31.207 1.90337 31.157 1.98337 31.097 2.05003C31.0703 2.09003 31.0437 2.13003 31.017 2.17003C30.997 2.20337 30.977 2.2367 30.957 2.27003L30.827 2.44003L29.547 4.29003L29.317 4.58003V7.24003C29.3037 7.27337 29.297 7.3067 29.297 7.34003C29.297 7.37337 29.2937 7.41003 29.287 7.45003C29.2737 7.48337 29.2637 7.5167 29.257 7.55003C29.2503 7.5767 29.2403 7.6067 29.227 7.64003C29.2137 7.6667 29.207 7.6867 29.207 7.70003C29.2003 7.71337 29.1937 7.72337 29.187 7.73003C29.187 7.7367 29.1837 7.7467 29.177 7.76003C29.137 7.8267 29.0803 7.8867 29.007 7.94003C28.8603 8.01337 28.6937 8.03003 28.507 7.99003C28.4003 7.9767 28.3203 7.94337 28.267 7.89003C28.2337 7.87003 28.207 7.8467 28.187 7.82003C28.167 7.79337 28.147 7.76337 28.127 7.73003C28.1137 7.69003 28.1003 7.65337 28.087 7.62003C28.0737 7.5867 28.0637 7.55337 28.057 7.52003C28.0437 7.4867 28.037 7.4567 28.037 7.43003C28.037 7.3967 28.037 7.3667 28.037 7.34003V4.61003L27.817 4.27003L26.517 2.43003L26.407 2.25003C26.367 2.19003 26.317 2.12003 26.257 2.04003C26.2037 1.9667 26.157 1.8867 26.117 1.80003C26.0903 1.76003 26.067 1.72003 26.047 1.68003C26.0337 1.63337 26.0203 1.5867 26.007 1.54003C25.987 1.47337 25.9837 1.4067 25.997 1.34003C26.017 1.25337 26.057 1.18003 26.117 1.12003C26.1837 1.06003 26.2537 1.01337 26.327 0.980034C26.4203 0.913367 26.527 0.8867 26.647 0.900034C26.7203 0.900034 26.7837 0.913367 26.837 0.940034C26.8903 0.9667 26.9437 0.9967 26.997 1.03003C27.057 1.0767 27.1137 1.1267 27.167 1.18003C27.227 1.23337 27.2803 1.29003 27.327 1.35003C27.3803 1.4167 27.4303 1.48003 27.477 1.54003C27.5237 1.59337 27.5703 1.6567 27.617 1.73003L27.647 1.77003C27.807 1.98337 27.957 2.19003 28.097 2.39003C28.237 2.58337 28.3837 2.79337 28.537 3.02003C28.5503 3.03337 28.5703 3.06003 28.597 3.10003C28.6237 3.14003 28.6537 3.1867 28.687 3.24003C28.7137 3.19337 28.737 3.15337 28.757 3.12003C28.7837 3.08003 28.8037 3.05337 28.817 3.04003C28.9703 2.81337 29.117 2.60003 29.257 2.40003C29.397 2.20003 29.547 1.99337 29.707 1.78003L29.727 1.74003C29.7803 1.68003 29.827 1.62003 29.867 1.56003C29.9137 1.49337 29.9637 1.4267 30.017 1.36003C30.1037 1.24003 30.2203 1.1367 30.367 1.05003C30.4737 0.9767 30.5837 0.930034 30.697 0.910033C30.8237 0.8967 30.9337 0.923367 31.027 0.990034C31.067 1.0167 31.1037 1.04003 31.137 1.06003C31.177 1.08003 31.2103 1.10337 31.237 1.13003C31.2903 1.19003 31.3337 1.26337 31.367 1.35003Z" fill="white"/>
</svg>
