<svg width="96" height="17" viewBox="0 0 96 17" fill="none" xmlns="http://www.w3.org/2000/svg">
<path d="M12.7208 5.25402C12.7448 5.38602 12.7628 5.51202 12.7748 5.63202C12.7988 5.75202 12.7988 5.88402 12.7748 6.02802C12.7748 6.16002 12.7688 6.28602 12.7568 6.40602C12.7568 6.51402 12.7448 6.63402 12.7208 6.76602C12.6608 7.22202 12.5168 7.63002 12.2888 7.99002C12.0728 8.35002 11.7428 8.65602 11.2988 8.90802C10.8908 9.14802 10.3988 9.33402 9.82284 9.46602C9.24684 9.59802 8.59884 9.66402 7.87884 9.66402H6.65484C6.42684 9.66402 6.19884 9.66402 5.97084 9.66402C5.75484 9.66402 5.53284 9.65202 5.30484 9.62802C5.06484 9.61602 4.83084 9.59202 4.60284 9.55602C4.38684 9.52002 4.17084 9.47802 3.95484 9.43002C3.75084 9.39402 3.55284 9.34602 3.36084 9.28602C3.16884 9.21402 2.98284 9.13002 2.80284 9.03402C2.49084 8.83002 2.22084 8.62002 1.99284 8.40402C1.77684 8.17602 1.61484 7.91802 1.50684 7.63002C1.37484 7.35402 1.27884 7.07202 1.21884 6.78402C1.15884 6.49602 1.12884 6.19002 1.12884 5.86602C1.12884 5.55402 1.15884 5.26002 1.21884 4.98402C1.27884 4.70802 1.37484 4.46202 1.50684 4.24602C1.63884 4.00602 1.81284 3.78402 2.02884 3.58002C2.24484 3.36402 2.49684 3.16002 2.78484 2.96802C2.91684 2.87202 3.06084 2.79402 3.21684 2.73402C3.38484 2.67402 3.57684 2.61402 3.79284 2.55402C4.18884 2.44602 4.62684 2.34402 5.10684 2.24802C5.34684 2.20002 5.57484 2.17002 5.79084 2.15802C6.01884 2.13402 6.24684 2.11602 6.47484 2.10402C6.90684 2.06802 7.27884 2.06802 7.59084 2.10402C7.87884 2.11602 8.13684 2.13402 8.36484 2.15802C8.60484 2.17002 8.84484 2.20002 9.08484 2.24802C9.28884 2.29602 9.51084 2.35602 9.75084 2.42802C10.0028 2.48802 10.2488 2.56602 10.4888 2.66202C10.5968 2.71002 10.7108 2.76402 10.8308 2.82402C10.9508 2.88402 11.0768 2.95602 11.2088 3.04002C11.5448 3.24402 11.7788 3.43602 11.9108 3.61602C12.0188 3.76002 12.1148 3.90402 12.1988 4.04802C12.2948 4.18002 12.3728 4.31202 12.4328 4.44402C12.5048 4.56402 12.5648 4.69602 12.6128 4.84002C12.6608 4.98402 12.6968 5.12202 12.7208 5.25402ZM1.86684 13.066C1.59084 13.066 1.32684 13.024 1.07484 12.94C0.834837 12.916 0.642837 12.772 0.498837 12.508C0.414837 12.412 0.354837 12.31 0.318837 12.202C0.294837 12.094 0.282837 11.986 0.282837 11.878C0.282837 11.638 0.378837 11.422 0.570837 11.23C0.606837 11.194 0.654837 11.158 0.714837 11.122C0.774837 11.086 0.846837 11.062 0.930837 11.05C0.990837 11.002 1.05084 10.978 1.11084 10.978C1.18284 10.966 1.26084 10.948 1.34484 10.924C1.40484 10.9 1.45884 10.888 1.50684 10.888C1.55484 10.888 1.60884 10.888 1.66884 10.888H12.3248C12.4448 10.888 12.5468 10.9 12.6308 10.924C12.7268 10.936 12.8288 10.96 12.9368 10.996C13.1288 11.068 13.2908 11.182 13.4228 11.338C13.4948 11.422 13.5368 11.512 13.5488 11.608C13.5728 11.692 13.5848 11.8 13.5848 11.932C13.5848 12.268 13.4888 12.49 13.2968 12.598C13.2008 12.694 13.0868 12.772 12.9548 12.832C12.8348 12.88 12.7088 12.916 12.5768 12.94C12.3248 13.024 12.0368 13.066 11.7128 13.066H8.18484C8.19684 13.114 8.20284 13.18 8.20284 13.264V14.812C8.20284 14.92 8.20284 15.022 8.20284 15.118C8.20284 15.214 8.19084 15.292 8.16684 15.352C8.14284 15.484 8.11884 15.604 8.09484 15.712C8.07084 15.82 8.02884 15.934 7.96884 16.054C7.88484 16.258 7.74084 16.438 7.53684 16.594C7.44084 16.654 7.33884 16.69 7.23084 16.702C7.13484 16.726 7.02684 16.744 6.90684 16.756C6.77484 16.756 6.65484 16.744 6.54684 16.72C6.45084 16.696 6.35484 16.666 6.25884 16.63C6.09084 16.522 5.96484 16.384 5.88084 16.216C5.84484 16.12 5.81484 16.024 5.79084 15.928C5.77884 15.832 5.76684 15.748 5.75484 15.676C5.75484 15.604 5.74884 15.526 5.73684 15.442C5.72484 15.358 5.71884 15.286 5.71884 15.226C5.74284 15.154 5.75484 15.082 5.75484 15.01C5.75484 14.926 5.75484 14.86 5.75484 14.812C5.73084 14.668 5.71884 14.476 5.71884 14.236C5.71884 13.984 5.71884 13.768 5.71884 13.588V13.066H1.86684ZM10.4348 6.19002C10.4348 5.91402 10.3868 5.68002 10.2908 5.48802C10.2308 5.36802 10.1528 5.26002 10.0568 5.16402C9.97284 5.06802 9.86484 4.98402 9.73284 4.91202C9.60084 4.81602 9.43284 4.75002 9.22884 4.71402C9.02484 4.66602 8.81484 4.64202 8.59884 4.64202C8.23884 4.59402 7.78884 4.55802 7.24884 4.53402C6.98484 4.51002 6.72684 4.50402 6.47484 4.51602C6.22284 4.52802 5.97084 4.54002 5.71884 4.55202C5.46684 4.57602 5.22684 4.61202 4.99884 4.66002C4.78284 4.70802 4.57884 4.78602 4.38684 4.89402C3.97884 5.05002 3.74484 5.32002 3.68484 5.70402C3.62484 5.95602 3.62484 6.16602 3.68484 6.33402C3.70884 6.45402 3.74484 6.56202 3.79284 6.65802C3.84084 6.75402 3.91884 6.84402 4.02684 6.92802C4.18284 7.08402 4.41084 7.21002 4.71084 7.30602C4.97484 7.45002 5.35284 7.52202 5.84484 7.52202C6.02484 7.54602 6.20484 7.56402 6.38484 7.57602C6.57684 7.58802 6.78684 7.60602 7.01484 7.63002H8.31084C8.74284 7.58202 9.13884 7.52202 9.49884 7.45002C9.87084 7.29402 10.1348 7.12002 10.2908 6.92802C10.3388 6.79602 10.3688 6.67602 10.3808 6.56802C10.3928 6.44802 10.4108 6.32202 10.4348 6.19002Z" fill="#EA7171"/>
<path d="M26.5142 15.298C26.7062 15.322 26.8742 15.37 27.0182 15.442C27.1622 15.514 27.2642 15.646 27.3242 15.838C27.4682 16.27 27.3122 16.576 26.8562 16.756C26.7122 16.816 26.5682 16.852 26.4242 16.864C26.2802 16.876 26.1422 16.882 26.0102 16.882H17.6402C17.4002 16.882 17.1482 16.876 16.8842 16.864C16.6322 16.864 16.3742 16.858 16.1102 16.846C15.8582 16.834 15.6482 16.744 15.4802 16.576C15.3122 16.408 15.2162 16.186 15.1922 15.91L15.1382 14.65C15.1262 14.518 15.1262 14.362 15.1382 14.182C15.1502 14.002 15.2102 13.852 15.3182 13.732C15.4862 13.552 15.7082 13.438 15.9842 13.39C16.2722 13.342 16.5482 13.318 16.8122 13.318C16.9802 13.318 17.2562 13.318 17.6402 13.318C18.0362 13.318 18.5702 13.324 19.2422 13.336C19.9142 13.336 20.7422 13.336 21.7262 13.336C22.7222 13.336 23.9042 13.336 25.2722 13.336V12.688H16.4162C16.2962 12.688 16.1882 12.688 16.0922 12.688C15.9962 12.688 15.9002 12.676 15.8042 12.652C15.6962 12.628 15.6002 12.604 15.5162 12.58C15.4322 12.556 15.3602 12.496 15.3002 12.4C15.1322 12.148 15.0902 11.89 15.1742 11.626C15.2102 11.53 15.2642 11.458 15.3362 11.41C15.4082 11.35 15.4922 11.302 15.5882 11.266C15.6842 11.23 15.7742 11.206 15.8582 11.194C15.9542 11.182 16.0382 11.17 16.1102 11.158C16.2902 11.122 16.4762 11.104 16.6682 11.104C16.8362 11.104 17.0162 11.104 17.2082 11.104C17.4122 11.104 17.6522 11.11 17.9282 11.122C18.2042 11.122 18.5222 11.122 18.8822 11.122C19.2542 11.122 19.6862 11.122 20.1782 11.122C20.1782 10.954 20.1842 10.792 20.1962 10.636C20.2082 10.468 20.2142 10.288 20.2142 10.096C19.9382 10.096 19.6922 10.096 19.4762 10.096C19.2722 10.096 19.0682 10.096 18.8642 10.096C18.6722 10.096 18.4742 10.096 18.2702 10.096C18.0662 10.084 17.8382 10.072 17.5862 10.06C17.4782 10.06 17.3222 10.054 17.1182 10.042C16.9142 10.03 16.6982 10.024 16.4702 10.024C16.2422 10.012 16.0262 10.006 15.8222 10.006C15.6302 9.99402 15.4922 9.98802 15.4082 9.98802C15.2162 9.96402 15.0602 9.94002 14.9402 9.91602C14.8322 9.89202 14.7002 9.80802 14.5442 9.66402C14.4602 9.59202 14.4002 9.52002 14.3642 9.44802C14.3282 9.36402 14.3102 9.25602 14.3102 9.12402C14.3102 8.86002 14.3882 8.65002 14.5442 8.49402C14.6282 8.39802 14.7422 8.32602 14.8862 8.27802C15.0302 8.23002 15.1682 8.20002 15.3002 8.18802C15.4322 8.16402 15.5462 8.15202 15.6422 8.15202C15.7502 8.15202 15.8102 8.15202 15.8222 8.15202H26.1182C26.2982 8.15202 26.4782 8.15202 26.6582 8.15202C26.8382 8.15202 27.0122 8.15802 27.1802 8.17002C27.3482 8.18202 27.5102 8.20602 27.6662 8.24202C27.8342 8.26602 27.9842 8.33802 28.1162 8.45802C28.2482 8.55402 28.3202 8.66802 28.3322 8.80002C28.3562 8.92002 28.3682 9.05202 28.3682 9.19602C28.3682 9.37602 28.3142 9.51402 28.2062 9.61002C28.1102 9.70602 27.9722 9.78402 27.7922 9.84402C27.5522 9.94002 27.2822 9.99402 26.9822 10.006C26.6942 10.006 26.4302 10.012 26.1902 10.024C25.5902 10.048 25.0082 10.066 24.4442 10.078C23.8922 10.09 23.3102 10.096 22.6982 10.096C22.7102 10.264 22.7102 10.438 22.6982 10.618C22.6862 10.786 22.6802 10.954 22.6802 11.122H25.4522C26.0642 11.122 26.5322 11.218 26.8562 11.41C27.1802 11.59 27.3422 11.89 27.3422 12.31V13.588C27.3422 13.756 27.3002 13.924 27.2162 14.092C27.1442 14.248 27.0122 14.38 26.8202 14.488C26.6642 14.584 26.5082 14.638 26.3522 14.65C26.1962 14.65 26.0402 14.65 25.8842 14.65H17.3522V15.298H26.5142ZM15.2102 4.69602C15.2102 4.20402 15.3482 3.79602 15.6242 3.47202C15.9122 3.14802 16.3142 2.89602 16.8302 2.71602C17.3582 2.52402 18.0002 2.39202 18.7562 2.32002C19.5122 2.23602 20.3702 2.19402 21.3302 2.19402C22.2422 2.19402 23.0762 2.22402 23.8322 2.28402C24.5882 2.33202 25.2362 2.44602 25.7762 2.62602C26.3162 2.80602 26.7302 3.06402 27.0182 3.40002C27.3182 3.72402 27.4682 4.15602 27.4682 4.69602C27.4682 5.23602 27.3422 5.67402 27.0902 6.01002C26.8382 6.33402 26.4542 6.58602 25.9382 6.76602C25.4222 6.93402 24.7802 7.04802 24.0122 7.10802C23.2442 7.16802 22.3502 7.19802 21.3302 7.19802C20.4782 7.19802 19.6802 7.16802 18.9362 7.10802C18.2042 7.04802 17.5562 6.93402 16.9922 6.76602C16.4402 6.58602 16.0022 6.33402 15.6782 6.01002C15.3662 5.67402 15.2102 5.23602 15.2102 4.69602ZM25.0022 4.69602C25.0022 4.50402 24.8882 4.36002 24.6602 4.26402C24.4442 4.15602 24.1622 4.07802 23.8142 4.03002C23.4662 3.97002 23.0702 3.93402 22.6262 3.92202C22.1942 3.91002 21.7622 3.90402 21.3302 3.90402C20.8982 3.90402 20.4722 3.91002 20.0522 3.92202C19.6322 3.93402 19.2542 3.97002 18.9182 4.03002C18.5822 4.07802 18.3062 4.15602 18.0902 4.26402C17.8862 4.36002 17.7842 4.50402 17.7842 4.69602C17.7842 4.86402 17.8862 4.99602 18.0902 5.09202C18.2942 5.18802 18.5642 5.26002 18.9002 5.30802C19.2362 5.34402 19.6082 5.36802 20.0162 5.38002C20.4362 5.39202 20.8622 5.39802 21.2942 5.39802C21.7262 5.39802 22.1582 5.40402 22.5902 5.41602C23.0342 5.41602 23.4362 5.40402 23.7962 5.38002C24.1562 5.34402 24.4442 5.27802 24.6602 5.18202C24.8882 5.07402 25.0022 4.91202 25.0022 4.69602Z" fill="#EA7171"/>
<path d="M40.9332 2.89602C41.4252 2.89602 41.8452 2.93802 42.1932 3.02202C42.5412 3.10602 42.8172 3.32202 43.0212 3.67002C43.2132 3.99402 43.2432 4.31802 43.1112 4.64202C42.9432 4.97802 42.6432 5.17602 42.2112 5.23602C41.9232 5.28402 41.5932 5.31402 41.2212 5.32602C40.8492 5.32602 40.3572 5.31402 39.7452 5.29002C39.7332 5.49402 39.7272 5.71002 39.7272 5.93802C39.7272 6.15402 39.7272 6.35802 39.7272 6.55002C39.7272 6.73002 39.7272 6.88602 39.7272 7.01802C39.7392 7.15002 39.7452 7.23402 39.7452 7.27002V9.28602C39.7452 9.38202 39.7512 9.51402 39.7632 9.68202C39.7752 9.83802 39.7872 9.95802 39.7992 10.042C39.8952 10.138 40.0272 10.282 40.1952 10.474C40.3632 10.654 40.4952 10.804 40.5912 10.924C40.7112 11.068 40.8312 11.218 40.9512 11.374C41.0832 11.53 41.2152 11.704 41.3472 11.896C41.4432 12.004 41.5272 12.112 41.5992 12.22C41.6712 12.328 41.7372 12.424 41.7972 12.508C42.0252 12.832 42.2592 13.186 42.4992 13.57C42.7392 13.954 42.9012 14.338 42.9852 14.722C43.0212 14.89 43.0212 15.076 42.9852 15.28C42.9612 15.472 42.8772 15.634 42.7332 15.766C42.5292 15.946 42.3012 16.036 42.0492 16.036C41.7732 16.036 41.5092 15.964 41.2572 15.82C41.0052 15.664 40.8012 15.502 40.6452 15.334C40.4172 15.094 40.2012 14.842 39.9972 14.578C39.8052 14.314 39.6132 14.056 39.4212 13.804C39.2892 13.612 39.1512 13.426 39.0072 13.246C38.8632 13.054 38.7132 12.868 38.5572 12.688C38.5332 12.64 38.5092 12.61 38.4852 12.598C38.4852 12.61 38.4792 12.616 38.4672 12.616C38.4672 12.616 38.4672 12.622 38.4672 12.634C38.4072 12.73 38.3352 12.826 38.2512 12.922C38.1792 13.006 38.1132 13.096 38.0532 13.192C37.9572 13.3 37.8672 13.414 37.7832 13.534C37.7112 13.642 37.6392 13.75 37.5672 13.858C37.3992 14.11 37.2312 14.362 37.0632 14.614C36.8952 14.854 36.7032 15.082 36.4872 15.298C35.9712 15.814 35.4852 16.072 35.0292 16.072C34.9092 16.072 34.7952 16.054 34.6872 16.018C34.4112 15.946 34.2252 15.778 34.1292 15.514C34.0332 15.31 33.9972 15.088 34.0212 14.848C34.0572 14.608 34.1172 14.398 34.2012 14.218C34.2972 14.014 34.4052 13.822 34.5252 13.642C34.6452 13.462 34.7712 13.282 34.9032 13.102C34.9872 12.994 35.0652 12.886 35.1372 12.778C35.2212 12.67 35.2932 12.562 35.3532 12.454C35.4612 12.274 35.6052 12.064 35.7852 11.824C35.9772 11.572 36.1632 11.332 36.3432 11.104C36.5352 10.864 36.7092 10.648 36.8652 10.456C37.0212 10.264 37.1292 10.126 37.1892 10.042V5.29002H36.0912C35.6352 5.29002 35.3172 5.29002 35.1372 5.29002C34.9692 5.27802 34.8432 5.26002 34.7592 5.23602C34.3032 5.16402 33.9972 4.90602 33.8412 4.46202C33.7092 4.07802 33.7572 3.74202 33.9852 3.45402C34.1892 3.16602 34.4772 2.98602 34.8492 2.91402C34.9092 2.90202 34.9692 2.89602 35.0292 2.89602C35.0892 2.88402 35.1552 2.87802 35.2272 2.87802C35.3472 2.87802 35.4312 2.88402 35.4792 2.89602H40.9332ZM46.9992 15.028C46.9752 15.172 46.9572 15.316 46.9452 15.46C46.9332 15.592 46.9032 15.73 46.8552 15.874C46.8312 15.922 46.8132 15.964 46.8012 16C46.7892 16.036 46.7712 16.078 46.7472 16.126C46.6632 16.294 46.5552 16.426 46.4232 16.522C46.1472 16.69 45.8412 16.732 45.5052 16.648C45.3132 16.612 45.1572 16.54 45.0372 16.432C44.9292 16.336 44.8452 16.21 44.7852 16.054C44.7372 15.91 44.6952 15.766 44.6592 15.622C44.6352 15.478 44.6232 15.352 44.6232 15.244C44.6232 15.136 44.6232 15.076 44.6232 15.064V4.13802C44.6232 3.99402 44.6232 3.83802 44.6232 3.67002C44.6232 3.50202 44.6352 3.33402 44.6592 3.16602C44.6832 2.99802 44.7192 2.84202 44.7672 2.69802C44.8152 2.55402 44.8812 2.44002 44.9652 2.35602C45.0972 2.22402 45.2352 2.14602 45.3792 2.12202C45.5232 2.08602 45.6792 2.06802 45.8472 2.06802C46.0512 2.06802 46.2372 2.12802 46.4052 2.24802C46.5852 2.35602 46.7112 2.51202 46.7832 2.71602C46.8912 2.96802 46.9512 3.23202 46.9632 3.50802C46.9752 3.78402 46.9872 4.06002 46.9992 4.33602V4.42602C47.0232 5.35002 47.0292 6.29802 47.0172 7.27002C47.0052 8.24202 46.9992 9.16002 46.9992 10.024V14.38C46.9992 14.488 46.9992 14.596 46.9992 14.704C47.0112 14.812 47.0112 14.92 46.9992 15.028Z" fill="#EA7171"/>
<path d="M54.8989 6.37002L53.9269 7.34202C53.6629 7.59402 53.3989 7.84002 53.1349 8.08002C52.8709 8.32002 52.6009 8.56002 52.3249 8.80002C52.3009 8.82402 52.2769 8.84802 52.2529 8.87202C52.2289 8.88402 52.2049 8.90202 52.1809 8.92602C51.9529 9.13002 51.7249 9.34602 51.4969 9.57402C51.2809 9.80202 51.0169 9.96402 50.7049 10.06C50.4889 10.12 50.2549 10.114 50.0029 10.042C49.7509 9.97002 49.5589 9.84402 49.4269 9.66402C49.3309 9.52002 49.2829 9.37602 49.2829 9.23202C49.2829 9.08802 49.3069 8.95002 49.3549 8.81802C49.4149 8.67402 49.4869 8.53602 49.5709 8.40402C49.6549 8.27202 49.7449 8.15202 49.8409 8.04402C50.2009 7.62402 50.5729 7.22802 50.9569 6.85602C51.3529 6.47202 51.7549 6.10002 52.1629 5.74002C52.2949 5.63202 52.4449 5.48802 52.6129 5.30802C52.7809 5.11602 52.9429 4.93002 53.0989 4.75002C53.2789 4.53402 53.4649 4.31802 53.6569 4.10202C53.6329 3.82602 53.6269 3.56202 53.6389 3.31002C53.6509 3.09402 53.6809 2.87802 53.7289 2.66202C53.7769 2.44602 53.8669 2.27202 53.9989 2.14002C54.1549 1.99602 54.3769 1.90602 54.6649 1.87002C54.9529 1.82202 55.1929 1.82802 55.3849 1.88802C55.6609 1.97202 55.8529 2.11602 55.9609 2.32002C56.0809 2.52402 56.1589 2.76402 56.1949 3.04002C56.2069 3.26802 56.2069 3.46602 56.1949 3.63402C56.1949 3.79002 56.2609 3.96402 56.3929 4.15602C56.4889 4.30002 56.5969 4.43802 56.7169 4.57002C56.8489 4.70202 56.9749 4.83402 57.0949 4.96602C57.5149 5.43402 57.9229 5.88402 58.3189 6.31602C58.7269 6.74802 59.1469 7.19202 59.5789 7.64802C59.7229 7.79202 59.8609 7.97202 59.9929 8.18802C60.1249 8.40402 60.2149 8.62602 60.2629 8.85402C60.3229 9.07002 60.3169 9.28002 60.2449 9.48402C60.1849 9.67602 60.0289 9.83202 59.7769 9.95202C59.5969 10.036 59.4229 10.072 59.2549 10.06C59.0869 10.036 58.9249 9.98802 58.7689 9.91602C58.6129 9.83202 58.4629 9.73002 58.3189 9.61002C58.1869 9.49002 58.0669 9.37002 57.9589 9.25002L54.8989 6.37002ZM49.6969 13.354C49.4209 13.342 49.1569 13.306 48.9049 13.246C48.6649 13.174 48.4669 13.018 48.3109 12.778C48.1789 12.574 48.1129 12.358 48.1129 12.13C48.1249 11.89 48.2149 11.686 48.3829 11.518C48.4789 11.422 48.5989 11.35 48.7429 11.302C48.8869 11.254 49.0249 11.218 49.1569 11.194C49.2889 11.17 49.4029 11.158 49.4989 11.158C49.6069 11.158 49.6669 11.158 49.6789 11.158H59.6689C59.8609 11.146 60.0649 11.146 60.2809 11.158C60.5089 11.17 60.7189 11.212 60.9109 11.284C61.1029 11.344 61.2649 11.452 61.3969 11.608C61.5289 11.752 61.5949 11.956 61.5949 12.22C61.5949 12.52 61.4929 12.748 61.2889 12.904C61.0849 13.048 60.8389 13.156 60.5509 13.228C60.2749 13.288 59.9869 13.324 59.6869 13.336C59.3869 13.336 59.1409 13.336 58.9489 13.336H58.2469C58.0069 13.348 57.7729 13.354 57.5449 13.354C57.3169 13.342 57.0829 13.336 56.8429 13.336H56.1589C56.1709 13.672 56.1829 14.026 56.1949 14.398C56.2069 14.77 56.1889 15.1 56.1409 15.388C56.1169 15.616 56.0569 15.832 55.9609 16.036C55.8769 16.252 55.7329 16.426 55.5289 16.558C55.3489 16.678 55.1389 16.738 54.8989 16.738C54.6589 16.75 54.4429 16.702 54.2509 16.594C54.0949 16.498 53.9749 16.36 53.8909 16.18C53.8189 16 53.7709 15.826 53.7469 15.658C53.7229 15.526 53.7109 15.382 53.7109 15.226C53.7229 15.07 53.7289 14.926 53.7289 14.794C53.7169 14.578 53.7109 14.344 53.7109 14.092C53.7109 13.828 53.7109 13.57 53.7109 13.318H53.2609C52.9249 13.318 52.6129 13.324 52.3249 13.336C52.0369 13.336 51.7549 13.342 51.4789 13.354C51.2029 13.354 50.9209 13.354 50.6329 13.354C50.3449 13.354 50.0329 13.354 49.6969 13.354Z" fill="#EA7171"/>
<path d="M68.4858 8.76402C68.7618 8.76402 69.0798 8.77002 69.4398 8.78202C69.7998 8.79402 70.1838 8.80602 70.5918 8.81802C70.6038 8.71002 70.6098 8.60202 70.6098 8.49402C70.6098 8.38602 70.6098 8.27202 70.6098 8.15202C70.4898 8.11602 70.3578 8.06802 70.2138 8.00802C69.9138 7.88802 69.6318 7.75002 69.3678 7.59402C69.1038 7.43802 68.8758 7.25802 68.6838 7.05402C68.4918 6.85002 68.3358 6.61002 68.2158 6.33402C68.1078 6.05802 68.0538 5.74002 68.0538 5.38002C68.0538 4.96002 68.1138 4.59402 68.2338 4.28202H68.1978C67.9098 4.28202 67.6578 4.19202 67.4418 4.01202C67.2378 3.82002 67.1358 3.58602 67.1358 3.31002C67.1358 3.04602 67.2378 2.82402 67.4418 2.64402C67.6578 2.45202 67.9098 2.35602 68.1978 2.35602H70.5738V1.76202C70.5738 1.53402 70.6758 1.34202 70.8798 1.18602C71.0838 1.01802 71.3298 0.934021 71.6178 0.934021C71.9058 0.934021 72.1518 1.01802 72.3558 1.18602C72.5718 1.34202 72.6798 1.53402 72.6798 1.76202V2.35602H75.1638C75.4638 2.35602 75.7158 2.45202 75.9198 2.64402C76.1358 2.82402 76.2438 3.04602 76.2438 3.31002C76.2438 3.58602 76.1358 3.82002 75.9198 4.01202C75.7158 4.19202 75.4638 4.28202 75.1638 4.28202H75.1458C75.2058 4.45002 75.2478 4.62402 75.2718 4.80402C75.3078 4.98402 75.3258 5.17602 75.3258 5.38002C75.3258 5.88402 75.2118 6.31002 74.9838 6.65802C74.7678 6.99402 74.4498 7.31202 74.0298 7.61202C73.7058 7.85202 73.3638 8.03202 73.0038 8.15202V8.17002C72.9918 8.30202 72.9858 8.42202 72.9858 8.53002C72.9858 8.63802 72.9798 8.74602 72.9678 8.85402C73.1118 8.85402 73.2318 8.85402 73.3278 8.85402C73.4238 8.84202 73.5258 8.83602 73.6338 8.83602C73.7418 8.82402 73.8738 8.81802 74.0298 8.81802C74.1858 8.81802 74.4018 8.82402 74.6778 8.83602C74.9058 8.83602 75.1278 8.83602 75.3438 8.83602C75.5598 8.83602 75.7698 8.88402 75.9738 8.98002C76.3098 9.13602 76.4778 9.40002 76.4778 9.77202C76.4778 10.072 76.3698 10.342 76.1538 10.582C75.9858 10.762 75.7758 10.864 75.5238 10.888C75.2838 10.912 75.0558 10.912 74.8398 10.888H68.4858C68.4738 10.888 68.4258 10.888 68.3418 10.888C68.2578 10.888 68.1558 10.876 68.0358 10.852C67.9278 10.828 67.8138 10.792 67.6938 10.744C67.5738 10.684 67.4778 10.6 67.4058 10.492C67.2618 10.348 67.1898 10.138 67.1898 9.86202C67.1898 9.73002 67.2078 9.62202 67.2438 9.53802C67.2918 9.44202 67.3458 9.35202 67.4058 9.26802C67.5378 9.11202 67.7118 8.99802 67.9278 8.92602C68.1438 8.84202 68.3298 8.78802 68.4858 8.76402ZM69.0978 14.074V14.056C69.0858 14.056 69.0378 14.044 68.9538 14.02C68.8818 13.996 68.7978 13.96 68.7018 13.912C68.6058 13.864 68.5098 13.798 68.4138 13.714C68.3298 13.63 68.2818 13.522 68.2698 13.39C68.2098 12.922 68.2818 12.562 68.4858 12.31C68.6298 12.142 68.7858 12.046 68.9538 12.022C69.1218 11.986 69.2118 11.968 69.2238 11.968L78.4038 11.95C78.9078 11.95 79.2678 12.052 79.4838 12.256C79.7118 12.448 79.8378 12.76 79.8618 13.192V15.064C79.8858 15.328 79.8858 15.592 79.8618 15.856C79.8378 16.108 79.7358 16.312 79.5558 16.468C79.3878 16.624 79.1658 16.702 78.8898 16.702C78.8298 16.702 78.7218 16.696 78.5658 16.684C78.4218 16.684 78.3198 16.672 78.2598 16.648C78.0918 16.6 77.9598 16.528 77.8638 16.432C77.7798 16.336 77.7138 16.228 77.6658 16.108C77.6178 15.988 77.5878 15.862 77.5758 15.73C77.5638 15.586 77.5518 15.448 77.5398 15.316C77.5398 15.268 77.5338 15.184 77.5218 15.064C77.5218 14.944 77.5158 14.824 77.5038 14.704C77.5038 14.572 77.4978 14.452 77.4858 14.344C77.4858 14.224 77.4798 14.14 77.4678 14.092C77.4438 14.092 77.3658 14.092 77.2338 14.092C77.1018 14.092 76.9338 14.092 76.7298 14.092C76.5378 14.092 76.3218 14.092 76.0818 14.092C75.8418 14.08 75.6138 14.074 75.3978 14.074H69.0978ZM77.6478 4.17402C77.6478 4.04202 77.6478 3.89202 77.6478 3.72402C77.6478 3.55602 77.6538 3.39402 77.6658 3.23802C77.6898 3.07002 77.7258 2.91402 77.7738 2.77002C77.8218 2.62602 77.8818 2.51802 77.9538 2.44602C78.0858 2.32602 78.2178 2.25402 78.3498 2.23002C78.4938 2.19402 78.6498 2.17602 78.8178 2.17602C79.0218 2.17602 79.2018 2.23602 79.3578 2.35602C79.5258 2.46402 79.6458 2.60802 79.7178 2.78802C79.8138 3.04002 79.8678 3.29802 79.8798 3.56202C79.8918 3.82602 79.9038 4.09002 79.9158 4.35402C79.9158 4.76202 79.9158 5.14602 79.9158 5.50602C79.9278 5.86602 79.9338 6.22002 79.9338 6.56802C80.1738 6.56802 80.3958 6.57402 80.5998 6.58602C80.8158 6.58602 80.9898 6.59202 81.1218 6.60402C81.2778 6.61602 81.4158 6.67602 81.5358 6.78402C81.6678 6.89202 81.7698 7.02402 81.8418 7.18002C81.9138 7.32402 81.9498 7.48002 81.9498 7.64802C81.9498 7.81602 81.9018 7.96002 81.8058 8.08002C81.6378 8.30802 81.3798 8.45802 81.0318 8.53002C80.6958 8.59002 80.3358 8.62002 79.9518 8.62002V9.19602C79.9518 9.44802 79.9338 9.64602 79.8978 9.79002C79.8618 9.92202 79.8198 10.054 79.7718 10.186C79.7598 10.222 79.7478 10.258 79.7358 10.294C79.7238 10.33 79.7058 10.372 79.6818 10.42C79.5978 10.588 79.4898 10.714 79.3578 10.798C79.2258 10.882 79.0818 10.936 78.9258 10.96C78.7818 10.972 78.6318 10.966 78.4758 10.942C78.3078 10.894 78.1638 10.822 78.0438 10.726C77.9358 10.63 77.8518 10.51 77.7918 10.366C77.7438 10.21 77.7078 10.066 77.6838 9.93402C77.6598 9.79002 77.6478 9.67002 77.6478 9.57402C77.6478 9.46602 77.6478 9.40602 77.6478 9.39402V4.17402ZM72.0138 6.35202C72.1818 6.31602 72.3378 6.28602 72.4818 6.26202C72.6258 6.23802 72.7458 6.19602 72.8418 6.13602C72.9498 6.06402 73.0278 5.97402 73.0758 5.86602C73.1358 5.74602 73.1658 5.58402 73.1658 5.38002C73.1658 4.99602 73.0578 4.72602 72.8418 4.57002C72.6258 4.41402 72.3678 4.31802 72.0678 4.28202H71.1318C70.8678 4.31802 70.6458 4.41402 70.4658 4.57002C70.2858 4.72602 70.1958 4.99602 70.1958 5.38002C70.1958 5.66802 70.2438 5.89002 70.3398 6.04602C70.4478 6.20202 70.5858 6.31002 70.7538 6.37002C70.9338 6.43002 71.1318 6.45402 71.3478 6.44202C71.5638 6.41802 71.7858 6.38802 72.0138 6.35202Z" fill="#EA7171"/>
<path d="M89.3357 2.55402C90.0677 2.97402 90.5897 3.51402 90.9017 4.17402C91.0577 4.49802 91.1597 4.85802 91.2077 5.25402C91.2557 5.65002 91.2677 6.09402 91.2437 6.58602C91.2077 7.12602 91.0877 7.61202 90.8837 8.04402C90.6797 8.47602 90.4097 8.84802 90.0737 9.16002C89.7497 9.46002 89.3657 9.69402 88.9217 9.86202C88.4777 10.018 88.0037 10.096 87.4997 10.096H86.5817C86.4617 10.096 86.3417 10.096 86.2217 10.096C86.1017 10.084 85.9757 10.066 85.8437 10.042C85.7117 10.042 85.5857 10.024 85.4657 9.98802C85.3457 9.95202 85.2197 9.92202 85.0877 9.89802C84.9557 9.83802 84.8237 9.77202 84.6917 9.70002C84.5717 9.62802 84.4277 9.54402 84.2597 9.44802C83.7077 9.08802 83.3237 8.60202 83.1077 7.99002C83.0117 7.71402 82.9397 7.42002 82.8917 7.10802C82.8437 6.79602 82.8197 6.49002 82.8197 6.19002C82.8197 5.86602 82.8437 5.55402 82.8917 5.25402C82.9517 4.95402 83.0477 4.66602 83.1797 4.39002C83.2757 4.10202 83.4197 3.85002 83.6117 3.63402C83.8037 3.40602 84.0197 3.19002 84.2597 2.98602C84.4757 2.80602 84.6977 2.65602 84.9257 2.53602C85.1537 2.40402 85.4057 2.30202 85.6817 2.23002C85.9217 2.13402 86.1797 2.07402 86.4557 2.05002C86.7317 2.02602 86.9957 2.02602 87.2477 2.05002C87.3797 2.08602 87.4877 2.11002 87.5717 2.12202C87.6677 2.12202 87.7577 2.12202 87.8417 2.12202C87.9377 2.14602 88.0217 2.16402 88.0937 2.17602C88.1777 2.17602 88.2557 2.19402 88.3277 2.23002C88.4117 2.25402 88.4897 2.27802 88.5617 2.30202C88.6457 2.31402 88.7237 2.33802 88.7957 2.37402C88.8677 2.39802 88.9517 2.42802 89.0477 2.46402C89.1437 2.50002 89.2397 2.53002 89.3357 2.55402ZM95.3477 14.362C95.5157 14.362 95.6537 14.434 95.7617 14.578C95.8697 14.722 95.9417 14.896 95.9777 15.1C96.0017 15.34 95.9897 15.538 95.9417 15.694C95.8937 15.838 95.8217 15.976 95.7257 16.108C95.5457 16.264 95.3897 16.36 95.2577 16.396C95.1977 16.396 95.1437 16.408 95.0957 16.432C95.0477 16.456 94.9817 16.468 94.8977 16.468H86.0957C85.8437 16.468 85.6217 16.462 85.4297 16.45C85.2497 16.438 85.0877 16.396 84.9437 16.324C84.8117 16.252 84.7037 16.144 84.6197 16C84.5477 15.868 84.5117 15.736 84.5117 15.604V11.896C84.5837 11.632 84.7037 11.434 84.8717 11.302C85.0037 11.218 85.1237 11.158 85.2317 11.122C85.3517 11.074 85.4837 11.05 85.6277 11.05C85.6517 11.05 85.7237 11.062 85.8437 11.086C85.9757 11.098 86.0597 11.104 86.0957 11.104C86.1677 11.128 86.2337 11.158 86.2937 11.194C86.3657 11.218 86.4317 11.272 86.4917 11.356C86.5157 11.404 86.5457 11.458 86.5817 11.518C86.6177 11.566 86.6477 11.626 86.6717 11.698C86.7077 11.782 86.7257 11.86 86.7257 11.932C86.7377 12.004 86.7557 12.076 86.7797 12.148V14.308H87.1397C87.2117 14.32 87.2957 14.326 87.3917 14.326C87.4757 14.338 87.5657 14.344 87.6617 14.344C87.7577 14.344 87.8657 14.344 87.9857 14.344C88.0577 14.344 88.2377 14.344 88.5257 14.344C88.8257 14.344 89.1797 14.344 89.5877 14.344C90.0077 14.332 90.4637 14.326 90.9557 14.326C91.4477 14.326 91.9157 14.326 92.3597 14.326C92.8157 14.326 93.2237 14.332 93.5837 14.344C93.9557 14.344 94.2317 14.344 94.4117 14.344H94.8617C94.8857 14.344 94.9397 14.35 95.0237 14.362C95.1077 14.362 95.2157 14.362 95.3477 14.362ZM89.0837 6.02802C89.0597 5.89602 89.0357 5.78202 89.0117 5.68602C88.9877 5.57802 88.9637 5.47002 88.9397 5.36202C88.8797 5.26602 88.8257 5.17002 88.7777 5.07402C88.7297 4.97802 88.6637 4.89402 88.5797 4.82202C88.5077 4.75002 88.4237 4.69002 88.3277 4.64202C88.2317 4.58202 88.1177 4.52202 87.9857 4.46202C87.8297 4.42602 87.6797 4.39602 87.5357 4.37202C87.3917 4.33602 87.2417 4.31802 87.0857 4.31802C86.9177 4.31802 86.7557 4.33602 86.5997 4.37202C86.4437 4.39602 86.2997 4.42602 86.1677 4.46202C86.0237 4.54602 85.8857 4.63002 85.7537 4.71402C85.6337 4.79802 85.5257 4.90602 85.4297 5.03802C85.3097 5.13402 85.2197 5.26002 85.1597 5.41602C85.0997 5.56002 85.0397 5.73402 84.9797 5.93802C84.9797 6.07002 84.9797 6.19602 84.9797 6.31602C84.9797 6.43602 84.9917 6.56202 85.0157 6.69402C85.0157 6.81402 85.0397 6.93402 85.0877 7.05402C85.1357 7.17402 85.1957 7.28202 85.2677 7.37802C85.3517 7.48602 85.4417 7.58202 85.5377 7.66602C85.6337 7.73802 85.7357 7.81002 85.8437 7.88202C85.9757 7.95402 86.1137 8.02002 86.2577 8.08002C86.4017 8.12802 86.5757 8.16402 86.7797 8.18802C86.9117 8.18802 87.0377 8.18802 87.1577 8.18802C87.2777 8.17602 87.4037 8.15802 87.5357 8.13402C87.7757 8.13402 88.0097 8.06802 88.2377 7.93602C88.3337 7.88802 88.4297 7.82802 88.5257 7.75602C88.6337 7.67202 88.7237 7.58202 88.7957 7.48602C88.9517 7.27002 89.0477 7.03602 89.0837 6.78402V6.02802ZM95.8697 9.70002C95.8697 9.82002 95.8577 9.94002 95.8337 10.06C95.8097 10.18 95.7857 10.306 95.7617 10.438C95.6537 10.822 95.4017 11.056 95.0057 11.14C94.6217 11.224 94.3097 11.14 94.0697 10.888C93.8417 10.636 93.7037 10.336 93.6557 9.98802C93.6317 9.89202 93.6137 9.79602 93.6017 9.70002C93.6017 9.59202 93.6017 9.49002 93.6017 9.39402V8.78202L93.6557 4.13802C93.6557 3.97002 93.6497 3.79002 93.6377 3.59802C93.6377 3.39402 93.6497 3.20202 93.6737 3.02202C93.7097 2.83002 93.7757 2.65602 93.8717 2.50002C93.9677 2.34402 94.1177 2.21802 94.3217 2.12202C94.4177 2.06202 94.5197 2.03202 94.6277 2.03202C94.7477 2.02002 94.8737 2.02602 95.0057 2.05002C95.2817 2.08602 95.4857 2.20002 95.6177 2.39202C95.7617 2.58402 95.8457 2.80602 95.8697 3.05802V9.70002Z" fill="#EA7171"/>
</svg>
