<svg width="78" height="13" viewBox="0 0 78 13" fill="none" xmlns="http://www.w3.org/2000/svg">
<path d="M5.01307 1.2C5.95307 1.2 6.64807 1.405 7.09807 1.815C7.55807 2.225 7.78807 2.76 7.78807 3.42C7.78807 3.98 7.63307 4.41 7.32307 4.71C7.01307 5 6.56807 5.145 5.98807 5.145C5.80807 5.145 5.69307 5.13 5.64307 5.1C5.59307 5.06 5.56807 4.985 5.56807 4.875C5.56807 4.775 5.55807 4.645 5.53807 4.485C5.52807 4.325 5.49307 4.17 5.43307 4.02C5.37307 3.87 5.27807 3.745 5.14807 3.645C5.01807 3.535 4.83807 3.48 4.60807 3.48C4.28807 3.48 4.00307 3.58 3.75307 3.78C3.50307 3.97 3.37807 4.22 3.37807 4.53C3.37807 4.8 3.47807 5.02 3.67807 5.19C3.88807 5.36 4.14807 5.52 4.45807 5.67C4.76807 5.81 5.10307 5.955 5.46307 6.105C5.83307 6.255 6.17307 6.455 6.48307 6.705C6.79307 6.945 7.04807 7.25 7.24807 7.62C7.45807 7.98 7.56307 8.44 7.56307 9C7.56307 9.44 7.48807 9.855 7.33807 10.245C7.19807 10.625 6.98307 10.96 6.69307 11.25C6.41307 11.53 6.05307 11.75 5.61307 11.91C5.18307 12.07 4.67807 12.15 4.09807 12.15C3.59807 12.15 3.13307 12.095 2.70307 11.985C2.28307 11.875 1.91307 11.74 1.59307 11.58C1.28307 11.41 1.03807 11.23 0.858074 11.04C0.678074 10.84 0.588074 10.66 0.588074 10.5C0.588074 9.84 0.623074 9.365 0.693074 9.075C0.773074 8.785 0.913074 8.64 1.11307 8.64C1.25307 8.64 1.39807 8.7 1.54807 8.82C1.70807 8.94 1.88807 9.075 2.08807 9.225C2.28807 9.375 2.51807 9.51 2.77807 9.63C3.04807 9.75 3.35807 9.81 3.70807 9.81C3.84807 9.81 3.98307 9.8 4.11307 9.78C4.25307 9.75 4.37307 9.705 4.47307 9.645C4.58307 9.585 4.66807 9.505 4.72807 9.405C4.79807 9.305 4.83307 9.185 4.83307 9.045C4.83307 8.795 4.73807 8.595 4.54807 8.445C4.35807 8.295 4.11807 8.16 3.82807 8.04C3.53807 7.91 3.22307 7.78 2.88307 7.65C2.55307 7.51 2.24307 7.325 1.95307 7.095C1.66307 6.855 1.42307 6.55 1.23307 6.18C1.04307 5.81 0.948074 5.335 0.948074 4.755C0.948074 4.105 1.06807 3.555 1.30807 3.105C1.55807 2.655 1.87307 2.29 2.25307 2.01C2.64307 1.72 3.07807 1.515 3.55807 1.395C4.04807 1.265 4.53307 1.2 5.01307 1.2Z" fill="#EA7171"/>
<path d="M12.3183 12.15C11.8783 12.15 11.4383 12.095 10.9983 11.985C10.5683 11.875 10.1783 11.685 9.82831 11.415C9.48831 11.145 9.20831 10.785 8.98831 10.335C8.76831 9.885 8.65831 9.32 8.65831 8.64C8.65831 8.39 8.67831 8.09 8.71831 7.74C8.75831 7.39 8.83331 7.03 8.94331 6.66C9.06331 6.29 9.22331 5.925 9.42331 5.565C9.63331 5.195 9.90331 4.865 10.2333 4.575C10.5633 4.285 10.9633 4.05 11.4333 3.87C11.9033 3.69 12.4633 3.6 13.1133 3.6C13.6333 3.6 14.0733 3.66 14.4333 3.78C14.7933 3.9 15.0833 4.065 15.3033 4.275C15.5233 4.475 15.6833 4.71 15.7833 4.98C15.8833 5.25 15.9333 5.54 15.9333 5.85C15.9333 6.31 15.8383 6.7 15.6483 7.02C15.4683 7.34 15.2283 7.61 14.9283 7.83C14.6383 8.04 14.3133 8.205 13.9533 8.325C13.5933 8.445 13.2383 8.54 12.8883 8.61C12.5383 8.67 12.2133 8.71 11.9133 8.73C11.6233 8.74 11.3983 8.745 11.2383 8.745C11.2383 8.935 11.2633 9.125 11.3133 9.315C11.3733 9.495 11.4583 9.655 11.5683 9.795C11.6783 9.935 11.8233 10.05 12.0033 10.14C12.1833 10.23 12.4033 10.275 12.6633 10.275C12.9233 10.275 13.1233 10.235 13.2633 10.155C13.4133 10.065 13.5333 9.97 13.6233 9.87C13.7133 9.76 13.7883 9.665 13.8483 9.585C13.9183 9.495 14.0083 9.45 14.1183 9.45C14.1683 9.45 14.2533 9.465 14.3733 9.495C14.5033 9.515 14.6333 9.565 14.7633 9.645C14.8933 9.725 15.0083 9.835 15.1083 9.975C15.2083 10.115 15.2583 10.295 15.2583 10.515C15.2583 10.805 15.1683 11.055 14.9883 11.265C14.8083 11.475 14.5733 11.645 14.2833 11.775C14.0033 11.905 13.6883 12 13.3383 12.06C12.9883 12.12 12.6483 12.15 12.3183 12.15ZM12.6033 5.595C12.3833 5.595 12.1933 5.66 12.0333 5.79C11.8833 5.91 11.7533 6.065 11.6433 6.255C11.5433 6.445 11.4633 6.655 11.4033 6.885C11.3533 7.115 11.3133 7.335 11.2833 7.545C11.9033 7.535 12.4033 7.43 12.7833 7.23C13.1733 7.03 13.3683 6.745 13.3683 6.375C13.3683 6.175 13.3033 5.995 13.1733 5.835C13.0533 5.675 12.8633 5.595 12.6033 5.595Z" fill="#EA7171"/>
<path d="M18.5767 12.135C17.9567 12.135 17.5117 11.97 17.2417 11.64C16.9717 11.31 16.8367 10.765 16.8367 10.005C16.8367 9.885 16.8417 9.735 16.8517 9.555C16.8717 9.375 16.8917 9.145 16.9117 8.865C16.9417 8.575 16.9767 8.22 17.0167 7.8C17.0567 7.38 17.0967 6.87 17.1367 6.27C17.1867 5.67 17.2367 4.965 17.2867 4.155C17.3467 3.345 17.4067 2.405 17.4667 1.335C17.4767 1.115 17.5017 0.985001 17.5417 0.945001C17.5717 0.915001 17.6517 0.900002 17.7817 0.900002H18.3667C18.6667 0.900002 18.9167 0.935001 19.1167 1.005C19.3167 1.075 19.4767 1.17 19.5967 1.29C19.7167 1.41 19.8017 1.55 19.8517 1.71C19.9017 1.86 19.9267 2.02 19.9267 2.19C19.9267 2.39 19.9117 2.68 19.8817 3.06C19.8617 3.43 19.8317 3.85 19.7917 4.32C19.7517 4.79 19.7117 5.28 19.6717 5.79C19.6317 6.3 19.5917 6.79 19.5517 7.26C19.5117 7.72 19.4767 8.135 19.4467 8.505C19.4267 8.875 19.4167 9.155 19.4167 9.345C19.4167 9.605 19.4617 9.79 19.5517 9.9C19.6517 10.01 19.7567 10.09 19.8667 10.14C19.9767 10.18 20.0767 10.21 20.1667 10.23C20.2667 10.24 20.3167 10.27 20.3167 10.32C20.3167 10.54 20.2917 10.76 20.2417 10.98C20.1917 11.19 20.1017 11.385 19.9717 11.565C19.8417 11.735 19.6617 11.875 19.4317 11.985C19.2117 12.085 18.9267 12.135 18.5767 12.135Z" fill="#EA7171"/>
<path d="M24.8281 12.15C24.3881 12.15 23.9481 12.095 23.5081 11.985C23.0781 11.875 22.6881 11.685 22.3381 11.415C21.9981 11.145 21.7181 10.785 21.4981 10.335C21.2781 9.885 21.1681 9.32 21.1681 8.64C21.1681 8.39 21.1881 8.09 21.2281 7.74C21.2681 7.39 21.3431 7.03 21.4531 6.66C21.5731 6.29 21.7331 5.925 21.9331 5.565C22.1431 5.195 22.4131 4.865 22.7431 4.575C23.0731 4.285 23.4731 4.05 23.9431 3.87C24.4131 3.69 24.9731 3.6 25.6231 3.6C26.1431 3.6 26.5831 3.66 26.9431 3.78C27.3031 3.9 27.5931 4.065 27.8131 4.275C28.0331 4.475 28.1931 4.71 28.2931 4.98C28.3931 5.25 28.4431 5.54 28.4431 5.85C28.4431 6.31 28.3481 6.7 28.1581 7.02C27.9781 7.34 27.7381 7.61 27.4381 7.83C27.1481 8.04 26.8231 8.205 26.4631 8.325C26.1031 8.445 25.7481 8.54 25.3981 8.61C25.0481 8.67 24.7231 8.71 24.4231 8.73C24.1331 8.74 23.9081 8.745 23.7481 8.745C23.7481 8.935 23.7731 9.125 23.8231 9.315C23.8831 9.495 23.9681 9.655 24.0781 9.795C24.1881 9.935 24.3331 10.05 24.5131 10.14C24.6931 10.23 24.9131 10.275 25.1731 10.275C25.4331 10.275 25.6331 10.235 25.7731 10.155C25.9231 10.065 26.0431 9.97 26.1331 9.87C26.2231 9.76 26.2981 9.665 26.3581 9.585C26.4281 9.495 26.5181 9.45 26.6281 9.45C26.6781 9.45 26.7631 9.465 26.8831 9.495C27.0131 9.515 27.1431 9.565 27.2731 9.645C27.4031 9.725 27.5181 9.835 27.6181 9.975C27.7181 10.115 27.7681 10.295 27.7681 10.515C27.7681 10.805 27.6781 11.055 27.4981 11.265C27.3181 11.475 27.0831 11.645 26.7931 11.775C26.5131 11.905 26.1981 12 25.8481 12.06C25.4981 12.12 25.1581 12.15 24.8281 12.15ZM25.1131 5.595C24.8931 5.595 24.7031 5.66 24.5431 5.79C24.3931 5.91 24.2631 6.065 24.1531 6.255C24.0531 6.445 23.9731 6.655 23.9131 6.885C23.8631 7.115 23.8231 7.335 23.7931 7.545C24.4131 7.535 24.9131 7.43 25.2931 7.23C25.6831 7.03 25.8781 6.745 25.8781 6.375C25.8781 6.175 25.8131 5.995 25.6831 5.835C25.5631 5.675 25.3731 5.595 25.1131 5.595Z" fill="#EA7171"/>
<path d="M33.1265 10.155C33.4165 10.155 33.6665 10.115 33.8765 10.035C34.0965 9.955 34.2865 9.865 34.4465 9.765C34.6065 9.665 34.7415 9.575 34.8515 9.495C34.9615 9.415 35.0615 9.375 35.1515 9.375C35.3815 9.375 35.4965 9.525 35.4965 9.825C35.4965 9.895 35.4815 9.995 35.4515 10.125C35.4215 10.245 35.3815 10.375 35.3315 10.515C35.2815 10.645 35.2265 10.77 35.1665 10.89C35.1165 11.01 35.0665 11.1 35.0165 11.16C34.9665 11.21 34.8765 11.29 34.7465 11.4C34.6265 11.51 34.4615 11.62 34.2515 11.73C34.0415 11.84 33.7965 11.935 33.5165 12.015C33.2365 12.105 32.9265 12.15 32.5865 12.15C32.2065 12.15 31.8115 12.095 31.4015 11.985C31.0015 11.865 30.6365 11.665 30.3065 11.385C29.9765 11.095 29.7015 10.71 29.4815 10.23C29.2715 9.74 29.1665 9.13 29.1665 8.4C29.1665 8.14 29.1815 7.845 29.2115 7.515C29.2515 7.175 29.3265 6.83 29.4365 6.48C29.5465 6.12 29.6915 5.77 29.8715 5.43C30.0615 5.08 30.3115 4.77 30.6215 4.5C30.9315 4.23 31.3015 4.015 31.7315 3.855C32.1715 3.685 32.6915 3.6 33.2915 3.6C33.7815 3.6 34.2015 3.66 34.5515 3.78C34.9115 3.89 35.2065 4.045 35.4365 4.245C35.6665 4.435 35.8365 4.66 35.9465 4.92C36.0665 5.18 36.1265 5.46 36.1265 5.76C36.1265 6.3 35.9565 6.7 35.6165 6.96C35.2765 7.21 34.7965 7.335 34.1765 7.335C34.0265 7.335 33.9215 7.325 33.8615 7.305C33.8115 7.275 33.7865 7.215 33.7865 7.125C33.7865 6.885 33.7815 6.67 33.7715 6.48C33.7615 6.29 33.7315 6.13 33.6815 6C33.6415 5.87 33.5765 5.77 33.4865 5.7C33.3965 5.63 33.2665 5.595 33.0965 5.595C32.7865 5.595 32.5365 5.695 32.3465 5.895C32.1665 6.095 32.0265 6.34 31.9265 6.63C31.8365 6.91 31.7765 7.2 31.7465 7.5C31.7265 7.8 31.7165 8.05 31.7165 8.25C31.7165 8.96 31.8265 9.455 32.0465 9.735C32.2765 10.015 32.6365 10.155 33.1265 10.155Z" fill="#EA7171"/>
<path d="M40.1887 5.775C40.1587 6.155 40.1237 6.53 40.0837 6.9C40.0537 7.27 40.0237 7.62 39.9937 7.95C39.9637 8.28 39.9387 8.575 39.9187 8.835C39.9087 9.095 39.9037 9.295 39.9037 9.435C39.9037 9.695 39.9337 9.87 39.9937 9.96C40.0537 10.04 40.1537 10.08 40.2937 10.08C40.4037 10.08 40.4987 10.06 40.5787 10.02C40.6587 9.98 40.7337 9.935 40.8037 9.885C40.8737 9.835 40.9337 9.79 40.9837 9.75C41.0437 9.71 41.1087 9.69 41.1787 9.69C41.2487 9.69 41.3137 9.73 41.3737 9.81C41.4337 9.89 41.4637 10.075 41.4637 10.365C41.4637 10.915 41.3137 11.35 41.0137 11.67C40.7137 11.99 40.1987 12.15 39.4687 12.15C38.7487 12.15 38.2137 11.985 37.8637 11.655C37.5237 11.315 37.3537 10.8 37.3537 10.11C37.3537 9.96 37.3587 9.785 37.3687 9.585C37.3887 9.375 37.4137 9.105 37.4437 8.775C37.4737 8.445 37.5087 8.04 37.5487 7.56C37.5987 7.08 37.6487 6.485 37.6987 5.775H36.9037C36.8237 5.775 36.7737 5.76 36.7537 5.73C36.7437 5.69 36.7387 5.635 36.7387 5.565L36.7837 4.8C36.7937 4.67 36.8087 4.545 36.8287 4.425C36.8587 4.295 36.9087 4.18 36.9787 4.08C37.0587 3.98 37.1687 3.9 37.3087 3.84C37.4487 3.78 37.6337 3.75 37.8637 3.75C37.9337 3.57 38.0137 3.355 38.1037 3.105C38.1937 2.855 38.2837 2.615 38.3737 2.385C38.4637 2.145 38.5487 1.945 38.6287 1.785C38.7187 1.625 38.7987 1.545 38.8687 1.545H39.3037C39.7237 1.545 40.0137 1.675 40.1737 1.935C40.3337 2.195 40.4137 2.505 40.4137 2.865C40.4137 3.065 40.3987 3.36 40.3687 3.75H41.9437C42.1037 3.75 42.1837 3.82 42.1837 3.96L42.1237 4.77C42.1037 5.07 42.0187 5.315 41.8687 5.505C41.7287 5.685 41.4337 5.775 40.9837 5.775H40.1887Z" fill="#EA7171"/>
<path d="M46.9425 1.575C46.9525 1.495 46.9825 1.44 47.0325 1.41C47.0925 1.37 47.1475 1.35 47.1975 1.35C47.8775 1.35 48.5125 1.33 49.1025 1.29C49.7025 1.24 50.1725 1.215 50.5125 1.215C51.3625 1.215 52.0725 1.3 52.6425 1.47C53.2225 1.64 53.6875 1.905 54.0375 2.265C54.3975 2.625 54.6525 3.09 54.8025 3.66C54.9525 4.23 55.0275 4.915 55.0275 5.715C55.0275 6.525 54.9425 7.32 54.7725 8.1C54.6125 8.87 54.3275 9.555 53.9175 10.155C53.5075 10.755 52.9525 11.24 52.2525 11.61C51.5625 11.97 50.6875 12.15 49.6275 12.15C49.1375 12.15 48.6875 12.14 48.2775 12.12C47.8775 12.1 47.5325 12.04 47.2425 11.94C46.9525 11.84 46.7275 11.69 46.5675 11.49C46.4075 11.29 46.3275 11.015 46.3275 10.665C46.3275 10.535 46.3325 10.34 46.3425 10.08C46.3625 9.82 46.3825 9.51 46.4025 9.15C46.4325 8.79 46.4625 8.395 46.4925 7.965C46.5325 7.525 46.5725 7.065 46.6125 6.585C46.6925 5.595 46.7525 4.805 46.7925 4.215C46.8425 3.625 46.8725 3.165 46.8825 2.835C46.9025 2.495 46.9125 2.24 46.9125 2.07C46.9225 1.9 46.9325 1.735 46.9425 1.575ZM49.7325 9.78C50.2925 9.78 50.7375 9.66 51.0675 9.42C51.4075 9.18 51.6675 8.875 51.8475 8.505C52.0275 8.135 52.1475 7.73 52.2075 7.29C52.2675 6.85 52.2975 6.435 52.2975 6.045C52.2975 5.625 52.2675 5.26 52.2075 4.95C52.1575 4.63 52.0625 4.365 51.9225 4.155C51.7925 3.945 51.6075 3.79 51.3675 3.69C51.1275 3.58 50.8275 3.525 50.4675 3.525C50.3575 3.525 50.2175 3.53 50.0475 3.54C49.8775 3.55 49.6725 3.565 49.4325 3.585C49.4125 3.955 49.3875 4.395 49.3575 4.905C49.3275 5.405 49.2925 5.935 49.2525 6.495C49.2225 7.045 49.1875 7.605 49.1475 8.175C49.1075 8.735 49.0675 9.255 49.0275 9.735C49.1775 9.755 49.3125 9.77 49.4325 9.78C49.5525 9.78 49.6525 9.78 49.7325 9.78Z" fill="#EA7171"/>
<path d="M55.7178 10.155C55.7178 9.255 56.1228 8.55 56.9328 8.04C57.7428 7.53 58.9378 7.255 60.5178 7.215C60.5278 7.105 60.5328 7.015 60.5328 6.945C60.5428 6.865 60.5478 6.77 60.5478 6.66C60.5478 6.34 60.4878 6.085 60.3678 5.895C60.2478 5.705 59.9978 5.61 59.6178 5.61C59.4078 5.61 59.2378 5.64 59.1078 5.7C58.9778 5.76 58.8728 5.845 58.7928 5.955C58.7128 6.055 58.6478 6.18 58.5978 6.33C58.5478 6.48 58.5028 6.645 58.4628 6.825C58.4428 6.915 58.3978 6.975 58.3278 7.005C58.2578 7.025 58.1478 7.035 57.9978 7.035C56.9778 7.035 56.4678 6.65 56.4678 5.88C56.4678 5.57 56.5378 5.275 56.6778 4.995C56.8278 4.715 57.0428 4.475 57.3228 4.275C57.6128 4.065 57.9728 3.9 58.4028 3.78C58.8328 3.66 59.3328 3.6 59.9028 3.6C61.0128 3.6 61.8178 3.83 62.3178 4.29C62.8178 4.75 63.0678 5.4 63.0678 6.24C63.0678 6.35 63.0528 6.55 63.0228 6.84C63.0028 7.12 62.9728 7.42 62.9328 7.74C62.9028 8.05 62.8728 8.345 62.8428 8.625C62.8228 8.905 62.8128 9.1 62.8128 9.21C62.8128 9.46 62.8578 9.64 62.9478 9.75C63.0378 9.85 63.1378 9.92 63.2478 9.96C63.3678 10 63.4728 10.03 63.5628 10.05C63.6528 10.07 63.6978 10.12 63.6978 10.2C63.6978 10.42 63.6678 10.645 63.6078 10.875C63.5478 11.105 63.4478 11.315 63.3078 11.505C63.1778 11.695 62.9928 11.85 62.7528 11.97C62.5228 12.09 62.2378 12.15 61.8978 12.15C61.4178 12.15 61.0578 12.035 60.8178 11.805C60.5778 11.575 60.4178 11.255 60.3378 10.845C60.0978 11.195 59.7828 11.5 59.3928 11.76C59.0128 12.02 58.5128 12.15 57.8928 12.15C57.5928 12.15 57.3078 12.115 57.0378 12.045C56.7778 11.975 56.5478 11.86 56.3478 11.7C56.1578 11.54 56.0028 11.335 55.8828 11.085C55.7728 10.825 55.7178 10.515 55.7178 10.155ZM60.3828 8.445C60.1228 8.445 59.8678 8.465 59.6178 8.505C59.3678 8.545 59.1428 8.61 58.9428 8.7C58.7528 8.78 58.5978 8.89 58.4778 9.03C58.3578 9.17 58.2978 9.34 58.2978 9.54C58.2978 9.77 58.3678 9.93 58.5078 10.02C58.6578 10.11 58.8178 10.155 58.9878 10.155C59.1478 10.155 59.3078 10.12 59.4678 10.05C59.6278 9.98 59.7678 9.875 59.8878 9.735C60.0178 9.585 60.1278 9.405 60.2178 9.195C60.3078 8.985 60.3628 8.735 60.3828 8.445Z" fill="#EA7171"/>
<path d="M67.8449 5.775C67.8149 6.155 67.7799 6.53 67.7399 6.9C67.7099 7.27 67.6799 7.62 67.6499 7.95C67.6199 8.28 67.5949 8.575 67.5749 8.835C67.5649 9.095 67.5599 9.295 67.5599 9.435C67.5599 9.695 67.5899 9.87 67.6499 9.96C67.7099 10.04 67.8099 10.08 67.9499 10.08C68.0599 10.08 68.1549 10.06 68.2349 10.02C68.3149 9.98 68.3899 9.935 68.4599 9.885C68.5299 9.835 68.5899 9.79 68.6399 9.75C68.6999 9.71 68.7649 9.69 68.8349 9.69C68.9049 9.69 68.9699 9.73 69.0299 9.81C69.0899 9.89 69.1199 10.075 69.1199 10.365C69.1199 10.915 68.9699 11.35 68.6699 11.67C68.3699 11.99 67.8549 12.15 67.1249 12.15C66.4049 12.15 65.8699 11.985 65.5199 11.655C65.1799 11.315 65.0099 10.8 65.0099 10.11C65.0099 9.96 65.0149 9.785 65.0249 9.585C65.0449 9.375 65.0699 9.105 65.0999 8.775C65.1299 8.445 65.1649 8.04 65.2049 7.56C65.2549 7.08 65.3049 6.485 65.3549 5.775H64.5599C64.4799 5.775 64.4299 5.76 64.4099 5.73C64.3999 5.69 64.3949 5.635 64.3949 5.565L64.4399 4.8C64.4499 4.67 64.4649 4.545 64.4849 4.425C64.5149 4.295 64.5649 4.18 64.6349 4.08C64.7149 3.98 64.8249 3.9 64.9649 3.84C65.1049 3.78 65.2899 3.75 65.5199 3.75C65.5899 3.57 65.6699 3.355 65.7599 3.105C65.8499 2.855 65.9399 2.615 66.0299 2.385C66.1199 2.145 66.2049 1.945 66.2849 1.785C66.3749 1.625 66.4549 1.545 66.5249 1.545H66.9599C67.3799 1.545 67.6699 1.675 67.8299 1.935C67.9899 2.195 68.0699 2.505 68.0699 2.865C68.0699 3.065 68.0549 3.36 68.0249 3.75H69.5999C69.7599 3.75 69.8399 3.82 69.8399 3.96L69.7799 4.77C69.7599 5.07 69.6749 5.315 69.5249 5.505C69.3849 5.685 69.0899 5.775 68.6399 5.775H67.8449Z" fill="#EA7171"/>
<path d="M73.9736 12.15C73.5336 12.15 73.0936 12.095 72.6536 11.985C72.2236 11.875 71.8336 11.685 71.4836 11.415C71.1436 11.145 70.8636 10.785 70.6436 10.335C70.4236 9.885 70.3136 9.32 70.3136 8.64C70.3136 8.39 70.3336 8.09 70.3736 7.74C70.4136 7.39 70.4886 7.03 70.5986 6.66C70.7186 6.29 70.8786 5.925 71.0786 5.565C71.2886 5.195 71.5586 4.865 71.8886 4.575C72.2186 4.285 72.6186 4.05 73.0886 3.87C73.5586 3.69 74.1186 3.6 74.7686 3.6C75.2886 3.6 75.7286 3.66 76.0886 3.78C76.4486 3.9 76.7386 4.065 76.9586 4.275C77.1786 4.475 77.3386 4.71 77.4386 4.98C77.5386 5.25 77.5886 5.54 77.5886 5.85C77.5886 6.31 77.4936 6.7 77.3036 7.02C77.1236 7.34 76.8836 7.61 76.5836 7.83C76.2936 8.04 75.9686 8.205 75.6086 8.325C75.2486 8.445 74.8936 8.54 74.5436 8.61C74.1936 8.67 73.8686 8.71 73.5686 8.73C73.2786 8.74 73.0536 8.745 72.8936 8.745C72.8936 8.935 72.9186 9.125 72.9686 9.315C73.0286 9.495 73.1136 9.655 73.2236 9.795C73.3336 9.935 73.4786 10.05 73.6586 10.14C73.8386 10.23 74.0586 10.275 74.3186 10.275C74.5786 10.275 74.7786 10.235 74.9186 10.155C75.0686 10.065 75.1886 9.97 75.2786 9.87C75.3686 9.76 75.4436 9.665 75.5036 9.585C75.5736 9.495 75.6636 9.45 75.7736 9.45C75.8236 9.45 75.9086 9.465 76.0286 9.495C76.1586 9.515 76.2886 9.565 76.4186 9.645C76.5486 9.725 76.6636 9.835 76.7636 9.975C76.8636 10.115 76.9136 10.295 76.9136 10.515C76.9136 10.805 76.8236 11.055 76.6436 11.265C76.4636 11.475 76.2286 11.645 75.9386 11.775C75.6586 11.905 75.3436 12 74.9936 12.06C74.6436 12.12 74.3036 12.15 73.9736 12.15ZM74.2586 5.595C74.0386 5.595 73.8486 5.66 73.6886 5.79C73.5386 5.91 73.4086 6.065 73.2986 6.255C73.1986 6.445 73.1186 6.655 73.0586 6.885C73.0086 7.115 72.9686 7.335 72.9386 7.545C73.5586 7.535 74.0586 7.43 74.4386 7.23C74.8286 7.03 75.0236 6.745 75.0236 6.375C75.0236 6.175 74.9586 5.995 74.8286 5.835C74.7086 5.675 74.5186 5.595 74.2586 5.595Z" fill="#EA7171"/>
</svg>
