<svg width="129" height="26" viewBox="0 0 129 26" fill="none" xmlns="http://www.w3.org/2000/svg">
<path d="M20.34 23.2393C20.66 23.2793 20.94 23.3593 21.18 23.4793C21.42 23.5993 21.59 23.8193 21.69 24.1393C21.93 24.8593 21.67 25.3693 20.91 25.6693C20.67 25.7693 20.43 25.8293 20.19 25.8493C19.95 25.8693 19.72 25.8793 19.5 25.8793H5.55C5.15 25.8793 4.73 25.8693 4.29 25.8493C3.87 25.8493 3.44 25.8393 3 25.8193C2.58 25.7993 2.23 25.6493 1.95 25.3693C1.67 25.0893 1.51 24.7193 1.47 24.2593L1.38 22.1593C1.36 21.9393 1.36 21.6793 1.38 21.3793C1.4 21.0793 1.5 20.8293 1.68 20.6293C1.96 20.3293 2.33 20.1393 2.79 20.0593C3.27 19.9793 3.73 19.9393 4.17 19.9393C4.45 19.9393 4.91 19.9393 5.55 19.9393C6.21 19.9393 7.1 19.9493 8.22 19.9693C9.34 19.9693 10.72 19.9693 12.36 19.9693C14.02 19.9693 15.99 19.9693 18.27 19.9693V18.8893H3.51C3.31 18.8893 3.13 18.8893 2.97 18.8893C2.81 18.8893 2.65 18.8693 2.49 18.8293C2.31 18.7893 2.15 18.7493 2.01 18.7093C1.87 18.6693 1.75 18.5693 1.65 18.4093C1.37 17.9893 1.3 17.5593 1.44 17.1193C1.5 16.9593 1.59 16.8393 1.71 16.7593C1.83 16.6593 1.97 16.5793 2.13 16.5193C2.29 16.4593 2.44 16.4193 2.58 16.3993C2.74 16.3793 2.88 16.3593 3 16.3393C3.3 16.2793 3.61 16.2493 3.93 16.2493C4.21 16.2493 4.51 16.2493 4.83 16.2493C5.17 16.2493 5.57 16.2593 6.03 16.2793C6.49 16.2793 7.02 16.2793 7.62 16.2793C8.24 16.2793 8.96 16.2793 9.78 16.2793C9.8 16.0593 9.81 15.8493 9.81 15.6493C9.83 15.4293 9.84 15.2093 9.84 14.9893C9.72 14.9893 9.45 14.9893 9.03 14.9893C8.61 14.9693 8.12 14.9593 7.56 14.9593C7.02 14.9593 6.43 14.9593 5.79 14.9593C5.17 14.9393 4.58 14.9293 4.02 14.9293C3.48 14.9093 3.01 14.8893 2.61 14.8693C2.21 14.8493 1.95 14.8293 1.83 14.8093C1.51 14.7693 1.25 14.7493 1.05 14.7493C0.87 14.7493 0.65 14.6293 0.39 14.3893C0.13 14.1493 0 13.8393 0 13.4593C0 13.0393 0.13 12.6993 0.39 12.4393C0.53 12.2793 0.72 12.1693 0.96 12.1093C1.2 12.0293 1.43 11.9793 1.65 11.9593C1.87 11.9193 2.06 11.9093 2.22 11.9293C2.4 11.9293 2.5 11.9293 2.52 11.9293H19.68C19.98 11.9293 20.28 11.9293 20.58 11.9293C20.88 11.9293 21.17 11.9393 21.45 11.9593C21.73 11.9793 22 12.0093 22.26 12.0493C22.54 12.0693 22.79 12.1793 23.01 12.3793C23.23 12.5393 23.35 12.7193 23.37 12.9193C23.41 13.1193 23.43 13.3393 23.43 13.5793C23.43 13.8793 23.34 14.1193 23.16 14.2993C23 14.4793 22.77 14.6193 22.47 14.7193C22.07 14.8793 21.62 14.9493 21.12 14.9293C20.64 14.9093 20.2 14.9093 19.8 14.9293C18.8 14.9693 17.83 14.9893 16.89 14.9893C15.97 14.9893 15 14.9893 13.98 14.9893C13.98 15.2093 13.98 15.4293 13.98 15.6493C13.98 15.8493 13.97 16.0593 13.95 16.2793H18.57C19.59 16.2793 20.37 16.4393 20.91 16.7593C21.45 17.0593 21.72 17.5593 21.72 18.2593V20.3893C21.72 20.6693 21.65 20.9493 21.51 21.2293C21.39 21.4893 21.17 21.7093 20.85 21.8893C20.59 22.0493 20.33 22.1393 20.07 22.1593C19.81 22.1593 19.55 22.1593 19.29 22.1593H5.07V23.2393H20.34ZM18.78 7.69929C19.16 7.87929 19.52 8.07929 19.86 8.29929C20.22 8.51929 20.56 8.73929 20.88 8.95929C21.04 9.09929 21.13 9.27929 21.15 9.49929C21.19 9.71929 21.16 9.93929 21.06 10.1593C20.98 10.3593 20.85 10.5393 20.67 10.6993C20.49 10.8593 20.28 10.9693 20.04 11.0293C19.4 11.1293 18.8 11.1293 18.24 11.0293C17.7 10.9093 17.14 10.7193 16.56 10.4593C16.02 10.2193 15.5 9.98929 15 9.76929C14.52 9.54929 14.05 9.30929 13.59 9.04929C13.45 8.96929 13.26 8.86929 13.02 8.74929C12.8 8.62929 12.58 8.51929 12.36 8.41929C12.1 8.29929 11.82 8.16929 11.52 8.02929C11.18 8.18929 10.85 8.33929 10.53 8.47929C10.25 8.59929 9.97 8.72929 9.69 8.86929C9.43 8.98929 9.22 9.08929 9.06 9.16929C8.54 9.44929 8.06 9.68929 7.62 9.88929C7.18 10.0693 6.7 10.2793 6.18 10.5193C5.78 10.6793 5.37 10.8593 4.95 11.0593C4.55 11.2393 4.12 11.3293 3.66 11.3293C3.3 11.3093 2.95 11.2193 2.61 11.0593C2.27 10.8793 2.06 10.5993 1.98 10.2193C1.96 10.0193 1.98 9.78929 2.04 9.52929C2.12 9.24929 2.25 9.01929 2.43 8.83929C2.63 8.65929 2.87 8.47929 3.15 8.29929L5.22 7.27929C5.56 7.11929 5.86 6.97929 6.12 6.85929C6.38 6.73929 6.69 6.59929 7.05 6.43929C7.21 6.33929 7.39 6.23929 7.59 6.13929C7.79 6.01929 8 5.90929 8.22 5.80929H6.33C6.01 5.80929 5.73 5.80929 5.49 5.80929C5.27 5.80929 5.01 5.78929 4.71 5.74929C4.49 5.70929 4.25 5.68929 3.99 5.68929C3.73 5.68929 3.49 5.63929 3.27 5.53929C3.15 5.49929 3.04 5.42929 2.94 5.32929C2.86 5.20929 2.79 5.08929 2.73 4.96929C2.61 4.76929 2.54 4.54929 2.52 4.30929C2.5 4.06929 2.54 3.83929 2.64 3.61929C2.8 3.31929 3.06 3.08929 3.42 2.92929C3.78 2.76929 4.15 2.68929 4.53 2.68929H5.22C5.54 2.72929 5.77 2.73929 5.91 2.71929C6.07 2.69929 6.31 2.68929 6.63 2.68929H9.3V1.48929C9.3 0.889285 9.56 0.479285 10.08 0.259286C10.6 0.0392862 11.16 -0.0407139 11.76 0.0192853C12.3 0.0792857 12.71 0.199286 12.99 0.379286C13.29 0.539286 13.45 0.819286 13.47 1.21929C13.49 1.37929 13.5 1.59929 13.5 1.87929C13.52 2.13929 13.53 2.40929 13.53 2.68929H17.01C17.33 2.68929 17.7 2.67929 18.12 2.65929C18.54 2.63929 18.94 2.66929 19.32 2.74929C19.72 2.80929 20.07 2.93929 20.37 3.13929C20.69 3.31929 20.9 3.61929 21 4.03929C21.12 4.51929 21.03 4.88929 20.73 5.14929C20.45 5.38929 20.08 5.56929 19.62 5.68929C19.18 5.78929 18.71 5.84929 18.21 5.86929C17.71 5.86929 17.3 5.86929 16.98 5.86929C16.66 5.84929 16.32 5.83929 15.96 5.83929C15.62 5.83929 15.29 5.83929 14.97 5.83929C15.11 5.91929 15.24 5.96929 15.36 5.98929C15.56 6.08929 15.75 6.18929 15.93 6.28929C16.13 6.36929 16.33 6.45929 16.53 6.55929C16.91 6.73929 17.28 6.92929 17.64 7.12929C18.02 7.30929 18.4 7.49929 18.78 7.69929Z" fill="#272B4E"/>
<path d="M24.9829 15.1093C24.7029 14.9893 24.5029 14.7593 24.3829 14.4193C24.2229 14.0193 24.1929 13.6193 24.2929 13.2193C24.4129 12.8193 24.5929 12.4393 24.8329 12.0793C25.0729 11.7193 25.3429 11.3793 25.6429 11.0593C25.9629 10.7393 26.2329 10.4393 26.4529 10.1593C26.7929 9.73929 27.1229 9.31929 27.4429 8.89929C27.7629 8.47929 28.0929 8.04929 28.4329 7.60929C28.6729 7.26929 28.9229 6.86929 29.1829 6.40929C29.4429 5.94929 29.5929 5.49929 29.6329 5.05929C29.6329 4.93929 29.6429 4.78929 29.6629 4.60929C29.6829 4.40929 29.6929 4.20929 29.6929 4.00929C29.7129 3.78929 29.7329 3.58929 29.7529 3.40929C29.7729 3.22929 29.8029 3.07929 29.8429 2.95929C29.9629 2.55929 30.1529 2.28929 30.4129 2.14929C30.6929 1.98929 31.1129 1.90929 31.6729 1.90929C31.9929 1.90929 32.3529 1.96929 32.7529 2.08929C33.1529 2.18929 33.4229 2.39929 33.5629 2.71929C33.7029 3.07929 33.7429 3.49929 33.6829 3.97929C33.6429 4.43929 33.6829 4.85929 33.8029 5.23929C33.9029 5.53929 34.0529 5.84929 34.2529 6.16929C34.4529 6.48929 34.6629 6.80929 34.8829 7.12929C35.2629 7.66929 35.6429 8.25929 36.0229 8.89929C36.4029 9.51929 36.7529 10.0493 37.0729 10.4893C37.3929 10.9093 37.7029 11.3493 38.0029 11.8093C38.3029 12.2493 38.5029 12.7293 38.6029 13.2493C38.7029 13.6893 38.6529 14.0593 38.4529 14.3593C38.2729 14.6393 38.0229 14.8493 37.7029 14.9893C37.3829 15.1093 37.0329 15.1393 36.6529 15.0793C36.2729 14.9993 35.9429 14.8193 35.6629 14.5393C34.9229 13.7793 34.2529 12.9693 33.6529 12.1093C33.0529 11.2293 32.4329 10.3693 31.7929 9.52929C31.7929 9.52929 31.7029 9.62929 31.5229 9.82929C31.3429 10.0293 31.1229 10.2893 30.8629 10.6093C30.6029 10.9293 30.3129 11.2793 29.9929 11.6593C29.6729 12.0393 29.3729 12.3993 29.0929 12.7393C28.8129 13.0793 28.5629 13.3793 28.3429 13.6393C28.1429 13.8793 28.0229 14.0293 27.9829 14.0893C27.7629 14.3493 27.5129 14.5793 27.2329 14.7793C26.9529 14.9793 26.6429 15.1193 26.3029 15.1993C26.0829 15.2393 25.8529 15.2593 25.6129 15.2593C25.3929 15.2593 25.1829 15.2093 24.9829 15.1093ZM29.6029 25.5493C28.7829 25.5493 28.1229 25.3693 27.6229 25.0093C27.1229 24.6693 26.8729 24.2693 26.8729 23.8093V19.4893C26.8329 19.0493 26.8329 18.5993 26.8729 18.1393C26.9129 17.7193 27.0729 17.3793 27.3529 17.1193C27.6529 16.8593 28.0329 16.7293 28.4929 16.7293C28.5929 16.7293 28.7729 16.7393 29.0329 16.7593C29.2929 16.7593 29.4729 16.7793 29.5729 16.8193C29.8329 16.8993 30.0329 17.0193 30.1729 17.1793C30.3329 17.3393 30.4529 17.5293 30.5329 17.7493C30.6129 17.9493 30.6629 18.1693 30.6829 18.4093C30.7029 18.6293 30.7229 18.8493 30.7429 19.0693C30.7429 19.1493 30.7429 19.3393 30.7429 19.6393C30.7629 19.9193 30.7729 20.2293 30.7729 20.5693C30.7929 20.8893 30.8029 21.1893 30.8029 21.4693C30.8229 21.7493 30.8429 21.9193 30.8629 21.9793C30.9229 21.9993 31.0829 22.0293 31.3429 22.0693C31.6229 22.0893 32.1329 22.0993 32.8729 22.0993C33.5129 22.0993 33.9029 22.0893 34.0429 22.0693C34.2029 22.0493 34.2929 22.0393 34.3129 22.0393H44.1229C44.1229 22.0393 44.1829 22.0593 44.3029 22.0993C44.4429 22.1393 44.5929 22.2093 44.7529 22.3093C44.9129 22.3893 45.0629 22.5093 45.2029 22.6693C45.3429 22.8093 45.4329 22.9793 45.4729 23.1793C45.5729 23.9393 45.4429 24.5293 45.0829 24.9493C44.8429 25.2293 44.5829 25.3993 44.3029 25.4593C44.0229 25.5193 43.8729 25.5493 43.8529 25.5493H29.6029ZM44.8429 11.0893V14.2093C44.8229 14.4293 44.7929 14.6593 44.7529 14.8993C44.7129 15.1193 44.6329 15.3393 44.5129 15.5593C44.3729 15.8193 44.2029 16.0093 44.0029 16.1293C43.6829 16.3493 43.3429 16.4593 42.9829 16.4593C42.6829 16.4593 42.4029 16.3793 42.1429 16.2193C41.9429 16.0993 41.7829 15.9493 41.6629 15.7693C41.5429 15.5893 41.4429 15.4193 41.3629 15.2593C41.3029 15.0993 41.2629 14.9593 41.2429 14.8393C41.2229 14.6993 41.2129 14.6293 41.2129 14.6293V4.09929C41.2129 3.99929 41.2229 3.77929 41.2429 3.43929C41.2829 3.07929 41.3629 2.77929 41.4829 2.53929C41.6829 2.11929 42.0929 1.87929 42.7129 1.81929C43.0529 1.77929 43.3729 1.79929 43.6729 1.87929C43.9729 1.95929 44.2029 2.08929 44.3629 2.26929C44.4829 2.42929 44.5629 2.58929 44.6029 2.74929C44.6629 2.88929 44.7129 3.03929 44.7529 3.19929C44.8129 3.39929 44.8429 3.60929 44.8429 3.82929C44.8629 4.04929 44.8629 4.26929 44.8429 4.48929V7.72929C44.9229 7.72929 45.0729 7.73929 45.2929 7.75929C45.5129 7.77929 45.7429 7.79929 45.9829 7.81929C46.2429 7.81929 46.4829 7.82929 46.7029 7.84929C46.9229 7.86929 47.0729 7.88929 47.1529 7.90929C47.5529 7.98929 47.8329 8.10929 47.9929 8.26929C48.1529 8.40929 48.2629 8.58929 48.3229 8.80929C48.3629 9.02929 48.3829 9.28929 48.3829 9.58929C48.3829 9.86929 48.3229 10.1093 48.2029 10.3093C47.9629 10.7093 47.6029 10.9393 47.1229 10.9993C46.6429 11.0593 46.1129 11.0893 45.5329 11.0893H44.8429Z" fill="#272B4E"/>
<path d="M58.8768 21.1093C58.8768 20.2093 59.1368 19.4593 59.6568 18.8593C60.1968 18.2593 60.9168 17.7893 61.8168 17.4493C62.7168 17.0893 63.7768 16.8393 64.9968 16.6993C66.2168 16.5593 67.5168 16.4893 68.8968 16.4893C70.2768 16.4893 71.5768 16.5393 72.7968 16.6393C74.0168 16.7393 75.0768 16.9593 75.9768 17.2993C76.8768 17.6193 77.5868 18.0793 78.1068 18.6793C78.6468 19.2793 78.9168 20.0893 78.9168 21.1093C78.9168 22.1093 78.6468 22.9093 78.1068 23.5093C77.5868 24.1093 76.8768 24.5693 75.9768 24.8893C75.0768 25.2293 74.0168 25.4493 72.7968 25.5493C71.5768 25.6693 70.2768 25.7293 68.8968 25.7293C67.5168 25.7293 66.2168 25.6693 64.9968 25.5493C63.7768 25.4493 62.7168 25.2293 61.8168 24.8893C60.9168 24.5693 60.1968 24.1093 59.6568 23.5093C59.1368 22.9093 58.8768 22.1093 58.8768 21.1093ZM66.3168 5.32929C66.3168 5.32929 66.3068 5.46929 66.2868 5.74929C66.2868 6.02929 66.2868 6.33929 66.2868 6.67929C66.2868 7.01929 66.2868 7.33929 66.2868 7.63929C66.3068 7.93929 66.3168 8.10929 66.3168 8.14929C66.4168 8.24929 66.5968 8.41929 66.8568 8.65929C67.1168 8.87929 67.3368 9.06929 67.5168 9.22929C67.7168 9.38929 67.9168 9.56929 68.1168 9.76929C68.3368 9.94929 68.5568 10.1493 68.7768 10.3693C68.9168 10.5093 69.0468 10.6493 69.1668 10.7893C69.2868 10.9093 69.3968 11.0193 69.4968 11.1193C69.8768 11.4993 70.2568 11.9093 70.6368 12.3493C71.0168 12.7893 71.2768 13.2393 71.4168 13.6993C71.4768 13.8793 71.4868 14.0793 71.4468 14.2993C71.4068 14.5193 71.2768 14.7093 71.0568 14.8693C70.7168 15.0693 70.3568 15.1693 69.9768 15.1693C69.5368 15.1693 69.1168 15.0793 68.7168 14.8993C68.3168 14.7193 67.9968 14.5393 67.7568 14.3593C67.3768 14.0793 67.0268 13.7893 66.7068 13.4893C66.3868 13.1693 66.0668 12.8493 65.7468 12.5293C65.5268 12.3093 65.2768 12.0593 64.9968 11.7793C64.7168 11.4793 64.4368 11.2193 64.1568 10.9993L63.3468 11.8093C63.2068 11.9493 63.0668 12.0893 62.9268 12.2293C62.7868 12.3493 62.6568 12.4793 62.5368 12.6193C62.2768 12.8993 62.0068 13.1893 61.7268 13.4893C61.4468 13.7693 61.1268 14.0393 60.7668 14.2993C59.9468 14.8993 59.1768 15.1993 58.4568 15.1993C58.3568 15.1993 58.2668 15.1993 58.1868 15.1993C58.1268 15.1993 58.0468 15.1793 57.9468 15.1393C57.5068 15.0393 57.2168 14.8593 57.0768 14.5993C56.9368 14.3793 56.8868 14.1293 56.9268 13.8493C56.9868 13.5693 57.0768 13.3193 57.1968 13.0993C57.3568 12.8793 57.5368 12.6693 57.7368 12.4693C57.9368 12.2493 58.1368 12.0293 58.3368 11.8093C58.5168 11.6093 58.7968 11.3293 59.1768 10.9693C59.5768 10.5893 59.9768 10.2093 60.3768 9.82929C60.7768 9.42929 61.1468 9.06929 61.4868 8.74929C61.8268 8.42929 62.0368 8.22929 62.1168 8.14929V5.32929H60.1968C59.9568 5.32929 59.6768 5.33929 59.3568 5.35929C59.0368 5.35929 58.7168 5.33929 58.3968 5.29929C58.0968 5.25929 57.8168 5.17929 57.5568 5.05929C57.2968 4.91929 57.1068 4.69929 56.9868 4.39929C56.8868 4.17929 56.8168 3.92929 56.7768 3.64929C56.7568 3.36929 56.7768 3.10929 56.8368 2.86929C56.9168 2.58929 57.0968 2.39929 57.3768 2.29929C57.6568 2.17929 57.9268 2.09929 58.1868 2.05929C58.2268 2.05929 58.3868 2.05929 58.6668 2.05929C58.9668 2.05929 59.2868 2.05929 59.6268 2.05929C59.9668 2.05929 60.2868 2.05929 60.5868 2.05929C60.8868 2.05929 61.0668 2.04929 61.1268 2.02929H68.1468C68.9468 2.02929 69.6168 2.07929 70.1568 2.17929C70.7168 2.27929 71.1668 2.52929 71.5068 2.92929C71.6068 3.04929 71.6668 3.20929 71.6868 3.40929C71.7268 3.60929 71.7268 3.81929 71.6868 4.03929C71.6668 4.23929 71.6068 4.42929 71.5068 4.60929C71.4268 4.78929 71.3068 4.91929 71.1468 4.99929C70.9868 5.05929 70.7968 5.12929 70.5768 5.20929C70.3568 5.26929 70.1668 5.30929 70.0068 5.32929C69.7268 5.34929 69.4368 5.35929 69.1368 5.35929C68.8568 5.33929 68.5768 5.32929 68.2968 5.32929H66.3168ZM78.3768 10.6393V13.6693C78.3568 13.8893 78.3268 14.1193 78.2868 14.3593C78.2468 14.5793 78.1668 14.7993 78.0468 15.0193C77.9268 15.2593 77.7568 15.4593 77.5368 15.6193C77.3768 15.7193 77.1868 15.7993 76.9668 15.8593C76.7668 15.8993 76.5868 15.9193 76.4268 15.9193C76.2668 15.9193 76.0968 15.9093 75.9168 15.8893C75.7368 15.8493 75.5868 15.7893 75.4668 15.7093C75.2668 15.5893 75.1068 15.4393 74.9868 15.2593C74.8668 15.0793 74.7668 14.9093 74.6868 14.7493C74.6268 14.5693 74.5868 14.4193 74.5668 14.2993C74.5468 14.1593 74.5368 14.0893 74.5368 14.0893V3.88929C74.5168 3.80929 74.5268 3.58929 74.5668 3.22929C74.6068 2.86929 74.6868 2.56929 74.8068 2.32929C74.9068 2.12929 75.0768 1.96929 75.3168 1.84929C75.5768 1.72929 75.8468 1.64929 76.1268 1.60929C76.4668 1.56929 76.8068 1.58929 77.1468 1.66929C77.4868 1.74929 77.7368 1.87929 77.8968 2.05929C78.0168 2.21929 78.0968 2.37929 78.1368 2.53929C78.1968 2.67929 78.2468 2.82929 78.2868 2.98929C78.3468 3.18929 78.3768 3.39929 78.3768 3.61929C78.3968 3.83929 78.3968 4.05929 78.3768 4.27929V6.61929C78.3768 6.71929 78.3668 6.82929 78.3468 6.94929C78.3468 7.04929 78.3568 7.16929 78.3768 7.30929C78.4568 7.30929 78.6068 7.31929 78.8268 7.33929C79.0468 7.33929 79.2768 7.34929 79.5168 7.36929C79.7568 7.36929 79.9868 7.37929 80.2068 7.39929C80.4268 7.41929 80.5868 7.43929 80.6868 7.45929C81.0868 7.53929 81.3668 7.65929 81.5268 7.81929C81.6868 7.95929 81.7868 8.13929 81.8268 8.35929C81.8868 8.57929 81.9168 8.83929 81.9168 9.13929C81.9168 9.41929 81.8568 9.65929 81.7368 9.85929C81.4968 10.2593 81.1368 10.4893 80.6568 10.5493C80.1768 10.5893 79.6468 10.6193 79.0668 10.6393H78.3768ZM74.8668 21.1093C74.8668 20.7693 74.6868 20.4993 74.3268 20.2993C73.9668 20.0993 73.4968 19.9493 72.9168 19.8493C72.3568 19.7493 71.7168 19.6893 70.9968 19.6693C70.2968 19.6293 69.5968 19.6093 68.8968 19.6093C68.1968 19.6093 67.4968 19.6293 66.7968 19.6693C66.1168 19.6893 65.4968 19.7493 64.9368 19.8493C64.3968 19.9493 63.9568 20.0993 63.6168 20.2993C63.2768 20.4993 63.1068 20.7693 63.1068 21.1093C63.1068 21.4093 63.2768 21.6593 63.6168 21.8593C63.9568 22.0593 64.3968 22.2093 64.9368 22.3093C65.4968 22.4093 66.1168 22.4793 66.7968 22.5193C67.4968 22.5593 68.1968 22.5793 68.8968 22.5793C69.5968 22.5793 70.2968 22.5793 70.9968 22.5793C71.7168 22.5793 72.3568 22.5393 72.9168 22.4593C73.4968 22.3793 73.9668 22.2393 74.3268 22.0393C74.6868 21.8193 74.8668 21.5093 74.8668 21.1093Z" fill="#272B4E"/>
<path d="M87.9408 15.6793C87.7408 15.7193 87.6008 15.8293 87.5208 16.0093C87.4408 16.1893 87.3908 16.3993 87.3708 16.6393C87.3508 16.8593 87.3508 17.0793 87.3708 17.2993C87.3908 17.5193 87.4008 17.6993 87.4008 17.8393C87.4008 18.0793 87.4008 18.3193 87.4008 18.5593C87.4008 18.7993 87.4208 19.0593 87.4608 19.3393C87.4608 19.4593 87.4508 19.6293 87.4308 19.8493C87.4308 20.0493 87.4808 20.1993 87.5808 20.2993C87.5808 20.3393 87.6008 20.3693 87.6408 20.3893C87.6808 20.4093 87.7208 20.4193 87.7608 20.4193C87.9808 20.4193 88.1708 20.4193 88.3308 20.4193C88.5108 20.4193 88.6808 20.4193 88.8408 20.4193C89.0008 20.4193 89.1608 20.4193 89.3208 20.4193C89.5008 20.3993 89.7008 20.3793 89.9208 20.3593C90.2808 20.3593 90.6708 20.3593 91.0908 20.3593C91.5308 20.3593 91.9708 20.3593 92.4108 20.3593C92.8708 20.3593 93.3208 20.3693 93.7608 20.3893C94.2008 20.3893 94.5908 20.3993 94.9308 20.4193C95.2108 20.4593 95.4208 20.5293 95.5608 20.6293C95.7208 20.7293 95.8508 20.8593 95.9508 21.0193C96.0708 21.1793 96.1508 21.3593 96.1908 21.5593C96.2308 21.7393 96.2508 21.9393 96.2508 22.1593C96.2908 22.3993 96.2708 22.6293 96.1908 22.8493C96.1308 23.0493 96.0508 23.2093 95.9508 23.3293C95.8508 23.4493 95.7308 23.5593 95.5908 23.6593C95.4708 23.7393 95.3308 23.8293 95.1708 23.9293C94.7708 24.1093 94.3708 24.1993 93.9708 24.1993C93.5908 24.1793 93.1908 24.1893 92.7708 24.2293C92.5908 24.2293 92.3608 24.2393 92.0808 24.2593C91.8208 24.2593 91.5408 24.2593 91.2408 24.2593C90.9408 24.2593 90.6508 24.2593 90.3708 24.2593C90.0908 24.2593 89.8608 24.2493 89.6808 24.2293C89.5208 24.2093 89.4008 24.1993 89.3208 24.1993C89.2408 24.1993 89.1708 24.1993 89.1108 24.1993C89.0508 24.1993 88.9808 24.2093 88.9008 24.2293C88.8408 24.2293 88.7408 24.2293 88.6008 24.2293C88.3208 24.1893 88.0508 24.1793 87.7908 24.1993C87.5308 24.2193 87.2608 24.2293 86.9808 24.2293C86.5008 24.1893 86.0208 24.1393 85.5408 24.0793C85.0608 24.0193 84.6208 23.8493 84.2208 23.5693C83.9408 23.4093 83.7308 23.1393 83.5908 22.7593C83.4708 22.5193 83.3808 22.2493 83.3208 21.9493C83.2608 21.6493 83.2508 21.3593 83.2908 21.0793C83.3108 20.1793 83.3008 19.1793 83.2608 18.0793C83.2408 16.9793 83.2308 15.9593 83.2308 15.0193C83.2308 14.6593 83.2208 14.2593 83.2008 13.8193C83.2008 13.3593 83.2908 12.9793 83.4708 12.6793C83.6508 12.3993 83.8508 12.1993 84.0708 12.0793C84.2908 11.9393 84.5208 11.8493 84.7608 11.8093C85.0208 11.7693 85.2808 11.7593 85.5408 11.7793C85.8208 11.7793 86.1008 11.7793 86.3808 11.7793H89.1408C89.3808 11.7793 89.6108 11.7793 89.8308 11.7793C90.0508 11.7593 90.2908 11.7193 90.5508 11.6593C90.7308 11.5993 90.8508 11.4793 90.9108 11.2993C91.0108 10.7793 91.0608 10.2093 91.0608 9.58929C91.0808 8.96929 91.0708 8.39929 91.0308 7.87929C91.0308 7.65929 91.0308 7.37929 91.0308 7.03929C91.0308 6.69929 90.9708 6.43929 90.8508 6.25929C90.7108 6.05929 90.4008 5.95929 89.9208 5.95929L85.2408 6.01929C84.9608 6.01929 84.6508 5.98929 84.3108 5.92929C83.9708 5.84929 83.7108 5.69929 83.5308 5.47929C83.4708 5.37929 83.4108 5.28929 83.3508 5.20929C83.2908 5.10929 83.2308 4.97929 83.1708 4.81929C83.0108 4.27929 83.0508 3.78929 83.2908 3.34929C83.5508 2.90929 83.9608 2.62929 84.5208 2.50929C85.0008 2.40929 85.4808 2.37929 85.9608 2.41929C86.4408 2.43929 86.9208 2.42929 87.4008 2.38929H91.0308C91.4308 2.38929 91.8408 2.38929 92.2608 2.38929C92.6808 2.38929 93.0908 2.44929 93.4908 2.56929C93.9108 2.68929 94.2708 2.98929 94.5708 3.46929C94.6108 3.56929 94.6408 3.65929 94.6608 3.73929C94.6808 3.81929 94.7108 3.91929 94.7508 4.03929C94.7908 4.13929 94.8208 4.22929 94.8408 4.30929C94.8608 4.38929 94.8708 4.47929 94.8708 4.57929C94.9108 4.91929 94.9308 5.31929 94.9308 5.77929C94.9308 6.23929 94.9308 6.61929 94.9308 6.91929C94.9308 7.55929 94.9408 8.25929 94.9608 9.01929C94.9808 9.77929 94.9908 10.4793 94.9908 11.1193C94.9908 11.7793 94.9808 12.4193 94.9608 13.0393C94.9608 13.6593 94.8708 14.1993 94.6908 14.6593C94.4908 15.0593 94.2108 15.3193 93.8508 15.4393C93.5108 15.5993 93.1408 15.6693 92.7408 15.6493C92.3408 15.6293 91.9708 15.6193 91.6308 15.6193C91.1708 15.6193 90.7608 15.6293 90.4008 15.6493C90.0408 15.6693 89.6808 15.6793 89.3208 15.6793C89.1608 15.6793 89.0208 15.6793 88.9008 15.6793C88.8008 15.6593 88.7008 15.6493 88.6008 15.6493C88.5208 15.6293 88.4308 15.6293 88.3308 15.6493C88.2308 15.6493 88.1008 15.6593 87.9408 15.6793ZM100.031 5.32929C100.031 5.06929 100.031 4.78929 100.031 4.48929C100.051 4.16929 100.081 3.85929 100.121 3.55929C100.181 3.23929 100.251 2.94929 100.331 2.68929C100.431 2.40929 100.571 2.17929 100.751 1.99929C101.011 1.73929 101.331 1.60929 101.711 1.60929H101.771C102.271 1.62929 102.661 1.77929 102.941 2.05929C103.221 2.31929 103.431 2.63929 103.571 3.01929C103.731 3.39929 103.831 3.79929 103.871 4.21929C103.911 4.61929 103.931 4.97929 103.931 5.29929V23.0593C103.931 23.0793 103.931 23.1793 103.931 23.3593C103.931 23.5193 103.911 23.7193 103.871 23.9593C103.831 24.1993 103.771 24.4393 103.691 24.6793C103.611 24.9193 103.481 25.1193 103.301 25.2793C103.161 25.4193 102.961 25.5293 102.701 25.6093C102.441 25.6893 102.201 25.7293 101.981 25.7293C101.501 25.7293 101.121 25.5693 100.841 25.2493C100.581 24.9693 100.411 24.6993 100.331 24.4393C100.271 24.1593 100.221 23.8493 100.181 23.5093C100.181 23.3293 100.171 23.0693 100.151 22.7293C100.151 22.3693 100.151 21.9793 100.151 21.5593C100.151 21.1393 100.151 20.7293 100.151 20.3293C100.151 19.9093 100.151 19.5593 100.151 19.2793H97.7208C97.2608 19.2793 96.9008 19.2093 96.6408 19.0693C96.4008 18.9293 96.2308 18.7493 96.1308 18.5293C96.0708 18.4093 96.0108 18.2893 95.9508 18.1693C95.9108 18.0293 95.8908 17.8893 95.8908 17.7493C95.8908 17.6093 95.8908 17.4893 95.8908 17.3893C95.8908 17.2893 95.9108 17.1693 95.9508 17.0293C95.9908 16.8693 96.0408 16.6993 96.1008 16.5193C96.1608 16.3393 96.2508 16.1993 96.3708 16.0993C96.6308 15.8993 96.9108 15.7693 97.2108 15.7093C97.3708 15.6893 97.5708 15.6693 97.8108 15.6493C98.0708 15.6293 98.3408 15.6193 98.6208 15.6193C98.9008 15.5993 99.1708 15.5893 99.4308 15.5893C99.6908 15.5693 99.9008 15.5493 100.061 15.5293C100.061 15.1693 100.051 14.6493 100.031 13.9693C100.031 13.2893 100.031 12.5593 100.031 11.7793L97.7508 11.7193C97.3708 11.6993 97.0308 11.6493 96.7308 11.5693C96.4308 11.4893 96.2308 11.3393 96.1308 11.1193C95.9908 10.8393 95.9208 10.5693 95.9208 10.3093C95.9208 10.1693 95.9208 10.0493 95.9208 9.94929C95.9208 9.84929 95.9408 9.72929 95.9808 9.58929C96.0208 9.42929 96.0708 9.26929 96.1308 9.10929C96.1908 8.94929 96.2808 8.81929 96.4008 8.71929C96.6608 8.51929 96.9408 8.38929 97.2408 8.32929C97.4608 8.28929 97.8408 8.26929 98.3808 8.26929C98.9408 8.24929 99.4808 8.22929 100.001 8.20929C100.001 7.94929 100.001 7.66929 100.001 7.36929C100.001 7.04929 100.001 6.75929 100.001 6.49929C100.001 6.21929 100.001 5.97929 100.001 5.77929C100.021 5.55929 100.031 5.40929 100.031 5.32929Z" fill="#272B4E"/>
<path d="M108.819 25.2793C108.799 25.2793 108.769 25.2593 108.729 25.2193C108.529 25.0593 108.389 24.8393 108.309 24.5593C108.249 24.2793 108.219 24.0293 108.219 23.8093C108.199 23.4493 108.169 23.0893 108.129 22.7293C108.109 22.3693 108.099 22.0193 108.099 21.6793C108.099 21.1593 108.099 20.6893 108.099 20.2693C108.099 19.8493 108.149 19.3893 108.249 18.8893C108.309 18.5693 108.409 18.3193 108.549 18.1393C108.689 17.9393 108.909 17.7793 109.209 17.6593C109.769 17.4393 110.329 17.3293 110.889 17.3293H124.419C124.799 17.3493 125.189 17.3793 125.589 17.4193C125.989 17.4593 126.369 17.5593 126.729 17.7193C127.129 17.8793 127.389 18.1093 127.509 18.4093C127.649 18.6893 127.739 19.0293 127.779 19.4293C127.799 19.7693 127.809 20.1593 127.809 20.5993C127.829 21.0393 127.829 21.4893 127.809 21.9493C127.789 22.3893 127.759 22.8293 127.719 23.2693C127.679 23.7093 127.609 24.1093 127.509 24.4693C127.449 24.6893 127.379 24.8793 127.299 25.0393C127.219 25.2193 127.059 25.3493 126.819 25.4293C126.599 25.5093 126.369 25.5593 126.129 25.5793C125.909 25.5993 125.689 25.6093 125.469 25.6093L110.439 25.5493C110.179 25.5293 109.899 25.5193 109.599 25.5193C109.299 25.5193 109.039 25.4393 108.819 25.2793ZM110.229 6.61929C109.889 6.59929 109.559 6.54929 109.239 6.46929C108.919 6.36929 108.639 6.23929 108.399 6.07929C108.159 5.91929 107.989 5.70929 107.889 5.44929C107.789 5.18929 107.789 4.86929 107.889 4.48929C108.049 3.84929 108.439 3.36929 109.059 3.04929C109.519 2.78929 109.999 2.63929 110.499 2.59929C111.019 2.55929 111.539 2.53929 112.059 2.53929C112.219 2.51929 112.379 2.50929 112.539 2.50929C112.719 2.50929 112.889 2.50929 113.049 2.50929C113.209 2.48929 113.369 2.47929 113.529 2.47929C113.709 2.47929 113.889 2.47929 114.069 2.47929C114.229 2.47929 114.649 2.47929 115.329 2.47929C116.029 2.47929 116.779 2.48929 117.579 2.50929C118.379 2.50929 119.119 2.51929 119.799 2.53929C120.479 2.53929 120.899 2.53929 121.059 2.53929C121.379 2.55929 121.689 2.57929 121.989 2.59929C122.309 2.59929 122.629 2.59929 122.949 2.59929C123.429 2.59929 123.909 2.62929 124.389 2.68929C124.869 2.72929 125.339 2.81929 125.799 2.95929C126.239 3.09929 126.489 3.32929 126.549 3.64929C126.629 3.94929 126.699 4.29929 126.759 4.69929C126.819 5.13929 126.859 5.52929 126.879 5.86929C126.919 6.20929 126.929 6.53929 126.909 6.85929C126.909 7.17929 126.889 7.50929 126.849 7.84929C126.809 8.18929 126.769 8.57929 126.729 9.01929C126.689 9.41929 126.619 9.77929 126.519 10.0993C126.419 10.4193 126.169 10.6593 125.769 10.8193C125.449 10.9393 125.059 11.0093 124.599 11.0293C124.139 11.0493 123.779 10.9193 123.519 10.6393C123.299 10.4193 123.169 10.1293 123.129 9.76929C123.109 9.38929 123.079 9.04929 123.039 8.74929C122.999 8.46929 122.989 8.16929 123.009 7.84929C123.029 7.52929 122.959 7.25929 122.799 7.03929C122.659 6.85929 122.469 6.73929 122.229 6.67929C122.009 6.59929 121.769 6.55929 121.509 6.55929C121.269 6.53929 121.019 6.53929 120.759 6.55929C120.519 6.55929 120.309 6.55929 120.129 6.55929H112.509C112.389 6.55929 112.249 6.56929 112.089 6.58929C111.929 6.58929 111.769 6.59929 111.609 6.61929C111.229 6.65929 110.769 6.65929 110.229 6.61929ZM125.499 12.0193C125.819 12.0193 126.179 12.0193 126.579 12.0193C126.999 12.0193 127.379 12.0693 127.719 12.1693C128.059 12.2693 128.349 12.4493 128.589 12.7093C128.829 12.9493 128.949 13.3293 128.949 13.8493C128.949 14.3293 128.749 14.7493 128.349 15.1093C128.029 15.3893 127.639 15.5493 127.179 15.5893C126.739 15.6093 126.319 15.6093 125.919 15.5893C125.899 15.5893 125.839 15.5893 125.739 15.5893C125.659 15.5693 125.449 15.5593 125.109 15.5593C124.789 15.5593 124.279 15.5593 123.579 15.5593C122.879 15.5593 121.899 15.5593 120.639 15.5593C119.399 15.5593 117.819 15.5593 115.899 15.5593C113.979 15.5593 111.629 15.5593 108.849 15.5593C108.829 15.5593 108.739 15.5593 108.579 15.5593C108.419 15.5593 108.229 15.5393 108.009 15.4993C107.809 15.4593 107.599 15.4093 107.379 15.3493C107.159 15.2693 106.979 15.1493 106.839 14.9893C106.599 14.7293 106.479 14.3793 106.479 13.9393C106.479 13.5193 106.609 13.1793 106.869 12.9193C107.129 12.6793 107.399 12.4793 107.679 12.3193C107.959 12.1593 108.249 12.0593 108.549 12.0193C108.609 12.0193 108.669 12.0293 108.729 12.0493C108.789 12.0493 108.849 12.0393 108.909 12.0193C109.189 11.9793 109.489 11.9793 109.809 12.0193C110.129 12.0393 110.459 12.0393 110.799 12.0193C111.839 11.9793 112.889 11.9693 113.949 11.9893C115.029 12.0093 116.149 12.0193 117.309 12.0193C118.569 12.0193 119.909 12.0093 121.329 11.9893C122.749 11.9693 124.139 11.9793 125.499 12.0193ZM111.669 21.8593C111.669 21.9593 111.669 22.0593 111.669 22.1593C111.689 22.2593 111.729 22.3293 111.789 22.3693C111.829 22.4093 111.889 22.4393 111.969 22.4593C112.069 22.4593 112.169 22.4593 112.269 22.4593C112.369 22.4593 112.489 22.4493 112.629 22.4293H121.419C121.699 22.4493 121.969 22.4693 122.229 22.4893C122.449 22.5093 122.679 22.5193 122.919 22.5193C123.159 22.5193 123.379 22.4993 123.579 22.4593C123.779 22.4393 123.899 22.3793 123.939 22.2793C123.979 22.1793 124.009 22.0393 124.029 21.8593C124.049 21.6993 124.059 21.5193 124.059 21.3193C124.059 21.0993 123.999 20.9093 123.879 20.7493C123.739 20.5893 123.539 20.5093 123.279 20.5093C123.039 20.4893 122.819 20.4893 122.619 20.5093H114.879C114.439 20.4693 114.009 20.4593 113.589 20.4793C113.169 20.4793 112.739 20.4893 112.299 20.5093C112.139 20.5093 112.009 20.5193 111.909 20.5393C111.829 20.5393 111.769 20.6293 111.729 20.8093C111.689 20.9493 111.669 21.0893 111.669 21.2293C111.669 21.3493 111.669 21.4693 111.669 21.5893C111.689 21.6293 111.689 21.6693 111.669 21.7093C111.669 21.7493 111.669 21.7993 111.669 21.8593Z" fill="#272B4E"/>
</svg>
