<svg width="127" height="26" viewBox="0 0 127 26" fill="none" xmlns="http://www.w3.org/2000/svg">
<path d="M14.4 9.45C14.4 10.39 14.19 11.28 13.77 12.12C13.35 12.96 12.76 13.67 12 14.25C11.32 14.75 10.57 15.1 9.75 15.3C8.95 15.5 8.14 15.57 7.32 15.51C6.5 15.45 5.71 15.27 4.95 14.97C4.19 14.65 3.51 14.23 2.91 13.71C2.33 13.19 1.86 12.57 1.5 11.85C1.14 11.13 0.96 10.33 0.96 9.45C0.96 8.65 1.08 7.93 1.32 7.29C1.56 6.65 1.89 6.08 2.31 5.58H1.77C1.27 5.58 0.85 5.43 0.51 5.13C0.17 4.81 0 4.43 0 3.99C0 3.53 0.17 3.15 0.51 2.85C0.85 2.53 1.27 2.37 1.77 2.37H5.73V1.41C5.73 1.01 5.9 0.679999 6.24 0.42C6.58 0.14 6.99 0 7.47 0C7.95 0 8.36 0.14 8.7 0.42C9.04 0.679999 9.21 1.01 9.21 1.41V2.37H13.38C13.88 2.37 14.3 2.53 14.64 2.85C14.98 3.15 15.15 3.53 15.15 3.99C15.15 4.43 14.98 4.81 14.64 5.13C14.3 5.43 13.88 5.58 13.38 5.58H13.02C13.44 6.08 13.77 6.65 14.01 7.29C14.27 7.93 14.4 8.65 14.4 9.45ZM6.24 25.23C5.42 25.23 4.76 25.05 4.26 24.69C3.76 24.35 3.51 23.95 3.51 23.49V19.17C3.47 18.73 3.47 18.28 3.51 17.82C3.55 17.4 3.71 17.06 3.99 16.8C4.29 16.54 4.67 16.41 5.13 16.41C5.23 16.41 5.41 16.42 5.67 16.44C5.93 16.44 6.11 16.46 6.21 16.5C6.47 16.58 6.67 16.7 6.81 16.86C6.97 17.02 7.09 17.21 7.17 17.43C7.25 17.63 7.3 17.85 7.32 18.09C7.34 18.31 7.36 18.53 7.38 18.75C7.38 18.83 7.38 19.02 7.38 19.32C7.4 19.6 7.41 19.91 7.41 20.25C7.43 20.57 7.44 20.87 7.44 21.15C7.46 21.43 7.48 21.6 7.5 21.66C7.56 21.68 7.72 21.71 7.98 21.75C8.26 21.77 8.77 21.78 9.51 21.78C10.15 21.78 10.54 21.77 10.68 21.75C10.84 21.73 10.93 21.72 10.95 21.72H20.76C20.76 21.72 20.82 21.74 20.94 21.78C21.08 21.82 21.23 21.89 21.39 21.99C21.55 22.07 21.7 22.19 21.84 22.35C21.98 22.49 22.07 22.66 22.11 22.86C22.21 23.62 22.08 24.21 21.72 24.63C21.48 24.91 21.22 25.08 20.94 25.14C20.66 25.2 20.51 25.23 20.49 25.23H6.24ZM21.27 10.83V14.76C21.25 14.98 21.22 15.21 21.18 15.45C21.14 15.67 21.05 15.89 20.91 16.11C20.77 16.37 20.59 16.56 20.37 16.68C20.05 16.9 19.7 17.01 19.32 17.01C19 17.01 18.71 16.93 18.45 16.77C18.23 16.65 18.05 16.5 17.91 16.32C17.79 16.14 17.69 15.97 17.61 15.81C17.55 15.65 17.51 15.51 17.49 15.39C17.47 15.25 17.46 15.18 17.46 15.18V3.75C17.46 3.65 17.47 3.43 17.49 3.09C17.53 2.73 17.61 2.43 17.73 2.19C17.95 1.77 18.39 1.53 19.05 1.47C19.79 1.37 20.36 1.52 20.76 1.92C20.88 2.08 20.97 2.24 21.03 2.4C21.09 2.54 21.14 2.69 21.18 2.85C21.24 3.05 21.27 3.26 21.27 3.48C21.29 3.7 21.29 3.92 21.27 4.14V7.47C21.35 7.47 21.51 7.48 21.75 7.5C21.99 7.52 22.24 7.54 22.5 7.56C22.76 7.56 23 7.57 23.22 7.59C23.46 7.61 23.62 7.63 23.7 7.65C24.12 7.73 24.42 7.85 24.6 8.01C24.78 8.15 24.9 8.33 24.96 8.55C25 8.77 25.02 9.03 25.02 9.33C25.02 9.61 24.96 9.85 24.84 10.05C24.58 10.45 24.2 10.68 23.7 10.74C23.2 10.8 22.63 10.83 21.99 10.83H21.27ZM8.28 12.12C8.92 12 9.47 11.72 9.93 11.28C10.41 10.82 10.65 10.21 10.65 9.45C10.65 8.85 10.5 8.35 10.2 7.95C9.92 7.55 9.56 7.25 9.12 7.05C8.68 6.83 8.2 6.72 7.68 6.72C7.16 6.7 6.68 6.79 6.24 6.99C5.8 7.19 5.43 7.5 5.13 7.92C4.85 8.32 4.71 8.83 4.71 9.45C4.71 9.99 4.82 10.45 5.04 10.83C5.26 11.21 5.54 11.51 5.88 11.73C6.22 11.95 6.6 12.09 7.02 12.15C7.44 12.21 7.86 12.2 8.28 12.12Z" fill="#272B4E"/>
<path d="M46.2792 3.99C46.2592 4.15 46.2492 4.28 46.2492 4.38C46.2492 4.48 46.2492 4.57 46.2492 4.65V6.27C46.2492 6.57 46.2492 6.88 46.2492 7.2C46.2492 7.52 46.2592 7.85 46.2792 8.19V10.14C46.2592 10.48 46.2492 10.78 46.2492 11.04C46.2492 11.3 46.2292 11.56 46.1892 11.82C46.1292 12.38 45.9392 12.83 45.6192 13.17C45.3192 13.51 44.8792 13.72 44.2992 13.8C44.1192 13.84 43.9492 13.87 43.7892 13.89C43.6492 13.89 43.4992 13.89 43.3392 13.89H42.4392C42.2592 13.89 42.0592 13.9 41.8392 13.92C41.6192 13.92 41.3492 13.92 41.0292 13.92C40.7092 13.92 40.3892 13.92 40.0692 13.92C39.7492 13.92 39.4292 13.91 39.1092 13.89H31.0992C30.8792 13.89 30.6592 13.89 30.4392 13.89C30.2392 13.87 30.0492 13.84 29.8692 13.8C29.6492 13.8 29.4392 13.77 29.2392 13.71C29.0392 13.63 28.8692 13.52 28.7292 13.38C28.5292 13.22 28.3492 12.97 28.1892 12.63C28.1292 12.47 28.0692 12.31 28.0092 12.15C27.9692 11.99 27.9392 11.83 27.9192 11.67C27.8792 11.55 27.8392 11.41 27.7992 11.25C27.7792 11.09 27.7692 10.95 27.7692 10.83V4.92C27.7692 4.74 27.7492 4.55 27.7092 4.35C27.6692 4.13 27.6492 3.93 27.6492 3.75C27.6292 3.53 27.6292 3.33 27.6492 3.15C27.6692 2.95 27.7292 2.75 27.8292 2.55C27.8692 2.31 27.9292 2.11 28.0092 1.95C28.0892 1.77 28.1992 1.66 28.3392 1.62C28.4392 1.52 28.5892 1.45 28.7892 1.41C28.9892 1.37 29.2092 1.33 29.4492 1.29C29.6092 1.29 29.7892 1.31 29.9892 1.35C30.1892 1.39 30.3792 1.43 30.5592 1.47C31.0392 1.63 31.2892 1.89 31.3092 2.25V3.57C31.3092 3.75 31.3092 3.92 31.3092 4.08C31.3292 4.22 31.3392 4.36 31.3392 4.5C31.3392 4.66 31.3492 4.81 31.3692 4.95C31.4092 5.09 31.5392 5.16 31.7592 5.16H42.2592C42.2992 5.16 42.3592 5.15 42.4392 5.13C42.5392 5.11 42.6292 5.09 42.7092 5.07V4.65C42.7492 4.49 42.7692 4.35 42.7692 4.23C42.7692 4.11 42.7692 3.99 42.7692 3.87V2.61C42.7692 2.43 42.7792 2.26 42.7992 2.1C42.8392 1.92 42.9092 1.78 43.0092 1.68C43.0692 1.58 43.1592 1.5 43.2792 1.44C43.4192 1.38 43.5792 1.33 43.7592 1.29C43.8592 1.27 44.0392 1.26 44.2992 1.26H44.8992C45.1192 1.26 45.3092 1.3 45.4692 1.38C45.8892 1.52 46.1292 1.77 46.1892 2.13C46.2292 2.29 46.2492 2.45 46.2492 2.61C46.2492 2.75 46.2592 2.89 46.2792 3.03V3.99ZM45.8592 16.35C46.0592 16.35 46.2392 16.37 46.3992 16.41C46.5592 16.45 46.7192 16.51 46.8792 16.59C47.1392 16.69 47.3792 16.87 47.5992 17.13C47.7592 17.35 47.8392 17.69 47.8392 18.15C47.8392 18.41 47.8092 18.63 47.7492 18.81C47.6892 18.97 47.5492 19.13 47.3292 19.29C47.0092 19.55 46.6292 19.71 46.1892 19.77C45.6492 19.89 45.1392 19.95 44.6592 19.95C44.3992 19.95 44.1592 19.97 43.9392 20.01C43.7392 20.03 43.5592 20.04 43.3992 20.04H38.7492C38.7892 20.32 38.8092 20.67 38.8092 21.09C38.8292 21.49 38.8392 21.8 38.8392 22.02C38.8592 22.44 38.8292 22.93 38.7492 23.49C38.6892 23.85 38.5792 24.19 38.4192 24.51C38.3592 24.85 38.1492 25.14 37.7892 25.38C37.6292 25.5 37.4492 25.58 37.2492 25.62C37.0692 25.68 36.8892 25.71 36.7092 25.71C36.2692 25.71 35.8992 25.6 35.5992 25.38C35.3192 25.26 35.1292 25.04 35.0292 24.72C34.9492 24.54 34.8792 24.39 34.8192 24.27C34.7792 24.13 34.7592 23.99 34.7592 23.85C34.7192 23.75 34.6992 23.64 34.6992 23.52C34.6992 23.4 34.6992 23.28 34.6992 23.16V20.04H28.3392C28.0792 20.04 27.8392 20.02 27.6192 19.98C27.3992 19.94 27.1992 19.9 27.0192 19.86C26.5592 19.7 26.2192 19.44 25.9992 19.08C25.8592 18.9 25.7692 18.72 25.7292 18.54C25.6892 18.36 25.6692 18.16 25.6692 17.94C25.6692 17.56 25.8192 17.23 26.1192 16.95C26.2792 16.79 26.4592 16.67 26.6592 16.59C26.8192 16.53 26.9392 16.49 27.0192 16.47C27.1192 16.45 27.2392 16.44 27.3792 16.44C27.4992 16.4 27.6092 16.38 27.7092 16.38C27.8092 16.38 27.9092 16.38 28.0092 16.38H28.2492L44.8392 16.29C44.9992 16.29 45.1692 16.29 45.3492 16.29C45.5292 16.29 45.6992 16.31 45.8592 16.35ZM42.6492 9.93C42.6892 9.87 42.7092 9.72 42.7092 9.48C42.7092 9.38 42.7092 9.29 42.7092 9.21C42.7092 9.13 42.6892 9.06 42.6492 9C42.6492 8.82 42.6392 8.71 42.6192 8.67C42.5192 8.57 42.4192 8.51 42.3192 8.49C42.2392 8.45 42.1492 8.41 42.0492 8.37H35.4792L34.2492 8.34H33.6192C33.5192 8.34 33.4192 8.34 33.3192 8.34C33.2392 8.34 33.1292 8.32 32.9892 8.28C32.8492 8.28 32.7092 8.29 32.5692 8.31C32.4492 8.31 32.3292 8.31 32.2092 8.31C31.9692 8.31 31.7592 8.37 31.5792 8.49C31.5192 8.55 31.4592 8.63 31.3992 8.73C31.3592 8.83 31.3592 8.96 31.3992 9.12V10.08C31.4392 10.16 31.4592 10.21 31.4592 10.23V10.26C31.4592 10.4 31.5392 10.53 31.6992 10.65C31.7992 10.69 31.8792 10.73 31.9392 10.77C32.0192 10.79 32.1092 10.8 32.2092 10.8C32.4092 10.84 32.6092 10.84 32.8092 10.8H40.5192C40.5792 10.8 40.6492 10.81 40.7292 10.83C40.8292 10.83 40.9292 10.82 41.0292 10.8H41.5692C41.6092 10.8 41.6492 10.8 41.6892 10.8C41.7292 10.8 41.7992 10.81 41.8992 10.83H42.2592C42.2992 10.81 42.3492 10.8 42.4092 10.8C42.4692 10.78 42.5192 10.75 42.5592 10.71C42.5992 10.63 42.6192 10.57 42.6192 10.53C42.6392 10.49 42.6492 10.42 42.6492 10.32V9.93Z" fill="#272B4E"/>
<path d="M69.4023 19.95C69.4623 19.97 69.5223 19.98 69.5823 19.98C69.6423 19.96 69.7023 19.95 69.7623 19.95C70.1023 19.99 70.4123 20.06 70.6923 20.16C70.9923 20.24 71.2823 20.4 71.5623 20.64C71.8423 20.92 71.9823 21.27 71.9823 21.69C71.9823 21.91 71.9423 22.15 71.8623 22.41C71.8023 22.65 71.7123 22.84 71.5923 22.98C71.4323 23.14 71.2323 23.26 70.9923 23.34C70.7523 23.42 70.5223 23.48 70.3023 23.52C70.0823 23.54 69.8823 23.55 69.7023 23.55C69.5423 23.55 69.4523 23.55 69.4323 23.55H52.6323C52.5323 23.55 52.4323 23.56 52.3323 23.58C52.2323 23.58 52.1323 23.58 52.0323 23.58C51.6123 23.6 51.1623 23.6 50.6823 23.58C50.2023 23.54 49.7923 23.38 49.4523 23.1C49.0323 22.72 48.8223 22.29 48.8223 21.81C48.8223 21.51 48.9123 21.2 49.0923 20.88C49.2723 20.56 49.5123 20.34 49.8123 20.22C50.2123 20.06 50.6223 19.98 51.0423 19.98C51.4823 19.98 51.9223 19.97 52.3623 19.95H52.5123C54.2523 19.91 56.0423 19.91 57.8823 19.95L57.8523 15.9C57.6123 15.9 57.3723 15.9 57.1323 15.9C56.8923 15.88 56.6523 15.86 56.4123 15.84C55.8923 15.8 55.3323 15.8 54.7323 15.84C54.1323 15.86 53.5823 15.85 53.0823 15.81C52.5623 15.77 52.0823 15.65 51.6423 15.45C51.2223 15.23 50.9623 14.84 50.8623 14.28C50.7623 13.72 50.6923 13.19 50.6523 12.69C50.6323 12.17 50.6123 11.67 50.5923 11.19C50.5923 10.69 50.5923 10.19 50.5923 9.69C50.6123 9.19 50.6223 8.65 50.6223 8.07V5.97C50.6223 5.71 50.6123 5.42 50.5923 5.1C50.5923 4.78 50.6123 4.46 50.6523 4.14C50.7123 3.82 50.8023 3.53 50.9223 3.27C51.0623 3.01 51.2723 2.81 51.5523 2.67C51.8523 2.53 52.1923 2.42 52.5723 2.34C52.9523 2.24 53.3323 2.17 53.7123 2.13C54.1123 2.09 54.5023 2.07 54.8823 2.07C55.2823 2.05 55.6523 2.04 55.9923 2.04H65.6523C65.6723 2.04 65.7923 2.05 66.0123 2.07C66.2523 2.07 66.5323 2.1 66.8523 2.16C67.1723 2.2 67.4923 2.26 67.8123 2.34C68.1523 2.4 68.4223 2.49 68.6223 2.61C68.8623 2.75 69.0523 2.98 69.1923 3.3C69.3323 3.6 69.4323 3.91 69.4923 4.23C69.5723 4.55 69.6123 4.84 69.6123 5.1C69.6323 5.34 69.6423 5.47 69.6423 5.49V11.28C69.6423 11.74 69.6323 12.2 69.6123 12.66C69.6123 13.12 69.5723 13.58 69.4923 14.04C69.4523 14.32 69.3823 14.6 69.2823 14.88C69.1823 15.16 68.9923 15.37 68.7123 15.51C68.3723 15.67 67.9323 15.76 67.3923 15.78C66.8523 15.78 66.4023 15.77 66.0423 15.75C65.6223 15.75 65.2023 15.77 64.7823 15.81C64.3623 15.83 63.9423 15.84 63.5223 15.84H62.0523L62.1123 19.95C62.6723 19.95 63.1623 19.95 63.5823 19.95C64.0023 19.93 64.4023 19.92 64.7823 19.92C65.1823 19.92 65.5823 19.92 65.9823 19.92C66.3823 19.92 66.8423 19.93 67.3623 19.95C67.7223 19.97 68.0723 19.97 68.4123 19.95C68.7523 19.91 69.0823 19.91 69.4023 19.95ZM63.7923 12.06C63.9723 12.02 64.1523 12.01 64.3323 12.03C64.5123 12.05 64.7023 12.02 64.9023 11.94C65.0223 11.88 65.1123 11.8 65.1723 11.7C65.2323 11.58 65.2623 11.46 65.2623 11.34C65.2823 11.2 65.2823 11.06 65.2623 10.92C65.2623 10.78 65.2623 10.65 65.2623 10.53V8.01C65.2623 7.69 65.2623 7.42 65.2623 7.2C65.2623 6.96 65.2123 6.77 65.1123 6.63C65.0323 6.49 64.8623 6.39 64.6023 6.33C64.3423 6.27 63.9623 6.23 63.4623 6.21H57.5823C57.5823 6.21 57.5023 6.21 57.3423 6.21C57.2023 6.21 57.0223 6.22 56.8023 6.24C56.6023 6.24 56.3923 6.25 56.1723 6.27C55.9523 6.29 55.7623 6.31 55.6023 6.33C55.3423 6.37 55.1323 6.48 54.9723 6.66C54.8123 6.84 54.7323 7.06 54.7323 7.32L54.7923 11.34C54.8323 11.58 54.9323 11.76 55.0923 11.88C55.2723 11.98 55.4723 12.05 55.6923 12.09C55.9123 12.13 56.1323 12.15 56.3523 12.15C56.5923 12.13 56.8023 12.12 56.9823 12.12L63.7923 12.06Z" fill="#272B4E"/>
<path d="M82.3995 20.82C82.3995 19.92 82.6595 19.17 83.1795 18.57C83.7195 17.97 84.4395 17.5 85.3395 17.16C86.2395 16.8 87.2995 16.55 88.5195 16.41C89.7395 16.27 91.0395 16.2 92.4195 16.2C93.7995 16.2 95.0995 16.25 96.3195 16.35C97.5395 16.45 98.5995 16.67 99.4995 17.01C100.4 17.33 101.11 17.79 101.63 18.39C102.17 18.99 102.44 19.8 102.44 20.82C102.44 21.82 102.17 22.62 101.63 23.22C101.11 23.82 100.4 24.28 99.4995 24.6C98.5995 24.94 97.5395 25.16 96.3195 25.26C95.0995 25.38 93.7995 25.44 92.4195 25.44C91.0395 25.44 89.7395 25.38 88.5195 25.26C87.2995 25.16 86.2395 24.94 85.3395 24.6C84.4395 24.28 83.7195 23.82 83.1795 23.22C82.6595 22.62 82.3995 21.82 82.3995 20.82ZM90.0495 5.01C90.0495 5.01 90.0395 5.13 90.0195 5.37C90.0195 5.61 90.0195 5.88 90.0195 6.18C90.0195 6.48 90.0195 6.76 90.0195 7.02C90.0395 7.28 90.0495 7.43 90.0495 7.47C90.1495 7.57 90.3295 7.74 90.5895 7.98C90.8495 8.2 91.0695 8.39 91.2495 8.55C91.4495 8.71 91.6495 8.89 91.8495 9.09C92.0695 9.27 92.2895 9.47 92.5095 9.69C92.6495 9.83 92.7795 9.97 92.8995 10.11C93.0195 10.23 93.1295 10.34 93.2295 10.44C93.6095 10.82 93.9895 11.23 94.3695 11.67C94.7495 12.11 95.0095 12.56 95.1495 13.02C95.2095 13.2 95.2195 13.4 95.1795 13.62C95.1395 13.84 95.0095 14.03 94.7895 14.19C94.4495 14.39 94.0895 14.49 93.7095 14.49C93.2695 14.49 92.8495 14.4 92.4495 14.22C92.0495 14.04 91.7295 13.86 91.4895 13.68C91.1095 13.4 90.7595 13.11 90.4395 12.81C90.1195 12.49 89.7995 12.17 89.4795 11.85C89.2595 11.63 89.0095 11.38 88.7295 11.1C88.4495 10.8 88.1695 10.54 87.8895 10.32L87.0795 11.13C86.9395 11.27 86.7995 11.41 86.6595 11.55C86.5195 11.67 86.3895 11.8 86.2695 11.94C86.0095 12.22 85.7395 12.51 85.4595 12.81C85.1795 13.09 84.8595 13.36 84.4995 13.62C83.6795 14.22 82.9095 14.52 82.1895 14.52C82.0895 14.52 81.9995 14.52 81.9195 14.52C81.8595 14.52 81.7795 14.5 81.6795 14.46C81.2395 14.36 80.9495 14.18 80.8095 13.92C80.6695 13.7 80.6195 13.45 80.6595 13.17C80.7195 12.89 80.8095 12.64 80.9295 12.42C81.0895 12.2 81.2695 11.99 81.4695 11.79C81.6695 11.57 81.8695 11.35 82.0695 11.13C82.2495 10.93 82.5295 10.65 82.9095 10.29C83.3095 9.91 83.7095 9.53 84.1095 9.15C84.5095 8.75 84.8795 8.39 85.2195 8.07C85.5595 7.75 85.7695 7.55 85.8495 7.47V5.01H83.9295C83.6895 5.01 83.4095 5.02 83.0895 5.04C82.7695 5.04 82.4495 5.02 82.1295 4.98C81.8295 4.94 81.5495 4.86 81.2895 4.74C81.0295 4.6 80.8395 4.38 80.7195 4.08C80.6195 3.86 80.5495 3.61 80.5095 3.33C80.4895 3.05 80.5095 2.79 80.5695 2.55C80.6495 2.27 80.8295 2.08 81.1095 1.98C81.3895 1.86 81.6595 1.78 81.9195 1.74C81.9595 1.74 82.1195 1.74 82.3995 1.74C82.6995 1.74 83.0195 1.74 83.3595 1.74C83.6995 1.74 84.0195 1.74 84.3195 1.74C84.6195 1.74 84.7995 1.73 84.8595 1.71H91.8795C92.6795 1.71 93.3495 1.76 93.8895 1.86C94.4495 1.96 94.8995 2.21 95.2395 2.61C95.3395 2.73 95.3995 2.89 95.4195 3.09C95.4595 3.29 95.4595 3.5 95.4195 3.72C95.3995 3.92 95.3395 4.11 95.2395 4.29C95.1595 4.47 95.0395 4.6 94.8795 4.68C94.7195 4.74 94.5295 4.81 94.3095 4.89C94.0895 4.95 93.8995 4.99 93.7395 5.01C93.4595 5.03 93.1695 5.04 92.8695 5.04C92.5895 5.02 92.3095 5.01 92.0295 5.01H90.0495ZM96.8295 10.08C96.2495 10.04 95.7295 10.01 95.2695 9.99C94.8095 9.95 94.4495 9.73 94.1895 9.33C94.0695 9.13 94.0095 8.87 94.0095 8.55C94.0095 8.23 94.0295 7.96 94.0695 7.74C94.1295 7.52 94.2395 7.34 94.3995 7.2C94.5595 7.04 94.8395 6.91 95.2395 6.81C95.3195 6.79 95.5095 6.78 95.8095 6.78C96.1295 6.76 96.4695 6.75 96.8295 6.75C97.1895 6.73 97.5295 6.72 97.8495 6.72C98.1695 6.7 98.3695 6.69 98.4495 6.69V3.84C98.4295 3.62 98.4195 3.4 98.4195 3.18C98.4395 2.96 98.4795 2.74 98.5395 2.52C98.5795 2.36 98.6195 2.21 98.6595 2.07C98.6995 1.93 98.7895 1.78 98.9295 1.62C99.0895 1.42 99.3095 1.28 99.5895 1.2C99.8895 1.12 100.21 1.1 100.55 1.14C100.85 1.18 101.12 1.27 101.36 1.41C101.6 1.53 101.77 1.69 101.87 1.89C101.99 2.13 102.06 2.43 102.08 2.79C102.12 3.13 102.14 3.34 102.14 3.42V13.71H102.11C102.11 13.73 102.1 13.8 102.08 13.92C102.06 14.04 102.02 14.19 101.96 14.37C101.9 14.53 101.81 14.7 101.69 14.88C101.57 15.06 101.41 15.21 101.21 15.33C100.93 15.49 100.62 15.57 100.28 15.57C99.9395 15.57 99.6095 15.46 99.2895 15.24C99.0495 15.08 98.8795 14.88 98.7795 14.64C98.6595 14.42 98.5795 14.2 98.5395 13.98C98.4995 13.76 98.4695 13.54 98.4495 13.32V10.08H96.8295ZM98.3895 20.82C98.3895 20.48 98.2095 20.21 97.8495 20.01C97.4895 19.81 97.0195 19.66 96.4395 19.56C95.8795 19.46 95.2395 19.4 94.5195 19.38C93.8195 19.34 93.1195 19.32 92.4195 19.32C91.7195 19.32 91.0195 19.34 90.3195 19.38C89.6395 19.4 89.0195 19.46 88.4595 19.56C87.9195 19.66 87.4795 19.81 87.1395 20.01C86.7995 20.21 86.6295 20.48 86.6295 20.82C86.6295 21.12 86.7995 21.37 87.1395 21.57C87.4795 21.77 87.9195 21.92 88.4595 22.02C89.0195 22.12 89.6395 22.19 90.3195 22.23C91.0195 22.27 91.7195 22.29 92.4195 22.29C93.1195 22.29 93.8195 22.29 94.5195 22.29C95.2395 22.29 95.8795 22.25 96.4395 22.17C97.0195 22.09 97.4895 21.95 97.8495 21.75C98.2095 21.53 98.3895 21.22 98.3895 20.82Z" fill="#272B4E"/>
<path d="M115.354 10.65C115.694 11.05 116.034 11.47 116.374 11.91C116.714 12.35 116.944 12.79 117.064 13.23C117.104 13.43 117.104 13.64 117.064 13.86C117.024 14.08 116.914 14.27 116.734 14.43C116.434 14.63 116.114 14.73 115.774 14.73C115.394 14.73 115.024 14.64 114.664 14.46C114.324 14.28 114.044 14.1 113.824 13.92C113.484 13.62 113.174 13.32 112.894 13.02C112.614 12.7 112.334 12.39 112.054 12.09C111.834 11.85 111.594 11.61 111.334 11.37C111.074 11.13 110.844 10.87 110.644 10.59L107.674 13.86C107.354 14.2 107.014 14.44 106.654 14.58C106.294 14.7 105.954 14.76 105.634 14.76C105.534 14.76 105.384 14.74 105.184 14.7C104.804 14.6 104.544 14.42 104.404 14.16C104.284 13.94 104.244 13.69 104.284 13.41C104.324 13.13 104.404 12.88 104.524 12.66C104.664 12.42 104.814 12.2 104.974 12C105.154 11.8 105.334 11.59 105.514 11.37C106.034 10.79 106.534 10.19 107.014 9.57C107.514 8.93 108.054 8.31 108.634 7.71V6.06C108.474 6.08 108.274 6.09 108.034 6.09C107.794 6.07 107.504 6.06 107.164 6.06C106.944 6.06 106.694 6.07 106.414 6.09C106.134 6.11 105.854 6.1 105.574 6.06C105.314 6.02 105.074 5.94 104.854 5.82C104.634 5.68 104.464 5.46 104.344 5.16C104.244 4.94 104.184 4.69 104.164 4.41C104.144 4.13 104.164 3.87 104.224 3.63C104.284 3.35 104.434 3.16 104.674 3.06C104.934 2.94 105.174 2.86 105.394 2.82C105.594 2.78 105.774 2.76 105.934 2.76C105.994 2.76 106.054 2.77 106.114 2.79C106.174 2.79 106.234 2.79 106.294 2.79H108.724C108.764 2.33 108.854 1.9 108.994 1.5C109.154 1.08 109.454 0.789999 109.894 0.629999C110.234 0.509999 110.544 0.479999 110.824 0.539998C111.124 0.599999 111.384 0.719999 111.604 0.899999C111.824 1.08 112.004 1.31 112.144 1.59C112.284 1.87 112.374 2.16 112.414 2.46C112.434 2.52 112.444 2.58 112.444 2.64C112.464 2.68 112.474 2.73 112.474 2.79H114.184C114.884 2.79 115.444 2.84 115.864 2.94C116.284 3.02 116.634 3.26 116.914 3.66C116.994 3.78 117.054 3.95 117.094 4.17C117.134 4.37 117.134 4.58 117.094 4.8C117.074 5 117.024 5.19 116.944 5.37C116.864 5.55 116.764 5.68 116.644 5.76C116.484 5.82 116.304 5.89 116.104 5.97C115.924 6.03 115.754 6.06 115.594 6.06C115.354 6.08 115.134 6.09 114.934 6.09C114.754 6.07 114.544 6.06 114.304 6.06C113.944 6.06 113.664 6.07 113.464 6.09C113.264 6.09 113.024 6.08 112.744 6.06C112.744 6.32 112.744 6.49 112.744 6.57C112.744 6.63 112.744 6.69 112.744 6.75C112.744 6.81 112.744 6.9 112.744 7.02C112.744 7.14 112.744 7.37 112.744 7.71C112.844 7.79 112.974 7.95 113.134 8.19C113.294 8.43 113.454 8.63 113.614 8.79C113.774 8.95 113.944 9.13 114.124 9.33C114.304 9.51 114.494 9.71 114.694 9.93C114.834 10.07 114.954 10.2 115.054 10.32C115.154 10.44 115.254 10.55 115.354 10.65ZM126.424 13.71C126.424 13.73 126.414 13.8 126.394 13.92C126.394 14.04 126.364 14.19 126.304 14.37C126.244 14.53 126.154 14.7 126.034 14.88C125.934 15.06 125.784 15.21 125.584 15.33C125.364 15.47 125.134 15.54 124.894 15.54C124.494 15.54 124.164 15.44 123.904 15.24C123.684 15.08 123.514 14.88 123.394 14.64C123.094 14.08 122.954 13.47 122.974 12.81C122.994 12.13 123.014 11.48 123.034 10.86V10.44C122.814 10.46 122.594 10.48 122.374 10.5C122.174 10.5 121.974 10.5 121.774 10.5H121.684V13.23C121.664 13.45 121.634 13.68 121.594 13.92C121.554 14.14 121.474 14.36 121.354 14.58C121.214 14.84 121.044 15.03 120.844 15.15C120.704 15.25 120.584 15.33 120.484 15.39C120.384 15.45 120.244 15.48 120.064 15.48C119.784 15.48 119.504 15.4 119.224 15.24C119.024 15.12 118.864 14.97 118.744 14.79C118.624 14.61 118.534 14.44 118.474 14.28C118.414 14.12 118.374 13.98 118.354 13.86C118.334 13.72 118.324 13.65 118.324 13.65V3.75C118.304 3.65 118.304 3.43 118.324 3.09C118.364 2.73 118.444 2.43 118.564 2.19C118.764 1.77 119.174 1.53 119.794 1.47C120.134 1.43 120.414 1.45 120.634 1.53C120.854 1.61 121.044 1.74 121.204 1.92C121.344 2.08 121.434 2.24 121.474 2.4C121.514 2.54 121.554 2.69 121.594 2.85C121.654 3.05 121.684 3.26 121.684 3.48C121.704 3.7 121.714 3.92 121.714 4.14C121.694 4.22 121.684 4.34 121.684 4.5V7.14C121.784 7.16 121.964 7.18 122.224 7.2C122.504 7.2 122.784 7.21 123.064 7.23V4.05C123.044 3.83 123.034 3.62 123.034 3.42C123.054 3.2 123.094 2.98 123.154 2.76C123.234 2.46 123.414 2.16 123.694 1.86C124.014 1.46 124.484 1.3 125.104 1.38C125.624 1.46 125.984 1.72 126.184 2.16C126.304 2.4 126.374 2.69 126.394 3.03C126.434 3.37 126.444 3.58 126.424 3.66V13.71ZM123.184 17.52C124.004 17.52 124.664 17.65 125.164 17.91C125.664 18.15 125.914 18.5 125.914 18.96V22.98C125.954 23.44 125.954 23.88 125.914 24.3C125.874 24.72 125.704 25.06 125.404 25.32C125.124 25.58 124.754 25.71 124.294 25.71C124.194 25.71 124.014 25.7 123.754 25.68C123.494 25.68 123.314 25.66 123.214 25.62C122.954 25.54 122.744 25.42 122.584 25.26C122.444 25.1 122.334 24.92 122.254 24.72C122.174 24.52 122.114 24.31 122.074 24.09C122.054 23.85 122.034 23.62 122.014 23.4C122.014 23.32 122.004 23.17 121.984 22.95C121.984 22.71 121.984 22.47 121.984 22.23C121.984 21.97 121.974 21.73 121.954 21.51C121.954 21.29 121.944 21.14 121.924 21.06C121.864 21.04 121.694 21.02 121.414 21C121.154 20.98 120.654 20.97 119.914 20.97C119.274 20.97 118.874 20.98 118.714 21C118.574 21.02 118.494 21.03 118.474 21.03H107.644L107.614 21C107.614 21 107.544 20.98 107.404 20.94C107.284 20.9 107.144 20.84 106.984 20.76C106.824 20.68 106.664 20.57 106.504 20.43C106.364 20.29 106.284 20.11 106.264 19.89C106.164 19.13 106.294 18.53 106.654 18.09C106.894 17.81 107.154 17.65 107.434 17.61C107.714 17.55 107.864 17.52 107.884 17.52H123.184Z" fill="#272B4E"/>
</svg>
