<svg width="188" height="68" viewBox="0 0 188 68" fill="none" xmlns="http://www.w3.org/2000/svg">
<g filter="url(#filter0_d_145_191)">
<path d="M4 10C4 4.47715 8.47715 0 14 0H174C179.523 0 184 4.47715 184 10V50C184 55.5228 179.523 60 174 60H14C8.47716 60 4 55.5229 4 50V10Z" fill="#FAFAFA"/>
<path d="M14 2.5H174C178.142 2.5 181.5 5.85787 181.5 10V50C181.5 54.1421 178.142 57.5 174 57.5H14C9.85787 57.5 6.5 54.1421 6.5 50V10C6.5 5.85787 9.85787 2.5 14 2.5Z" stroke="#F6E9A2" stroke-width="5"/>
</g>
<defs>
<filter id="filter0_d_145_191" x="0" y="0" width="188" height="68" filterUnits="userSpaceOnUse" color-interpolation-filters="sRGB">
<feFlood flood-opacity="0" result="BackgroundImageFix"/>
<feColorMatrix in="SourceAlpha" type="matrix" values="0 0 0 0 0 0 0 0 0 0 0 0 0 0 0 0 0 0 127 0" result="hardAlpha"/>
<feOffset dy="4"/>
<feGaussianBlur stdDeviation="2"/>
<feComposite in2="hardAlpha" operator="out"/>
<feColorMatrix type="matrix" values="0 0 0 0 0 0 0 0 0 0 0 0 0 0 0 0 0 0 0.25 0"/>
<feBlend mode="normal" in2="BackgroundImageFix" result="effect1_dropShadow_145_191"/>
<feBlend mode="normal" in="SourceGraphic" in2="effect1_dropShadow_145_191" result="shape"/>
</filter>
</defs>
</svg>
