<svg width="126" height="26" viewBox="0 0 126 26" fill="none" xmlns="http://www.w3.org/2000/svg">
<path d="M2.46 24.45C2.44 24.45 2.41 24.43 2.37 24.39C2.17 24.23 2.03 24 1.95 23.7C1.89 23.38 1.86 23.11 1.86 22.89C1.84 22.53 1.81 22.17 1.77 21.81C1.75 21.45 1.74 21.1 1.74 20.76C1.74 20.24 1.74 19.73 1.74 19.23C1.74 18.73 1.79 18.23 1.89 17.73C1.95 17.41 2.05 17.16 2.19 16.98C2.33 16.78 2.55 16.62 2.85 16.5C3.41 16.28 3.97 16.17 4.53 16.17H18.36C18.74 16.19 19.13 16.22 19.53 16.26C19.93 16.3 20.31 16.4 20.67 16.56C21.07 16.72 21.33 16.99 21.45 17.37C21.59 17.73 21.68 18.11 21.72 18.51C21.74 18.85 21.75 19.25 21.75 19.71C21.77 20.15 21.77 20.6 21.75 21.06C21.73 21.52 21.7 21.98 21.66 22.44C21.62 22.88 21.55 23.28 21.45 23.64C21.39 23.86 21.32 24.05 21.24 24.21C21.16 24.39 21 24.52 20.76 24.6C20.54 24.68 20.31 24.73 20.07 24.75C19.85 24.77 19.63 24.78 19.41 24.78L4.08 24.72C3.82 24.7 3.54 24.69 3.24 24.69C2.94 24.69 2.68 24.61 2.46 24.45ZM10.98 1.44C12.18 2.08 13.03 2.96 13.53 4.08C14.05 5.2 14.25 6.54 14.13 8.1C14.01 10.1 13.44 11.59 12.42 12.57C11.42 13.55 9.88 14.04 7.8 14.04C7.26 14.04 6.76 14.05 6.3 14.07C5.86 14.07 5.44 14.04 5.04 13.98C4.64 13.92 4.23 13.82 3.81 13.68C3.39 13.52 2.94 13.28 2.46 12.96C1.52 12.34 0.87 11.53 0.51 10.53C0.17 9.53 0 8.5 0 7.44C0 6.38 0.19 5.39 0.57 4.47C0.95 3.53 1.57 2.73 2.43 2.07C3.13 1.51 3.91 1.1 4.77 0.84C5.65 0.58 6.53 0.489999 7.41 0.57C7.81 0.61 8.15 0.65 8.43 0.69C8.73 0.71 9.01 0.75 9.27 0.81C9.53 0.870001 9.79 0.950001 10.05 1.05C10.31 1.15 10.62 1.28 10.98 1.44ZM21.9 12.51C21.9 12.51 21.89 12.58 21.87 12.72C21.85 12.86 21.81 13.02 21.75 13.2C21.69 13.38 21.6 13.57 21.48 13.77C21.36 13.95 21.2 14.1 21 14.22C20.72 14.38 20.44 14.46 20.16 14.46C19.82 14.46 19.49 14.35 19.17 14.13C18.95 13.97 18.78 13.76 18.66 13.5C18.5 13.2 18.39 12.87 18.33 12.51C18.29 12.15 18.26 11.78 18.24 11.4C18.24 11.02 18.25 10.65 18.27 10.29C18.29 9.91 18.3 9.55 18.3 9.21C18.32 8.35 18.33 7.5 18.33 6.66C18.33 5.8 18.33 4.95 18.33 4.11V3.72C18.31 3.5 18.3 3.27 18.3 3.03C18.32 2.77 18.36 2.53 18.42 2.31C18.5 2.01 18.68 1.69 18.96 1.35C19.12 1.15 19.34 1.01 19.62 0.93C19.92 0.83 20.24 0.8 20.58 0.84C21.18 0.94 21.58 1.2 21.78 1.62C21.9 1.88 21.95 2.2 21.93 2.58C21.93 2.96 21.92 3.19 21.9 3.27V12.51ZM10.56 8.43C10.56 7.99 10.54 7.58 10.5 7.2C10.46 6.8 10.37 6.44 10.23 6.12C10.11 5.78 9.92 5.48 9.66 5.22C9.4 4.96 9.06 4.75 8.64 4.59C8.18 4.43 7.68 4.35 7.14 4.35C6.6 4.35 6.09 4.45 5.61 4.65C5.13 4.83 4.71 5.12 4.35 5.52C3.99 5.9 3.76 6.4 3.66 7.02C3.6 7.44 3.6 7.87 3.66 8.31C3.74 8.73 3.89 9.12 4.11 9.48C4.35 9.82 4.67 10.11 5.07 10.35C5.49 10.59 6.01 10.74 6.63 10.8C7.05 10.84 7.47 10.84 7.89 10.8C8.31 10.74 8.7 10.62 9.06 10.44C9.42 10.26 9.73 10.01 9.99 9.69C10.25 9.35 10.44 8.93 10.56 8.43ZM5.31 20.94C5.31 21.04 5.31 21.14 5.31 21.24C5.33 21.32 5.37 21.38 5.43 21.42C5.47 21.46 5.53 21.49 5.61 21.51C5.71 21.51 5.81 21.51 5.91 21.51C6.01 21.51 6.13 21.5 6.27 21.48H15.36C15.64 21.5 15.91 21.52 16.17 21.54C16.39 21.56 16.62 21.57 16.86 21.57C17.1 21.57 17.32 21.55 17.52 21.51C17.72 21.49 17.84 21.44 17.88 21.36C17.92 21.26 17.95 21.12 17.97 20.94C17.99 20.78 18 20.6 18 20.4C18 20.18 17.94 19.99 17.82 19.83C17.68 19.67 17.48 19.59 17.22 19.59C16.98 19.57 16.76 19.57 16.56 19.59H8.52C8.08 19.55 7.65 19.54 7.23 19.56C6.81 19.56 6.38 19.57 5.94 19.59C5.78 19.59 5.65 19.6 5.55 19.62C5.47 19.62 5.41 19.71 5.37 19.89C5.33 20.03 5.31 20.17 5.31 20.31C5.31 20.43 5.31 20.55 5.31 20.67C5.33 20.71 5.33 20.75 5.31 20.79C5.31 20.83 5.31 20.88 5.31 20.94Z" fill="#272B4E"/>
<path d="M24.4471 14.28C24.1671 14.16 23.9671 13.93 23.8471 13.59C23.6871 13.19 23.6571 12.79 23.7571 12.39C23.8771 11.99 24.0571 11.61 24.2971 11.25C24.5371 10.89 24.8071 10.55 25.1071 10.23C25.4271 9.91 25.6971 9.61 25.9171 9.33C26.2571 8.91 26.5871 8.49 26.9071 8.07C27.2271 7.65 27.5571 7.22 27.8971 6.78C28.1371 6.44 28.3871 6.04 28.6471 5.58C28.9071 5.12 29.0571 4.67 29.0971 4.23C29.0971 4.11 29.1071 3.96 29.1271 3.78C29.1471 3.58 29.1571 3.38 29.1571 3.18C29.1771 2.96 29.1971 2.76 29.2171 2.58C29.2371 2.4 29.2671 2.25 29.3071 2.13C29.4271 1.73 29.6171 1.46 29.8771 1.32C30.1571 1.16 30.5771 1.08 31.1371 1.08C31.4571 1.08 31.8171 1.14 32.2171 1.26C32.6171 1.36 32.8871 1.57 33.0271 1.89C33.1671 2.25 33.2071 2.67 33.1471 3.15C33.1071 3.61 33.1471 4.03 33.2671 4.41C33.3671 4.71 33.5171 5.02 33.7171 5.34C33.9171 5.66 34.1271 5.98 34.3471 6.3C34.7271 6.84 35.1071 7.43 35.4871 8.07C35.8671 8.69 36.2171 9.22 36.5371 9.66C36.8571 10.08 37.1671 10.52 37.4671 10.98C37.7671 11.42 37.9671 11.9 38.0671 12.42C38.1671 12.86 38.1171 13.23 37.9171 13.53C37.7371 13.81 37.4871 14.02 37.1671 14.16C36.8471 14.28 36.4971 14.31 36.1171 14.25C35.7371 14.17 35.4071 13.99 35.1271 13.71C34.3871 12.95 33.7171 12.14 33.1171 11.28C32.5171 10.4 31.8971 9.54 31.2571 8.7C31.2571 8.7 31.1671 8.8 30.9871 9C30.8071 9.2 30.5871 9.46 30.3271 9.78C30.0671 10.1 29.7771 10.45 29.4571 10.83C29.1371 11.21 28.8371 11.57 28.5571 11.91C28.2771 12.25 28.0271 12.55 27.8071 12.81C27.6071 13.05 27.4871 13.2 27.4471 13.26C27.2271 13.52 26.9771 13.75 26.6971 13.95C26.4171 14.15 26.1071 14.29 25.7671 14.37C25.5471 14.41 25.3171 14.43 25.0771 14.43C24.8571 14.43 24.6471 14.38 24.4471 14.28ZM29.0671 24.72C28.2471 24.72 27.5871 24.54 27.0871 24.18C26.5871 23.84 26.3371 23.44 26.3371 22.98V18.66C26.2971 18.22 26.2971 17.77 26.3371 17.31C26.3771 16.89 26.5371 16.55 26.8171 16.29C27.1171 16.03 27.4971 15.9 27.9571 15.9C28.0571 15.9 28.2371 15.91 28.4971 15.93C28.7571 15.93 28.9371 15.95 29.0371 15.99C29.2971 16.07 29.4971 16.19 29.6371 16.35C29.7971 16.51 29.9171 16.7 29.9971 16.92C30.0771 17.12 30.1271 17.34 30.1471 17.58C30.1671 17.8 30.1871 18.02 30.2071 18.24C30.2071 18.32 30.2071 18.51 30.2071 18.81C30.2271 19.09 30.2371 19.4 30.2371 19.74C30.2571 20.06 30.2671 20.36 30.2671 20.64C30.2871 20.92 30.3071 21.09 30.3271 21.15C30.3871 21.17 30.5471 21.2 30.8071 21.24C31.0871 21.26 31.5971 21.27 32.3371 21.27C32.9771 21.27 33.3671 21.26 33.5071 21.24C33.6671 21.22 33.7571 21.21 33.7771 21.21H43.5871C43.5871 21.21 43.6471 21.23 43.7671 21.27C43.9071 21.31 44.0571 21.38 44.2171 21.48C44.3771 21.56 44.5271 21.68 44.6671 21.84C44.8071 21.98 44.8971 22.15 44.9371 22.35C45.0371 23.11 44.9071 23.7 44.5471 24.12C44.3071 24.4 44.0471 24.57 43.7671 24.63C43.4871 24.69 43.3371 24.72 43.3171 24.72H29.0671ZM44.3071 10.26V13.38C44.2871 13.6 44.2571 13.83 44.2171 14.07C44.1771 14.29 44.0971 14.51 43.9771 14.73C43.8371 14.99 43.6671 15.18 43.4671 15.3C43.1471 15.52 42.8071 15.63 42.4471 15.63C42.1471 15.63 41.8671 15.55 41.6071 15.39C41.4071 15.27 41.2471 15.12 41.1271 14.94C41.0071 14.76 40.9071 14.59 40.8271 14.43C40.7671 14.27 40.7271 14.13 40.7071 14.01C40.6871 13.87 40.6771 13.8 40.6771 13.8V3.27C40.6771 3.17 40.6871 2.95 40.7071 2.61C40.7471 2.25 40.8271 1.95 40.9471 1.71C41.1471 1.29 41.5571 1.05 42.1771 0.99C42.5171 0.95 42.8371 0.97 43.1371 1.05C43.4371 1.13 43.6671 1.26 43.8271 1.44C43.9471 1.6 44.0271 1.76 44.0671 1.92C44.1271 2.06 44.1771 2.21 44.2171 2.37C44.2771 2.57 44.3071 2.78 44.3071 3C44.3271 3.22 44.3271 3.44 44.3071 3.66V6.9C44.3871 6.9 44.5371 6.91 44.7571 6.93C44.9771 6.95 45.2071 6.97 45.4471 6.99C45.7071 6.99 45.9471 7 46.1671 7.02C46.3871 7.04 46.5371 7.06 46.6171 7.08C47.0171 7.16 47.2971 7.28 47.4571 7.44C47.6171 7.58 47.7271 7.76 47.7871 7.98C47.8271 8.2 47.8471 8.46 47.8471 8.76C47.8471 9.04 47.7871 9.28 47.6671 9.48C47.4271 9.88 47.0671 10.11 46.5871 10.17C46.1071 10.23 45.5771 10.26 44.9971 10.26H44.3071Z" fill="#272B4E"/>
<path d="M69.1637 3.48C69.1437 3.64 69.1337 3.77 69.1337 3.87C69.1337 3.97 69.1337 4.06 69.1337 4.14V5.76C69.1337 6.06 69.1337 6.37 69.1337 6.69C69.1337 7.01 69.1437 7.34 69.1637 7.68V9.63C69.1437 9.97 69.1337 10.27 69.1337 10.53C69.1337 10.79 69.1137 11.05 69.0737 11.31C69.0137 11.87 68.8237 12.32 68.5037 12.66C68.2037 13 67.7637 13.21 67.1837 13.29C67.0037 13.33 66.8337 13.36 66.6737 13.38C66.5337 13.38 66.3837 13.38 66.2237 13.38H65.3237C65.1437 13.38 64.9437 13.39 64.7237 13.41C64.5037 13.41 64.2337 13.41 63.9137 13.41C63.5937 13.41 63.2737 13.41 62.9537 13.41C62.6337 13.41 62.3137 13.4 61.9937 13.38H53.9837C53.7637 13.38 53.5437 13.38 53.3237 13.38C53.1237 13.36 52.9337 13.33 52.7537 13.29C52.5337 13.29 52.3237 13.26 52.1237 13.2C51.9237 13.12 51.7537 13.01 51.6137 12.87C51.4137 12.71 51.2337 12.46 51.0737 12.12C51.0137 11.96 50.9537 11.8 50.8937 11.64C50.8537 11.48 50.8237 11.32 50.8037 11.16C50.7637 11.04 50.7237 10.9 50.6837 10.74C50.6637 10.58 50.6537 10.44 50.6537 10.32V4.41C50.6537 4.23 50.6337 4.04 50.5937 3.84C50.5537 3.62 50.5337 3.42 50.5337 3.24C50.5137 3.02 50.5137 2.82 50.5337 2.64C50.5537 2.44 50.6137 2.24 50.7137 2.04C50.7537 1.8 50.8137 1.6 50.8937 1.44C50.9737 1.26 51.0837 1.15 51.2237 1.11C51.3237 1.01 51.4737 0.94 51.6737 0.900001C51.8737 0.86 52.0937 0.82 52.3337 0.780001C52.4937 0.780001 52.6737 0.8 52.8737 0.84C53.0737 0.88 53.2637 0.92 53.4437 0.96C53.9237 1.12 54.1737 1.38 54.1937 1.74V3.06C54.1937 3.24 54.1937 3.41 54.1937 3.57C54.2137 3.71 54.2237 3.85 54.2237 3.99C54.2237 4.15 54.2337 4.3 54.2537 4.44C54.2937 4.58 54.4237 4.65 54.6437 4.65H65.1437C65.1837 4.65 65.2437 4.64 65.3237 4.62C65.4237 4.6 65.5137 4.58 65.5937 4.56V4.14C65.6337 3.98 65.6537 3.84 65.6537 3.72C65.6537 3.6 65.6537 3.48 65.6537 3.36V2.1C65.6537 1.92 65.6637 1.75 65.6837 1.59C65.7237 1.41 65.7937 1.27 65.8937 1.17C65.9537 1.07 66.0437 0.990001 66.1637 0.93C66.3037 0.87 66.4637 0.82 66.6437 0.780001C66.7437 0.760001 66.9237 0.750001 67.1837 0.750001H67.7837C68.0037 0.750001 68.1937 0.790001 68.3537 0.870001C68.7737 1.01 69.0137 1.26 69.0737 1.62C69.1137 1.78 69.1337 1.94 69.1337 2.1C69.1337 2.24 69.1437 2.38 69.1637 2.52V3.48ZM68.7437 15.84C68.9437 15.84 69.1237 15.86 69.2837 15.9C69.4437 15.94 69.6037 16 69.7637 16.08C70.0237 16.18 70.2637 16.36 70.4837 16.62C70.6437 16.84 70.7237 17.18 70.7237 17.64C70.7237 17.9 70.6937 18.12 70.6337 18.3C70.5737 18.46 70.4337 18.62 70.2137 18.78C69.8937 19.04 69.5137 19.2 69.0737 19.26C68.5337 19.38 68.0237 19.44 67.5437 19.44C67.2837 19.44 67.0437 19.46 66.8237 19.5C66.6237 19.52 66.4437 19.53 66.2837 19.53H61.6337C61.6737 19.81 61.6937 20.16 61.6937 20.58C61.7137 20.98 61.7237 21.29 61.7237 21.51C61.7437 21.93 61.7137 22.42 61.6337 22.98C61.5737 23.34 61.4637 23.68 61.3037 24C61.2437 24.34 61.0337 24.63 60.6737 24.87C60.5137 24.99 60.3337 25.07 60.1337 25.11C59.9537 25.17 59.7737 25.2 59.5937 25.2C59.1537 25.2 58.7837 25.09 58.4837 24.87C58.2037 24.75 58.0137 24.53 57.9137 24.21C57.8337 24.03 57.7637 23.88 57.7037 23.76C57.6637 23.62 57.6437 23.48 57.6437 23.34C57.6037 23.24 57.5837 23.13 57.5837 23.01C57.5837 22.89 57.5837 22.77 57.5837 22.65V19.53H51.2237C50.9637 19.53 50.7237 19.51 50.5037 19.47C50.2837 19.43 50.0837 19.39 49.9037 19.35C49.4437 19.19 49.1037 18.93 48.8837 18.57C48.7437 18.39 48.6537 18.21 48.6137 18.03C48.5737 17.85 48.5537 17.65 48.5537 17.43C48.5537 17.05 48.7037 16.72 49.0037 16.44C49.1637 16.28 49.3437 16.16 49.5437 16.08C49.7037 16.02 49.8237 15.98 49.9037 15.96C50.0037 15.94 50.1237 15.93 50.2637 15.93C50.3837 15.89 50.4937 15.87 50.5937 15.87C50.6937 15.87 50.7937 15.87 50.8937 15.87H51.1337L67.7237 15.78C67.8837 15.78 68.0537 15.78 68.2337 15.78C68.4137 15.78 68.5837 15.8 68.7437 15.84ZM65.5337 9.42C65.5737 9.36 65.5937 9.21 65.5937 8.97C65.5937 8.87 65.5937 8.78 65.5937 8.7C65.5937 8.62 65.5737 8.55 65.5337 8.49C65.5337 8.31 65.5237 8.2 65.5037 8.16C65.4037 8.06 65.3037 8 65.2037 7.98C65.1237 7.94 65.0337 7.9 64.9337 7.86H58.3637L57.1337 7.83H56.5037C56.4037 7.83 56.3037 7.83 56.2037 7.83C56.1237 7.83 56.0137 7.81 55.8737 7.77C55.7337 7.77 55.5937 7.78 55.4537 7.8C55.3337 7.8 55.2137 7.8 55.0937 7.8C54.8537 7.8 54.6437 7.86 54.4637 7.98C54.4037 8.04 54.3437 8.12 54.2837 8.22C54.2437 8.32 54.2437 8.45 54.2837 8.61V9.57C54.3237 9.65 54.3437 9.7 54.3437 9.72V9.75C54.3437 9.89 54.4237 10.02 54.5837 10.14C54.6837 10.18 54.7637 10.22 54.8237 10.26C54.9037 10.28 54.9937 10.29 55.0937 10.29C55.2937 10.33 55.4937 10.33 55.6937 10.29H63.4037C63.4637 10.29 63.5337 10.3 63.6137 10.32C63.7137 10.32 63.8137 10.31 63.9137 10.29H64.4537C64.4937 10.29 64.5337 10.29 64.5737 10.29C64.6137 10.29 64.6837 10.3 64.7837 10.32H65.1437C65.1837 10.3 65.2337 10.29 65.2937 10.29C65.3537 10.27 65.4037 10.24 65.4437 10.2C65.4837 10.12 65.5037 10.06 65.5037 10.02C65.5237 9.98 65.5337 9.91 65.5337 9.81V9.42Z" fill="#272B4E"/>
<path d="M81.1641 20.31C81.1641 19.41 81.4241 18.66 81.9441 18.06C82.4841 17.46 83.2041 16.99 84.1041 16.65C85.0041 16.29 86.0641 16.04 87.2841 15.9C88.5041 15.76 89.8041 15.69 91.1841 15.69C92.5641 15.69 93.8641 15.74 95.0841 15.84C96.3041 15.94 97.3641 16.16 98.2641 16.5C99.1641 16.82 99.8741 17.28 100.394 17.88C100.934 18.48 101.204 19.29 101.204 20.31C101.204 21.31 100.934 22.11 100.394 22.71C99.8741 23.31 99.1641 23.77 98.2641 24.09C97.3641 24.43 96.3041 24.65 95.0841 24.75C93.8641 24.87 92.5641 24.93 91.1841 24.93C89.8041 24.93 88.5041 24.87 87.2841 24.75C86.0641 24.65 85.0041 24.43 84.1041 24.09C83.2041 23.77 82.4841 23.31 81.9441 22.71C81.4241 22.11 81.1641 21.31 81.1641 20.31ZM88.8141 4.5C88.8141 4.5 88.8041 4.62 88.7841 4.86C88.7841 5.1 88.7841 5.37 88.7841 5.67C88.7841 5.97 88.7841 6.25 88.7841 6.51C88.8041 6.77 88.8141 6.92 88.8141 6.96C88.9141 7.06 89.0941 7.23 89.3541 7.47C89.6141 7.69 89.8341 7.88 90.0141 8.04C90.2141 8.2 90.4141 8.38 90.6141 8.58C90.8341 8.76 91.0541 8.96 91.2741 9.18C91.4141 9.32 91.5441 9.46 91.6641 9.6C91.7841 9.72 91.8941 9.83 91.9941 9.93C92.3741 10.31 92.7541 10.72 93.1341 11.16C93.5141 11.6 93.7741 12.05 93.9141 12.51C93.9741 12.69 93.9841 12.89 93.9441 13.11C93.9041 13.33 93.7741 13.52 93.5541 13.68C93.2141 13.88 92.8541 13.98 92.4741 13.98C92.0341 13.98 91.6141 13.89 91.2141 13.71C90.8141 13.53 90.4941 13.35 90.2541 13.17C89.8741 12.89 89.5241 12.6 89.2041 12.3C88.8841 11.98 88.5641 11.66 88.2441 11.34C88.0241 11.12 87.7741 10.87 87.4941 10.59C87.2141 10.29 86.9341 10.03 86.6541 9.81L85.8441 10.62C85.7041 10.76 85.5641 10.9 85.4241 11.04C85.2841 11.16 85.1541 11.29 85.0341 11.43C84.7741 11.71 84.5041 12 84.2241 12.3C83.9441 12.58 83.6241 12.85 83.2641 13.11C82.4441 13.71 81.6741 14.01 80.9541 14.01C80.8541 14.01 80.7641 14.01 80.6841 14.01C80.6241 14.01 80.5441 13.99 80.4441 13.95C80.0041 13.85 79.7141 13.67 79.5741 13.41C79.4341 13.19 79.3841 12.94 79.4241 12.66C79.4841 12.38 79.5741 12.13 79.6941 11.91C79.8541 11.69 80.0341 11.48 80.2341 11.28C80.4341 11.06 80.6341 10.84 80.8341 10.62C81.0141 10.42 81.2941 10.14 81.6741 9.78C82.0741 9.4 82.4741 9.02 82.8741 8.64C83.2741 8.24 83.6441 7.88 83.9841 7.56C84.3241 7.24 84.5341 7.04 84.6141 6.96V4.5H82.6941C82.4541 4.5 82.1741 4.51 81.8541 4.53C81.5341 4.53 81.2141 4.51 80.8941 4.47C80.5941 4.43 80.3141 4.35 80.0541 4.23C79.7941 4.09 79.6041 3.87 79.4841 3.57C79.3841 3.35 79.3141 3.1 79.2741 2.82C79.2541 2.54 79.2741 2.28 79.3341 2.04C79.4141 1.76 79.5941 1.57 79.8741 1.47C80.1541 1.35 80.4241 1.27 80.6841 1.23C80.7241 1.23 80.8841 1.23 81.1641 1.23C81.4641 1.23 81.7841 1.23 82.1241 1.23C82.4641 1.23 82.7841 1.23 83.0841 1.23C83.3841 1.23 83.5641 1.22 83.6241 1.2H90.6441C91.4441 1.2 92.1141 1.25 92.6541 1.35C93.2141 1.45 93.6641 1.7 94.0041 2.1C94.1041 2.22 94.1641 2.38 94.1841 2.58C94.2241 2.78 94.2241 2.99 94.1841 3.21C94.1641 3.41 94.1041 3.6 94.0041 3.78C93.9241 3.96 93.8041 4.09 93.6441 4.17C93.4841 4.23 93.2941 4.3 93.0741 4.38C92.8541 4.44 92.6641 4.48 92.5041 4.5C92.2241 4.52 91.9341 4.53 91.6341 4.53C91.3541 4.51 91.0741 4.5 90.7941 4.5H88.8141ZM95.5941 9.57C95.0141 9.53 94.4941 9.5 94.0341 9.48C93.5741 9.44 93.2141 9.22 92.9541 8.82C92.8341 8.62 92.7741 8.36 92.7741 8.04C92.7741 7.72 92.7941 7.45 92.8341 7.23C92.8941 7.01 93.0041 6.83 93.1641 6.69C93.3241 6.53 93.6041 6.4 94.0041 6.3C94.0841 6.28 94.2741 6.27 94.5741 6.27C94.8941 6.25 95.2341 6.24 95.5941 6.24C95.9541 6.22 96.2941 6.21 96.6141 6.21C96.9341 6.19 97.1341 6.18 97.2141 6.18V3.33C97.1941 3.11 97.1841 2.89 97.1841 2.67C97.2041 2.45 97.2441 2.23 97.3041 2.01C97.3441 1.85 97.3841 1.7 97.4241 1.56C97.4641 1.42 97.5541 1.27 97.6941 1.11C97.8541 0.91 98.0741 0.77 98.3541 0.69C98.6541 0.61 98.9741 0.59 99.3141 0.630001C99.6141 0.67 99.8841 0.76 100.124 0.900001C100.364 1.02 100.534 1.18 100.634 1.38C100.754 1.62 100.824 1.92 100.844 2.28C100.884 2.62 100.904 2.83 100.904 2.91V13.2H100.874C100.874 13.22 100.864 13.29 100.844 13.41C100.824 13.53 100.784 13.68 100.724 13.86C100.664 14.02 100.574 14.19 100.454 14.37C100.334 14.55 100.174 14.7 99.9741 14.82C99.6941 14.98 99.3841 15.06 99.0441 15.06C98.7041 15.06 98.3741 14.95 98.0541 14.73C97.8141 14.57 97.6441 14.37 97.5441 14.13C97.4241 13.91 97.3441 13.69 97.3041 13.47C97.2641 13.25 97.2341 13.03 97.2141 12.81V9.57H95.5941ZM97.1541 20.31C97.1541 19.97 96.9741 19.7 96.6141 19.5C96.2541 19.3 95.7841 19.15 95.2041 19.05C94.6441 18.95 94.0041 18.89 93.2841 18.87C92.5841 18.83 91.8841 18.81 91.1841 18.81C90.4841 18.81 89.7841 18.83 89.0841 18.87C88.4041 18.89 87.7841 18.95 87.2241 19.05C86.6841 19.15 86.2441 19.3 85.9041 19.5C85.5641 19.7 85.3941 19.97 85.3941 20.31C85.3941 20.61 85.5641 20.86 85.9041 21.06C86.2441 21.26 86.6841 21.41 87.2241 21.51C87.7841 21.61 88.4041 21.68 89.0841 21.72C89.7841 21.76 90.4841 21.78 91.1841 21.78C91.8841 21.78 92.5841 21.78 93.2841 21.78C94.0041 21.78 94.6441 21.74 95.2041 21.66C95.7841 21.58 96.2541 21.44 96.6141 21.24C96.9741 21.02 97.1541 20.71 97.1541 20.31Z" fill="#272B4E"/>
<path d="M114.119 10.14C114.459 10.54 114.799 10.96 115.139 11.4C115.479 11.84 115.709 12.28 115.829 12.72C115.869 12.92 115.869 13.13 115.829 13.35C115.789 13.57 115.679 13.76 115.499 13.92C115.199 14.12 114.879 14.22 114.539 14.22C114.159 14.22 113.789 14.13 113.429 13.95C113.089 13.77 112.809 13.59 112.589 13.41C112.249 13.11 111.939 12.81 111.659 12.51C111.379 12.19 111.099 11.88 110.819 11.58C110.599 11.34 110.359 11.1 110.099 10.86C109.839 10.62 109.609 10.36 109.409 10.08L106.439 13.35C106.119 13.69 105.779 13.93 105.419 14.07C105.059 14.19 104.719 14.25 104.399 14.25C104.299 14.25 104.149 14.23 103.949 14.19C103.569 14.09 103.309 13.91 103.169 13.65C103.049 13.43 103.009 13.18 103.049 12.9C103.089 12.62 103.169 12.37 103.289 12.15C103.429 11.91 103.579 11.69 103.739 11.49C103.919 11.29 104.099 11.08 104.279 10.86C104.799 10.28 105.299 9.68 105.779 9.06C106.279 8.42 106.819 7.8 107.399 7.2V5.55C107.239 5.57 107.039 5.58 106.799 5.58C106.559 5.56 106.269 5.55 105.929 5.55C105.709 5.55 105.459 5.56 105.179 5.58C104.899 5.6 104.619 5.59 104.339 5.55C104.079 5.51 103.839 5.43 103.619 5.31C103.399 5.17 103.229 4.95 103.109 4.65C103.009 4.43 102.949 4.18 102.929 3.9C102.909 3.62 102.929 3.36 102.989 3.12C103.049 2.84 103.199 2.65 103.439 2.55C103.699 2.43 103.939 2.35 104.159 2.31C104.359 2.27 104.539 2.25 104.699 2.25C104.759 2.25 104.819 2.26 104.879 2.28C104.939 2.28 104.999 2.28 105.059 2.28H107.489C107.529 1.82 107.619 1.39 107.759 0.99C107.919 0.57 108.219 0.28 108.659 0.12C108.999 3.94881e-07 109.309 -0.0299998 109.589 0.0299994C109.889 0.0899998 110.149 0.21 110.369 0.39C110.589 0.57 110.769 0.8 110.909 1.08C111.049 1.36 111.139 1.65 111.179 1.95C111.199 2.01 111.209 2.07 111.209 2.13C111.229 2.17 111.239 2.22 111.239 2.28H112.949C113.649 2.28 114.209 2.33 114.629 2.43C115.049 2.51 115.399 2.75 115.679 3.15C115.759 3.27 115.819 3.44 115.859 3.66C115.899 3.86 115.899 4.07 115.859 4.29C115.839 4.49 115.789 4.68 115.709 4.86C115.629 5.04 115.529 5.17 115.409 5.25C115.249 5.31 115.069 5.38 114.869 5.46C114.689 5.52 114.519 5.55 114.359 5.55C114.119 5.57 113.899 5.58 113.699 5.58C113.519 5.56 113.309 5.55 113.069 5.55C112.709 5.55 112.429 5.56 112.229 5.58C112.029 5.58 111.789 5.57 111.509 5.55C111.509 5.81 111.509 5.98 111.509 6.06C111.509 6.12 111.509 6.18 111.509 6.24C111.509 6.3 111.509 6.39 111.509 6.51C111.509 6.63 111.509 6.86 111.509 7.2C111.609 7.28 111.739 7.44 111.899 7.68C112.059 7.92 112.219 8.12 112.379 8.28C112.539 8.44 112.709 8.62 112.889 8.82C113.069 9 113.259 9.2 113.459 9.42C113.599 9.56 113.719 9.69 113.819 9.81C113.919 9.93 114.019 10.04 114.119 10.14ZM125.189 13.2C125.189 13.22 125.179 13.29 125.159 13.41C125.159 13.53 125.129 13.68 125.069 13.86C125.009 14.02 124.919 14.19 124.799 14.37C124.699 14.55 124.549 14.7 124.349 14.82C124.129 14.96 123.899 15.03 123.659 15.03C123.259 15.03 122.929 14.93 122.669 14.73C122.449 14.57 122.279 14.37 122.159 14.13C121.859 13.57 121.719 12.96 121.739 12.3C121.759 11.62 121.779 10.97 121.799 10.35V9.93C121.579 9.95 121.359 9.97 121.139 9.99C120.939 9.99 120.739 9.99 120.539 9.99H120.449V12.72C120.429 12.94 120.399 13.17 120.359 13.41C120.319 13.63 120.239 13.85 120.119 14.07C119.979 14.33 119.809 14.52 119.609 14.64C119.469 14.74 119.349 14.82 119.249 14.88C119.149 14.94 119.009 14.97 118.829 14.97C118.549 14.97 118.269 14.89 117.989 14.73C117.789 14.61 117.629 14.46 117.509 14.28C117.389 14.1 117.299 13.93 117.239 13.77C117.179 13.61 117.139 13.47 117.119 13.35C117.099 13.21 117.089 13.14 117.089 13.14V3.24C117.069 3.14 117.069 2.92 117.089 2.58C117.129 2.22 117.209 1.92 117.329 1.68C117.529 1.26 117.939 1.02 118.559 0.96C118.899 0.92 119.179 0.940001 119.399 1.02C119.619 1.1 119.809 1.23 119.969 1.41C120.109 1.57 120.199 1.73 120.239 1.89C120.279 2.03 120.319 2.18 120.359 2.34C120.419 2.54 120.449 2.75 120.449 2.97C120.469 3.19 120.479 3.41 120.479 3.63C120.459 3.71 120.449 3.83 120.449 3.99V6.63C120.549 6.65 120.729 6.67 120.989 6.69C121.269 6.69 121.549 6.7 121.829 6.72V3.54C121.809 3.32 121.799 3.11 121.799 2.91C121.819 2.69 121.859 2.47 121.919 2.25C121.999 1.95 122.179 1.65 122.459 1.35C122.779 0.950001 123.249 0.790001 123.869 0.870001C124.389 0.95 124.749 1.21 124.949 1.65C125.069 1.89 125.139 2.18 125.159 2.52C125.199 2.86 125.209 3.07 125.189 3.15V13.2ZM121.949 17.01C122.769 17.01 123.429 17.14 123.929 17.4C124.429 17.64 124.679 17.99 124.679 18.45V22.47C124.719 22.93 124.719 23.37 124.679 23.79C124.639 24.21 124.469 24.55 124.169 24.81C123.889 25.07 123.519 25.2 123.059 25.2C122.959 25.2 122.779 25.19 122.519 25.17C122.259 25.17 122.079 25.15 121.979 25.11C121.719 25.03 121.509 24.91 121.349 24.75C121.209 24.59 121.099 24.41 121.019 24.21C120.939 24.01 120.879 23.8 120.839 23.58C120.819 23.34 120.799 23.11 120.779 22.89C120.779 22.81 120.769 22.66 120.749 22.44C120.749 22.2 120.749 21.96 120.749 21.72C120.749 21.46 120.739 21.22 120.719 21C120.719 20.78 120.709 20.63 120.689 20.55C120.629 20.53 120.459 20.51 120.179 20.49C119.919 20.47 119.419 20.46 118.679 20.46C118.039 20.46 117.639 20.47 117.479 20.49C117.339 20.51 117.259 20.52 117.239 20.52H106.409L106.379 20.49C106.379 20.49 106.309 20.47 106.169 20.43C106.049 20.39 105.909 20.33 105.749 20.25C105.589 20.17 105.429 20.06 105.269 19.92C105.129 19.78 105.049 19.6 105.029 19.38C104.929 18.62 105.059 18.02 105.419 17.58C105.659 17.3 105.919 17.14 106.199 17.1C106.479 17.04 106.629 17.01 106.649 17.01H121.949Z" fill="#272B4E"/>
</svg>
