<svg width="125" height="26" viewBox="0 0 125 26" fill="none" xmlns="http://www.w3.org/2000/svg">
<path d="M10.71 1.35C11.29 1.69 11.79 2.06 12.21 2.46C12.65 2.86 12.99 3.33 13.23 3.87C13.75 5.05 13.94 6.37 13.8 7.83C13.74 9.79 13.18 11.25 12.12 12.21C11.18 13.15 9.68 13.62 7.62 13.62C7.34 13.62 7.08 13.63 6.84 13.65C6.6 13.65 6.38 13.67 6.18 13.71C5.96 13.71 5.74 13.7 5.52 13.68C5.32 13.64 5.12 13.62 4.92 13.62C4.72 13.58 4.52 13.54 4.32 13.5C4.12 13.46 3.92 13.4 3.72 13.32C3.28 13.16 2.84 12.93 2.4 12.63C1.42 12.01 0.78 11.21 0.48 10.23C0.16 9.33 0 8.32 0 7.2C0 6.7 0.04 6.2 0.12 5.7C0.2 5.2 0.34 4.73 0.54 4.29C0.7 3.81 0.93 3.39 1.23 3.03C1.55 2.65 1.94 2.27 2.4 1.89C3.04 1.35 3.8 0.97 4.68 0.749999C5.08 0.61 5.49 0.52 5.91 0.479999C6.35 0.44 6.78 0.44 7.2 0.479999C7.42 0.479999 7.61 0.5 7.77 0.54C7.93 0.56 8.09 0.57 8.25 0.57C8.53 0.57 8.79 0.63 9.03 0.749999C9.15 0.79 9.28 0.83 9.42 0.87C9.58 0.889999 9.71 0.919999 9.81 0.96C9.93 1 10.07 1.06 10.23 1.14C10.39 1.2 10.55 1.27 10.71 1.35ZM1.83 20.16C1.83 19.7 1.89 19.3 2.01 18.96C2.13 18.6 2.31 18.26 2.55 17.94C2.83 17.66 3.13 17.41 3.45 17.19C3.77 16.95 4.16 16.74 4.62 16.56C5.04 16.36 5.51 16.21 6.03 16.11C6.55 15.99 7.11 15.88 7.71 15.78C8.29 15.74 8.89 15.71 9.51 15.69C10.15 15.65 10.82 15.63 11.52 15.63C12.18 15.63 12.83 15.65 13.47 15.69C14.11 15.71 14.72 15.74 15.3 15.78C15.9 15.82 16.45 15.9 16.95 16.02C17.47 16.12 17.95 16.25 18.39 16.41C18.81 16.57 19.19 16.77 19.53 17.01C19.87 17.23 20.18 17.48 20.46 17.76C20.92 18.28 21.15 19.08 21.15 20.16C21.15 21.14 20.92 21.93 20.46 22.53C19.88 23.11 19.19 23.56 18.39 23.88C17.95 24.04 17.47 24.17 16.95 24.27C16.45 24.39 15.9 24.47 15.3 24.51C14.72 24.55 14.11 24.58 13.47 24.6C12.83 24.64 12.18 24.66 11.52 24.66C10.82 24.66 10.15 24.64 9.51 24.6C8.89 24.58 8.29 24.55 7.71 24.51C7.11 24.47 6.55 24.39 6.03 24.27C5.51 24.17 5.04 24.04 4.62 23.88C4.16 23.72 3.77 23.53 3.45 23.31C3.13 23.07 2.83 22.81 2.55 22.53C2.07 21.91 1.83 21.12 1.83 20.16ZM10.29 8.19C10.29 7.97 10.29 7.76 10.29 7.56C10.29 7.34 10.27 7.15 10.23 6.99C10.23 6.77 10.2 6.57 10.14 6.39C10.1 6.21 10.04 6.04 9.96 5.88C9.92 5.72 9.85 5.58 9.75 5.46C9.65 5.32 9.54 5.17 9.42 5.01C9.18 4.77 8.84 4.58 8.4 4.44C7.98 4.28 7.5 4.2 6.96 4.2C6.68 4.2 6.42 4.22 6.18 4.26C5.94 4.3 5.7 4.36 5.46 4.44C5.24 4.52 5.02 4.64 4.8 4.8C4.6 4.96 4.39 5.14 4.17 5.34C3.87 5.74 3.66 6.24 3.54 6.84C3.48 7.2 3.48 7.6 3.54 8.04C3.6 8.26 3.67 8.47 3.75 8.67C3.83 8.87 3.92 9.05 4.02 9.21C4.1 9.37 4.22 9.53 4.38 9.69C4.54 9.83 4.72 9.96 4.92 10.08C5.16 10.18 5.4 10.27 5.64 10.35C5.9 10.43 6.19 10.47 6.51 10.47C6.89 10.53 7.29 10.53 7.71 10.47C7.91 10.47 8.1 10.44 8.28 10.38C8.48 10.3 8.68 10.22 8.88 10.14C9.04 10.06 9.19 9.96 9.33 9.84C9.49 9.72 9.63 9.56 9.75 9.36C9.85 9.2 9.95 9.03 10.05 8.85C10.17 8.65 10.25 8.43 10.29 8.19ZM17.28 20.16C17.28 20 17.24 19.85 17.16 19.71C17.08 19.55 16.94 19.43 16.74 19.35C16.56 19.27 16.35 19.19 16.11 19.11C15.89 19.03 15.64 18.95 15.36 18.87C15.08 18.83 14.8 18.8 14.52 18.78C14.24 18.74 13.93 18.72 13.59 18.72C13.21 18.72 12.85 18.71 12.51 18.69C12.19 18.65 11.86 18.63 11.52 18.63C11.14 18.63 10.78 18.65 10.44 18.69C10.12 18.71 9.81 18.72 9.51 18.72C9.15 18.72 8.83 18.74 8.55 18.78C8.27 18.8 7.99 18.83 7.71 18.87C7.43 18.95 7.18 19.03 6.96 19.11C6.74 19.19 6.54 19.27 6.36 19.35C6.2 19.43 6.08 19.55 6 19.71C5.92 19.85 5.88 20 5.88 20.16C5.88 20.48 6.04 20.71 6.36 20.85C6.7 21.11 7.15 21.27 7.71 21.33C7.99 21.37 8.27 21.41 8.55 21.45C8.83 21.47 9.15 21.48 9.51 21.48C9.81 21.52 10.12 21.55 10.44 21.57C10.78 21.57 11.14 21.57 11.52 21.57H13.59C13.93 21.57 14.24 21.57 14.52 21.57C14.8 21.55 15.08 21.52 15.36 21.48C15.94 21.42 16.4 21.26 16.74 21C17.1 20.86 17.28 20.58 17.28 20.16ZM20.94 3.66H22.02C22.14 3.66 22.26 3.66 22.38 3.66C22.5 3.66 22.6 3.68 22.68 3.72H23.16C23.54 3.82 23.83 3.96 24.03 4.14C24.11 4.18 24.16 4.25 24.18 4.35C24.22 4.45 24.24 4.56 24.24 4.68C24.28 4.76 24.3 4.87 24.3 5.01C24.32 5.13 24.33 5.27 24.33 5.43C24.33 5.59 24.32 5.72 24.3 5.82C24.3 5.92 24.26 6.02 24.18 6.12C24.04 6.32 23.89 6.48 23.73 6.6C23.57 6.7 23.38 6.75 23.16 6.75C22.92 6.79 22.66 6.82 22.38 6.84C22.12 6.84 21.85 6.86 21.57 6.9H20.94V8.67H23.16C23.5 8.77 23.75 8.9 23.91 9.06C24.01 9.1 24.08 9.17 24.12 9.27C24.16 9.35 24.2 9.43 24.24 9.51C24.24 9.63 24.25 9.75 24.27 9.87C24.31 9.99 24.33 10.13 24.33 10.29C24.33 10.45 24.32 10.59 24.3 10.71C24.3 10.83 24.26 10.94 24.18 11.04C23.9 11.44 23.56 11.67 23.16 11.73C22.92 11.73 22.66 11.75 22.38 11.79C22.12 11.81 21.85 11.82 21.57 11.82H20.94V12.21C20.9 12.33 20.87 12.44 20.85 12.54C20.85 12.64 20.85 12.74 20.85 12.84C20.81 12.96 20.77 13.08 20.73 13.2C20.69 13.32 20.65 13.44 20.61 13.56C20.53 13.66 20.45 13.76 20.37 13.86C20.29 13.96 20.19 14.05 20.07 14.13C19.95 14.21 19.81 14.28 19.65 14.34C19.49 14.4 19.3 14.43 19.08 14.43C18.92 14.43 18.77 14.42 18.63 14.4C18.49 14.36 18.38 14.3 18.3 14.22C18.06 14.12 17.9 13.97 17.82 13.77C17.74 13.67 17.68 13.58 17.64 13.5C17.6 13.42 17.56 13.34 17.52 13.26C17.48 13.16 17.45 13.06 17.43 12.96C17.43 12.84 17.4 12.73 17.34 12.63V2.94C17.34 2.9 17.34 2.83 17.34 2.73C17.36 2.61 17.4 2.45 17.46 2.25C17.46 1.87 17.53 1.57 17.67 1.35C17.75 1.15 17.88 1 18.06 0.899999C18.26 0.779999 18.5 0.69 18.78 0.630001C19.18 0.59 19.51 0.62 19.77 0.72C20.03 0.8 20.26 0.93 20.46 1.11C20.54 1.31 20.62 1.44 20.7 1.5C20.74 1.54 20.76 1.6 20.76 1.68C20.78 1.74 20.81 1.81 20.85 1.89C20.85 1.99 20.86 2.08 20.88 2.16C20.92 2.22 20.94 2.27 20.94 2.31V3.66Z" fill="#E1A660"/>
<path d="M28.4939 20.91C28.4739 20.91 28.3939 20.89 28.2539 20.85C28.1339 20.81 27.9939 20.75 27.8339 20.67C27.6739 20.59 27.5239 20.48 27.3839 20.34C27.2439 20.2 27.1639 20.02 27.1439 19.8C27.0239 19.06 27.1439 18.46 27.5039 18C27.7439 17.72 28.0039 17.56 28.2839 17.52C28.5639 17.46 28.7139 17.43 28.7339 17.43H31.0739C31.0539 17.39 31.0439 17.31 31.0439 17.19C31.0039 16.79 30.9939 16.39 31.0139 15.99C31.0539 15.59 31.0739 15.19 31.0739 14.79L26.9639 14.61C26.6439 14.57 26.3839 14.53 26.1839 14.49C26.0039 14.43 25.7839 14.28 25.5239 14.04C25.3839 13.92 25.2839 13.76 25.2239 13.56C25.1639 13.36 25.1339 13.15 25.1339 12.93C25.1339 12.51 25.2639 12.17 25.5239 11.91C25.6639 11.75 25.8539 11.63 26.0939 11.55C26.3339 11.47 26.5639 11.41 26.7839 11.37C27.0039 11.33 27.1939 11.31 27.3539 11.31C27.5339 11.31 27.6339 11.31 27.6539 11.31H44.8139C45.1139 11.31 45.4139 11.31 45.7139 11.31C46.0139 11.31 46.3039 11.32 46.5839 11.34C46.8639 11.36 47.1339 11.4 47.3939 11.46C47.6739 11.52 47.9239 11.65 48.1439 11.85C48.3639 12.01 48.4839 12.19 48.5039 12.39C48.5439 12.59 48.5639 12.81 48.5639 13.05C48.5639 13.35 48.4739 13.62 48.2939 13.86C48.1339 14.1 47.9039 14.27 47.6039 14.37C47.2039 14.53 46.7639 14.63 46.2839 14.67C45.8239 14.69 45.3839 14.71 44.9639 14.73C44.7439 14.75 44.4739 14.76 44.1539 14.76C43.8339 14.76 43.4839 14.77 43.1039 14.79C43.0639 15.23 43.0439 15.67 43.0439 16.11C43.0639 16.53 43.0739 16.97 43.0739 17.43H43.6139C43.6339 17.43 43.6539 17.43 43.6739 17.43C43.6939 17.41 43.7239 17.4 43.7639 17.4C44.5839 17.4 45.2139 17.53 45.6539 17.79C46.1139 18.05 46.3439 18.41 46.3439 18.87V20.91C46.3439 21.01 46.3439 21.12 46.3439 21.24C46.3639 21.34 46.3739 21.44 46.3739 21.54C46.3739 21.64 46.3739 21.79 46.3739 21.99C46.3739 22.19 46.3739 22.4 46.3739 22.62C46.3739 22.82 46.3739 23.02 46.3739 23.22C46.3739 23.42 46.3639 23.58 46.3439 23.7C46.3039 24.12 46.1339 24.46 45.8339 24.72C45.5539 24.98 45.1839 25.11 44.7239 25.11C44.5039 25.11 44.2939 25.08 44.0939 25.02C43.8139 24.94 43.5939 24.82 43.4339 24.66C43.2939 24.5 43.1839 24.32 43.1039 24.12C43.0439 23.92 42.9939 23.71 42.9539 23.49C42.9339 23.25 42.9239 23.02 42.9239 22.8C42.9239 22.72 42.9139 22.59 42.8939 22.41C42.8939 22.23 42.8839 22.05 42.8639 21.87C42.8639 21.67 42.8539 21.49 42.8339 21.33C42.8339 21.17 42.8239 21.05 42.8039 20.97C42.7439 20.95 42.5739 20.93 42.2939 20.91C42.0339 20.89 41.5339 20.88 40.7939 20.88C40.4539 20.88 40.1539 20.89 39.8939 20.91C39.6339 20.91 39.3939 20.91 39.1739 20.91H28.4939ZM36.9239 9.9C35.4839 9.9 34.1339 9.85 32.8739 9.75C31.6339 9.65 30.5539 9.43 29.6339 9.09C28.7339 8.73 28.0239 8.23 27.5039 7.59C26.9839 6.93 26.7239 6.05 26.7239 4.95C26.7239 3.95 26.9839 3.13 27.5039 2.49C28.0239 1.85 28.7339 1.35 29.6339 0.99C30.5539 0.61 31.6339 0.35 32.8739 0.209999C34.1339 0.0699997 35.4839 0 36.9239 0C38.3639 0 39.7039 0.05 40.9439 0.15C42.2039 0.25 43.2839 0.47 44.1839 0.81C45.1039 1.15 45.8239 1.65 46.3439 2.31C46.8639 2.95 47.1239 3.83 47.1239 4.95C47.1239 6.05 46.8639 6.93 46.3439 7.59C45.8239 8.23 45.1039 8.73 44.1839 9.09C43.2839 9.43 42.2039 9.65 40.9439 9.75C39.7039 9.85 38.3639 9.9 36.9239 9.9ZM36.9239 3.36C36.1839 3.36 35.4439 3.37 34.7039 3.39C33.9839 3.41 33.3339 3.48 32.7539 3.6C32.1739 3.7 31.7039 3.86 31.3439 4.08C30.9839 4.28 30.8039 4.57 30.8039 4.95C30.8039 5.63 31.3439 6.09 32.4239 6.33C33.5239 6.55 35.0239 6.64 36.9239 6.6C37.6639 6.6 38.3939 6.6 39.1139 6.6C39.8539 6.58 40.5139 6.53 41.0939 6.45C41.6739 6.35 42.1439 6.19 42.5039 5.97C42.8639 5.73 43.0439 5.39 43.0439 4.95C43.0439 4.57 42.8639 4.28 42.5039 4.08C42.1439 3.86 41.6739 3.7 41.0939 3.6C40.5139 3.48 39.8539 3.41 39.1139 3.39C38.3939 3.37 37.6639 3.36 36.9239 3.36ZM35.2139 14.85C35.2539 15.29 35.2439 15.7 35.1839 16.08C35.1439 16.46 35.1239 16.91 35.1239 17.43H38.9939V17.25C38.9539 16.95 38.9339 16.58 38.9339 16.14C38.9539 15.68 38.9739 15.25 38.9939 14.85H35.2139Z" fill="#E1A660"/>
<path d="M59.9955 24.12C59.7555 24.12 59.5255 24.08 59.3055 24C59.0855 23.92 58.8955 23.81 58.7355 23.67C58.5755 23.53 58.4555 23.36 58.3755 23.16C58.2955 22.96 58.2755 22.73 58.3155 22.47C58.1955 22.11 58.1855 21.79 58.2855 21.51C58.3855 21.21 58.5155 20.91 58.6755 20.61H58.6455C59.3455 19.05 60.0255 17.52 60.6855 16.02C61.3655 14.5 62.0755 12.99 62.8155 11.49C63.4755 10.09 64.0855 8.77 64.6455 7.53C65.2055 6.29 65.7555 5.07 66.2955 3.87C66.3955 3.65 66.5155 3.43 66.6555 3.21C66.7955 2.99 66.9555 2.82 67.1355 2.7C67.3155 2.56 67.5256 2.47 67.7655 2.43C68.0055 2.39 68.2955 2.44 68.6356 2.58C69.1555 2.8 69.5356 3.11 69.7756 3.51C70.0356 3.91 70.1155 4.37 70.0155 4.89C69.7355 5.61 69.5055 6.2 69.3255 6.66C69.1655 7.1 68.9955 7.51 68.8155 7.89C68.6555 8.27 68.4755 8.66 68.2755 9.06C68.0755 9.46 67.8155 9.98 67.4955 10.62C67.1955 11.26 66.8155 12.07 66.3555 13.05C65.9155 14.01 65.3555 15.25 64.6755 16.77C64.3155 17.59 63.9455 18.37 63.5655 19.11C63.2055 19.85 62.8455 20.59 62.4855 21.33C62.3655 21.55 62.2355 21.82 62.0955 22.14C61.9555 22.44 61.8055 22.77 61.6455 23.13C61.4855 23.47 61.2555 23.72 60.9555 23.88C60.6555 24.04 60.3355 24.12 59.9955 24.12Z" fill="#E1A660"/>
<path d="M99.304 10.68C99.644 10.7 99.984 10.75 100.324 10.83C100.684 10.91 101.004 11.06 101.284 11.28C101.564 11.5 101.704 11.79 101.704 12.15C101.704 12.35 101.664 12.57 101.584 12.81C101.524 13.05 101.434 13.22 101.314 13.32C101.154 13.48 100.944 13.6 100.684 13.68C100.444 13.74 100.204 13.79 99.964 13.83C99.724 13.85 99.514 13.86 99.334 13.86C99.174 13.86 99.084 13.86 99.064 13.86L83.074 13.89C82.614 13.91 82.134 13.91 81.634 13.89C81.154 13.87 80.744 13.72 80.404 13.44C79.944 13.1 79.714 12.71 79.714 12.27C79.714 11.99 79.804 11.72 79.984 11.46C80.184 11.18 80.444 10.99 80.764 10.89C81.184 10.75 81.614 10.69 82.054 10.71C82.494 10.71 82.944 10.7 83.404 10.68C83.884 10.66 84.314 10.65 84.694 10.65C85.074 10.65 85.434 10.65 85.774 10.65C86.134 10.65 86.504 10.66 86.884 10.68C87.264 10.68 87.704 10.68 88.204 10.68V9.03C87.284 9.01 86.334 8.99 85.354 8.97C84.394 8.95 83.464 8.94 82.564 8.94C82.084 8.94 81.704 8.87 81.424 8.73C81.164 8.57 80.964 8.36 80.824 8.1C80.704 7.82 80.634 7.5 80.614 7.14C80.594 6.76 80.584 6.36 80.584 5.94V2.97C80.584 2.03 80.804 1.35 81.244 0.930001C81.684 0.51 82.364 0.3 83.284 0.3H97.234C97.634 0.3 98.014 0.32 98.374 0.360001C98.734 0.38 99.114 0.470001 99.514 0.630001C99.834 0.77 100.084 0.99 100.264 1.29C100.444 1.57 100.524 1.88 100.504 2.22C100.464 2.56 100.344 2.86 100.144 3.12C99.964 3.36 99.704 3.52 99.364 3.6C98.964 3.7 98.424 3.75 97.744 3.75C97.484 3.75 97.274 3.75 97.114 3.75C96.954 3.73 96.864 3.72 96.844 3.72H94.084C92.784 3.72 91.494 3.72 90.214 3.72C88.934 3.72 87.654 3.69 86.374 3.63C86.134 3.61 85.884 3.6 85.624 3.6C85.384 3.6 85.154 3.64 84.934 3.72C84.814 3.76 84.724 3.85 84.664 3.99C84.624 4.11 84.594 4.26 84.574 4.44C84.574 4.62 84.574 4.81 84.574 5.01C84.594 5.19 84.624 5.34 84.664 5.46C84.944 5.5 85.224 5.53 85.504 5.55C85.784 5.55 86.064 5.56 86.344 5.58L97.204 5.55C97.464 5.55 97.764 5.57 98.104 5.61C98.444 5.63 98.764 5.69 99.064 5.79C99.384 5.87 99.654 6 99.874 6.18C100.114 6.34 100.264 6.56 100.324 6.84C100.424 7.24 100.404 7.58 100.264 7.86C100.144 8.14 99.954 8.36 99.694 8.52C99.454 8.68 99.174 8.8 98.854 8.88C98.534 8.96 98.224 9 97.924 9C97.744 9 97.434 9.01 96.994 9.03C96.554 9.03 96.064 9.04 95.524 9.06C94.984 9.06 94.434 9.06 93.874 9.06C93.314 9.06 92.824 9.06 92.404 9.06C92.424 9.34 92.434 9.62 92.434 9.9C92.454 10.18 92.464 10.44 92.464 10.68C93.024 10.68 93.614 10.68 94.234 10.68C94.854 10.66 95.464 10.65 96.064 10.65C96.684 10.65 97.274 10.65 97.834 10.65C98.394 10.65 98.884 10.66 99.304 10.68ZM99.454 22.53C99.774 22.57 100.054 22.65 100.294 22.77C100.534 22.89 100.704 23.11 100.804 23.43C101.044 24.15 100.784 24.66 100.024 24.96C99.784 25.06 99.544 25.12 99.304 25.14C99.064 25.16 98.834 25.17 98.614 25.17H84.664C84.264 25.17 83.844 25.16 83.404 25.14C82.984 25.14 82.554 25.13 82.114 25.11C81.694 25.09 81.344 24.94 81.064 24.66C80.784 24.38 80.624 24.01 80.584 23.55L80.494 21.39C80.474 21.17 80.474 20.89 80.494 20.55C80.514 20.19 80.614 19.91 80.794 19.71C81.074 19.41 81.444 19.22 81.904 19.14C82.384 19.06 82.844 19.02 83.284 19.02C83.564 19.02 84.014 19.02 84.634 19.02C85.254 19.02 86.104 19.03 87.184 19.05C88.264 19.05 89.614 19.05 91.234 19.05C92.854 19.05 94.804 19.05 97.084 19.05V17.88H82.624C82.424 17.88 82.244 17.88 82.084 17.88C81.924 17.88 81.764 17.86 81.604 17.82C81.424 17.78 81.264 17.74 81.124 17.7C80.984 17.66 80.864 17.56 80.764 17.4C80.484 16.96 80.414 16.51 80.554 16.05C80.614 15.85 80.734 15.7 80.914 15.6C81.114 15.48 81.324 15.39 81.544 15.33C81.784 15.27 82.024 15.23 82.264 15.21C82.524 15.19 82.764 15.18 82.984 15.18H97.684C98.704 15.18 99.434 15.35 99.874 15.69C100.314 16.03 100.534 16.55 100.534 17.25V19.62C100.534 19.9 100.464 20.18 100.324 20.46C100.204 20.72 99.984 20.94 99.664 21.12C99.404 21.28 99.144 21.37 98.884 21.39C98.624 21.39 98.364 21.39 98.104 21.39H84.184V22.53H99.454Z" fill="#E1A660"/>
<path d="M122.507 11.34C122.847 11.36 123.187 11.41 123.527 11.49C123.887 11.57 124.207 11.72 124.487 11.94C124.767 12.16 124.907 12.47 124.907 12.87C124.907 13.07 124.867 13.29 124.787 13.53C124.727 13.77 124.637 13.94 124.517 14.04C124.357 14.2 124.147 14.32 123.887 14.4C123.647 14.46 123.407 14.51 123.167 14.55C122.927 14.57 122.717 14.58 122.537 14.58C122.377 14.58 122.287 14.58 122.267 14.58L106.277 14.61C105.817 14.63 105.337 14.63 104.837 14.61C104.357 14.59 103.947 14.44 103.607 14.16C103.147 13.82 102.917 13.43 102.917 12.99C102.917 12.71 103.007 12.43 103.187 12.15C103.387 11.85 103.647 11.65 103.967 11.55C104.387 11.41 104.817 11.35 105.257 11.37C105.697 11.37 106.147 11.36 106.607 11.34C107.087 11.32 107.497 11.31 107.837 11.31C108.197 11.31 108.537 11.31 108.857 11.31C109.197 11.31 109.547 11.32 109.907 11.34C110.267 11.34 110.697 11.34 111.197 11.34V9.9C111.037 9.92 110.867 9.93 110.687 9.93C110.527 9.93 110.367 9.93 110.207 9.93C109.247 9.91 108.297 9.91 107.357 9.93C106.937 9.93 106.507 9.9 106.067 9.84C105.647 9.78 105.267 9.62 104.927 9.36C104.707 9.18 104.527 8.96 104.387 8.7C104.267 8.42 104.177 8.15 104.117 7.89C104.057 7.61 104.017 7.37 103.997 7.17C103.977 6.97 103.967 6.86 103.967 6.84V2.04C103.967 1.66 104.057 1.29 104.237 0.930001C104.437 0.550001 104.757 0.330001 105.197 0.27C105.397 0.25 105.617 0.26 105.857 0.3C106.097 0.319999 106.317 0.379999 106.517 0.479999C106.737 0.559999 106.917 0.689999 107.057 0.87C107.217 1.03 107.317 1.23 107.357 1.47C107.397 1.65 107.397 1.86 107.357 2.1C107.337 2.32 107.367 2.52 107.447 2.7C107.487 2.8 107.587 2.85 107.747 2.85C107.907 2.83 108.037 2.83 108.137 2.85C108.597 2.89 109.057 2.9 109.517 2.88C109.997 2.84 110.477 2.82 110.957 2.82H119.237C119.417 2.82 119.557 2.83 119.657 2.85C119.877 2.87 120.037 2.87 120.137 2.85C120.237 2.83 120.387 2.8 120.587 2.76C120.627 2.6 120.647 2.44 120.647 2.28C120.647 2.12 120.647 1.96 120.647 1.8C120.667 1.44 120.747 1.12 120.887 0.84C121.027 0.54 121.277 0.35 121.637 0.27C122.337 0.13 122.897 0.179999 123.317 0.42C123.737 0.66 123.937 1.14 123.917 1.86C123.897 2.76 123.897 3.74 123.917 4.8C123.957 5.86 123.937 6.85 123.857 7.77C123.817 8.05 123.757 8.28 123.677 8.46C123.597 8.64 123.477 8.85 123.317 9.09C123.157 9.31 122.947 9.48 122.687 9.6C122.427 9.7 122.147 9.77 121.847 9.81C121.547 9.85 121.247 9.87 120.947 9.87C120.647 9.87 120.377 9.87 120.137 9.87C119.817 9.89 119.537 9.9 119.297 9.9C119.077 9.9 118.867 9.9 118.667 9.9C118.467 9.9 118.247 9.9 118.007 9.9C117.787 9.88 117.517 9.87 117.197 9.87C116.857 9.87 116.547 9.88 116.267 9.9C115.987 9.9 115.707 9.9 115.427 9.9C115.447 10.12 115.457 10.36 115.457 10.62C115.457 10.88 115.457 11.12 115.457 11.34C116.017 11.34 116.617 11.34 117.257 11.34C117.897 11.32 118.537 11.31 119.177 11.31C119.817 11.31 120.427 11.31 121.007 11.31C121.587 11.31 122.087 11.32 122.507 11.34ZM104.417 24.21C104.397 24.21 104.367 24.19 104.327 24.15C104.127 23.99 103.987 23.77 103.907 23.49C103.847 23.21 103.817 22.96 103.817 22.74C103.797 22.38 103.767 22.02 103.727 21.66C103.707 21.3 103.697 20.95 103.697 20.61C103.697 20.09 103.697 19.62 103.697 19.2C103.697 18.78 103.747 18.32 103.847 17.82C103.907 17.5 104.007 17.25 104.147 17.07C104.287 16.87 104.507 16.71 104.807 16.59C105.367 16.37 105.927 16.26 106.487 16.26H120.617C120.997 16.28 121.387 16.31 121.787 16.35C122.187 16.39 122.567 16.49 122.927 16.65C123.327 16.81 123.587 17.04 123.707 17.34C123.847 17.62 123.937 17.96 123.977 18.36C123.997 18.7 124.007 19.09 124.007 19.53C124.027 19.97 124.027 20.42 124.007 20.88C123.987 21.32 123.957 21.76 123.917 22.2C123.877 22.64 123.807 23.04 123.707 23.4C123.647 23.62 123.577 23.81 123.497 23.97C123.417 24.15 123.257 24.28 123.017 24.36C122.797 24.44 122.567 24.49 122.327 24.51C122.107 24.53 121.887 24.54 121.667 24.54L106.037 24.48C105.777 24.46 105.497 24.45 105.197 24.45C104.897 24.45 104.637 24.37 104.417 24.21ZM107.267 20.79C107.267 20.89 107.267 20.99 107.267 21.09C107.287 21.19 107.327 21.26 107.387 21.3C107.427 21.34 107.487 21.37 107.567 21.39C107.667 21.39 107.767 21.39 107.867 21.39C107.967 21.39 108.087 21.38 108.227 21.36H117.617C117.897 21.38 118.167 21.4 118.427 21.42C118.647 21.44 118.877 21.45 119.117 21.45C119.357 21.45 119.577 21.43 119.777 21.39C119.977 21.37 120.097 21.31 120.137 21.21C120.177 21.11 120.207 20.97 120.227 20.79C120.247 20.63 120.257 20.45 120.257 20.25C120.257 20.03 120.197 19.84 120.077 19.68C119.937 19.52 119.737 19.44 119.477 19.44C119.237 19.42 119.017 19.42 118.817 19.44H110.477C110.037 19.4 109.607 19.39 109.187 19.41C108.767 19.41 108.337 19.42 107.897 19.44C107.737 19.44 107.607 19.45 107.507 19.47C107.427 19.47 107.367 19.56 107.327 19.74C107.287 19.88 107.267 20.02 107.267 20.16C107.267 20.28 107.267 20.4 107.267 20.52C107.287 20.56 107.287 20.6 107.267 20.64C107.267 20.68 107.267 20.73 107.267 20.79ZM107.447 6.66C107.487 6.84 107.577 6.97 107.717 7.05C107.877 7.11 108.047 7.15 108.227 7.17C108.427 7.19 108.627 7.2 108.827 7.2C109.027 7.18 109.187 7.17 109.307 7.17C109.867 7.17 110.417 7.18 110.957 7.2C111.517 7.2 112.067 7.2 112.607 7.2C112.987 7.2 113.317 7.2 113.597 7.2C113.877 7.2 114.147 7.2 114.407 7.2C114.687 7.2 114.967 7.2 115.247 7.2C115.547 7.18 115.887 7.17 116.267 7.17C116.467 7.15 116.667 7.15 116.867 7.17C117.067 7.17 117.277 7.17 117.497 7.17C117.657 7.17 117.807 7.16 117.947 7.14C118.107 7.12 118.267 7.12 118.427 7.14C118.587 7.18 118.747 7.2 118.907 7.2C119.087 7.18 119.257 7.17 119.417 7.17C119.517 7.19 119.637 7.21 119.777 7.23C119.917 7.23 120.047 7.23 120.167 7.23C120.287 7.21 120.387 7.16 120.467 7.08C120.547 7 120.587 6.88 120.587 6.72C120.587 6.56 120.597 6.42 120.617 6.3C120.637 6.18 120.587 6.05 120.467 5.91C120.307 5.75 120.137 5.66 119.957 5.64C119.777 5.62 119.587 5.62 119.387 5.64H114.887C114.827 5.64 114.567 5.64 114.107 5.64C113.647 5.64 113.147 5.64 112.607 5.64C112.067 5.62 111.567 5.61 111.107 5.61C110.647 5.61 110.387 5.61 110.327 5.61C110.147 5.61 109.887 5.6 109.547 5.58C109.207 5.54 108.877 5.53 108.557 5.55C108.237 5.57 107.957 5.64 107.717 5.76C107.497 5.88 107.387 6.09 107.387 6.39C107.387 6.49 107.387 6.55 107.387 6.57C107.407 6.57 107.427 6.6 107.447 6.66Z" fill="#E1A660"/>
</svg>
