<svg width="126" height="27" viewBox="0 0 126 27" fill="none" xmlns="http://www.w3.org/2000/svg">
<path d="M19.98 19.8343C20.04 19.8543 20.1 19.8643 20.16 19.8643C20.22 19.8443 20.28 19.8343 20.34 19.8343C20.68 19.8743 20.99 19.9443 21.27 20.0443C21.57 20.1243 21.86 20.2943 22.14 20.5543C22.42 20.7943 22.56 21.1343 22.56 21.5743C22.56 21.7943 22.52 22.0343 22.44 22.2943C22.38 22.5343 22.29 22.7243 22.17 22.8643C22.01 23.0243 21.81 23.1443 21.57 23.2243C21.35 23.3043 21.12 23.3643 20.88 23.4043C20.66 23.4243 20.46 23.4343 20.28 23.4343C20.12 23.4343 20.03 23.4343 20.01 23.4343H3.81C3.71 23.4343 3.61 23.4443 3.51 23.4643C3.43 23.4643 3.34 23.4643 3.24 23.4643C2.8 23.4843 2.34 23.4843 1.86 23.4643C1.38 23.4243 0.97 23.2643 0.63 22.9843C0.21 22.6043 0 22.1743 0 21.6943C0 21.3943 0.09 21.0843 0.27 20.7643C0.45 20.4443 0.69 20.2243 0.99 20.1043C1.19 20.0243 1.36 19.9743 1.5 19.9543C1.66 19.9143 1.81 19.8843 1.95 19.8643C2.11 19.8443 2.27 19.8343 2.43 19.8343C2.61 19.8343 2.83 19.8343 3.09 19.8343H3.96C3.94 19.7543 3.93 19.6443 3.93 19.5043V14.7043C3.93 14.5243 3.96 14.3343 4.02 14.1343C4.06 13.9743 4.13 13.8043 4.23 13.6243C4.35 13.4443 4.52 13.2743 4.74 13.1143C5 12.9343 5.29 12.8243 5.61 12.7843C5.93 12.7443 6.23 12.7743 6.51 12.8743C6.81 12.9743 7.06 13.1443 7.26 13.3843C7.48 13.6043 7.6 13.8843 7.62 14.2243C7.62 14.4043 7.62 14.6943 7.62 15.0943C7.64 15.4943 7.65 15.9543 7.65 16.4743C7.67 16.9943 7.68 17.5443 7.68 18.1243C7.7 18.7043 7.71 19.2643 7.71 19.8043C8.15 19.8043 8.58 19.8143 9 19.8343C9.42 19.8343 9.84 19.8343 10.26 19.8343C10.24 19.7543 10.23 19.6443 10.23 19.5043V14.7043C10.23 14.5243 10.26 14.3343 10.32 14.1343C10.36 13.9743 10.43 13.8043 10.53 13.6243C10.65 13.4443 10.82 13.2743 11.04 13.1143C11.3 12.9343 11.59 12.8243 11.91 12.7843C12.23 12.7443 12.53 12.7743 12.81 12.8743C13.11 12.9743 13.36 13.1443 13.56 13.3843C13.78 13.6043 13.9 13.8843 13.92 14.2243C13.92 14.4043 13.92 14.6943 13.92 15.0943C13.94 15.4943 13.95 15.9543 13.95 16.4743C13.97 16.9943 13.98 17.5543 13.98 18.1543C14 18.7343 14.01 19.2943 14.01 19.8343C14.53 19.8143 15.14 19.8043 15.84 19.8043C16.56 19.8043 17.26 19.8143 17.94 19.8343C18.3 19.8543 18.65 19.8543 18.99 19.8343C19.33 19.7943 19.66 19.7943 19.98 19.8343ZM3.51 6.66429C3.17 6.66429 2.78 6.62429 2.34 6.54429C1.92 6.44429 1.59 6.21429 1.35 5.85429C1.21 5.61429 1.12 5.34429 1.08 5.04429C1.04 4.74429 1.06 4.45429 1.14 4.17429C1.3 3.61429 1.67 3.20429 2.25 2.94429C2.37 2.90429 2.49 2.86429 2.61 2.82429C2.73 2.78429 2.86 2.74429 3 2.70429C3.38 2.60429 3.69 2.55429 3.93 2.55429C4.19 2.53429 4.52 2.51429 4.92 2.49429C5.1 2.49429 5.24 2.49429 5.34 2.49429C5.44 2.49429 5.57 2.48429 5.73 2.46429C5.89 2.46429 6 2.46429 6.06 2.46429C6.12 2.44429 6.24 2.43429 6.42 2.43429C6.52 2.43429 6.77 2.43429 7.17 2.43429C7.57 2.43429 8.03 2.43429 8.55 2.43429C9.09 2.43429 9.66 2.44429 10.26 2.46429C10.86 2.46429 11.42 2.46429 11.94 2.46429C12.48 2.46429 12.94 2.47429 13.32 2.49429C13.72 2.49429 13.97 2.49429 14.07 2.49429C14.37 2.51429 14.68 2.52429 15 2.52429C15.32 2.52429 15.64 2.52429 15.96 2.52429C16.32 2.52429 16.67 2.53429 17.01 2.55429C17.37 2.57429 17.73 2.60429 18.09 2.64429C18.25 2.68429 18.41 2.71429 18.57 2.73429C18.75 2.75429 18.92 2.81429 19.08 2.91429C19.3 3.03429 19.47 3.21429 19.59 3.45429C19.71 3.67429 19.8 3.92429 19.86 4.20429C19.94 4.46429 19.99 4.73429 20.01 5.01429C20.03 5.29429 20.04 5.54429 20.04 5.76429C20.04 6.04429 20.04 6.31429 20.04 6.57429C20.06 6.83429 20.07 7.10429 20.07 7.38429C20.09 7.76429 20.1 8.20429 20.1 8.70429C20.1 9.20429 20.09 9.64429 20.07 10.0243C20.05 10.8443 20.03 11.6543 20.01 12.4543C20.01 13.2343 20.01 14.0343 20.01 14.8543C20.01 15.1743 19.98 15.4943 19.92 15.8143C19.86 16.1143 19.73 16.4043 19.53 16.6843C19.31 16.9643 19.04 17.1643 18.72 17.2843C18.4 17.3843 18.07 17.3843 17.73 17.2843C17.33 17.1843 17.03 17.0143 16.83 16.7743C16.65 16.5143 16.51 16.2243 16.41 15.9043C16.33 15.5643 16.28 15.2143 16.26 14.8543C16.24 14.4743 16.21 14.1243 16.17 13.8043C16.05 12.9643 15.99 12.1443 15.99 11.3443C16.01 10.8843 16 10.3843 15.96 9.84429C15.92 9.28429 15.9 8.78429 15.9 8.34429C15.9 8.00429 15.88 7.68429 15.84 7.38429C15.8 7.06429 15.64 6.82429 15.36 6.66429C15.24 6.60429 15.1 6.57429 14.94 6.57429C14.78 6.57429 14.59 6.57429 14.37 6.57429H13.74C13.64 6.59429 13.54 6.60429 13.44 6.60429C13.34 6.58429 13.24 6.57429 13.14 6.57429H9.96C9.56 6.57429 9.21 6.59429 8.91 6.63429C8.63 6.65429 8.29 6.66429 7.89 6.66429C7.49 6.66429 7.13 6.66429 6.81 6.66429C6.51 6.64429 6.16 6.65429 5.76 6.69429C5.6 6.71429 5.47 6.71429 5.37 6.69429C5.29 6.67429 5.17 6.66429 5.01 6.66429H3.51Z" fill="#536EFF"/>
<path d="M27.1198 21.8743C27.0998 21.8743 27.0198 21.8543 26.8798 21.8143C26.7598 21.7743 26.6198 21.7143 26.4598 21.6343C26.2998 21.5543 26.1498 21.4443 26.0098 21.3043C25.8698 21.1643 25.7898 20.9843 25.7698 20.7643C25.6498 20.0243 25.7698 19.4243 26.1298 18.9643C26.3698 18.6843 26.6298 18.5243 26.9098 18.4843C27.1898 18.4243 27.3398 18.3943 27.3598 18.3943H29.6998C29.6798 18.3543 29.6698 18.2743 29.6698 18.1543C29.6298 17.7543 29.6198 17.3543 29.6398 16.9543C29.6798 16.5543 29.6998 16.1543 29.6998 15.7543L25.5898 15.5743C25.2698 15.5343 25.0098 15.4943 24.8098 15.4543C24.6298 15.3943 24.4098 15.2443 24.1498 15.0043C24.0098 14.8843 23.9098 14.7243 23.8498 14.5243C23.7898 14.3243 23.7598 14.1143 23.7598 13.8943C23.7598 13.4743 23.8898 13.1343 24.1498 12.8743C24.2898 12.7143 24.4798 12.5943 24.7198 12.5143C24.9598 12.4343 25.1898 12.3743 25.4098 12.3343C25.6298 12.2943 25.8198 12.2743 25.9798 12.2743C26.1598 12.2743 26.2598 12.2743 26.2798 12.2743H43.4398C43.7398 12.2743 44.0398 12.2743 44.3398 12.2743C44.6398 12.2743 44.9298 12.2843 45.2098 12.3043C45.4898 12.3243 45.7598 12.3643 46.0198 12.4243C46.2998 12.4843 46.5498 12.6143 46.7698 12.8143C46.9898 12.9743 47.1098 13.1543 47.1298 13.3543C47.1698 13.5543 47.1898 13.7743 47.1898 14.0143C47.1898 14.3143 47.0998 14.5843 46.9198 14.8243C46.7598 15.0643 46.5298 15.2343 46.2298 15.3343C45.8298 15.4943 45.3898 15.5943 44.9098 15.6343C44.4498 15.6543 44.0098 15.6743 43.5898 15.6943C43.3698 15.7143 43.0998 15.7243 42.7798 15.7243C42.4598 15.7243 42.1098 15.7343 41.7298 15.7543C41.6898 16.1943 41.6698 16.6343 41.6698 17.0743C41.6898 17.4943 41.6998 17.9343 41.6998 18.3943H42.2398C42.2598 18.3943 42.2798 18.3943 42.2998 18.3943C42.3198 18.3743 42.3498 18.3643 42.3898 18.3643C43.2098 18.3643 43.8398 18.4943 44.2798 18.7543C44.7398 19.0143 44.9698 19.3743 44.9698 19.8343V21.8743C44.9698 21.9743 44.9698 22.0843 44.9698 22.2043C44.9898 22.3043 44.9998 22.4043 44.9998 22.5043C44.9998 22.6043 44.9998 22.7543 44.9998 22.9543C44.9998 23.1543 44.9998 23.3643 44.9998 23.5843C44.9998 23.7843 44.9998 23.9843 44.9998 24.1843C44.9998 24.3843 44.9898 24.5443 44.9698 24.6643C44.9298 25.0843 44.7598 25.4243 44.4598 25.6843C44.1798 25.9443 43.8098 26.0743 43.3498 26.0743C43.1298 26.0743 42.9198 26.0443 42.7198 25.9843C42.4398 25.9043 42.2198 25.7843 42.0598 25.6243C41.9198 25.4643 41.8098 25.2843 41.7298 25.0843C41.6698 24.8843 41.6198 24.6743 41.5798 24.4543C41.5598 24.2143 41.5498 23.9843 41.5498 23.7643C41.5498 23.6843 41.5398 23.5543 41.5198 23.3743C41.5198 23.1943 41.5098 23.0143 41.4898 22.8343C41.4898 22.6343 41.4798 22.4543 41.4598 22.2943C41.4598 22.1343 41.4498 22.0143 41.4298 21.9343C41.3698 21.9143 41.1998 21.8943 40.9198 21.8743C40.6598 21.8543 40.1598 21.8443 39.4198 21.8443C39.0798 21.8443 38.7798 21.8543 38.5198 21.8743C38.2598 21.8743 38.0198 21.8743 37.7998 21.8743H27.1198ZM35.5498 10.8643C34.1098 10.8643 32.7598 10.8143 31.4998 10.7143C30.2598 10.6143 29.1798 10.3943 28.2598 10.0543C27.3598 9.69429 26.6498 9.19429 26.1298 8.55429C25.6098 7.89429 25.3498 7.01429 25.3498 5.91429C25.3498 4.91429 25.6098 4.09429 26.1298 3.45429C26.6498 2.81429 27.3598 2.31429 28.2598 1.95429C29.1798 1.57429 30.2598 1.31429 31.4998 1.17428C32.7598 1.03429 34.1098 0.964286 35.5498 0.964286C36.9898 0.964286 38.3298 1.01429 39.5698 1.11429C40.8298 1.21429 41.9098 1.43429 42.8098 1.77429C43.7298 2.11429 44.4498 2.61429 44.9698 3.27429C45.4898 3.91429 45.7498 4.79429 45.7498 5.91429C45.7498 7.01429 45.4898 7.89429 44.9698 8.55429C44.4498 9.19429 43.7298 9.69429 42.8098 10.0543C41.9098 10.3943 40.8298 10.6143 39.5698 10.7143C38.3298 10.8143 36.9898 10.8643 35.5498 10.8643ZM35.5498 4.32429C34.8098 4.32429 34.0698 4.33429 33.3298 4.35429C32.6098 4.37429 31.9598 4.44429 31.3798 4.56429C30.7998 4.66429 30.3298 4.82429 29.9698 5.04429C29.6098 5.24429 29.4298 5.53429 29.4298 5.91429C29.4298 6.59429 29.9698 7.05429 31.0498 7.29429C32.1498 7.51429 33.6498 7.60429 35.5498 7.56429C36.2898 7.56429 37.0198 7.56429 37.7398 7.56429C38.4798 7.54429 39.1398 7.49429 39.7198 7.41429C40.2998 7.31429 40.7698 7.15429 41.1298 6.93429C41.4898 6.69429 41.6698 6.35429 41.6698 5.91429C41.6698 5.53429 41.4898 5.24429 41.1298 5.04429C40.7698 4.82429 40.2998 4.66429 39.7198 4.56429C39.1398 4.44429 38.4798 4.37429 37.7398 4.35429C37.0198 4.33429 36.2898 4.32429 35.5498 4.32429ZM33.8398 15.8143C33.8798 16.2543 33.8698 16.6643 33.8098 17.0443C33.7698 17.4243 33.7498 17.8743 33.7498 18.3943H37.6198V18.2143C37.5798 17.9143 37.5598 17.5443 37.5598 17.1043C37.5798 16.6443 37.5998 16.2143 37.6198 15.8143H33.8398Z" fill="#536EFF"/>
<path d="M58.6214 25.0843C58.3814 25.0843 58.1514 25.0443 57.9314 24.9643C57.7114 24.8843 57.5214 24.7743 57.3614 24.6343C57.2014 24.4943 57.0814 24.3243 57.0014 24.1243C56.9214 23.9243 56.9014 23.6943 56.9414 23.4343C56.8214 23.0743 56.8114 22.7543 56.9114 22.4743C57.0114 22.1743 57.1414 21.8743 57.3014 21.5743H57.2714C57.9714 20.0143 58.6514 18.4843 59.3114 16.9843C59.9914 15.4643 60.7014 13.9543 61.4414 12.4543C62.1014 11.0543 62.7114 9.73429 63.2714 8.49429C63.8314 7.25429 64.3814 6.03429 64.9214 4.83429C65.0214 4.61429 65.1414 4.39429 65.2814 4.17429C65.4214 3.95429 65.5814 3.78429 65.7614 3.66428C65.9414 3.52429 66.1514 3.43429 66.3914 3.39429C66.6314 3.35429 66.9214 3.40429 67.2614 3.54429C67.7814 3.76429 68.1614 4.07429 68.4014 4.47429C68.6614 4.87429 68.7414 5.33429 68.6414 5.85429C68.3614 6.57429 68.1314 7.16429 67.9514 7.62429C67.7914 8.06429 67.6214 8.47429 67.4414 8.85429C67.2814 9.23429 67.1014 9.62429 66.9014 10.0243C66.7014 10.4243 66.4414 10.9443 66.1214 11.5843C65.8214 12.2243 65.4414 13.0343 64.9814 14.0143C64.5414 14.9743 63.9814 16.2143 63.3014 17.7343C62.9414 18.5543 62.5714 19.3343 62.1914 20.0743C61.8314 20.8143 61.4714 21.5543 61.1114 22.2943C60.9914 22.5143 60.8614 22.7843 60.7214 23.1043C60.5814 23.4043 60.4314 23.7343 60.2714 24.0943C60.1114 24.4343 59.8814 24.6843 59.5814 24.8443C59.2814 25.0043 58.9614 25.0843 58.6214 25.0843Z" fill="#536EFF"/>
<path d="M92.3798 9.66429C92.7198 10.0643 93.0498 10.4743 93.3698 10.8943C93.6898 11.2943 93.9098 11.7143 94.0298 12.1543C94.0698 12.3543 94.0698 12.5643 94.0298 12.7843C93.9898 13.0043 93.8798 13.1943 93.6998 13.3543C93.3998 13.5543 93.0798 13.6543 92.7398 13.6543C92.3598 13.6543 91.9898 13.5643 91.6298 13.3843C91.2898 13.2043 91.0098 13.0243 90.7898 12.8443C90.4498 12.5443 90.1498 12.2643 89.8898 12.0043C89.6298 11.7243 89.3598 11.4343 89.0798 11.1343C88.8598 10.8943 88.6298 10.6543 88.3898 10.4143C88.1498 10.1543 87.9298 9.88429 87.7298 9.60429L84.6998 12.5743C84.3798 12.9143 84.0398 13.1543 83.6798 13.2943C83.3198 13.4143 82.9798 13.4743 82.6598 13.4743C82.5598 13.4743 82.4098 13.4543 82.2098 13.4143C81.8298 13.3143 81.5698 13.1343 81.4298 12.8743C81.3098 12.6543 81.2698 12.4043 81.3098 12.1243C81.3498 11.8443 81.4298 11.5943 81.5498 11.3743C81.6898 11.1343 81.8398 10.9143 81.9998 10.7143C82.1798 10.5143 82.3598 10.3043 82.5398 10.0843C83.0598 9.50429 83.5698 8.95429 84.0698 8.43429C84.5698 7.89429 85.1098 7.32429 85.6898 6.72429L85.6598 5.79429C85.4998 5.81429 85.2998 5.82429 85.0598 5.82429C84.8198 5.80429 84.5298 5.79429 84.1898 5.79429C83.9698 5.79429 83.7198 5.80429 83.4398 5.82429C83.1598 5.84429 82.8798 5.83429 82.5998 5.79429C82.3398 5.75429 82.0998 5.67428 81.8798 5.55429C81.6598 5.41429 81.4898 5.19429 81.3698 4.89429C81.2698 4.67429 81.2098 4.42429 81.1898 4.14429C81.1698 3.86429 81.1898 3.60429 81.2498 3.36429C81.3098 3.08429 81.4598 2.89429 81.6998 2.79429C81.9598 2.67429 82.1998 2.59429 82.4198 2.55429C82.6198 2.51429 82.7998 2.49429 82.9598 2.49429C83.0198 2.49429 83.0798 2.50429 83.1398 2.52429C83.1998 2.52429 83.2598 2.52429 83.3198 2.52429H85.7498C85.7698 2.28429 85.7798 2.02429 85.7798 1.74429C85.7998 1.44429 85.8598 1.19429 85.9598 0.994285C86.1398 0.594286 86.4598 0.314286 86.9198 0.154285C87.2598 0.0342858 87.5798 -0.0157141 87.8798 0.00428562C88.1798 0.0242854 88.4398 0.104286 88.6598 0.244286C88.8998 0.364286 89.0898 0.534285 89.2298 0.754285C89.3698 0.954286 89.4398 1.16429 89.4398 1.38429C89.4398 1.42429 89.4398 1.50429 89.4398 1.62429C89.4598 1.72429 89.4698 1.83429 89.4698 1.95429C89.4698 2.07429 89.4698 2.19429 89.4698 2.31429C89.4698 2.43429 89.4698 2.50429 89.4698 2.52429H91.2098C91.9098 2.52429 92.4698 2.57429 92.8898 2.67429C93.3098 2.75429 93.6598 2.99429 93.9398 3.39429C94.0198 3.51429 94.0798 3.68429 94.1198 3.90429C94.1598 4.10429 94.1598 4.31429 94.1198 4.53429C94.0998 4.73429 94.0498 4.92429 93.9698 5.10429C93.8898 5.28429 93.7898 5.41429 93.6698 5.49429C93.5098 5.55429 93.3298 5.62429 93.1298 5.70429C92.9498 5.76429 92.7798 5.79429 92.6198 5.79429C92.3798 5.81429 92.1598 5.82429 91.9598 5.82429C91.7798 5.80429 91.5698 5.79429 91.3298 5.79429C90.9698 5.79429 90.6898 5.80429 90.4898 5.82429C90.2898 5.82429 90.0498 5.81429 89.7698 5.79429V6.72429C89.8698 6.80429 89.9998 6.96429 90.1598 7.20429C90.3198 7.44429 90.4799 7.64429 90.6398 7.80429C90.7999 7.96429 90.9698 8.14429 91.1498 8.34429C91.3298 8.52429 91.5198 8.72429 91.7198 8.94429C91.8598 9.08429 91.9798 9.21429 92.0798 9.33429C92.1798 9.45429 92.2798 9.56429 92.3798 9.66429ZM100.72 24.8143C100.62 25.0743 100.43 25.2843 100.15 25.4443C99.9298 25.5843 99.6898 25.6643 99.4298 25.6843C99.1698 25.7243 98.9098 25.7243 98.6498 25.6843C98.3498 25.6243 98.0998 25.5043 97.8998 25.3243C97.7198 25.1643 97.5798 24.9543 97.4798 24.6943C97.3998 24.4543 97.3298 24.2143 97.2698 23.9743C97.2298 23.7343 97.2098 23.5243 97.2098 23.3443C97.2098 23.1643 97.2098 23.0743 97.2098 23.0743V4.80429C97.2098 4.58429 97.2098 4.33429 97.2098 4.05429C97.2098 3.77429 97.2298 3.49429 97.2698 3.21429C97.3098 2.93429 97.3598 2.68429 97.4198 2.46429C97.4998 2.22429 97.6098 2.03429 97.7498 1.89429C97.9698 1.67429 98.1998 1.54429 98.4398 1.50429C98.6798 1.46429 98.9398 1.44428 99.2198 1.44428C99.5598 1.44428 99.8698 1.53428 100.15 1.71429C100.43 1.89429 100.63 2.14429 100.75 2.46429C100.93 2.88429 101.03 3.32429 101.05 3.78429C101.07 4.22429 101.09 4.67429 101.11 5.13429C101.15 6.73429 101.16 8.33429 101.14 9.93429C101.12 11.5343 101.11 13.0443 101.11 14.4643V21.9643C101.11 22.4243 101.08 22.8943 101.02 23.3743C100.98 23.8343 100.88 24.3143 100.72 24.8143ZM80.6798 18.4843C80.3998 18.4643 80.1198 18.4143 79.8398 18.3343C79.5598 18.2343 79.2998 18.0543 79.0598 17.7943C78.8198 17.5543 78.6998 17.2043 78.6998 16.7443C78.6998 16.3243 78.8198 15.9743 79.0598 15.6943C79.1998 15.5343 79.3699 15.4143 79.5698 15.3343C79.7898 15.2543 79.9998 15.1943 80.1998 15.1543C80.3998 15.1143 80.5698 15.0943 80.7098 15.0943C80.8699 15.0943 80.9598 15.0943 80.9798 15.0943H92.7698C93.1698 15.0943 93.5898 15.1143 94.0298 15.1543C94.4698 15.1943 94.8398 15.3543 95.1398 15.6343C95.3198 15.8143 95.4398 16.0043 95.4998 16.2043C95.5798 16.4043 95.6198 16.6243 95.6198 16.8643C95.6198 17.1643 95.5498 17.4443 95.4098 17.7043C95.2698 17.9443 95.0598 18.1143 94.7798 18.2143C94.4198 18.3743 94.0498 18.4743 93.6698 18.5143C93.2898 18.5343 92.9098 18.5543 92.5298 18.5743C91.9498 18.5943 91.4998 18.6143 91.1798 18.6343C90.8598 18.6543 90.5898 18.6743 90.3698 18.6943C90.1698 18.6943 89.9698 18.6943 89.7698 18.6943C89.5898 18.6943 89.3298 18.6943 88.9898 18.6943L88.9598 23.1943C88.9598 23.7743 88.7798 24.2743 88.4198 24.6943C88.0598 25.1143 87.5998 25.3043 87.0398 25.2643C86.8198 25.2443 86.6098 25.2043 86.4098 25.1443C86.2098 25.0843 86.0298 24.9843 85.8698 24.8443C85.7098 24.7243 85.5798 24.5543 85.4798 24.3343C85.3798 24.0943 85.3298 23.7843 85.3298 23.4043L85.2398 18.6643C84.4598 18.6443 83.7298 18.6243 83.0498 18.6043C82.3698 18.5643 81.5798 18.5243 80.6798 18.4843Z" fill="#536EFF"/>
<path d="M105.942 13.5043C105.022 12.9643 104.412 12.1643 104.112 11.1043C103.932 10.6443 103.792 10.1643 103.692 9.66429C103.612 9.14429 103.572 8.63429 103.572 8.13429C103.572 7.09429 103.752 6.10429 104.112 5.16429C104.312 4.72429 104.552 4.31429 104.832 3.93429C105.132 3.55429 105.482 3.20429 105.882 2.88429C106.242 2.58429 106.622 2.33429 107.022 2.13428C107.422 1.93429 107.822 1.77429 108.222 1.65429C108.682 1.53429 109.122 1.45429 109.542 1.41429C109.962 1.35429 110.372 1.34429 110.772 1.38429C111.012 1.40429 111.212 1.41429 111.372 1.41429C111.532 1.41429 111.692 1.43429 111.852 1.47429C111.992 1.47429 112.122 1.49429 112.242 1.53429C112.382 1.55429 112.522 1.57429 112.662 1.59429C112.822 1.63429 112.962 1.67429 113.082 1.71429C113.202 1.75429 113.322 1.79429 113.442 1.83429C113.682 1.89429 113.972 2.03429 114.312 2.25429C114.912 2.57429 115.412 2.94429 115.812 3.36429C116.212 3.78429 116.552 4.25429 116.832 4.77428C117.072 5.35429 117.242 5.97429 117.342 6.63429C117.442 7.29429 117.482 7.99429 117.462 8.73429C117.302 10.7143 116.732 12.1843 115.752 13.1443C114.752 14.0843 113.212 14.5543 111.132 14.5543H109.722C109.502 14.5543 109.292 14.5543 109.092 14.5543C108.912 14.5543 108.702 14.5343 108.462 14.4943C108.142 14.4743 107.752 14.3743 107.292 14.1943C107.072 14.1343 106.852 14.0443 106.632 13.9243C106.412 13.8043 106.182 13.6643 105.942 13.5043ZM109.122 16.4443C109.142 16.4843 109.172 16.6143 109.212 16.8343C109.272 17.0343 109.322 17.2543 109.362 17.4943C109.402 17.7143 109.432 17.9243 109.452 18.1243C109.492 18.3043 109.502 18.3943 109.482 18.3943C109.502 18.4143 109.542 18.4343 109.602 18.4543C109.662 18.4743 109.762 18.4843 109.902 18.4843H121.932V17.3743C121.932 17.0343 122.012 16.7443 122.172 16.5043C122.372 16.2443 122.662 16.0843 123.042 16.0243C123.762 15.9043 124.282 15.9843 124.602 16.2643C124.942 16.5243 125.162 16.8943 125.262 17.3743C125.382 17.8543 125.422 18.3843 125.382 18.9643C125.362 19.5443 125.362 20.0643 125.382 20.5243C125.422 20.9843 125.422 21.4543 125.382 21.9343C125.362 22.3943 125.332 22.8643 125.292 23.3443C125.232 23.9243 125.092 24.3643 124.872 24.6643C124.652 24.9643 124.372 25.1743 124.032 25.2943C123.712 25.4143 123.342 25.4743 122.922 25.4743C122.502 25.4943 122.062 25.5043 121.602 25.5043H120.372C120.032 25.5443 119.682 25.5643 119.322 25.5643C118.962 25.5843 118.562 25.5943 118.122 25.5943C117.702 25.5943 117.252 25.5843 116.772 25.5643C116.292 25.5643 115.822 25.5443 115.362 25.5043H112.572C112.052 25.5043 111.532 25.5143 111.012 25.5343C110.492 25.5543 109.952 25.5443 109.392 25.5043C109.232 25.5043 109.032 25.5043 108.792 25.5043C108.572 25.5243 108.332 25.5243 108.072 25.5043C107.832 25.5043 107.592 25.4743 107.352 25.4143C107.112 25.3543 106.922 25.2643 106.782 25.1443C106.602 25.0443 106.442 24.8443 106.302 24.5443C106.222 24.3643 106.152 24.2143 106.092 24.0943C106.052 23.9743 106.002 23.8543 105.942 23.7343C105.822 23.1543 105.762 22.5343 105.762 21.8743C105.762 21.2143 105.762 20.6043 105.762 20.0443V19.1143C105.762 18.7543 105.752 18.3543 105.732 17.9143C105.732 17.4743 105.802 17.0643 105.942 16.6843C106.002 16.5643 106.072 16.4543 106.152 16.3543C106.252 16.2343 106.372 16.1443 106.512 16.0843C106.952 15.9243 107.422 15.8443 107.922 15.8443C108.442 15.8443 108.842 16.0443 109.122 16.4443ZM121.512 6.66429C121.632 6.64429 121.722 6.63429 121.782 6.63429C121.862 6.63429 121.912 6.63429 121.932 6.63429V3.51429C121.932 3.37429 121.942 3.25429 121.962 3.15429C121.982 3.05429 122.012 2.94429 122.052 2.82429C122.052 2.72429 122.062 2.63429 122.082 2.55429C122.122 2.47429 122.152 2.41429 122.172 2.37429C122.172 2.31429 122.202 2.24429 122.262 2.16429C122.342 2.08429 122.402 1.99429 122.442 1.89429C122.562 1.73429 122.792 1.59429 123.132 1.47429C123.272 1.43429 123.412 1.41429 123.552 1.41429C123.712 1.41429 123.892 1.41429 124.092 1.41429C124.392 1.49429 124.642 1.59429 124.842 1.71429C125.062 1.83429 125.212 1.99429 125.292 2.19429C125.332 2.31429 125.372 2.45429 125.412 2.61429C125.472 2.75429 125.502 2.90429 125.502 3.06429C125.542 3.24429 125.562 3.40429 125.562 3.54429C125.562 3.66429 125.562 3.73429 125.562 3.75429V12.1843C125.562 12.6643 125.552 13.1043 125.532 13.5043C125.532 13.8843 125.402 14.2743 125.142 14.6743C125.102 14.7943 125.032 14.8943 124.932 14.9743C124.852 15.0343 124.762 15.0843 124.662 15.1243C124.502 15.2243 124.352 15.2943 124.212 15.3343C124.072 15.3743 123.922 15.3943 123.762 15.3943C123.482 15.3943 123.162 15.2943 122.802 15.0943C122.682 14.9943 122.572 14.8943 122.472 14.7943C122.392 14.6743 122.312 14.5643 122.232 14.4643C122.192 14.3643 122.152 14.2543 122.112 14.1343C122.072 14.0143 122.052 13.9043 122.052 13.8043C122.012 13.6843 121.992 13.5743 121.992 13.4743C121.992 13.3743 121.972 13.2643 121.932 13.1443V10.1143H121.272C121.032 10.0943 120.782 10.0843 120.522 10.0843C120.262 10.0843 120.012 10.0643 119.772 10.0243C119.532 9.98429 119.302 9.92429 119.082 9.84429C118.862 9.74429 118.682 9.58429 118.542 9.36429C118.442 9.14429 118.392 8.87429 118.392 8.55429C118.392 8.23429 118.432 7.96429 118.512 7.74429C118.512 7.48429 118.602 7.30429 118.782 7.20429C118.942 7.04429 119.132 6.93429 119.352 6.87429C119.592 6.79429 119.832 6.74429 120.072 6.72429C120.332 6.68429 120.582 6.66429 120.822 6.66429C121.082 6.66429 121.312 6.66429 121.512 6.66429ZM107.232 7.74429C107.132 8.14429 107.132 8.54429 107.232 8.94429C107.272 9.16429 107.322 9.36429 107.382 9.54429C107.462 9.72429 107.552 9.89429 107.652 10.0543C107.812 10.2143 107.962 10.3743 108.102 10.5343C108.242 10.6743 108.422 10.7943 108.642 10.8943C109.022 11.1143 109.492 11.2543 110.052 11.3143C110.472 11.3743 110.892 11.3743 111.312 11.3143C111.492 11.2743 111.672 11.2443 111.852 11.2243C112.052 11.1843 112.232 11.1143 112.392 11.0143C112.772 10.8143 113.072 10.5643 113.292 10.2643C113.412 10.0643 113.512 9.87429 113.592 9.69429C113.692 9.49429 113.762 9.28429 113.802 9.06429C113.802 8.86429 113.802 8.67429 113.802 8.49429C113.802 8.29429 113.782 8.08429 113.742 7.86429C113.742 7.50429 113.672 7.17429 113.532 6.87429C113.452 6.57429 113.282 6.28429 113.022 6.00429C112.882 5.86429 112.722 5.74429 112.542 5.64429C112.382 5.54429 112.202 5.44429 112.002 5.34429C111.542 5.22429 111.052 5.16429 110.532 5.16429C110.292 5.16429 110.052 5.18429 109.812 5.22429C109.572 5.26429 109.342 5.33429 109.122 5.43429C108.882 5.53429 108.662 5.65429 108.462 5.79429C108.262 5.93429 108.092 6.09429 107.952 6.27429C107.752 6.45429 107.602 6.66429 107.502 6.90429C107.402 7.12429 107.312 7.40429 107.232 7.74429ZM109.782 21.2143C109.662 21.2143 109.532 21.2543 109.392 21.3343C109.272 21.4343 109.212 21.5443 109.212 21.6643C109.212 21.9243 109.232 22.0843 109.272 22.1443C109.312 22.3043 109.372 22.4343 109.452 22.5343C109.532 22.6143 109.622 22.6543 109.722 22.6543H112.302C112.642 22.6543 112.952 22.6643 113.232 22.6843C113.532 22.6843 113.842 22.7043 114.162 22.7443H114.762C114.942 22.7443 115.122 22.7443 115.302 22.7443C115.502 22.7243 115.712 22.6943 115.932 22.6543H120.252C120.472 22.6543 120.752 22.6743 121.092 22.7143C121.432 22.7343 121.702 22.6443 121.902 22.4443C122.042 22.2843 122.092 22.0843 122.052 21.8443C122.032 21.6043 121.992 21.3943 121.932 21.2143C121.932 21.1943 121.872 21.1843 121.752 21.1843C121.652 21.1843 121.532 21.1843 121.392 21.1843C121.272 21.1843 121.142 21.1943 121.002 21.2143C120.882 21.2143 120.802 21.2143 120.762 21.2143H110.952C110.852 21.2143 110.752 21.2143 110.652 21.2143C110.572 21.2143 110.472 21.1943 110.352 21.1543C110.252 21.1543 110.152 21.1543 110.052 21.1543C109.972 21.1543 109.882 21.1743 109.782 21.2143Z" fill="#536EFF"/>
</svg>
