<svg width="159" height="25" viewBox="0 0 159 25" fill="none" xmlns="http://www.w3.org/2000/svg">
<path d="M2.34 24.21C2.32 24.21 2.29 24.19 2.25 24.15C2.05 23.99 1.91 23.77 1.83 23.49C1.77 23.21 1.74 22.96 1.74 22.74C1.72 22.38 1.69 22.02 1.65 21.66C1.63 21.3 1.62 20.95 1.62 20.61C1.62 20.09 1.62 19.62 1.62 19.2C1.62 18.78 1.67 18.32 1.77 17.82C1.83 17.5 1.93 17.25 2.07 17.07C2.21 16.87 2.43 16.71 2.73 16.59C3.29 16.37 3.85 16.26 4.41 16.26H17.94C18.32 16.28 18.71 16.31 19.11 16.35C19.51 16.39 19.89 16.49 20.25 16.65C20.65 16.81 20.91 17.04 21.03 17.34C21.17 17.62 21.26 17.96 21.3 18.36C21.32 18.7 21.33 19.09 21.33 19.53C21.35 19.97 21.35 20.42 21.33 20.88C21.31 21.32 21.28 21.76 21.24 22.2C21.2 22.64 21.13 23.04 21.03 23.4C20.97 23.62 20.9 23.81 20.82 23.97C20.74 24.15 20.58 24.28 20.34 24.36C20.12 24.44 19.89 24.49 19.65 24.51C19.43 24.53 19.21 24.54 18.99 24.54L3.96 24.48C3.7 24.46 3.42 24.45 3.12 24.45C2.82 24.45 2.56 24.37 2.34 24.21ZM3.75 5.55C3.41 5.53 3.08 5.48 2.76 5.4C2.44 5.3 2.16 5.17 1.92 5.01C1.68 4.85 1.51 4.64 1.41 4.38C1.31 4.12 1.31 3.8 1.41 3.42C1.57 2.78 1.96 2.3 2.58 1.98C3.04 1.72 3.52 1.57 4.02 1.53C4.54 1.49 5.06 1.47 5.58 1.47C5.74 1.45 5.9 1.44 6.06 1.44C6.24 1.44 6.41 1.44 6.57 1.44C6.73 1.42 6.89 1.41 7.05 1.41C7.23 1.41 7.41 1.41 7.59 1.41C7.75 1.41 8.17 1.41 8.85 1.41C9.55 1.41 10.3 1.42 11.1 1.44C11.9 1.44 12.64 1.45 13.32 1.47C14 1.47 14.42 1.47 14.58 1.47C14.9 1.49 15.21 1.51 15.51 1.53C15.83 1.53 16.15 1.53 16.47 1.53C16.95 1.53 17.43 1.56 17.91 1.62C18.39 1.66 18.86 1.75 19.32 1.89C19.76 2.03 20.01 2.26 20.07 2.58C20.15 2.88 20.22 3.23 20.28 3.63C20.34 4.07 20.38 4.46 20.4 4.8C20.44 5.14 20.45 5.47 20.43 5.79C20.43 6.11 20.41 6.44 20.37 6.78C20.33 7.12 20.29 7.51 20.25 7.95C20.21 8.35 20.14 8.71 20.04 9.03C19.94 9.35 19.69 9.59 19.29 9.75C18.97 9.87 18.58 9.94 18.12 9.96C17.66 9.98 17.3 9.85 17.04 9.57C16.82 9.35 16.69 9.06 16.65 8.7C16.63 8.32 16.6 7.98 16.56 7.68C16.52 7.4 16.51 7.1 16.53 6.78C16.55 6.46 16.48 6.19 16.32 5.97C16.18 5.79 15.99 5.67 15.75 5.61C15.53 5.53 15.29 5.49 15.03 5.49C14.79 5.47 14.54 5.47 14.28 5.49C14.04 5.49 13.83 5.49 13.65 5.49H6.03C5.91 5.49 5.77 5.5 5.61 5.52C5.45 5.52 5.29 5.53 5.13 5.55C4.75 5.59 4.29 5.59 3.75 5.55ZM19.02 10.95C19.34 10.95 19.7 10.95 20.1 10.95C20.52 10.95 20.9 11 21.24 11.1C21.58 11.2 21.87 11.38 22.11 11.64C22.35 11.88 22.47 12.26 22.47 12.78C22.47 13.26 22.27 13.68 21.87 14.04C21.55 14.32 21.16 14.48 20.7 14.52C20.26 14.54 19.84 14.54 19.44 14.52C19.42 14.52 19.36 14.52 19.26 14.52C19.18 14.5 18.97 14.49 18.63 14.49C18.31 14.49 17.8 14.49 17.1 14.49C16.4 14.49 15.42 14.49 14.16 14.49C12.92 14.49 11.34 14.49 9.42 14.49C7.5 14.49 5.15 14.49 2.37 14.49C2.35 14.49 2.26 14.49 2.1 14.49C1.94 14.49 1.75 14.47 1.53 14.43C1.33 14.39 1.12 14.34 0.9 14.28C0.68 14.2 0.5 14.08 0.36 13.92C0.12 13.66 0 13.31 0 12.87C0 12.45 0.13 12.11 0.39 11.85C0.65 11.61 0.92 11.41 1.2 11.25C1.48 11.09 1.77 10.99 2.07 10.95C2.13 10.95 2.19 10.96 2.25 10.98C2.31 10.98 2.37 10.97 2.43 10.95C2.71 10.91 3.01 10.91 3.33 10.95C3.65 10.97 3.98 10.97 4.32 10.95C5.36 10.91 6.41 10.9 7.47 10.92C8.55 10.94 9.67 10.95 10.83 10.95C12.09 10.95 13.43 10.94 14.85 10.92C16.27 10.9 17.66 10.91 19.02 10.95ZM5.19 20.79C5.19 20.89 5.19 20.99 5.19 21.09C5.21 21.19 5.25 21.26 5.31 21.3C5.35 21.34 5.41 21.37 5.49 21.39C5.59 21.39 5.69 21.39 5.79 21.39C5.89 21.39 6.01 21.38 6.15 21.36H14.94C15.22 21.38 15.49 21.4 15.75 21.42C15.97 21.44 16.2 21.45 16.44 21.45C16.68 21.45 16.9 21.43 17.1 21.39C17.3 21.37 17.42 21.31 17.46 21.21C17.5 21.11 17.53 20.97 17.55 20.79C17.57 20.63 17.58 20.45 17.58 20.25C17.58 20.03 17.52 19.84 17.4 19.68C17.26 19.52 17.06 19.44 16.8 19.44C16.56 19.42 16.34 19.42 16.14 19.44H8.4C7.96 19.4 7.53 19.39 7.11 19.41C6.69 19.41 6.26 19.42 5.82 19.44C5.66 19.44 5.53 19.45 5.43 19.47C5.35 19.47 5.29 19.56 5.25 19.74C5.21 19.88 5.19 20.02 5.19 20.16C5.19 20.28 5.19 20.4 5.19 20.52C5.21 20.56 5.21 20.6 5.19 20.64C5.19 20.68 5.19 20.73 5.19 20.79Z" fill="#62A85C"/>
<path d="M35.1619 9.9C33.7219 9.9 32.3719 9.85 31.1119 9.75C29.8719 9.65 28.7919 9.43 27.8719 9.09C26.9719 8.73 26.2619 8.23 25.7419 7.59C25.2219 6.93 24.9619 6.05 24.9619 4.95C24.9619 3.95 25.2219 3.13 25.7419 2.49C26.2619 1.85 26.9719 1.35 27.8719 0.99C28.7919 0.61 29.8719 0.35 31.1119 0.209999C32.3719 0.0699997 33.7219 0 35.1619 0C36.6019 0 37.9419 0.05 39.1819 0.15C40.4419 0.25 41.5219 0.47 42.4219 0.81C43.3419 1.15 44.0619 1.65 44.5819 2.31C45.1019 2.95 45.3619 3.83 45.3619 4.95C45.3619 6.05 45.1019 6.93 44.5819 7.59C44.0619 8.23 43.3419 8.73 42.4219 9.09C41.5219 9.43 40.4419 9.65 39.1819 9.75C37.9419 9.85 36.6019 9.9 35.1619 9.9ZM35.1619 3.36C34.4219 3.36 33.6819 3.37 32.9419 3.39C32.2219 3.41 31.5719 3.48 30.9919 3.6C30.4119 3.7 29.9419 3.86 29.5819 4.08C29.2219 4.28 29.0419 4.57 29.0419 4.95C29.0419 5.63 29.5819 6.09 30.6619 6.33C31.7619 6.55 33.2619 6.64 35.1619 6.6C35.9019 6.6 36.6319 6.6 37.3519 6.6C38.0919 6.58 38.7519 6.53 39.3319 6.45C39.9119 6.35 40.3819 6.19 40.7419 5.97C41.1019 5.73 41.2819 5.39 41.2819 4.95C41.2819 4.57 41.1019 4.28 40.7419 4.08C40.3819 3.86 39.9119 3.7 39.3319 3.6C38.7519 3.48 38.0919 3.41 37.3519 3.39C36.6319 3.37 35.9019 3.36 35.1619 3.36ZM25.4419 20.31C25.4419 19.29 25.8119 18.49 26.5519 17.91C27.2919 17.31 28.2919 16.87 29.5519 16.59C29.5319 16.41 29.5219 16.26 29.5219 16.14C29.5419 16 29.5519 15.87 29.5519 15.75C29.5719 15.63 29.5819 15.5 29.5819 15.36C29.6019 15.22 29.6119 15.05 29.6119 14.85L25.5019 14.67C25.1819 14.63 24.9219 14.59 24.7219 14.55C24.5419 14.49 24.3219 14.34 24.0619 14.1C23.8019 13.86 23.6719 13.53 23.6719 13.11C23.6719 12.69 23.8019 12.35 24.0619 12.09C24.2019 11.93 24.3919 11.81 24.6319 11.73C24.8719 11.65 25.1019 11.59 25.3219 11.55C25.5419 11.51 25.7319 11.49 25.8919 11.49C26.0719 11.49 26.1719 11.49 26.1919 11.49H43.3519C43.6519 11.49 43.9519 11.49 44.2519 11.49C44.5519 11.49 44.8419 11.5 45.1219 11.52C45.4019 11.54 45.6719 11.58 45.9319 11.64C46.2119 11.7 46.4619 11.83 46.6819 12.03C46.9019 12.19 47.0219 12.37 47.0419 12.57C47.0819 12.77 47.1019 12.99 47.1019 13.23C47.1019 13.81 46.7819 14.21 46.1419 14.43C45.7419 14.59 45.3019 14.69 44.8219 14.73C44.3619 14.75 43.9219 14.77 43.5019 14.79C43.2819 14.81 43.0119 14.82 42.6919 14.82C42.3719 14.82 42.0219 14.83 41.6419 14.85C41.6019 15.17 41.5819 15.47 41.5819 15.75C41.6019 16.01 41.6119 16.3 41.6119 16.62C42.6919 16.9 43.5419 17.32 44.1619 17.88C44.7819 18.44 45.0919 19.25 45.0919 20.31C45.0919 21.25 44.8319 22 44.3119 22.56C43.7919 23.1 43.0819 23.51 42.1819 23.79C41.3019 24.09 40.2619 24.28 39.0619 24.36C37.8819 24.46 36.6119 24.51 35.2519 24.51C33.8919 24.51 32.6119 24.46 31.4119 24.36C30.2319 24.28 29.2019 24.09 28.3219 23.79C27.4419 23.51 26.7419 23.1 26.2219 22.56C25.7019 22 25.4419 21.25 25.4419 20.31ZM41.1319 20.31C41.1319 19.99 40.9519 19.75 40.5919 19.59C40.2519 19.41 39.7919 19.28 39.2119 19.2C38.6519 19.12 38.0219 19.08 37.3219 19.08C36.6219 19.06 35.9319 19.05 35.2519 19.05C34.5719 19.05 33.8919 19.06 33.2119 19.08C32.5319 19.08 31.9219 19.12 31.3819 19.2C30.8419 19.28 30.4019 19.41 30.0619 19.59C29.7419 19.75 29.5819 19.99 29.5819 20.31C29.5819 20.59 29.7419 20.82 30.0619 21C30.4019 21.16 30.8419 21.29 31.3819 21.39C31.9219 21.47 32.5319 21.52 33.2119 21.54C33.8919 21.56 34.5719 21.57 35.2519 21.57C35.9319 21.57 36.6219 21.58 37.3219 21.6C38.0219 21.6 38.6519 21.57 39.2119 21.51C39.7919 21.45 40.2519 21.33 40.5919 21.15C40.9519 20.97 41.1319 20.69 41.1319 20.31ZM33.7519 14.91C33.7919 15.19 33.8019 15.42 33.7819 15.6C33.7619 15.76 33.7319 15.94 33.6919 16.14C33.9519 16.14 34.2019 16.14 34.4419 16.14C34.7019 16.12 34.9719 16.11 35.2519 16.11C35.6519 16.11 36.0319 16.12 36.3919 16.14C36.7719 16.14 37.1419 16.15 37.5019 16.17C37.5019 15.95 37.5019 15.74 37.5019 15.54C37.5219 15.34 37.5319 15.13 37.5319 14.91H33.7519Z" fill="#62A85C"/>
<path d="M58.5335 24.12C58.2935 24.12 58.0635 24.08 57.8435 24C57.6235 23.92 57.4335 23.81 57.2735 23.67C57.1135 23.53 56.9935 23.36 56.9135 23.16C56.8335 22.96 56.8135 22.73 56.8535 22.47C56.7335 22.11 56.7235 21.79 56.8235 21.51C56.9235 21.21 57.0535 20.91 57.2135 20.61H57.1835C57.8835 19.05 58.5635 17.52 59.2235 16.02C59.9035 14.5 60.6135 12.99 61.3535 11.49C62.0135 10.09 62.6235 8.77 63.1835 7.53C63.7435 6.29 64.2935 5.07 64.8335 3.87C64.9335 3.65 65.0535 3.43 65.1935 3.21C65.3335 2.99 65.4935 2.82 65.6735 2.7C65.8535 2.56 66.0635 2.47 66.3035 2.43C66.5435 2.39 66.8335 2.44 67.1735 2.58C67.6935 2.8 68.0735 3.11 68.3135 3.51C68.5735 3.91 68.6535 4.37 68.5535 4.89C68.2735 5.61 68.0435 6.2 67.8635 6.66C67.7035 7.1 67.5335 7.51 67.3535 7.89C67.1935 8.27 67.0135 8.66 66.8135 9.06C66.6135 9.46 66.3535 9.98 66.0335 10.62C65.7335 11.26 65.3535 12.07 64.8935 13.05C64.4535 14.01 63.8935 15.25 63.2135 16.77C62.8535 17.59 62.4835 18.37 62.1035 19.11C61.7435 19.85 61.3835 20.59 61.0235 21.33C60.9035 21.55 60.7735 21.82 60.6335 22.14C60.4935 22.44 60.3435 22.77 60.1835 23.13C60.0235 23.47 59.7935 23.72 59.4935 23.88C59.1935 24.04 58.8735 24.12 58.5335 24.12Z" fill="#62A85C"/>
<path d="M96.582 24.39C96.402 24.43 95.992 24.45 95.352 24.45C94.7319 24.47 93.992 24.48 93.132 24.48C92.2719 24.48 91.352 24.47 90.372 24.45C89.392 24.45 88.472 24.44 87.612 24.42C86.752 24.42 86.012 24.42 85.392 24.42C84.7719 24.42 84.382 24.42 84.222 24.42C83.822 24.42 83.402 24.39 82.962 24.33C82.5219 24.27 82.132 24.11 81.792 23.85C81.572 23.67 81.392 23.45 81.252 23.19C81.132 22.91 81.042 22.64 80.982 22.38C80.922 22.12 80.882 21.89 80.862 21.69C80.842 21.49 80.832 21.38 80.832 21.36V18.96C80.832 18.66 80.832 18.37 80.832 18.09C80.832 17.79 80.832 17.52 80.832 17.28C80.852 17.04 80.862 16.85 80.862 16.71C80.862 16.55 80.862 16.46 80.862 16.44C80.862 16.16 80.912 15.9 81.012 15.66C81.112 15.4 81.302 15.21 81.582 15.09C81.722 15.03 81.8719 14.99 82.032 14.97C82.212 14.95 82.382 14.93 82.542 14.91C82.882 14.89 83.222 14.95 83.562 15.09C83.922 15.21 84.142 15.47 84.222 15.87V16.95C84.262 17.25 84.332 17.4 84.432 17.4C84.532 17.38 84.702 17.38 84.942 17.4H97.0919V16.32C97.112 15.96 97.192 15.66 97.332 15.42C97.472 15.16 97.722 15 98.082 14.94C98.362 14.88 98.712 14.86 99.132 14.88C99.5519 14.9 99.872 15.01 100.092 15.21C100.292 15.39 100.392 15.61 100.392 15.87C100.392 16.11 100.392 16.35 100.392 16.59C100.352 17.51 100.352 18.46 100.392 19.44C100.432 20.4 100.402 21.34 100.302 22.26C100.282 22.54 100.232 22.78 100.152 22.98C100.072 23.16 99.952 23.36 99.792 23.58C99.632 23.82 99.4119 23.99 99.132 24.09C98.8719 24.19 98.592 24.26 98.292 24.3C97.992 24.34 97.692 24.36 97.392 24.36C97.0919 24.36 96.822 24.37 96.582 24.39ZM92.172 12.09C92.172 12.29 92.112 12.49 91.992 12.69C91.892 12.89 91.7619 13.07 91.602 13.23C91.4419 13.37 91.2619 13.5 91.062 13.62C90.862 13.72 90.672 13.78 90.492 13.8C89.972 13.88 89.532 13.9 89.172 13.86C88.812 13.82 88.382 13.8 87.882 13.8C86.782 13.8 85.682 13.79 84.582 13.77C83.502 13.75 82.422 13.72 81.3419 13.68C81.0219 13.66 80.752 13.56 80.532 13.38C80.332 13.2 80.172 12.99 80.052 12.75C79.932 12.49 79.852 12.21 79.812 11.91C79.7719 11.61 79.752 11.33 79.752 11.07C79.752 10.65 79.742 10.18 79.722 9.66C79.722 9.14 79.712 8.61 79.692 8.07C79.692 7.53 79.692 7 79.692 6.48C79.692 5.94 79.702 5.46 79.722 5.04C79.742 4.78 79.742 4.5 79.722 4.2C79.722 3.9 79.732 3.6 79.752 3.3C79.7719 3 79.8019 2.71 79.8419 2.43C79.9019 2.13 79.992 1.87 80.112 1.65C80.252 1.39 80.452 1.18 80.712 1.02C80.972 0.86 81.242 0.77 81.5219 0.749999C81.8019 0.71 82.072 0.74 82.332 0.84C82.612 0.94 82.8319 1.12 82.992 1.38C83.312 1.92 83.472 2.55 83.472 3.27C83.492 3.97 83.492 4.64 83.472 5.28H88.782C88.822 4.84 88.8319 4.45 88.812 4.11C88.792 3.77 88.782 3.41 88.782 3.03C88.782 2.69 88.832 2.31 88.932 1.89C89.052 1.45 89.2619 1.13 89.562 0.930001C89.782 0.77 90.082 0.69 90.462 0.69C90.8419 0.67 91.142 0.74 91.362 0.899999C91.582 1.06 91.742 1.3 91.842 1.62C91.962 1.92 92.042 2.23 92.082 2.55C92.142 2.91 92.172 3.3 92.172 3.72V12.09ZM96.252 9.03C95.672 8.99 95.152 8.96 94.692 8.94C94.232 8.9 93.872 8.68 93.612 8.28C93.492 8.08 93.432 7.83 93.432 7.53C93.432 7.23 93.452 6.97 93.492 6.75C93.5519 6.53 93.6619 6.35 93.822 6.21C93.982 6.05 94.262 5.92 94.662 5.82C94.742 5.8 94.892 5.79 95.112 5.79C95.332 5.77 95.562 5.75 95.802 5.73C96.062 5.71 96.3019 5.7 96.5219 5.7C96.742 5.68 96.892 5.67 96.972 5.67V3.09C96.952 2.87 96.942 2.65 96.942 2.43C96.962 2.21 97.002 1.99 97.062 1.77C97.102 1.61 97.142 1.46 97.182 1.32C97.222 1.18 97.312 1.03 97.452 0.87C97.612 0.67 97.832 0.53 98.112 0.45C98.412 0.369999 98.7319 0.35 99.072 0.39C99.712 0.49 100.122 0.74 100.302 1.14C100.422 1.38 100.492 1.68 100.512 2.04C100.552 2.38 100.572 2.59 100.572 2.67V12.45H100.542C100.542 12.47 100.532 12.54 100.512 12.66C100.492 12.78 100.452 12.93 100.392 13.11C100.332 13.27 100.242 13.44 100.122 13.62C100.002 13.8 99.8419 13.95 99.642 14.07C99.362 14.23 99.082 14.31 98.802 14.31C98.462 14.31 98.132 14.2 97.812 13.98C97.572 13.82 97.402 13.62 97.302 13.38C97.182 13.16 97.102 12.94 97.062 12.72C97.0219 12.5 96.992 12.28 96.972 12.06V9.03H96.252ZM85.992 20.1C85.812 20.1 85.612 20.1 85.392 20.1C85.192 20.08 85.012 20.09 84.852 20.13C84.6919 20.15 84.552 20.21 84.432 20.31C84.332 20.39 84.282 20.52 84.282 20.7C84.282 20.92 84.292 21.08 84.312 21.18C84.4119 21.52 84.562 21.7 84.762 21.72C84.982 21.72 85.222 21.71 85.482 21.69C86.042 21.69 86.6519 21.7 87.312 21.72C87.972 21.72 88.602 21.73 89.202 21.75C89.2619 21.75 89.452 21.75 89.7719 21.75C90.112 21.75 90.512 21.75 90.972 21.75C91.452 21.73 91.962 21.72 92.502 21.72C93.062 21.72 93.572 21.72 94.032 21.72C94.512 21.7 94.912 21.69 95.232 21.69C95.572 21.69 95.772 21.69 95.832 21.69C95.932 21.69 96.052 21.7 96.192 21.72C96.332 21.74 96.462 21.74 96.582 21.72C96.702 21.7 96.8019 21.65 96.882 21.57C96.962 21.49 97.002 21.37 97.002 21.21C97.002 21.05 97.012 20.91 97.032 20.79C97.0519 20.67 97.002 20.54 96.882 20.4C96.742 20.24 96.572 20.15 96.372 20.13C96.192 20.11 96.002 20.11 95.802 20.13C95.782 20.13 95.522 20.13 95.022 20.13C94.522 20.13 93.912 20.13 93.192 20.13C92.472 20.13 91.6919 20.13 90.852 20.13C90.012 20.11 89.232 20.1 88.512 20.1C87.812 20.1 87.212 20.1 86.712 20.1C86.2319 20.1 85.992 20.1 85.992 20.1ZM88.782 10.47C88.782 10.41 88.7719 10.35 88.752 10.29C88.752 10.21 88.762 10.12 88.782 10.02C88.822 9.74 88.842 9.5 88.842 9.3C88.842 9.08 88.822 8.83 88.782 8.55V8.04H85.752C85.432 8.02 85.132 8 84.852 7.98C84.612 7.96 84.352 7.96 84.072 7.98C83.812 7.98 83.592 8 83.412 8.04C83.372 8.38 83.362 8.72 83.382 9.06C83.422 9.38 83.452 9.71 83.472 10.05C83.472 10.27 83.482 10.42 83.502 10.5C83.5219 10.58 83.642 10.63 83.862 10.65C84.082 10.67 84.302 10.68 84.522 10.68C84.762 10.66 84.992 10.65 85.212 10.65H88.782V10.47Z" fill="#62A85C"/>
<path d="M104.984 13.74C104.664 13.7 104.404 13.68 104.204 13.68C104.024 13.68 103.804 13.56 103.544 13.32C103.284 13.08 103.154 12.76 103.154 12.36C103.154 11.94 103.284 11.6 103.544 11.34C103.684 11.18 103.874 11.07 104.114 11.01C104.354 10.93 104.584 10.88 104.804 10.86C105.024 10.82 105.214 10.81 105.374 10.83C105.554 10.83 105.654 10.83 105.674 10.83H122.834C123.134 10.83 123.434 10.83 123.734 10.83C124.034 10.83 124.324 10.84 124.604 10.86C124.884 10.88 125.154 10.91 125.414 10.95C125.694 10.97 125.944 11.08 126.164 11.28C126.384 11.44 126.504 11.62 126.524 11.82C126.564 12.02 126.584 12.24 126.584 12.48C126.584 13.04 126.264 13.43 125.624 13.65C125.224 13.81 124.774 13.88 124.274 13.86C123.794 13.84 123.354 13.84 122.954 13.86C122.734 13.88 122.464 13.89 122.144 13.89C121.824 13.89 121.474 13.89 121.094 13.89C121.074 14.11 121.064 14.33 121.064 14.55C121.084 14.77 121.094 14.99 121.094 15.21H121.724C122.744 15.21 123.524 15.37 124.064 15.69C124.604 15.99 124.874 16.49 124.874 17.19V19.32C124.874 19.6 124.804 19.88 124.664 20.16C124.544 20.42 124.324 20.64 124.004 20.82C123.744 20.98 123.484 21.07 123.224 21.09C122.964 21.09 122.704 21.09 122.444 21.09H108.224V22.17H123.494C123.814 22.21 124.094 22.29 124.334 22.41C124.574 22.53 124.744 22.75 124.844 23.07C125.084 23.79 124.824 24.3 124.064 24.6C123.824 24.7 123.584 24.76 123.344 24.78C123.104 24.8 122.874 24.81 122.654 24.81H108.704C108.304 24.81 107.884 24.8 107.444 24.78C107.024 24.78 106.594 24.77 106.154 24.75C105.734 24.73 105.384 24.58 105.104 24.3C104.824 24.02 104.664 23.65 104.624 23.19L104.534 21.09C104.514 20.87 104.514 20.61 104.534 20.31C104.554 20.01 104.654 19.76 104.834 19.56C105.114 19.26 105.484 19.07 105.944 18.99C106.424 18.91 106.884 18.87 107.324 18.87C107.604 18.87 108.064 18.87 108.704 18.87C109.364 18.87 110.254 18.88 111.374 18.9C112.494 18.9 113.874 18.9 115.514 18.9C117.174 18.9 119.144 18.9 121.424 18.9V17.82H106.664C106.464 17.82 106.284 17.82 106.124 17.82C105.964 17.82 105.804 17.8 105.644 17.76C105.464 17.72 105.304 17.68 105.164 17.64C105.024 17.6 104.904 17.5 104.804 17.34C104.524 16.92 104.454 16.49 104.594 16.05C104.654 15.89 104.744 15.77 104.864 15.69C104.984 15.59 105.124 15.51 105.284 15.45C105.444 15.39 105.594 15.35 105.734 15.33C105.894 15.31 106.034 15.29 106.154 15.27C106.454 15.21 106.764 15.18 107.084 15.18H108.734C108.754 14.98 108.764 14.79 108.764 14.61C108.784 14.41 108.794 14.18 108.794 13.92C108.594 13.92 108.314 13.92 107.954 13.92C107.594 13.9 107.224 13.88 106.844 13.86C106.464 13.84 106.094 13.83 105.734 13.83C105.394 13.81 105.144 13.78 104.984 13.74ZM108.794 7.08C109.074 7.08 109.514 7.09 110.114 7.11C110.714 7.11 111.364 7.11 112.064 7.11C112.764 7.11 113.454 7.11 114.134 7.11C114.814 7.09 115.384 7.08 115.844 7.08H122.834C123.154 7.12 123.434 7.21 123.674 7.35C123.914 7.47 124.084 7.68 124.184 7.98C124.404 8.7 124.144 9.21 123.404 9.51C123.164 9.61 122.914 9.67 122.654 9.69C122.414 9.71 122.184 9.72 121.964 9.72H109.304C108.904 9.72 108.484 9.72 108.044 9.72C107.624 9.7 107.194 9.68 106.754 9.66C106.334 9.64 105.974 9.49 105.674 9.21C105.394 8.93 105.234 8.56 105.194 8.1C105.154 7.76 105.124 7.39 105.104 6.99C105.104 6.59 105.104 6.25 105.104 5.97C105.104 5.75 105.114 5.49 105.134 5.19C105.154 4.89 105.254 4.64 105.434 4.44C105.714 4.14 106.064 3.95 106.484 3.87C106.924 3.79 107.364 3.75 107.804 3.75C107.924 3.75 108.044 3.75 108.164 3.75C108.304 3.75 108.424 3.76 108.524 3.78H120.494V2.79H107.264C107.044 2.79 106.854 2.79 106.694 2.79C106.554 2.79 106.404 2.77 106.244 2.73C106.064 2.69 105.894 2.65 105.734 2.61C105.594 2.57 105.474 2.47 105.374 2.31C105.114 1.91 105.054 1.48 105.194 1.02C105.294 0.7 105.514 0.5 105.854 0.42C106.214 0.34 106.504 0.28 106.724 0.24C107.044 0.18 107.364 0.15 107.684 0.15C108.024 0.15 108.454 0.16 108.974 0.179999C109.494 0.179999 110.044 0.179999 110.624 0.179999C111.224 0.179999 111.804 0.179999 112.364 0.179999C112.944 0.179999 113.464 0.179999 113.924 0.179999H120.794C121.814 0.179999 122.594 0.34 123.134 0.66C123.674 0.96 123.944 1.46 123.944 2.16V4.2C123.944 4.48 123.874 4.76 123.734 5.04C123.614 5.3 123.394 5.52 123.074 5.7C122.814 5.86 122.494 5.95 122.114 5.97C121.754 5.97 121.464 5.97 121.244 5.97H108.794V7.08ZM117.014 15.21C116.994 14.99 116.984 14.77 116.984 14.55C117.004 14.33 117.024 14.11 117.044 13.89H112.934C112.934 14.15 112.934 14.38 112.934 14.58C112.934 14.78 112.924 14.99 112.904 15.21H117.014Z" fill="#62A85C"/>
<path d="M136.786 20.61C136.786 19.77 137.046 19.08 137.566 18.54C138.086 17.98 138.786 17.55 139.666 17.25C140.546 16.93 141.576 16.71 142.756 16.59C143.956 16.47 145.236 16.41 146.596 16.41C147.956 16.41 149.226 16.45 150.406 16.53C151.606 16.61 152.646 16.8 153.526 17.1C154.426 17.38 155.136 17.8 155.656 18.36C156.176 18.92 156.436 19.67 156.436 20.61C156.436 21.55 156.176 22.3 155.656 22.86C155.136 23.4 154.426 23.82 153.526 24.12C152.646 24.42 151.606 24.61 150.406 24.69C149.226 24.79 147.956 24.84 146.596 24.84C145.236 24.84 143.956 24.79 142.756 24.69C141.576 24.61 140.546 24.42 139.666 24.12C138.786 23.82 138.086 23.4 137.566 22.86C137.046 22.3 136.786 21.55 136.786 20.61ZM139.966 9.69C139.726 9.69 139.446 9.68 139.126 9.66C138.806 9.64 138.496 9.59 138.196 9.51C137.916 9.43 137.656 9.31 137.416 9.15C137.196 8.99 137.046 8.77 136.966 8.49C136.906 8.27 136.856 8.1 136.816 7.98C136.796 7.86 136.766 7.75 136.726 7.65C136.706 7.55 136.686 7.44 136.666 7.32C136.666 7.2 136.666 7.02 136.666 6.78V4.17C136.666 4.19 136.656 4.12 136.636 3.96C136.636 3.8 136.646 3.61 136.666 3.39C136.686 3.15 136.726 2.9 136.786 2.64C136.866 2.36 136.966 2.12 137.086 1.92C137.206 1.72 137.396 1.56 137.656 1.44C137.936 1.32 138.206 1.23 138.466 1.17C138.746 1.11 138.996 1.08 139.216 1.08C139.436 1.06 139.576 1.05 139.636 1.05H152.836C153.256 1.05 153.686 1.05 154.126 1.05C154.586 1.05 155.016 1.13 155.416 1.29C155.756 1.43 155.986 1.66 156.106 1.98C156.226 2.3 156.276 2.64 156.256 3C156.216 3.34 156.086 3.63 155.866 3.87C155.666 4.11 155.396 4.28 155.056 4.38C154.736 4.46 154.176 4.5 153.376 4.5H152.716C152.616 4.5 152.526 4.49 152.446 4.47H141.826C141.726 4.45 141.576 4.45 141.376 4.47C141.196 4.47 141.056 4.5 140.956 4.56C140.896 4.58 140.856 4.67 140.836 4.83C140.816 4.97 140.806 5.14 140.806 5.34C140.806 5.52 140.806 5.69 140.806 5.85C140.826 6.01 140.846 6.12 140.866 6.18C140.946 6.32 141.116 6.4 141.376 6.42C141.636 6.42 141.876 6.41 142.096 6.39C142.336 6.39 142.646 6.39 143.026 6.39C143.406 6.39 143.926 6.39 144.586 6.39C145.246 6.39 146.086 6.39 147.106 6.39C148.126 6.39 149.386 6.39 150.886 6.39H153.106C153.606 6.39 154.056 6.4 154.456 6.42C154.876 6.42 155.256 6.5 155.596 6.66C155.996 6.84 156.266 7.18 156.406 7.68C156.506 8.18 156.406 8.63 156.106 9.03C155.786 9.43 155.436 9.64 155.056 9.66C154.696 9.68 154.296 9.7 153.856 9.72C153.656 9.72 153.256 9.73 152.656 9.75C152.056 9.75 151.396 9.76 150.676 9.78C149.976 9.78 149.296 9.78 148.636 9.78C147.976 9.78 147.486 9.78 147.166 9.78C146.826 9.78 146.326 9.78 145.666 9.78C145.006 9.78 144.306 9.78 143.566 9.78C142.826 9.76 142.126 9.75 141.466 9.75C140.806 9.73 140.306 9.71 139.966 9.69ZM154.756 11.52C155.096 11.52 155.456 11.53 155.836 11.55C156.216 11.57 156.566 11.64 156.886 11.76C157.206 11.86 157.466 12.03 157.666 12.27C157.886 12.49 158.016 12.81 158.056 13.23C158.076 13.45 158.026 13.65 157.906 13.83C157.806 14.01 157.656 14.19 157.456 14.37C157.296 14.51 157.096 14.62 156.856 14.7C156.636 14.76 156.396 14.81 156.136 14.85C155.896 14.87 155.646 14.88 155.386 14.88C155.146 14.88 154.926 14.87 154.726 14.85C154.686 14.85 154.636 14.85 154.576 14.85C154.516 14.83 154.326 14.82 154.006 14.82C153.686 14.82 153.196 14.82 152.536 14.82C151.876 14.82 150.926 14.82 149.686 14.82C148.466 14.82 146.896 14.82 144.976 14.82C143.076 14.82 140.736 14.82 137.956 14.82C137.936 14.82 137.846 14.82 137.686 14.82C137.526 14.82 137.336 14.8 137.116 14.76C136.916 14.72 136.706 14.67 136.486 14.61C136.266 14.53 136.086 14.41 135.946 14.25C135.706 13.99 135.586 13.68 135.586 13.32C135.586 13.1 135.616 12.87 135.676 12.63C135.756 12.39 135.856 12.22 135.976 12.12C136.236 11.9 136.526 11.75 136.846 11.67C137.186 11.57 137.656 11.52 138.256 11.52H154.756ZM152.476 20.61C152.476 20.29 152.296 20.05 151.936 19.89C151.596 19.71 151.136 19.58 150.556 19.5C149.996 19.42 149.366 19.38 148.666 19.38C147.966 19.36 147.276 19.35 146.596 19.35C145.916 19.35 145.236 19.36 144.556 19.38C143.876 19.38 143.266 19.42 142.726 19.5C142.186 19.58 141.746 19.71 141.406 19.89C141.086 20.05 140.926 20.29 140.926 20.61C140.926 20.89 141.086 21.12 141.406 21.3C141.746 21.46 142.186 21.59 142.726 21.69C143.266 21.77 143.876 21.83 144.556 21.87C145.236 21.89 145.916 21.9 146.596 21.9C147.276 21.9 147.966 21.91 148.666 21.93C149.366 21.93 149.996 21.9 150.556 21.84C151.136 21.76 151.596 21.63 151.936 21.45C152.296 21.27 152.476 20.99 152.476 20.61Z" fill="#62A85C"/>
</svg>
