<svg width="127" height="26" viewBox="0 0 127 26" fill="none" xmlns="http://www.w3.org/2000/svg">
<path d="M2.46 25.2793C2.44 25.2793 2.41 25.2593 2.37 25.2193C2.17 25.0593 2.03 24.8293 1.95 24.5293C1.89 24.2093 1.86 23.9393 1.86 23.7193C1.84 23.3593 1.81 22.9993 1.77 22.6393C1.75 22.2793 1.74 21.9293 1.74 21.5893C1.74 21.0693 1.74 20.5593 1.74 20.0593C1.74 19.5593 1.79 19.0593 1.89 18.5593C1.95 18.2393 2.05 17.9893 2.19 17.8093C2.33 17.6093 2.55 17.4493 2.85 17.3293C3.41 17.1093 3.97 16.9993 4.53 16.9993H18.36C18.74 17.0193 19.13 17.0493 19.53 17.0893C19.93 17.1293 20.31 17.2293 20.67 17.3893C21.07 17.5493 21.33 17.8193 21.45 18.1993C21.59 18.5593 21.68 18.9393 21.72 19.3393C21.74 19.6793 21.75 20.0793 21.75 20.5393C21.77 20.9793 21.77 21.4293 21.75 21.8893C21.73 22.3493 21.7 22.8093 21.66 23.2693C21.62 23.7093 21.55 24.1093 21.45 24.4693C21.39 24.6893 21.32 24.8793 21.24 25.0393C21.16 25.2193 21 25.3493 20.76 25.4293C20.54 25.5093 20.31 25.5593 20.07 25.5793C19.85 25.5993 19.63 25.6093 19.41 25.6093L4.08 25.5493C3.82 25.5293 3.54 25.5193 3.24 25.5193C2.94 25.5193 2.68 25.4393 2.46 25.2793ZM10.98 2.26929C12.18 2.90929 13.03 3.78929 13.53 4.90929C14.05 6.02929 14.25 7.36929 14.13 8.92929C14.01 10.9293 13.44 12.4193 12.42 13.3993C11.42 14.3793 9.88 14.8693 7.8 14.8693C7.26 14.8693 6.76 14.8793 6.3 14.8993C5.86 14.8993 5.44 14.8693 5.04 14.8093C4.64 14.7493 4.23 14.6493 3.81 14.5093C3.39 14.3493 2.94 14.1093 2.46 13.7893C1.52 13.1693 0.87 12.3593 0.51 11.3593C0.17 10.3593 0 9.32929 0 8.26929C0 7.20929 0.19 6.21929 0.57 5.29929C0.95 4.35929 1.57 3.55929 2.43 2.89929C3.13 2.33929 3.91 1.92929 4.77 1.66929C5.65 1.40929 6.53 1.31929 7.41 1.39929C7.81 1.43929 8.15 1.47929 8.43 1.51929C8.73 1.53929 9.01 1.57929 9.27 1.63929C9.53 1.69929 9.79 1.77929 10.05 1.87929C10.31 1.97929 10.62 2.10929 10.98 2.26929ZM21.9 13.3393C21.9 13.3393 21.89 13.4093 21.87 13.5493C21.85 13.6893 21.81 13.8493 21.75 14.0293C21.69 14.2093 21.6 14.3993 21.48 14.5993C21.36 14.7793 21.2 14.9293 21 15.0493C20.72 15.2093 20.44 15.2893 20.16 15.2893C19.82 15.2893 19.49 15.1793 19.17 14.9593C18.95 14.7993 18.78 14.5893 18.66 14.3293C18.5 14.0293 18.39 13.6993 18.33 13.3393C18.29 12.9793 18.26 12.6093 18.24 12.2293C18.24 11.8493 18.25 11.4793 18.27 11.1193C18.29 10.7393 18.3 10.3793 18.3 10.0393C18.32 9.17929 18.33 8.32929 18.33 7.48929C18.33 6.62929 18.33 5.77929 18.33 4.93929V4.54929C18.31 4.32929 18.3 4.09929 18.3 3.85929C18.32 3.59929 18.36 3.35929 18.42 3.13929C18.5 2.83929 18.68 2.51929 18.96 2.17929C19.12 1.97929 19.34 1.83929 19.62 1.75929C19.92 1.65929 20.24 1.62929 20.58 1.66929C21.18 1.76929 21.58 2.02929 21.78 2.44929C21.9 2.70929 21.95 3.02929 21.93 3.40929C21.93 3.78929 21.92 4.01929 21.9 4.09929V13.3393ZM10.56 9.25929C10.56 8.81929 10.54 8.40929 10.5 8.02929C10.46 7.62929 10.37 7.26929 10.23 6.94929C10.11 6.60929 9.92 6.30929 9.66 6.04929C9.4 5.78929 9.06 5.57929 8.64 5.41929C8.18 5.25929 7.68 5.17929 7.14 5.17929C6.6 5.17929 6.09 5.27929 5.61 5.47929C5.13 5.65929 4.71 5.94929 4.35 6.34929C3.99 6.72929 3.76 7.22929 3.66 7.84929C3.6 8.26929 3.6 8.69929 3.66 9.13929C3.74 9.55929 3.89 9.94929 4.11 10.3093C4.35 10.6493 4.67 10.9393 5.07 11.1793C5.49 11.4193 6.01 11.5693 6.63 11.6293C7.05 11.6693 7.47 11.6693 7.89 11.6293C8.31 11.5693 8.7 11.4493 9.06 11.2693C9.42 11.0893 9.73 10.8393 9.99 10.5193C10.25 10.1793 10.44 9.75929 10.56 9.25929ZM5.31 21.7693C5.31 21.8693 5.31 21.9693 5.31 22.0693C5.33 22.1493 5.37 22.2093 5.43 22.2493C5.47 22.2893 5.53 22.3193 5.61 22.3393C5.71 22.3393 5.81 22.3393 5.91 22.3393C6.01 22.3393 6.13 22.3293 6.27 22.3093H15.36C15.64 22.3293 15.91 22.3493 16.17 22.3693C16.39 22.3893 16.62 22.3993 16.86 22.3993C17.1 22.3993 17.32 22.3793 17.52 22.3393C17.72 22.3193 17.84 22.2693 17.88 22.1893C17.92 22.0893 17.95 21.9493 17.97 21.7693C17.99 21.6093 18 21.4293 18 21.2293C18 21.0093 17.94 20.8193 17.82 20.6593C17.68 20.4993 17.48 20.4193 17.22 20.4193C16.98 20.3993 16.76 20.3993 16.56 20.4193H8.52C8.08 20.3793 7.65 20.3693 7.23 20.3893C6.81 20.3893 6.38 20.3993 5.94 20.4193C5.78 20.4193 5.65 20.4293 5.55 20.4493C5.47 20.4493 5.41 20.5393 5.37 20.7193C5.33 20.8593 5.31 20.9993 5.31 21.1393C5.31 21.2593 5.31 21.3793 5.31 21.4993C5.33 21.5393 5.33 21.5793 5.31 21.6193C5.31 21.6593 5.31 21.7093 5.31 21.7693Z" fill="#DB7A7A"/>
<path d="M44.2029 22.0393C44.2029 22.0393 44.2629 22.0593 44.3829 22.0993C44.5229 22.1393 44.6729 22.2093 44.8329 22.3093C44.9929 22.3893 45.1429 22.5093 45.2829 22.6693C45.4229 22.8093 45.5129 22.9793 45.5529 23.1793C45.6529 23.9393 45.5229 24.5293 45.1629 24.9493C44.9229 25.2293 44.6629 25.3993 44.3829 25.4593C44.1029 25.5193 43.9529 25.5493 43.9329 25.5493H28.6329C27.8129 25.5493 27.1729 25.4193 26.7129 25.1593C26.2529 24.9193 26.0229 24.5693 26.0229 24.1093V19.9393C26.0029 19.7193 25.9929 19.4293 25.9929 19.0693C25.9929 18.6893 26.0029 18.3893 26.0229 18.1693C26.0629 17.7493 26.2629 17.4093 26.6229 17.1493C26.9829 16.8893 27.3929 16.7593 27.8529 16.7593C27.9529 16.7593 28.0729 16.7693 28.2129 16.7893C28.3729 16.7893 28.5029 16.8093 28.6029 16.8493C28.8629 16.9293 29.0729 17.0693 29.2329 17.2693C29.3929 17.4493 29.5129 17.6593 29.5929 17.8993C29.6729 18.1393 29.7229 18.3993 29.7429 18.6793C29.7629 18.9393 29.7829 19.1793 29.8029 19.3993C29.8029 19.4793 29.8029 19.6493 29.8029 19.9093C29.8029 20.1693 29.8029 20.4493 29.8029 20.7493C29.8029 21.0293 29.8029 21.2893 29.8029 21.5293C29.8029 21.7693 29.8029 21.9193 29.8029 21.9793C29.8629 21.9993 30.0229 22.0293 30.2829 22.0693C30.5629 22.0893 31.0729 22.0993 31.8129 22.0993C32.4529 22.0993 33.0229 22.0893 33.5229 22.0693C34.0229 22.0493 34.2829 22.0393 34.3029 22.0393H44.2029ZM24.5529 15.1093C24.2729 14.9893 24.0729 14.7593 23.9529 14.4193C23.7929 14.0193 23.7629 13.6193 23.8629 13.2193C23.9829 12.8193 24.1629 12.4393 24.4029 12.0793C24.6429 11.7193 24.9129 11.3793 25.2129 11.0593C25.5329 10.7393 25.8029 10.4393 26.0229 10.1593C26.3629 9.73929 26.6929 9.31929 27.0129 8.89929C27.3329 8.47929 27.6629 8.04929 28.0029 7.60929C28.2429 7.26929 28.4929 6.86929 28.7529 6.40929C29.0129 5.94929 29.1629 5.49929 29.2029 5.05929C29.2029 4.93929 29.2129 4.78929 29.2329 4.60929C29.2529 4.40929 29.2629 4.20929 29.2629 4.00929C29.2829 3.78929 29.3029 3.58929 29.3229 3.40929C29.3429 3.22929 29.3729 3.07929 29.4129 2.95929C29.5329 2.55929 29.7229 2.28929 29.9829 2.14929C30.2629 1.98929 30.6829 1.90929 31.2429 1.90929C31.5629 1.90929 31.9229 1.96929 32.3229 2.08929C32.7229 2.18929 32.9929 2.39929 33.1329 2.71929C33.2729 3.07929 33.3129 3.49929 33.2529 3.97929C33.2129 4.43929 33.2529 4.85929 33.3729 5.23929C33.4729 5.53929 33.6229 5.84929 33.8229 6.16929C34.0229 6.48929 34.2329 6.80929 34.4529 7.12929C34.8329 7.66929 35.2129 8.25929 35.5929 8.89929C35.9729 9.51929 36.3229 10.0493 36.6429 10.4893C36.9629 10.9093 37.2729 11.3493 37.5729 11.8093C37.8729 12.2493 38.0729 12.7293 38.1729 13.2493C38.2729 13.6893 38.2229 14.0593 38.0229 14.3593C37.8429 14.6393 37.5929 14.8493 37.2729 14.9893C36.9529 15.1093 36.6029 15.1393 36.2229 15.0793C35.8429 14.9993 35.5129 14.8193 35.2329 14.5393C34.4929 13.7793 33.8229 12.9693 33.2229 12.1093C32.6229 11.2293 32.0029 10.3693 31.3629 9.52929C31.3629 9.52929 31.2729 9.62929 31.0929 9.82929C30.9129 10.0293 30.6929 10.2893 30.4329 10.6093C30.1729 10.9293 29.8829 11.2793 29.5629 11.6593C29.2429 12.0393 28.9429 12.3993 28.6629 12.7393C28.3829 13.0793 28.1329 13.3793 27.9129 13.6393C27.7129 13.8793 27.5929 14.0293 27.5529 14.0893C27.3329 14.3493 27.0829 14.5793 26.8029 14.7793C26.5229 14.9793 26.2129 15.1193 25.8729 15.1993C25.6529 15.2393 25.4229 15.2593 25.1829 15.2593C24.9629 15.2593 24.7529 15.2093 24.5529 15.1093ZM45.0429 14.5693C45.0429 14.5693 45.0329 14.6393 45.0129 14.7793C44.9929 14.9193 44.9529 15.0793 44.8929 15.2593C44.8329 15.4393 44.7429 15.6293 44.6229 15.8293C44.5029 16.0093 44.3429 16.1593 44.1429 16.2793C43.8629 16.4393 43.5829 16.5193 43.3029 16.5193C42.9629 16.5193 42.6329 16.4093 42.3129 16.1893C42.0929 16.0293 41.9229 15.8193 41.8029 15.5593C41.6429 15.2593 41.5329 14.9293 41.4729 14.5693C41.4329 14.2093 41.4029 13.8393 41.3829 13.4593C41.3829 13.0793 41.3929 12.7093 41.4129 12.3493C41.4329 11.9693 41.4429 11.6093 41.4429 11.2693C41.4429 10.8493 41.4429 10.3593 41.4429 9.79929C41.4629 9.23929 41.4729 8.66929 41.4729 8.08929C41.4729 7.50929 41.4729 6.94929 41.4729 6.40929C41.4729 5.84929 41.4729 5.35929 41.4729 4.93929V4.54929C41.4529 4.32929 41.4429 4.09929 41.4429 3.85929C41.4629 3.59929 41.5029 3.35929 41.5629 3.13929C41.6429 2.83929 41.8229 2.51929 42.1029 2.17929C42.2629 1.97929 42.4829 1.83929 42.7629 1.75929C43.0629 1.65929 43.3829 1.62929 43.7229 1.66929C44.3229 1.76929 44.7229 2.02929 44.9229 2.44929C45.0429 2.70929 45.0929 3.02929 45.0729 3.40929C45.0729 3.78929 45.0629 4.01929 45.0429 4.09929V14.5693Z" fill="#DB7A7A"/>
<path d="M57.7341 25.1893C57.4941 25.1893 57.2641 25.1493 57.0441 25.0693C56.8241 24.9893 56.6341 24.8793 56.4741 24.7393C56.3141 24.5993 56.1941 24.4293 56.1141 24.2293C56.0341 24.0293 56.0141 23.7993 56.0541 23.5393C55.9341 23.1793 55.9241 22.8593 56.0241 22.5793C56.1241 22.2793 56.2541 21.9793 56.4141 21.6793H56.3841C57.0841 20.1193 57.7641 18.5893 58.4241 17.0893C59.1041 15.5693 59.8141 14.0593 60.5541 12.5593C61.2141 11.1593 61.8241 9.83929 62.3841 8.59929C62.9441 7.35929 63.4941 6.13929 64.0341 4.93929C64.1341 4.71929 64.2541 4.49929 64.3941 4.27929C64.5341 4.05929 64.6941 3.88929 64.8741 3.76929C65.0541 3.62929 65.2641 3.53929 65.5041 3.49929C65.7441 3.45929 66.0341 3.50929 66.3741 3.64929C66.8941 3.86929 67.2741 4.17929 67.5141 4.57929C67.7741 4.97929 67.8541 5.43929 67.7541 5.95929C67.4741 6.67929 67.2441 7.26929 67.0641 7.72929C66.9041 8.16929 66.7341 8.57929 66.5541 8.95929C66.3941 9.33929 66.2141 9.72929 66.0141 10.1293C65.8141 10.5293 65.5541 11.0493 65.2341 11.6893C64.9341 12.3293 64.5541 13.1393 64.0941 14.1193C63.6541 15.0793 63.0941 16.3193 62.4141 17.8393C62.0541 18.6593 61.6841 19.4393 61.3041 20.1793C60.9441 20.9193 60.5841 21.6593 60.2241 22.3993C60.1041 22.6193 59.9741 22.8893 59.8341 23.2093C59.6941 23.5093 59.5441 23.8393 59.3841 24.1993C59.2241 24.5393 58.9941 24.7893 58.6941 24.9493C58.3941 25.1093 58.0741 25.1893 57.7341 25.1893Z" fill="#DB7A7A"/>
<path d="M97.7925 23.2393C98.1125 23.2793 98.3925 23.3593 98.6325 23.4793C98.8725 23.5993 99.0425 23.8193 99.1425 24.1393C99.3825 24.8593 99.1225 25.3693 98.3625 25.6693C98.1225 25.7693 97.8825 25.8293 97.6425 25.8493C97.4025 25.8693 97.1725 25.8793 96.9525 25.8793H83.0025C82.6025 25.8793 82.1825 25.8693 81.7425 25.8493C81.3225 25.8493 80.8925 25.8393 80.4525 25.8193C80.0325 25.7993 79.6825 25.6493 79.4025 25.3693C79.1225 25.0893 78.9625 24.7193 78.9225 24.2593L78.8325 22.1593C78.8125 21.9393 78.8125 21.6793 78.8325 21.3793C78.8525 21.0793 78.9525 20.8293 79.1325 20.6293C79.4125 20.3293 79.7825 20.1393 80.2425 20.0593C80.7225 19.9793 81.1825 19.9393 81.6225 19.9393C81.9025 19.9393 82.3625 19.9393 83.0025 19.9393C83.6625 19.9393 84.5525 19.9493 85.6725 19.9693C86.7925 19.9693 88.1725 19.9693 89.8125 19.9693C91.4725 19.9693 93.4425 19.9693 95.7225 19.9693V18.8893H80.9625C80.7625 18.8893 80.5825 18.8893 80.4225 18.8893C80.2625 18.8893 80.1025 18.8693 79.9425 18.8293C79.7625 18.7893 79.6025 18.7493 79.4625 18.7093C79.3225 18.6693 79.2025 18.5693 79.1025 18.4093C78.8225 17.9893 78.7525 17.5593 78.8925 17.1193C78.9525 16.9593 79.0425 16.8393 79.1625 16.7593C79.2825 16.6593 79.4225 16.5793 79.5825 16.5193C79.7425 16.4593 79.8925 16.4193 80.0325 16.3993C80.1925 16.3793 80.3325 16.3593 80.4525 16.3393C80.7525 16.2793 81.0625 16.2493 81.3825 16.2493C81.6625 16.2493 81.9625 16.2493 82.2825 16.2493C82.6225 16.2493 83.0225 16.2593 83.4825 16.2793C83.9425 16.2793 84.4725 16.2793 85.0725 16.2793C85.6925 16.2793 86.4125 16.2793 87.2325 16.2793C87.2525 16.0593 87.2625 15.8493 87.2625 15.6493C87.2825 15.4293 87.2925 15.2093 87.2925 14.9893C87.1725 14.9893 86.9025 14.9893 86.4825 14.9893C86.0625 14.9693 85.5725 14.9593 85.0125 14.9593C84.4725 14.9593 83.8825 14.9593 83.2425 14.9593C82.6225 14.9393 82.0325 14.9293 81.4725 14.9293C80.9325 14.9093 80.4625 14.8893 80.0625 14.8693C79.6625 14.8493 79.4025 14.8293 79.2825 14.8093C78.9625 14.7693 78.7025 14.7493 78.5025 14.7493C78.3225 14.7493 78.1025 14.6293 77.8425 14.3893C77.5825 14.1493 77.4525 13.8393 77.4525 13.4593C77.4525 13.0393 77.5825 12.6993 77.8425 12.4393C77.9825 12.2793 78.1725 12.1693 78.4125 12.1093C78.6525 12.0293 78.8825 11.9793 79.1025 11.9593C79.3225 11.9193 79.5125 11.9093 79.6725 11.9293C79.8525 11.9293 79.9525 11.9293 79.9725 11.9293H97.1325C97.4325 11.9293 97.7325 11.9293 98.0325 11.9293C98.3325 11.9293 98.6225 11.9393 98.9025 11.9593C99.1825 11.9793 99.4525 12.0093 99.7125 12.0493C99.9925 12.0693 100.243 12.1793 100.463 12.3793C100.683 12.5393 100.803 12.7193 100.823 12.9193C100.863 13.1193 100.882 13.3393 100.882 13.5793C100.882 13.8793 100.793 14.1193 100.613 14.2993C100.452 14.4793 100.223 14.6193 99.9225 14.7193C99.5225 14.8793 99.0725 14.9493 98.5725 14.9293C98.0925 14.9093 97.6525 14.9093 97.2525 14.9293C96.2525 14.9693 95.2825 14.9893 94.3425 14.9893C93.4225 14.9893 92.4525 14.9893 91.4325 14.9893C91.4325 15.2093 91.4325 15.4293 91.4325 15.6493C91.4325 15.8493 91.4225 16.0593 91.4025 16.2793H96.0225C97.0425 16.2793 97.8225 16.4393 98.3625 16.7593C98.9025 17.0593 99.1725 17.5593 99.1725 18.2593V20.3893C99.1725 20.6693 99.1025 20.9493 98.9625 21.2293C98.8425 21.4893 98.6225 21.7093 98.3025 21.8893C98.0425 22.0493 97.7825 22.1393 97.5225 22.1593C97.2625 22.1593 97.0025 22.1593 96.7425 22.1593H82.5225V23.2393H97.7925ZM96.2325 7.69929C96.6125 7.87929 96.9725 8.07929 97.3125 8.29929C97.6725 8.51929 98.0125 8.73929 98.3325 8.95929C98.4925 9.09929 98.5825 9.27929 98.6025 9.49929C98.6425 9.71929 98.6125 9.93929 98.5125 10.1593C98.4325 10.3593 98.3025 10.5393 98.1225 10.6993C97.9425 10.8593 97.7325 10.9693 97.4925 11.0293C96.8525 11.1293 96.2525 11.1293 95.6925 11.0293C95.1525 10.9093 94.5925 10.7193 94.0125 10.4593C93.4725 10.2193 92.9525 9.98929 92.4525 9.76929C91.9725 9.54929 91.5025 9.30929 91.0425 9.04929C90.9025 8.96929 90.7125 8.86929 90.4725 8.74929C90.2525 8.62929 90.0325 8.51929 89.8125 8.41929C89.5525 8.29929 89.2725 8.16929 88.9725 8.02929C88.6325 8.18929 88.3025 8.33929 87.9825 8.47929C87.7025 8.59929 87.4225 8.72929 87.1425 8.86929C86.8825 8.98929 86.6725 9.08929 86.5125 9.16929C85.9925 9.44929 85.5125 9.68929 85.0725 9.88929C84.6325 10.0693 84.1525 10.2793 83.6325 10.5193C83.2325 10.6793 82.8225 10.8593 82.4025 11.0593C82.0025 11.2393 81.5725 11.3293 81.1125 11.3293C80.7525 11.3093 80.4025 11.2193 80.0625 11.0593C79.7225 10.8793 79.5125 10.5993 79.4325 10.2193C79.4125 10.0193 79.4325 9.78929 79.4925 9.52929C79.5725 9.24929 79.7025 9.01929 79.8825 8.83929C80.0825 8.65929 80.3225 8.47929 80.6025 8.29929L82.6725 7.27929C83.0125 7.11929 83.3125 6.97929 83.5725 6.85929C83.8325 6.73929 84.1425 6.59929 84.5025 6.43929C84.6625 6.33929 84.8425 6.23929 85.0425 6.13929C85.2425 6.01929 85.4525 5.90929 85.6725 5.80929H83.7825C83.4625 5.80929 83.1825 5.80929 82.9425 5.80929C82.7225 5.80929 82.4625 5.78929 82.1625 5.74929C81.9425 5.70929 81.7025 5.68929 81.4425 5.68929C81.1825 5.68929 80.9425 5.63929 80.7225 5.53929C80.6025 5.49929 80.4925 5.42929 80.3925 5.32929C80.3125 5.20929 80.2425 5.08929 80.1825 4.96929C80.0625 4.76929 79.9925 4.54929 79.9725 4.30929C79.9525 4.06929 79.9925 3.83929 80.0925 3.61929C80.2525 3.31929 80.5125 3.08929 80.8725 2.92929C81.2325 2.76929 81.6025 2.68929 81.9825 2.68929H82.6725C82.9925 2.72929 83.2225 2.73929 83.3625 2.71929C83.5225 2.69929 83.7625 2.68929 84.0825 2.68929H86.7525V1.48929C86.7525 0.889285 87.0125 0.479285 87.5325 0.259286C88.0525 0.0392862 88.6125 -0.0407139 89.2125 0.0192853C89.7525 0.0792857 90.1625 0.199286 90.4425 0.379286C90.7425 0.539286 90.9025 0.819286 90.9225 1.21929C90.9425 1.37929 90.9525 1.59929 90.9525 1.87929C90.9725 2.13929 90.9825 2.40929 90.9825 2.68929H94.4625C94.7825 2.68929 95.1525 2.67929 95.5725 2.65929C95.9925 2.63929 96.3925 2.66929 96.7725 2.74929C97.1725 2.80929 97.5225 2.93929 97.8225 3.13929C98.1425 3.31929 98.3525 3.61929 98.4525 4.03929C98.5725 4.51929 98.4825 4.88929 98.1825 5.14929C97.9025 5.38929 97.5325 5.56929 97.0725 5.68929C96.6325 5.78929 96.1625 5.84929 95.6625 5.86929C95.1625 5.86929 94.7525 5.86929 94.4325 5.86929C94.1125 5.84929 93.7725 5.83929 93.4125 5.83929C93.0725 5.83929 92.7425 5.83929 92.4225 5.83929C92.5625 5.91929 92.6925 5.96929 92.8125 5.98929C93.0125 6.08929 93.2025 6.18929 93.3825 6.28929C93.5825 6.36929 93.7825 6.45929 93.9825 6.55929C94.3625 6.73929 94.7325 6.92929 95.0925 7.12929C95.4725 7.30929 95.8525 7.49929 96.2325 7.69929Z" fill="#DB7A7A"/>
<path d="M102.661 15.1093C102.381 14.9893 102.181 14.7593 102.061 14.4193C101.901 14.0193 101.871 13.6193 101.971 13.2193C102.091 12.8193 102.271 12.4393 102.511 12.0793C102.751 11.7193 103.021 11.3793 103.321 11.0593C103.641 10.7393 103.911 10.4393 104.131 10.1593C104.471 9.73929 104.801 9.31929 105.121 8.89929C105.441 8.47929 105.771 8.04929 106.111 7.60929C106.351 7.26929 106.601 6.86929 106.861 6.40929C107.121 5.94929 107.271 5.49929 107.311 5.05929C107.311 4.93929 107.321 4.78929 107.341 4.60929C107.361 4.40929 107.371 4.20929 107.371 4.00929C107.391 3.78929 107.411 3.58929 107.431 3.40929C107.451 3.22929 107.481 3.07929 107.521 2.95929C107.641 2.55929 107.831 2.28929 108.091 2.14929C108.371 1.98929 108.791 1.90929 109.351 1.90929C109.671 1.90929 110.031 1.96929 110.431 2.08929C110.831 2.18929 111.101 2.39929 111.241 2.71929C111.381 3.07929 111.421 3.49929 111.361 3.97929C111.321 4.43929 111.361 4.85929 111.481 5.23929C111.581 5.53929 111.731 5.84929 111.931 6.16929C112.131 6.48929 112.341 6.80929 112.561 7.12929C112.941 7.66929 113.321 8.25929 113.701 8.89929C114.081 9.51929 114.431 10.0493 114.751 10.4893C115.071 10.9093 115.381 11.3493 115.681 11.8093C115.981 12.2493 116.181 12.7293 116.281 13.2493C116.381 13.6893 116.331 14.0593 116.131 14.3593C115.951 14.6393 115.701 14.8493 115.381 14.9893C115.061 15.1093 114.711 15.1393 114.331 15.0793C113.951 14.9993 113.621 14.8193 113.341 14.5393C112.601 13.7793 111.931 12.9693 111.331 12.1093C110.731 11.2293 110.111 10.3693 109.471 9.52929C109.471 9.52929 109.381 9.62929 109.201 9.82929C109.021 10.0293 108.801 10.2893 108.541 10.6093C108.281 10.9293 107.991 11.2793 107.671 11.6593C107.351 12.0393 107.051 12.3993 106.771 12.7393C106.491 13.0793 106.241 13.3793 106.021 13.6393C105.821 13.8793 105.701 14.0293 105.661 14.0893C105.441 14.3493 105.191 14.5793 104.911 14.7793C104.631 14.9793 104.321 15.1193 103.981 15.1993C103.761 15.2393 103.531 15.2593 103.291 15.2593C103.071 15.2593 102.861 15.2093 102.661 15.1093ZM107.281 25.5493C106.461 25.5493 105.801 25.3693 105.301 25.0093C104.801 24.6693 104.551 24.2693 104.551 23.8093V19.4893C104.511 19.0493 104.511 18.5993 104.551 18.1393C104.591 17.7193 104.751 17.3793 105.031 17.1193C105.331 16.8593 105.711 16.7293 106.171 16.7293C106.271 16.7293 106.451 16.7393 106.711 16.7593C106.971 16.7593 107.151 16.7793 107.251 16.8193C107.511 16.8993 107.711 17.0193 107.851 17.1793C108.011 17.3393 108.131 17.5293 108.211 17.7493C108.291 17.9493 108.341 18.1693 108.361 18.4093C108.381 18.6293 108.401 18.8493 108.421 19.0693C108.421 19.1493 108.421 19.3393 108.421 19.6393C108.441 19.9193 108.451 20.2293 108.451 20.5693C108.471 20.8893 108.481 21.1893 108.481 21.4693C108.501 21.7493 108.521 21.9193 108.541 21.9793C108.601 21.9993 108.761 22.0293 109.021 22.0693C109.301 22.0893 109.811 22.0993 110.551 22.0993C111.191 22.0993 111.581 22.0893 111.721 22.0693C111.881 22.0493 111.971 22.0393 111.991 22.0393H121.801C121.801 22.0393 121.861 22.0593 121.981 22.0993C122.121 22.1393 122.271 22.2093 122.431 22.3093C122.591 22.3893 122.741 22.5093 122.881 22.6693C123.021 22.8093 123.111 22.9793 123.151 23.1793C123.251 23.9393 123.121 24.5293 122.761 24.9493C122.521 25.2293 122.261 25.3993 121.981 25.4593C121.701 25.5193 121.551 25.5493 121.531 25.5493H107.281ZM122.521 11.0893V14.2093C122.501 14.4293 122.471 14.6593 122.431 14.8993C122.391 15.1193 122.311 15.3393 122.191 15.5593C122.051 15.8193 121.881 16.0093 121.681 16.1293C121.361 16.3493 121.021 16.4593 120.661 16.4593C120.361 16.4593 120.081 16.3793 119.821 16.2193C119.621 16.0993 119.461 15.9493 119.341 15.7693C119.221 15.5893 119.121 15.4193 119.041 15.2593C118.981 15.0993 118.941 14.9593 118.921 14.8393C118.901 14.6993 118.891 14.6293 118.891 14.6293V4.09929C118.891 3.99929 118.901 3.77929 118.921 3.43929C118.961 3.07929 119.041 2.77929 119.161 2.53929C119.361 2.11929 119.771 1.87929 120.391 1.81929C120.731 1.77929 121.051 1.79929 121.351 1.87929C121.651 1.95929 121.881 2.08929 122.041 2.26929C122.161 2.42929 122.241 2.58929 122.281 2.74929C122.341 2.88929 122.391 3.03929 122.431 3.19929C122.491 3.39929 122.521 3.60929 122.521 3.82929C122.541 4.04929 122.541 4.26929 122.521 4.48929V7.72929C122.601 7.72929 122.751 7.73929 122.971 7.75929C123.191 7.77929 123.421 7.79929 123.661 7.81929C123.921 7.81929 124.161 7.82929 124.381 7.84929C124.601 7.86929 124.751 7.88929 124.831 7.90929C125.231 7.98929 125.511 8.10929 125.671 8.26929C125.831 8.40929 125.941 8.58928 126.001 8.80929C126.041 9.02929 126.061 9.28929 126.061 9.58929C126.061 9.86929 126.001 10.1093 125.881 10.3093C125.641 10.7093 125.281 10.9393 124.801 10.9993C124.321 11.0593 123.791 11.0893 123.211 11.0893H122.521Z" fill="#DB7A7A"/>
</svg>
