<svg width="122" height="25" viewBox="0 0 122 25" fill="none" xmlns="http://www.w3.org/2000/svg">
<path d="M13.44 19.52C13.5 19.62 13.55 19.73 13.59 19.85C13.65 19.95 13.7 20.07 13.74 20.21C13.8 20.43 13.84 20.67 13.86 20.93C13.88 21.19 13.82 21.46 13.68 21.74C13.36 22.36 12.92 22.69 12.36 22.73H12.33C11.97 22.73 11.65 22.61 11.37 22.37C11.11 22.13 10.83 21.84 10.53 21.5C10.23 21.18 9.96 20.86 9.72 20.54C9.48 20.22 9.26 19.93 9.06 19.67C9.04 19.63 9.01 19.59 8.97 19.55C8.95 19.49 8.92 19.42 8.88 19.34C8.38 18.58 8.01 18.05 7.77 17.75C7.53 17.45 7.39 17.29 7.35 17.27C7.31 17.31 7.21 17.42 7.05 17.6C6.91 17.76 6.82 17.86 6.78 17.9C6.74 17.96 6.7 18.02 6.66 18.08C6.62 18.12 6.58 18.16 6.54 18.2C6.36 18.4 6.21 18.61 6.09 18.83C5.99 19.03 5.86 19.24 5.7 19.46C5.54 19.68 5.37 19.89 5.19 20.09C5.03 20.29 4.86 20.49 4.68 20.69C4.6 20.77 4.52 20.87 4.44 20.99C4.14 21.33 3.82 21.66 3.48 21.98C3.16 22.3 2.78 22.54 2.34 22.7C2.16 22.78 1.96 22.82 1.74 22.82C1.28 22.82 0.87 22.64 0.51 22.28C0.17 21.94 0 21.52 0 21.02C0.02 20.66 0.11 20.32 0.27 20C0.45 19.68 0.62 19.38 0.78 19.1L0.84 18.98C0.9 18.88 0.96 18.79 1.02 18.71C1.08 18.63 1.14 18.55 1.2 18.47C1.24 18.41 1.27 18.36 1.29 18.32C1.33 18.26 1.37 18.21 1.41 18.17C1.65 17.81 1.86 17.52 2.04 17.3C2.08 17.26 2.1 17.23 2.1 17.21C2.12 17.17 2.15 17.13 2.19 17.09C2.23 17.01 2.27 16.96 2.31 16.94L2.37 16.85C2.45 16.75 2.52 16.66 2.58 16.58C2.64 16.48 2.7 16.38 2.76 16.28C2.9 16.06 3.02 15.86 3.12 15.68C3.24 15.48 3.35 15.29 3.45 15.11C3.57 14.89 3.69 14.68 3.81 14.48C3.93 14.26 4.07 14.05 4.23 13.85C4.33 13.69 4.43 13.53 4.53 13.37C4.65 13.21 4.76 13.05 4.86 12.89L4.98 12.71C5.12 12.49 5.22 12.3 5.28 12.14C5.36 11.96 5.41 11.76 5.43 11.54C5.47 11.22 5.49 10.91 5.49 10.61C5.49 10.29 5.49 9.95 5.49 9.59V4.64C5.49 4.44 5.49 4.25 5.49 4.07C5.49 3.89 5.5 3.7 5.52 3.5C5.52 3.28 5.54 3.06 5.58 2.84C5.62 2.62 5.67 2.42 5.73 2.24C5.83 1.98 5.96 1.72 6.12 1.46C6.22 1.3 6.36 1.18 6.54 1.1C6.74 1.02 6.95 0.959999 7.17 0.92L7.23 0.89C7.39 0.849999 7.53 0.839999 7.65 0.86C7.79 0.86 7.94 0.89 8.1 0.949999C8.3 1.03 8.45 1.12 8.55 1.22C8.65 1.3 8.73 1.41 8.79 1.55C8.85 1.69 8.91 1.84 8.97 2C9.15 2.38 9.27 2.87 9.33 3.47C9.41 4.31 9.46 5.2 9.48 6.14C9.5 7.06 9.51 7.94 9.51 8.78C9.53 9.3 9.54 9.82 9.54 10.34C9.54 10.84 9.56 11.34 9.6 11.84C9.62 12.28 9.73 12.69 9.93 13.07C10.15 13.45 10.37 13.83 10.59 14.21C10.81 14.65 11.04 15.09 11.28 15.53C11.52 15.95 11.77 16.37 12.03 16.79C12.13 16.99 12.23 17.19 12.33 17.39C12.45 17.57 12.57 17.76 12.69 17.96C12.73 18.06 12.77 18.15 12.81 18.23C12.87 18.31 12.92 18.39 12.96 18.47C13 18.57 13.05 18.68 13.11 18.8C13.17 18.9 13.22 19 13.26 19.1L13.35 19.34L13.44 19.52ZM21 22.04C20.96 22.28 20.93 22.52 20.91 22.76C20.89 22.98 20.84 23.21 20.76 23.45C20.72 23.53 20.69 23.6 20.67 23.66C20.65 23.72 20.62 23.79 20.58 23.87C20.44 24.15 20.26 24.37 20.04 24.53C19.58 24.81 19.07 24.88 18.51 24.74C18.19 24.68 17.93 24.56 17.73 24.38C17.55 24.22 17.41 24.01 17.31 23.75C17.23 23.51 17.16 23.27 17.1 23.03C17.06 22.79 17.04 22.58 17.04 22.4C17.04 22.22 17.04 22.12 17.04 22.1V3.56C17.04 3.32 17.04 3.06 17.04 2.78C17.04 2.5 17.06 2.22 17.1 1.94C17.14 1.66 17.2 1.4 17.28 1.16C17.36 0.92 17.47 0.73 17.61 0.59C17.83 0.37 18.06 0.239999 18.3 0.2C18.54 0.14 18.8 0.109999 19.08 0.109999C19.42 0.109999 19.73 0.209999 20.01 0.409999C20.31 0.589999 20.52 0.849999 20.64 1.19C20.82 1.61 20.92 2.05 20.94 2.51C20.96 2.97 20.98 3.43 21 3.89V4.04C21.04 5.58 21.05 7.16 21.03 8.78C21.01 10.4 21 11.93 21 13.37V20.96C21 21.14 21 21.32 21 21.5C21.02 21.68 21.02 21.86 21 22.04Z" fill="#E3E551"/>
<path d="M42.7786 21.83C43.0986 21.85 43.3786 21.93 43.6186 22.07C43.8586 22.19 44.0286 22.41 44.1286 22.73C44.3486 23.47 44.0886 23.97 43.3486 24.23C43.1086 24.33 42.8586 24.39 42.5986 24.41C42.3586 24.43 42.1386 24.44 41.9386 24.44H28.2886C27.8886 24.44 27.4686 24.44 27.0286 24.44C26.5886 24.44 26.1486 24.43 25.7086 24.41C25.1686 24.39 24.7886 24.22 24.5686 23.9C24.3686 23.58 24.2486 23.19 24.2086 22.73L24.0886 20.75C24.0686 20.53 24.0686 20.27 24.0886 19.97C24.1286 19.65 24.2386 19.38 24.4186 19.16C24.6986 18.88 25.0186 18.7 25.3786 18.62C25.7386 18.54 26.1386 18.5 26.5786 18.5H27.5086C27.6086 18.5 27.6886 18.51 27.7486 18.53C27.8086 18.53 27.8686 18.53 27.9286 18.53H40.7086V17.48H27.6286C27.5286 17.48 27.4186 17.48 27.2986 17.48C27.1986 17.46 27.0886 17.46 26.9686 17.48H26.2486C26.0486 17.48 25.8686 17.48 25.7086 17.48C25.5486 17.48 25.3886 17.46 25.2286 17.42C25.0486 17.38 24.8786 17.34 24.7186 17.3C24.5786 17.26 24.4586 17.16 24.3586 17C24.2386 16.78 24.1586 16.57 24.1186 16.37C24.0786 16.17 24.0986 15.95 24.1786 15.71C24.2386 15.55 24.3286 15.43 24.4486 15.35C24.5686 15.25 24.7086 15.17 24.8686 15.11C25.0286 15.05 25.1786 15.01 25.3186 14.99C25.4786 14.95 25.6186 14.92 25.7386 14.9C25.8986 14.88 26.0486 14.87 26.1886 14.87C26.3486 14.85 26.5086 14.84 26.6686 14.84H27.1786C27.2786 14.86 27.3686 14.87 27.4486 14.87C27.5486 14.87 27.6486 14.87 27.7486 14.87H41.0086C42.0286 14.87 42.8086 15.03 43.3486 15.35C43.8886 15.65 44.1586 16.15 44.1586 16.85V18.95C44.1586 19.23 44.0886 19.5 43.9486 19.76C43.8286 20.02 43.6086 20.25 43.2886 20.45C43.0286 20.61 42.7686 20.7 42.5086 20.72C42.2486 20.72 41.9886 20.72 41.7286 20.72H27.7786V21.83H42.7786ZM23.3086 12.8C23.0286 12.68 22.8286 12.45 22.7086 12.11C22.5486 11.71 22.5186 11.31 22.6186 10.91C22.7386 10.51 22.9186 10.13 23.1586 9.77C23.3986 9.41 23.6686 9.07 23.9686 8.75C24.2886 8.43 24.5586 8.13 24.7786 7.85C25.1186 7.43 25.4586 7.01 25.7986 6.59C26.1386 6.17 26.4786 5.74 26.8186 5.3C26.9386 5.14 27.0786 4.97 27.2386 4.79C27.3986 4.61 27.5486 4.42 27.6886 4.22C27.8486 4.02 27.9786 3.82 28.0786 3.62C28.1786 3.42 28.2386 3.21 28.2586 2.99C28.2786 2.65 28.2986 2.32 28.3186 2C28.3386 1.66 28.3986 1.36 28.4986 1.1C28.5986 0.819999 28.7586 0.6 28.9786 0.440001C29.2186 0.28 29.5586 0.2 29.9986 0.2C30.3186 0.2 30.6286 0.24 30.9286 0.32C31.2286 0.379999 31.4486 0.569999 31.5886 0.89C31.7286 1.25 31.7686 1.65 31.7086 2.09C31.6686 2.51 31.7086 2.91 31.8286 3.29C31.9286 3.63 32.0986 3.93 32.3386 4.19C32.5786 4.43 32.7786 4.69 32.9386 4.97C33.2786 5.59 33.6786 6.14 34.1386 6.62C34.5986 7.1 35.0286 7.62 35.4286 8.18C35.7486 8.6 36.0486 9.04 36.3286 9.5C36.6286 9.94 36.8286 10.42 36.9286 10.94C37.0286 11.38 36.9786 11.76 36.7786 12.08C36.5986 12.38 36.3486 12.6 36.0286 12.74C35.7086 12.88 35.3586 12.93 34.9786 12.89C34.5986 12.83 34.2686 12.66 33.9886 12.38C33.2486 11.62 32.5686 10.84 31.9486 10.04C31.3486 9.22 30.7286 8.39 30.0886 7.55C30.0886 7.55 29.9986 7.65 29.8186 7.85C29.6386 8.03 29.4086 8.27 29.1286 8.57C28.8486 8.85 28.5486 9.17 28.2286 9.53C27.9086 9.87 27.6086 10.2 27.3286 10.52C27.0486 10.84 26.7986 11.12 26.5786 11.36C26.3586 11.58 26.2286 11.72 26.1886 11.78C25.9686 12.04 25.7386 12.27 25.4986 12.47C25.2586 12.67 24.9686 12.81 24.6286 12.89C24.4086 12.93 24.1786 12.95 23.9386 12.95C23.7186 12.95 23.5086 12.9 23.3086 12.8ZM44.0686 11.27C44.0486 11.49 44.0186 11.72 43.9786 11.96C43.9586 12.18 43.8886 12.4 43.7686 12.62C43.6286 12.88 43.4586 13.07 43.2586 13.19C42.9786 13.41 42.6486 13.52 42.2686 13.52C41.9686 13.52 41.6886 13.44 41.4286 13.28C41.1486 13.12 40.9286 12.87 40.7686 12.53C40.6086 12.19 40.5286 11.88 40.5286 11.6V8.36C40.1886 8.36 39.8386 8.35 39.4786 8.33C39.1386 8.29 38.8586 8.25 38.6386 8.21C38.0586 8.13 37.5786 7.96 37.1986 7.7C36.8386 7.42 36.7086 6.95 36.8086 6.29C36.8886 5.85 37.0186 5.52 37.1986 5.3C37.3986 5.06 37.7186 4.93 38.1586 4.91C38.2986 4.91 38.4286 4.91 38.5486 4.91C38.6886 4.89 38.8386 4.88 38.9986 4.88C39.2386 4.88 39.4886 4.88 39.7486 4.88C40.0086 4.86 40.2686 4.85 40.5286 4.85V2.6C40.5286 2.56 40.5186 2.46 40.4986 2.3C40.4986 2.14 40.4986 1.97 40.4986 1.79C40.4986 1.59 40.5086 1.4 40.5286 1.22C40.5686 1.02 40.6186 0.86 40.6786 0.74C40.7786 0.56 40.9286 0.41 41.1286 0.290001C41.3286 0.15 41.5686 0.06 41.8486 0.0200005C42.1886 -0.0200001 42.4986 -3.94881e-07 42.7786 0.0799998C43.0786 0.16 43.3086 0.29 43.4686 0.47C43.7486 0.77 43.9286 1.08 44.0086 1.4C44.0686 1.6 44.0986 1.89 44.0986 2.27C44.1186 2.65 44.1186 2.95 44.0986 3.17V4.79C44.0986 5.99 44.0986 7.11 44.0986 8.15C44.0986 9.17 44.0886 10.21 44.0686 11.27Z" fill="#E3E551"/>
<path d="M55.9331 23.78C55.6931 23.78 55.4631 23.74 55.2431 23.66C55.0231 23.58 54.8331 23.47 54.6731 23.33C54.5131 23.19 54.3931 23.02 54.3131 22.82C54.2331 22.62 54.2131 22.39 54.2531 22.13C54.1331 21.77 54.1231 21.45 54.2231 21.17C54.3231 20.87 54.4531 20.57 54.6131 20.27H54.5831C55.2831 18.71 55.9631 17.18 56.6231 15.68C57.3031 14.16 58.0131 12.65 58.7531 11.15C59.4131 9.75 60.0231 8.43 60.5831 7.19C61.1431 5.95 61.6931 4.73 62.2331 3.53C62.3331 3.31 62.4531 3.09 62.5931 2.87C62.7331 2.65 62.8931 2.48 63.0731 2.36C63.2531 2.22 63.4631 2.13 63.7031 2.09C63.9431 2.05 64.2331 2.1 64.5731 2.24C65.0931 2.46 65.4731 2.77 65.7131 3.17C65.9731 3.57 66.0531 4.03 65.9531 4.55C65.6731 5.27 65.4431 5.86 65.2631 6.32C65.1031 6.76 64.9331 7.17 64.7531 7.55C64.5931 7.93 64.4131 8.32 64.2131 8.72C64.0131 9.12 63.7531 9.64 63.4331 10.28C63.1331 10.92 62.7531 11.73 62.2931 12.71C61.8531 13.67 61.2931 14.91 60.6131 16.43C60.2531 17.25 59.8831 18.03 59.5031 18.77C59.1431 19.51 58.7831 20.25 58.4231 20.99C58.3031 21.21 58.1731 21.48 58.0331 21.8C57.8931 22.1 57.7431 22.43 57.5831 22.79C57.4231 23.13 57.1931 23.38 56.8931 23.54C56.5931 23.7 56.2731 23.78 55.9331 23.78Z" fill="#E3E551"/>
<path d="M93.7416 9.47C94.1216 9.67 94.4916 9.91 94.8516 10.19C95.2116 10.45 95.5516 10.73 95.8716 11.03C96.0316 11.19 96.1416 11.39 96.2016 11.63C96.2616 11.87 96.2616 12.11 96.2016 12.35C96.1616 12.59 96.0616 12.81 95.9016 13.01C95.7616 13.19 95.5716 13.31 95.3316 13.37C94.6916 13.53 94.0216 13.52 93.3216 13.34C92.6416 13.16 92.0116 12.93 91.4316 12.65C90.8916 12.37 90.3916 12.11 89.9316 11.87C89.4716 11.61 89.0116 11.34 88.5516 11.06C88.4116 10.96 88.2216 10.85 87.9816 10.73C87.7616 10.59 87.5416 10.45 87.3216 10.31C87.0616 10.15 86.7816 9.99 86.4816 9.83C86.1416 10.01 85.8116 10.18 85.4916 10.34C85.2116 10.48 84.9316 10.62 84.6516 10.76C84.3916 10.88 84.1816 10.99 84.0216 11.09C83.5016 11.39 83.0216 11.65 82.5816 11.87C82.1416 12.09 81.6616 12.34 81.1416 12.62C80.7416 12.82 80.3316 13.04 79.9116 13.28C79.5116 13.5 79.0816 13.59 78.6216 13.55C78.2616 13.51 77.9116 13.4 77.5716 13.22C77.2316 13.04 77.0216 12.73 76.9416 12.29C76.9016 12.05 76.9216 11.79 77.0016 11.51C77.0816 11.17 77.2116 10.89 77.3916 10.67C77.5916 10.45 77.8316 10.25 78.1116 10.07L80.1816 8.9C80.5216 8.7 80.8216 8.54 81.0816 8.42C81.3416 8.28 81.6516 8.11 82.0116 7.91C82.3516 7.71 82.7416 7.49 83.1816 7.25C83.6416 6.99 84.0716 6.78 84.4716 6.62V4.19H81.2916C80.9716 4.19 80.6916 4.2 80.4516 4.22C80.2316 4.22 79.9716 4.2 79.6716 4.16C79.4516 4.12 79.2116 4.1 78.9516 4.1C78.6916 4.1 78.4516 4.04 78.2316 3.92C78.0116 3.8 77.8316 3.59 77.6916 3.29C77.5716 3.07 77.5016 2.81 77.4816 2.51C77.4616 2.21 77.5016 1.94 77.6016 1.7C77.7616 1.34 78.0216 1.07 78.3816 0.89C78.7416 0.71 79.1116 0.62 79.4916 0.62H80.1816C80.5016 0.64 80.7316 0.65 80.8716 0.65C81.0316 0.63 81.2716 0.62 81.5916 0.62H91.9716C92.2916 0.62 92.6616 0.61 93.0816 0.59C93.5016 0.569999 93.9016 0.599999 94.2816 0.679999C94.6816 0.759999 95.0316 0.91 95.3316 1.13C95.6516 1.35 95.8616 1.7 95.9616 2.18C96.0816 2.74 95.9916 3.17 95.6916 3.47C95.4116 3.75 95.0416 3.96 94.5816 4.1C94.1416 4.22 93.6716 4.29 93.1716 4.31C92.6716 4.31 92.2616 4.3 91.9416 4.28C91.6216 4.26 91.2816 4.25 90.9216 4.25C90.5816 4.23 90.2516 4.22 89.9316 4.22C89.5716 4.22 89.2116 4.23 88.8516 4.25V6.68C89.1316 6.84 89.3916 6.98 89.6316 7.1C89.7516 7.16 89.8616 7.23 89.9616 7.31C90.0816 7.37 90.2016 7.44 90.3216 7.52C90.5216 7.62 90.7116 7.72 90.8916 7.82C91.0916 7.92 91.2916 8.03 91.4916 8.15C91.8716 8.37 92.2416 8.59 92.6016 8.81C92.9816 9.03 93.3616 9.25 93.7416 9.47ZM78.2916 18.92C77.8316 18.9 77.3916 18.84 76.9716 18.74C76.5716 18.62 76.2416 18.36 75.9816 17.96C75.7616 17.62 75.6516 17.26 75.6516 16.88C75.6716 16.48 75.8216 16.14 76.1016 15.86C76.2616 15.7 76.4616 15.58 76.7016 15.5C76.9416 15.42 77.1716 15.36 77.3916 15.32C77.6116 15.28 77.8016 15.26 77.9616 15.26C78.1416 15.26 78.2416 15.26 78.2616 15.26H94.6116C94.9316 15.24 95.2716 15.24 95.6316 15.26C96.0116 15.28 96.3616 15.35 96.6816 15.47C97.0016 15.57 97.2716 15.75 97.4916 16.01C97.7116 16.25 97.8216 16.59 97.8216 17.03C97.8216 17.53 97.6516 17.91 97.3116 18.17C96.9716 18.41 96.5616 18.59 96.0816 18.71C95.6216 18.81 95.1416 18.87 94.6416 18.89C94.1416 18.89 93.7316 18.89 93.4116 18.89H92.2416C91.8416 18.91 91.4516 18.92 91.0716 18.92C90.6916 18.9 90.3016 18.89 89.9016 18.89H88.7616C88.7816 19.45 88.8016 20.04 88.8216 20.66C88.8416 21.28 88.8116 21.83 88.7316 22.31C88.6916 22.69 88.5916 23.05 88.4316 23.39C88.2916 23.75 88.0516 24.04 87.7116 24.26C87.4116 24.46 87.0616 24.56 86.6616 24.56C86.2616 24.58 85.9016 24.5 85.5816 24.32C85.3216 24.16 85.1216 23.93 84.9816 23.63C84.8616 23.33 84.7816 23.04 84.7416 22.76C84.7016 22.54 84.6816 22.3 84.6816 22.04C84.7016 21.78 84.7116 21.54 84.7116 21.32C84.6916 20.96 84.6816 20.57 84.6816 20.15C84.6816 19.71 84.6816 19.28 84.6816 18.86H83.9316C83.3716 18.86 82.8616 18.87 82.4016 18.89C81.9616 18.89 81.5316 18.9 81.1116 18.92C80.6916 18.92 80.2516 18.92 79.7916 18.92C79.3516 18.92 78.8516 18.92 78.2916 18.92Z" fill="#E3E551"/>
<path d="M117.51 13.49C117.41 13.49 117.19 13.48 116.85 13.46C116.51 13.44 116.26 13.43 116.1 13.43C115.9 13.43 115.71 13.43 115.53 13.43C115.37 13.41 115.21 13.38 115.05 13.34C114.89 13.34 114.73 13.32 114.57 13.28C114.43 13.24 114.28 13.19 114.12 13.13C113.86 12.99 113.65 12.82 113.49 12.62C113.39 12.48 113.3 12.35 113.22 12.23C113.16 12.11 113.13 11.97 113.13 11.81C113.09 11.57 113.1 11.29 113.16 10.97C113.24 10.65 113.35 10.41 113.49 10.25C113.55 10.15 113.6 10.07 113.64 10.01C113.7 9.95 113.77 9.88 113.85 9.8C113.97 9.7 114.1 9.63 114.24 9.59C114.38 9.53 114.51 9.48 114.63 9.44C114.85 9.4 115.05 9.38 115.23 9.38C115.43 9.38 115.62 9.38 115.8 9.38H117.57V7.22C117.57 6.98 117.56 6.76 117.54 6.56C117.52 6.36 117.51 6.15 117.51 5.93C117.51 5.45 117.51 4.98 117.51 4.52C117.51 4.04 117.53 3.56 117.57 3.08C117.57 2.78 117.59 2.47 117.63 2.15C117.69 1.83 117.77 1.53 117.87 1.25C117.95 1.01 118.09 0.78 118.29 0.559999C118.55 0.32 118.85 0.2 119.19 0.2H119.25C119.67 0.2 120.01 0.28 120.27 0.440001C120.53 0.58 120.74 0.78 120.9 1.04C121.08 1.28 121.2 1.56 121.26 1.88C121.34 2.2 121.39 2.52 121.41 2.84C121.47 3.36 121.5 3.9 121.5 4.46C121.5 5.02 121.5 5.57 121.5 6.11V19.28C121.5 19.96 121.51 20.66 121.53 21.38C121.55 22.08 121.45 22.75 121.23 23.39C121.13 23.65 121 23.86 120.84 24.02C120.78 24.06 120.69 24.11 120.57 24.17C120.45 24.23 120.33 24.28 120.21 24.32C120.09 24.36 119.97 24.39 119.85 24.41C119.75 24.43 119.65 24.44 119.55 24.44C119.09 24.44 118.72 24.3 118.44 24.02C118.18 23.76 117.98 23.44 117.84 23.06C117.7 22.66 117.61 22.25 117.57 21.83C117.53 21.41 117.51 21.04 117.51 20.72V19.64C117.51 19.28 117.51 18.88 117.51 18.44C117.51 17.98 117.51 17.52 117.51 17.06C117.53 16.58 117.54 16.12 117.54 15.68C117.54 15.22 117.53 14.8 117.51 14.42V13.49ZM107.16 19.1C107.14 18.86 107.13 18.62 107.13 18.38C107.13 18.14 107.13 17.9 107.13 17.66V8.12C107.13 7.8 107.13 7.48 107.13 7.16C107.13 6.84 107.11 6.51 107.07 6.17C107.05 6.07 107.02 5.93 106.98 5.75C106.96 5.57 106.9 5.46 106.8 5.42C106.7 5.36 106.58 5.34 106.44 5.36C106.32 5.36 106.2 5.35 106.08 5.33C105.94 5.31 105.8 5.31 105.66 5.33C105.54 5.35 105.41 5.35 105.27 5.33H103.86C103.52 5.35 103.18 5.35 102.84 5.33C102.5 5.31 102.16 5.31 101.82 5.33C101.66 5.35 101.51 5.36 101.37 5.36C101.25 5.34 101.11 5.33 100.95 5.33C100.73 5.33 100.5 5.32 100.26 5.3C100.02 5.28 99.8005 5.2 99.6005 5.06C99.3205 4.86 99.1305 4.61 99.0305 4.31C98.9305 4.01 98.8805 3.7 98.8805 3.38C98.8605 3 98.9405 2.62 99.1205 2.24C99.2205 2 99.3505 1.83 99.5105 1.73C99.6105 1.63 99.7505 1.55 99.9305 1.49C100.13 1.41 100.3 1.35 100.44 1.31C100.86 1.21 101.3 1.16 101.76 1.16C102.22 1.14 102.67 1.13 103.11 1.13H108.33C108.59 1.17 108.86 1.21 109.14 1.25C109.44 1.27 109.71 1.33 109.95 1.43C110.11 1.49 110.26 1.57 110.4 1.67C110.56 1.77 110.69 1.89 110.79 2.03C110.97 2.31 111.07 2.59 111.09 2.87C111.13 3.15 111.17 3.46 111.21 3.8C111.25 4.36 111.27 4.92 111.27 5.48C111.27 6.02 111.27 6.57 111.27 7.13V16.97C111.27 16.99 111.27 17.15 111.27 17.45C111.29 17.73 111.3 18.07 111.3 18.47C111.3 18.85 111.3 19.26 111.3 19.7C111.3 20.12 111.29 20.49 111.27 20.81C111.25 21.01 111.22 21.22 111.18 21.44C111.14 21.66 111.07 21.87 110.97 22.07C110.89 22.27 110.77 22.45 110.61 22.61C110.45 22.77 110.24 22.9 109.98 23C109.64 23.14 109.3 23.21 108.96 23.21C108.7 23.21 108.44 23.16 108.18 23.06C107.92 22.94 107.74 22.77 107.64 22.55C107.32 21.91 107.16 21.2 107.16 20.42V19.1Z" fill="#E3E551"/>
</svg>
