<svg width="142" height="45" viewBox="0 0 142 45" fill="none" xmlns="http://www.w3.org/2000/svg">
<g filter="url(#filter0_d_97_78)">
<path d="M36.6678 9.35C36.4011 10.15 36.0511 11.2 35.6178 12.5C35.2178 13.7667 34.7678 15.1667 34.2678 16.7C33.7678 18.2333 33.2511 19.8667 32.7178 21.6C32.1844 23.3 31.6344 24.9667 31.0678 26.6C30.5344 28.2333 30.0011 29.8 29.4678 31.3C28.9344 32.7667 28.4511 34.05 28.0178 35.15C27.8844 35.4167 27.6011 35.6333 27.1678 35.8C26.7678 35.9333 26.1178 36 25.2178 36C24.6511 36 24.0678 35.9667 23.4678 35.9C22.8678 35.8333 22.3011 35.7 21.7678 35.5C21.2678 35.3 20.8178 35.0333 20.4178 34.7C20.0511 34.3667 19.7678 33.95 19.5678 33.45C19.0678 31.75 18.5844 29.8667 18.1178 27.8C17.6844 25.7 17.2511 23.5667 16.8178 21.4C16.3844 19.2333 15.9511 17.1167 15.5178 15.05C15.1178 12.95 14.7011 11.05 14.2678 9.35C14.2678 9.81667 14.2511 10.6167 14.2178 11.75C14.1844 12.8833 14.1511 14.2 14.1178 15.7C14.0844 17.2 14.0344 18.8167 13.9678 20.55C13.9344 22.2833 13.9011 23.9833 13.8678 25.65C13.8344 27.2833 13.8011 28.8167 13.7678 30.25C13.7344 31.65 13.7178 32.8 13.7178 33.7C13.7178 34.7 13.6511 35.3333 13.5178 35.6C13.4178 35.8667 13.2178 36 12.9178 36H10.1678C8.26777 36 6.91777 35.6333 6.11777 34.9C5.35111 34.1333 4.96777 33.0167 4.96777 31.55C4.96777 31.15 4.98444 30.4833 5.01777 29.55C5.08444 28.5833 5.16777 27.45 5.26777 26.15C5.36777 24.85 5.46777 23.4333 5.56777 21.9C5.70111 20.3333 5.83444 18.75 5.96777 17.15C6.13444 14.9833 6.26777 13.1833 6.36777 11.75C6.50111 10.2833 6.60111 9.06667 6.66777 8.1C6.73444 7.13333 6.78444 6.35 6.81777 5.75C6.88444 5.15 6.91777 4.61667 6.91777 4.15C6.95111 3.68333 6.96777 3.25 6.96777 2.85C7.00111 2.41667 7.01777 1.88333 7.01777 1.25C7.01777 0.983334 7.11777 0.800001 7.31777 0.7C7.51777 0.566667 7.70111 0.5 7.86777 0.5H14.8678C16.1678 0.5 17.2344 0.716667 18.0678 1.15C18.9011 1.55 19.5844 2.18333 20.1178 3.05C20.6511 3.91667 21.0844 5.05 21.4178 6.45C21.7511 7.81667 22.0511 9.45 22.3178 11.35C22.6178 13.25 22.9344 15.45 23.2678 17.95C23.6344 20.4167 24.1011 23.2 24.6678 26.3C25.2011 24.2333 25.6511 22.5167 26.0178 21.15C26.3844 19.7833 26.6844 18.65 26.9178 17.75C27.1844 16.8167 27.4011 16.05 27.5678 15.45C27.7344 14.85 27.8844 14.3 28.0178 13.8C28.1511 13.2667 28.3011 12.7 28.4678 12.1C28.6344 11.5 28.8344 10.75 29.0678 9.85C29.3011 8.95 29.5844 7.83333 29.9178 6.5C30.2844 5.13333 30.7344 3.41667 31.2678 1.35C31.3344 1.15 31.4511 0.966666 31.6178 0.799999C31.7844 0.6 32.0844 0.5 32.5178 0.5H40.3178C41.3844 0.5 42.2344 0.616667 42.8678 0.850001C43.5344 1.05 44.0511 1.35 44.4178 1.75C44.7844 2.15 45.0344 2.65 45.1678 3.25C45.3011 3.81667 45.3678 4.48333 45.3678 5.25C45.3678 6.01667 45.3178 7.26667 45.2178 9C45.1511 10.7 45.0344 12.6333 44.8678 14.8C44.7344 16.9333 44.5844 19.15 44.4178 21.45C44.2844 23.75 44.1344 25.8833 43.9678 27.85C43.8344 29.8167 43.7178 31.4833 43.6178 32.85C43.5178 34.2167 43.4511 35.0167 43.4178 35.25C43.3844 35.5167 43.3178 35.7167 43.2178 35.85C43.1178 35.95 42.9178 36 42.6178 36H39.8678C37.9678 36 36.6178 35.6333 35.8178 34.9C35.0511 34.1333 34.6678 33.15 34.6678 31.95C34.6678 31.5833 34.7011 30.9167 34.7678 29.95C34.8678 28.9833 34.9844 27.85 35.1178 26.55C35.2511 25.25 35.4011 23.8333 35.5678 22.3C35.7344 20.7333 35.8844 19.1833 36.0178 17.65C36.1511 16.1167 36.2678 14.6333 36.3678 13.2C36.5011 11.7333 36.6011 10.45 36.6678 9.35Z" fill="#EDA1A1"/>
<path d="M55.3522 36C53.4855 36 52.1522 35.6333 51.3522 34.9C50.5522 34.1667 50.1522 33.1167 50.1522 31.75C50.1522 31.0833 50.2022 29.95 50.3022 28.35C50.4022 26.7167 50.5355 24.8667 50.7022 22.8C50.8689 20.7333 51.0355 18.55 51.2022 16.25C51.3689 13.95 51.5355 11.7833 51.7022 9.75C51.8689 7.71667 52.0022 5.93333 52.1022 4.4C52.2022 2.86667 52.2522 1.81667 52.2522 1.25C52.2522 0.75 52.5189 0.5 53.0522 0.5H70.6522C70.8522 0.5 71.0355 0.55 71.2022 0.650001C71.3689 0.75 71.4522 0.933333 71.4522 1.2L71.2522 4.15C71.1855 5.15 70.9022 5.96667 70.4022 6.6C69.9355 7.2 68.9522 7.5 67.4522 7.5H60.5522L60.0522 14.55H67.1522C67.3522 14.55 67.5355 14.6 67.7022 14.7C67.8689 14.8 67.9522 14.9833 67.9522 15.25L67.7522 18.2C67.6855 19.2 67.4022 20.0167 66.9022 20.65C66.4355 21.25 65.4522 21.55 63.9522 21.55H59.6022L59.0522 29H70.0522C70.2522 29 70.4355 29.0667 70.6022 29.2C70.7688 29.3 70.8522 29.4667 70.8522 29.7L70.6522 32.65C70.5855 33.65 70.3022 34.4667 69.8022 35.1C69.3355 35.7 68.3522 36 66.8522 36H55.3522Z" fill="#EDA1A1"/>
<path d="M97.3753 36C96.0086 36 94.9919 35.8 94.3253 35.4C93.6586 35 93.1753 34.5 92.8753 33.9C91.1419 30.3333 89.5086 26.9167 87.9753 23.65C86.4753 20.3833 84.9419 17.0833 83.3753 13.75C83.4086 17.35 83.4586 20.9333 83.5253 24.5C83.5919 28.0667 83.6586 31.65 83.7253 35.25C83.7253 35.75 83.4586 36 82.9253 36H80.1753C78.2753 36 76.9253 35.6333 76.1253 34.9C75.3586 34.1333 74.9753 33.0167 74.9753 31.55C74.9753 31.15 74.9919 30.4833 75.0253 29.55C75.0919 28.5833 75.1753 27.45 75.2753 26.15C75.3753 24.85 75.4753 23.4333 75.5753 21.9C75.7086 20.3333 75.8419 18.75 75.9753 17.15C76.1753 14.6167 76.3419 12.5167 76.4753 10.85C76.6086 9.18333 76.7086 7.78333 76.7753 6.65C76.8753 5.48333 76.9419 4.5 76.9753 3.7C77.0086 2.86667 77.0419 2.05 77.0753 1.25C77.0753 0.75 77.3419 0.5 77.8753 0.5H81.8753C82.9753 0.5 83.8753 0.633334 84.5753 0.900001C85.2753 1.13333 85.8419 1.46667 86.2753 1.9C86.7419 2.33333 87.1086 2.83333 87.3753 3.4C87.6419 3.93333 87.8919 4.5 88.1253 5.1C88.9253 7.16667 89.6253 8.95 90.2253 10.45C90.8586 11.95 91.4086 13.2667 91.8753 14.4C92.3419 15.5333 92.7419 16.5167 93.0753 17.35C93.4419 18.1833 93.7753 18.95 94.0753 19.65C94.3753 20.35 94.6753 21.0333 94.9753 21.7C95.2753 22.3333 95.5919 23.0333 95.9253 23.8C95.9253 21.8333 95.9086 19.8167 95.8753 17.75C95.8753 15.65 95.8586 13.6167 95.8253 11.65C95.8253 9.65 95.8086 7.73333 95.7753 5.9C95.7753 4.06667 95.7753 2.41667 95.7753 0.95C95.7753 0.65 96.0586 0.5 96.6253 0.5H99.3753C100.475 0.5 101.342 0.616667 101.975 0.850001C102.642 1.05 103.159 1.36667 103.525 1.8C103.892 2.2 104.125 2.7 104.225 3.3C104.359 3.9 104.425 4.58333 104.425 5.35C104.425 6.18333 104.375 7.46667 104.275 9.2C104.175 10.9 104.059 12.8167 103.925 14.95C103.792 17.0833 103.642 19.3 103.475 21.6C103.309 23.8667 103.142 25.9667 102.975 27.9C102.842 29.8333 102.709 31.4833 102.575 32.85C102.475 34.1833 102.409 34.9667 102.375 35.2C102.375 35.4667 102.275 35.6667 102.075 35.8C101.909 35.9333 101.709 36 101.475 36H97.3753Z" fill="#EDA1A1"/>
<path d="M136.773 19.7C136.673 20.7 136.523 21.8167 136.323 23.05C136.123 24.25 135.807 25.4833 135.373 26.75C134.973 27.9833 134.423 29.1833 133.723 30.35C133.023 31.5167 132.123 32.5667 131.023 33.5C129.923 34.4 128.59 35.1333 127.023 35.7C125.49 36.2333 123.657 36.5 121.523 36.5C119.357 36.5 117.507 36.2 115.973 35.6C114.44 34.9667 113.19 34.1167 112.223 33.05C111.257 31.95 110.557 30.6833 110.123 29.25C109.69 27.8167 109.473 26.2833 109.473 24.65C109.473 23.9167 109.507 22.9333 109.573 21.7C109.64 20.4333 109.723 19.0667 109.823 17.6C109.957 16.1333 110.09 14.6167 110.223 13.05C110.357 11.45 110.473 9.93333 110.573 8.5C110.707 7.06667 110.823 5.78333 110.923 4.65C111.023 3.48333 111.09 2.6 111.123 2C111.157 1.36667 111.24 0.966666 111.373 0.799999C111.507 0.6 111.707 0.5 111.973 0.5H114.723C116.757 0.5 118.123 0.933334 118.823 1.8C119.523 2.66667 119.873 3.95 119.873 5.65C119.873 5.75 119.84 6.2 119.773 7C119.74 7.76667 119.673 8.71667 119.573 9.85C119.507 10.9833 119.423 12.2167 119.323 13.55C119.257 14.8833 119.173 16.15 119.073 17.35C119.007 18.55 118.94 19.6 118.873 20.5C118.84 21.4 118.823 22 118.823 22.3C118.823 22.8667 118.84 23.5167 118.873 24.25C118.94 24.9833 119.073 25.6833 119.273 26.35C119.507 27.0167 119.857 27.5833 120.323 28.05C120.823 28.4833 121.523 28.7 122.423 28.7C123.557 28.7 124.473 28.3167 125.173 27.55C125.907 26.7833 126.457 25.8667 126.823 24.8C127.223 23.7333 127.49 22.65 127.623 21.55C127.79 20.45 127.907 19.55 127.973 18.85C128.107 17.15 128.24 15.4 128.373 13.6C128.54 11.8 128.673 10.1167 128.773 8.55C128.907 6.98333 129.007 5.61667 129.073 4.45C129.14 3.28333 129.173 2.48333 129.173 2.05C129.173 1.38333 129.223 0.966666 129.323 0.799999C129.423 0.6 129.64 0.5 129.973 0.5H132.723C133.857 0.5 134.74 0.6 135.373 0.799999C136.04 1 136.54 1.26667 136.873 1.6C137.207 1.93333 137.407 2.31667 137.473 2.75C137.573 3.18333 137.623 3.63333 137.623 4.1C137.623 4.53334 137.59 5.35 137.523 6.55C137.49 7.75 137.44 9.11667 137.373 10.65C137.307 12.1833 137.223 13.7667 137.123 15.4C137.023 17.0333 136.907 18.4667 136.773 19.7Z" fill="#EDA1A1"/>
</g>
<defs>
<filter id="filter0_d_97_78" x="0.967773" y="0.5" width="140.656" height="44" filterUnits="userSpaceOnUse" color-interpolation-filters="sRGB">
<feFlood flood-opacity="0" result="BackgroundImageFix"/>
<feColorMatrix in="SourceAlpha" type="matrix" values="0 0 0 0 0 0 0 0 0 0 0 0 0 0 0 0 0 0 127 0" result="hardAlpha"/>
<feOffset dy="4"/>
<feGaussianBlur stdDeviation="2"/>
<feComposite in2="hardAlpha" operator="out"/>
<feColorMatrix type="matrix" values="0 0 0 0 0 0 0 0 0 0 0 0 0 0 0 0 0 0 0.25 0"/>
<feBlend mode="normal" in2="BackgroundImageFix" result="effect1_dropShadow_97_78"/>
<feBlend mode="normal" in="SourceGraphic" in2="effect1_dropShadow_97_78" result="shape"/>
</filter>
</defs>
</svg>
