<svg width="150" height="48" viewBox="0 0 150 48" fill="none" xmlns="http://www.w3.org/2000/svg">
<ellipse cx="75" cy="24" rx="75" ry="24" fill="white"/>
<path d="M149 24C149 26.8581 147.189 29.7554 143.503 32.5444C139.833 35.3211 134.459 37.8644 127.728 40.0181C114.279 44.3219 95.6364 47 75 47C54.3636 47 35.7212 44.3219 22.2718 40.0181C15.5414 37.8644 10.1673 35.3211 6.49722 32.5444C2.81082 29.7554 1 26.8581 1 24C1 21.1419 2.81082 18.2446 6.49722 15.4556C10.1673 12.6789 15.5414 10.1356 22.2718 7.98186C35.7212 3.67806 54.3636 1 75 1C95.6364 1 114.279 3.67806 127.728 7.98186C134.459 10.1356 139.833 12.6789 143.503 15.4556C147.189 18.2446 149 21.1419 149 24Z" stroke="#FF1010" stroke-opacity="0.5" stroke-width="2"/>
</svg>
