<svg width="80" height="64" viewBox="0 0 80 64" fill="none" xmlns="http://www.w3.org/2000/svg">
<path d="M40.0001 42.105C39.2213 42.1062 38.4665 41.8927 37.8668 41.5016L17.8668 28.3834C17.186 27.9381 16.758 27.2982 16.6767 26.6044C16.5954 25.9107 16.8676 25.2199 17.4334 24.6841C17.9992 24.1483 18.8123 23.8114 19.6937 23.7474C20.5751 23.6835 21.4527 23.8977 22.1334 24.343L40.0001 36.0969L57.8668 24.7628C58.2077 24.5449 58.6001 24.3821 59.0212 24.2839C59.4423 24.1857 59.884 24.154 60.3207 24.1906C60.7575 24.2271 61.1808 24.3313 61.5662 24.497C61.9517 24.6628 62.2917 24.8869 62.5668 25.1564C62.872 25.4261 63.1032 25.7426 63.2459 26.086C63.3885 26.4293 63.4395 26.7922 63.3957 27.1518C63.3519 27.5114 63.2142 27.86 62.9913 28.1758C62.7683 28.4916 62.4649 28.7677 62.1001 28.9869L42.1001 41.659C41.4832 41.9883 40.7438 42.1454 40.0001 42.105Z" fill="#616161"/>
</svg>
