<svg width="142" height="32" viewBox="0 0 142 32" fill="none" xmlns="http://www.w3.org/2000/svg">
<g filter="url(#filter0_d_167_85)">
<path d="M19.9 15.125C20.0667 14.2417 20.2167 13.475 20.35 12.825C20.4833 12.1583 20.6 11.5417 20.7 10.975C20.8 10.4083 20.8917 9.85 20.975 9.3C21.075 8.73333 21.175 8.10833 21.275 7.425C21.3917 6.725 21.5167 5.93333 21.65 5.05C21.8 4.15 21.975 3.075 22.175 1.825C22.225 1.50833 22.3083 1.30833 22.425 1.225C22.5417 1.125 22.8333 1.075 23.3 1.075C23.4833 1.075 23.7583 1.09167 24.125 1.125C24.4917 1.14167 24.8583 1.21667 25.225 1.35C25.5917 1.46667 25.9083 1.65833 26.175 1.925C26.4583 2.175 26.6 2.53333 26.6 3C26.6 3.26667 26.55 3.68333 26.45 4.25C26.35 4.8 26.2083 5.44167 26.025 6.175C25.8583 6.89167 25.6583 7.675 25.425 8.525C25.2083 9.375 24.9833 10.2333 24.75 11.1C24.5167 11.9667 24.275 12.8083 24.025 13.625C23.7917 14.4417 23.5667 15.1833 23.35 15.85C23.15 16.5 22.9667 17.05 22.8 17.5C22.6333 17.95 22.5167 18.2417 22.45 18.375C22.35 18.5583 22.2083 18.6833 22.025 18.75C21.8417 18.8167 21.6583 18.85 21.475 18.85H19.1C18.6667 18.85 18.3 18.7667 18 18.6C17.7167 18.4333 17.475 18.2167 17.275 17.95C17.0917 17.6833 16.9417 17.3833 16.825 17.05C16.725 16.7167 16.6583 16.375 16.625 16.025L15.375 4.8C15.275 5.53333 15.1583 6.35833 15.025 7.275C14.9083 8.19167 14.775 9.125 14.625 10.075C14.4917 11.025 14.3583 11.9583 14.225 12.875C14.0917 13.7917 13.9583 14.6333 13.825 15.4C13.6917 16.15 13.5667 16.7917 13.45 17.325C13.3333 17.8583 13.2333 18.2083 13.15 18.375C13.0667 18.5583 12.9333 18.6833 12.75 18.75C12.5667 18.8167 12.375 18.85 12.175 18.85H9.8C9.38333 18.85 9.03333 18.775 8.75 18.625C8.48333 18.4583 8.25833 18.2417 8.075 17.975C7.89167 17.7083 7.74167 17.4083 7.625 17.075C7.50833 16.725 7.40833 16.375 7.325 16.025C6.64167 13.3083 6.08333 11.075 5.65 9.325C5.23333 7.575 4.9 6.175 4.65 5.125C4.4 4.05833 4.225 3.28333 4.125 2.8C4.04167 2.3 4 1.94167 4 1.725C4 1.44167 4.08333 1.25833 4.25 1.175C4.43333 1.09167 4.80833 1.05 5.375 1.05C6.075 1.05 6.65833 1.1 7.125 1.2C7.60833 1.3 8 1.45833 8.3 1.675C8.6 1.875 8.825 2.15 8.975 2.5C9.14167 2.83333 9.25 3.24167 9.3 3.725C9.3 3.79167 9.30833 3.89167 9.325 4.025C9.34167 4.14167 9.35833 4.34167 9.375 4.625C9.40833 4.90833 9.45 5.3 9.5 5.8C9.56667 6.28333 9.64167 6.93333 9.725 7.75C9.825 8.56667 9.94167 9.58333 10.075 10.8C10.225 12 10.4 13.4417 10.6 15.125C10.7833 14.1083 10.925 13.2917 11.025 12.675C11.1417 12.0417 11.2417 11.4917 11.325 11.025C11.4083 10.5417 11.4833 10.0833 11.55 9.65C11.6167 9.2 11.6917 8.65 11.775 8C11.875 7.33333 11.9833 6.5 12.1 5.5C12.2333 4.5 12.4 3.2 12.6 1.6C12.6167 1.48333 12.6833 1.39167 12.8 1.325C12.9333 1.25833 13.0917 1.20833 13.275 1.175C13.4583 1.14167 13.6583 1.125 13.875 1.125C14.1083 1.10833 14.325 1.1 14.525 1.1C15.1917 1.1 15.7583 1.14167 16.225 1.225C16.6917 1.29167 17.075 1.41667 17.375 1.6C17.6917 1.78333 17.9417 2.03333 18.125 2.35C18.3083 2.65 18.4583 3.025 18.575 3.475C18.625 3.69167 18.6833 3.99167 18.75 4.375C18.8167 4.74167 18.8917 5.33333 18.975 6.15C19.075 6.96667 19.1917 8.09167 19.325 9.525C19.475 10.9417 19.6667 12.8083 19.9 15.125Z" fill="#E17373"/>
<path d="M35.7375 11.075C35.6375 11.075 35.5208 11.075 35.3875 11.075C35.2708 11.0583 35.1542 11.0417 35.0375 11.025C34.9208 10.9917 34.8208 10.9583 34.7375 10.925C34.6542 10.875 34.6125 10.8167 34.6125 10.75C34.6125 10.5333 34.6208 10.3333 34.6375 10.15C34.6542 9.96667 34.6625 9.775 34.6625 9.575C34.6625 9.20833 34.6125 8.90833 34.5125 8.675C34.4125 8.44167 34.2125 8.325 33.9125 8.325C33.4458 8.325 33.0542 8.63333 32.7375 9.25C32.4375 9.85 32.2458 10.7583 32.1625 11.975C32.1292 12.5083 32.0792 13.1167 32.0125 13.8C31.9625 14.4667 31.9125 15.1167 31.8625 15.75C31.8125 16.3667 31.7708 16.9167 31.7375 17.4C31.7042 17.8833 31.6875 18.2 31.6875 18.35C31.6875 18.5167 31.6292 18.6417 31.5125 18.725C31.3958 18.8083 31.2708 18.85 31.1375 18.85H30.2375C29.7208 18.85 29.2958 18.8 28.9625 18.7C28.6458 18.5833 28.3875 18.425 28.1875 18.225C28.0042 18.025 27.8708 17.7833 27.7875 17.5C27.7208 17.2 27.6875 16.8583 27.6875 16.475C27.6875 16.225 27.6958 15.875 27.7125 15.425C27.7458 14.9583 27.7958 14.325 27.8625 13.525C27.9292 12.7083 28.0042 11.6833 28.0875 10.45C28.1875 9.2 28.3042 7.65833 28.4375 5.825C28.4708 5.34167 28.6458 5.1 28.9625 5.1H29.9375C30.4042 5.1 30.7958 5.15 31.1125 5.25C31.4292 5.35 31.6875 5.49167 31.8875 5.675C32.0875 5.84167 32.2292 6.04167 32.3125 6.275C32.4125 6.50833 32.4792 6.75 32.5125 7C32.7125 6.61667 32.9458 6.29167 33.2125 6.025C33.4958 5.74167 33.7875 5.51667 34.0875 5.35C34.3875 5.16667 34.6958 5.04167 35.0125 4.975C35.3292 4.89167 35.6208 4.85 35.8875 4.85C36.2042 4.85 36.5208 4.90833 36.8375 5.025C37.1708 5.14167 37.4708 5.31667 37.7375 5.55C38.0042 5.78333 38.2125 6.08333 38.3625 6.45C38.5292 6.81667 38.6125 7.25 38.6125 7.75C38.6125 8.2 38.5458 8.625 38.4125 9.025C38.2792 9.425 38.0875 9.78333 37.8375 10.1C37.5875 10.4 37.2792 10.6417 36.9125 10.825C36.5625 10.9917 36.1708 11.075 35.7375 11.075Z" fill="#E17373"/>
<path d="M42.2004 18.85C41.6837 18.85 41.2587 18.8 40.9254 18.7C40.6087 18.5833 40.3504 18.425 40.1504 18.225C39.9671 18.025 39.8337 17.7833 39.7504 17.5C39.6837 17.2 39.6504 16.8583 39.6504 16.475C39.6504 16.225 39.6587 15.875 39.6754 15.425C39.7087 14.9583 39.7587 14.325 39.8254 13.525C39.8921 12.7083 39.9671 11.6833 40.0504 10.45C40.1504 9.2 40.2671 7.65833 40.4004 5.825C40.4171 5.45833 40.4587 5.24167 40.5254 5.175C40.5754 5.125 40.7087 5.1 40.9254 5.1H41.9004C42.4171 5.1 42.8337 5.15 43.1504 5.25C43.4837 5.35 43.7421 5.5 43.9254 5.7C44.1254 5.9 44.2587 6.14167 44.3254 6.425C44.4087 6.70833 44.4504 7.025 44.4504 7.375C44.4504 7.625 44.4337 8 44.4004 8.5C44.3671 9 44.3171 9.68333 44.2504 10.55C44.2004 11.4 44.1254 12.4667 44.0254 13.75C43.9254 15.0167 43.8004 16.55 43.6504 18.35C43.6337 18.55 43.5921 18.6833 43.5254 18.75C43.4587 18.8167 43.3171 18.85 43.1004 18.85H42.2004ZM40.4254 2.15C40.4254 1.48333 40.6671 0.958333 41.1504 0.575C41.6337 0.191667 42.2837 0 43.1004 0C43.8171 0 44.3337 0.15 44.6504 0.449999C44.9837 0.733332 45.1504 1.11667 45.1504 1.6C45.1504 2.21667 44.9171 2.73333 44.4504 3.15C44.0004 3.55 43.3337 3.75 42.4504 3.75C41.1004 3.75 40.4254 3.21667 40.4254 2.15Z" fill="#E17373"/>
<path d="M52.0316 8.475C51.9816 9.10833 51.9233 9.73333 51.8566 10.35C51.8066 10.9667 51.7566 11.55 51.7066 12.1C51.6566 12.65 51.615 13.1417 51.5816 13.575C51.565 14.0083 51.5566 14.3417 51.5566 14.575C51.5566 15.0083 51.6066 15.3 51.7066 15.45C51.8066 15.5833 51.9733 15.65 52.2066 15.65C52.39 15.65 52.5483 15.6167 52.6816 15.55C52.815 15.4833 52.94 15.4083 53.0566 15.325C53.1733 15.2417 53.2733 15.1667 53.3566 15.1C53.4566 15.0333 53.565 15 53.6816 15C53.7983 15 53.9066 15.0667 54.0066 15.2C54.1066 15.3333 54.1566 15.6417 54.1566 16.125C54.1566 17.0417 53.9066 17.7667 53.4066 18.3C52.9066 18.8333 52.0483 19.1 50.8316 19.1C49.6316 19.1 48.74 18.825 48.1566 18.275C47.59 17.7083 47.3066 16.85 47.3066 15.7C47.3066 15.45 47.315 15.1583 47.3316 14.825C47.365 14.475 47.4066 14.025 47.4566 13.475C47.5066 12.925 47.565 12.25 47.6316 11.45C47.715 10.65 47.7983 9.65833 47.8816 8.475H46.5566C46.4233 8.475 46.34 8.45 46.3066 8.4C46.29 8.33333 46.2816 8.24167 46.2816 8.125L46.3566 6.85C46.3733 6.63333 46.3983 6.425 46.4316 6.225C46.4816 6.00833 46.565 5.81667 46.6816 5.65C46.815 5.48333 46.9983 5.35 47.2316 5.25C47.465 5.15 47.7733 5.1 48.1566 5.1C48.2733 4.8 48.4066 4.44167 48.5566 4.025C48.7066 3.60833 48.8566 3.20833 49.0066 2.825C49.1566 2.425 49.2983 2.09167 49.4316 1.825C49.5816 1.55833 49.715 1.425 49.8316 1.425H50.5566C51.2566 1.425 51.74 1.64167 52.0066 2.075C52.2733 2.50833 52.4066 3.025 52.4066 3.625C52.4066 3.95833 52.3816 4.45 52.3316 5.1H54.9566C55.2233 5.1 55.3566 5.21667 55.3566 5.45L55.2566 6.8C55.2233 7.3 55.0816 7.70833 54.8316 8.025C54.5983 8.325 54.1066 8.475 53.3566 8.475H52.0316Z" fill="#E17373"/>
<path d="M62.2461 19.1C61.5128 19.1 60.7794 19.0083 60.0461 18.825C59.3294 18.6417 58.6794 18.325 58.0961 17.875C57.5294 17.425 57.0628 16.825 56.6961 16.075C56.3294 15.325 56.1461 14.3833 56.1461 13.25C56.1461 12.8333 56.1794 12.3333 56.2461 11.75C56.3128 11.1667 56.4378 10.5667 56.6211 9.95C56.8211 9.33333 57.0878 8.725 57.4211 8.125C57.7711 7.50833 58.2211 6.95833 58.7711 6.475C59.3211 5.99167 59.9878 5.6 60.7711 5.3C61.5544 5 62.4878 4.85 63.5711 4.85C64.4378 4.85 65.1711 4.95 65.7711 5.15C66.3711 5.35 66.8544 5.625 67.2211 5.975C67.5878 6.30833 67.8544 6.7 68.0211 7.15C68.1878 7.6 68.2711 8.08333 68.2711 8.6C68.2711 9.36667 68.1128 10.0167 67.7961 10.55C67.4961 11.0833 67.0961 11.5333 66.5961 11.9C66.1128 12.25 65.5711 12.525 64.9711 12.725C64.3711 12.925 63.7794 13.0833 63.1961 13.2C62.6128 13.3 62.0711 13.3667 61.5711 13.4C61.0878 13.4167 60.7128 13.425 60.4461 13.425C60.4461 13.7417 60.4878 14.0583 60.5711 14.375C60.6711 14.675 60.8128 14.9417 60.9961 15.175C61.1794 15.4083 61.4211 15.6 61.7211 15.75C62.0211 15.9 62.3878 15.975 62.8211 15.975C63.2544 15.975 63.5878 15.9083 63.8211 15.775C64.0711 15.625 64.2711 15.4667 64.4211 15.3C64.5711 15.1167 64.6961 14.9583 64.7961 14.825C64.9128 14.675 65.0628 14.6 65.2461 14.6C65.3294 14.6 65.4711 14.625 65.6711 14.675C65.8878 14.7083 66.1044 14.7917 66.3211 14.925C66.5378 15.0583 66.7294 15.2417 66.8961 15.475C67.0628 15.7083 67.1461 16.0083 67.1461 16.375C67.1461 16.8583 66.9961 17.275 66.6961 17.625C66.3961 17.975 66.0044 18.2583 65.5211 18.475C65.0544 18.6917 64.5294 18.85 63.9461 18.95C63.3628 19.05 62.7961 19.1 62.2461 19.1ZM62.7211 8.175C62.3544 8.175 62.0378 8.28333 61.7711 8.5C61.5211 8.7 61.3044 8.95833 61.1211 9.275C60.9544 9.59167 60.8211 9.94167 60.7211 10.325C60.6378 10.7083 60.5711 11.075 60.5211 11.425C61.5544 11.4083 62.3878 11.2333 63.0211 10.9C63.6711 10.5667 63.9961 10.0917 63.9961 9.475C63.9961 9.14167 63.8878 8.84167 63.6711 8.575C63.4711 8.30833 63.1544 8.175 62.7211 8.175Z" fill="#E17373"/>
<path d="M76.4229 1.475C76.4395 1.34167 76.4895 1.25 76.5729 1.2C76.6729 1.13333 76.7645 1.1 76.8479 1.1C77.9812 1.1 79.0395 1.06667 80.0229 0.999999C81.0228 0.916666 81.8062 0.874999 82.3728 0.874999C83.7895 0.874999 84.9729 1.01667 85.9229 1.3C86.8895 1.58333 87.6645 2.025 88.2478 2.625C88.8478 3.225 89.2728 4 89.5229 4.95C89.7728 5.9 89.8979 7.04167 89.8979 8.375C89.8979 9.725 89.7562 11.05 89.4729 12.35C89.2062 13.6333 88.7312 14.775 88.0479 15.775C87.3645 16.775 86.4395 17.5833 85.2729 18.2C84.1228 18.8 82.6645 19.1 80.8979 19.1C80.0812 19.1 79.3312 19.0833 78.6479 19.05C77.9812 19.0167 77.4062 18.9167 76.9229 18.75C76.4395 18.5833 76.0645 18.3333 75.7979 18C75.5312 17.6667 75.3979 17.2083 75.3979 16.625C75.3979 16.4083 75.4062 16.0833 75.4229 15.65C75.4562 15.2167 75.4895 14.7 75.5229 14.1C75.5729 13.5 75.6229 12.8417 75.6729 12.125C75.7395 11.3917 75.8062 10.625 75.8728 9.825C76.0062 8.175 76.1062 6.85833 76.1729 5.875C76.2562 4.89167 76.3062 4.125 76.3229 3.575C76.3562 3.00833 76.3728 2.58333 76.3728 2.3C76.3895 2.01667 76.4062 1.74167 76.4229 1.475ZM81.0729 15.15C82.0062 15.15 82.7479 14.95 83.2979 14.55C83.8645 14.15 84.2979 13.6417 84.5979 13.025C84.8979 12.4083 85.0979 11.7333 85.1979 11C85.2979 10.2667 85.3479 9.575 85.3479 8.925C85.3479 8.225 85.2979 7.61667 85.1979 7.1C85.1145 6.56667 84.9562 6.125 84.7229 5.775C84.5062 5.425 84.1979 5.16667 83.7979 5C83.3979 4.81667 82.8979 4.725 82.2979 4.725C82.1145 4.725 81.8812 4.73333 81.5979 4.75C81.3145 4.76667 80.9729 4.79167 80.5729 4.825C80.5395 5.44167 80.4979 6.175 80.4479 7.025C80.3979 7.85833 80.3395 8.74167 80.2729 9.675C80.2229 10.5917 80.1645 11.525 80.0979 12.475C80.0312 13.4083 79.9645 14.275 79.8979 15.075C80.1479 15.1083 80.3729 15.1333 80.5729 15.15C80.7729 15.15 80.9395 15.15 81.0729 15.15Z" fill="#E17373"/>
<path d="M94.3732 18.85C93.8566 18.85 93.4316 18.8 93.0982 18.7C92.7816 18.5833 92.5232 18.425 92.3232 18.225C92.1399 18.025 92.0066 17.7833 91.9232 17.5C91.8566 17.2 91.8232 16.8583 91.8232 16.475C91.8232 16.225 91.8316 15.875 91.8482 15.425C91.8816 14.9583 91.9316 14.325 91.9982 13.525C92.0649 12.7083 92.1399 11.6833 92.2232 10.45C92.3232 9.2 92.4399 7.65833 92.5732 5.825C92.5899 5.45833 92.6316 5.24167 92.6982 5.175C92.7482 5.125 92.8816 5.1 93.0982 5.1H94.0732C94.5899 5.1 95.0066 5.15 95.3232 5.25C95.6566 5.35 95.9149 5.5 96.0982 5.7C96.2982 5.9 96.4316 6.14167 96.4982 6.425C96.5816 6.70833 96.6232 7.025 96.6232 7.375C96.6232 7.625 96.6066 8 96.5732 8.5C96.5399 9 96.4899 9.68333 96.4232 10.55C96.3732 11.4 96.2982 12.4667 96.1982 13.75C96.0982 15.0167 95.9732 16.55 95.8232 18.35C95.8066 18.55 95.7649 18.6833 95.6982 18.75C95.6316 18.8167 95.4899 18.85 95.2732 18.85H94.3732ZM92.5982 2.15C92.5982 1.48333 92.8399 0.958333 93.3232 0.575C93.8066 0.191667 94.4566 0 95.2732 0C95.9899 0 96.5066 0.15 96.8232 0.449999C97.1566 0.733332 97.3232 1.11667 97.3232 1.6C97.3232 2.21667 97.0899 2.73333 96.6232 3.15C96.1732 3.55 95.5066 3.75 94.6232 3.75C93.2732 3.75 92.5982 3.21667 92.5982 2.15Z" fill="#E17373"/>
<path d="M98.0795 15.775C98.0795 14.275 98.7545 13.1 100.104 12.25C101.454 11.4 103.446 10.9417 106.079 10.875C106.096 10.6917 106.104 10.5417 106.104 10.425C106.121 10.2917 106.129 10.1333 106.129 9.95C106.129 9.41667 106.029 8.99167 105.829 8.675C105.629 8.35833 105.213 8.2 104.579 8.2C104.229 8.2 103.946 8.25 103.729 8.35C103.513 8.45 103.338 8.59167 103.204 8.775C103.071 8.94167 102.963 9.15 102.879 9.4C102.796 9.65 102.721 9.925 102.654 10.225C102.621 10.375 102.546 10.475 102.429 10.525C102.313 10.5583 102.129 10.575 101.879 10.575C100.179 10.575 99.3295 9.93333 99.3295 8.65C99.3295 8.13333 99.4462 7.64167 99.6795 7.175C99.9295 6.70833 100.288 6.30833 100.754 5.975C101.238 5.625 101.838 5.35 102.554 5.15C103.271 4.95 104.104 4.85 105.054 4.85C106.904 4.85 108.246 5.23333 109.079 6C109.913 6.76667 110.329 7.85 110.329 9.25C110.329 9.43333 110.304 9.76667 110.254 10.25C110.221 10.7167 110.171 11.2167 110.104 11.75C110.054 12.2667 110.004 12.7583 109.954 13.225C109.921 13.6917 109.904 14.0167 109.904 14.2C109.904 14.6167 109.979 14.9167 110.129 15.1C110.279 15.2667 110.446 15.3833 110.629 15.45C110.829 15.5167 111.004 15.5667 111.154 15.6C111.304 15.6333 111.379 15.7167 111.379 15.85C111.379 16.2167 111.329 16.5917 111.229 16.975C111.129 17.3583 110.963 17.7083 110.729 18.025C110.513 18.3417 110.204 18.6 109.804 18.8C109.421 19 108.946 19.1 108.379 19.1C107.579 19.1 106.979 18.9083 106.579 18.525C106.179 18.1417 105.913 17.6083 105.779 16.925C105.379 17.5083 104.854 18.0167 104.204 18.45C103.571 18.8833 102.738 19.1 101.704 19.1C101.204 19.1 100.729 19.0417 100.279 18.925C99.8462 18.8083 99.4628 18.6167 99.1295 18.35C98.8128 18.0833 98.5545 17.7417 98.3545 17.325C98.1712 16.8917 98.0795 16.375 98.0795 15.775ZM105.854 12.925C105.421 12.925 104.996 12.9583 104.579 13.025C104.163 13.0917 103.788 13.2 103.454 13.35C103.138 13.4833 102.879 13.6667 102.679 13.9C102.479 14.1333 102.379 14.4167 102.379 14.75C102.379 15.1333 102.496 15.4 102.729 15.55C102.979 15.7 103.246 15.775 103.529 15.775C103.796 15.775 104.063 15.7167 104.329 15.6C104.596 15.4833 104.829 15.3083 105.029 15.075C105.246 14.825 105.429 14.525 105.579 14.175C105.729 13.825 105.821 13.4083 105.854 12.925Z" fill="#E17373"/>
<path d="M120.991 11.075C120.891 11.075 120.775 11.075 120.641 11.075C120.525 11.0583 120.408 11.0417 120.291 11.025C120.175 10.9917 120.075 10.9583 119.991 10.925C119.908 10.875 119.866 10.8167 119.866 10.75C119.866 10.5333 119.875 10.3333 119.891 10.15C119.908 9.96667 119.916 9.775 119.916 9.575C119.916 9.20833 119.866 8.90833 119.766 8.675C119.666 8.44167 119.466 8.325 119.166 8.325C118.7 8.325 118.308 8.63333 117.991 9.25C117.691 9.85 117.5 10.7583 117.416 11.975C117.383 12.5083 117.333 13.1167 117.266 13.8C117.216 14.4667 117.166 15.1167 117.116 15.75C117.066 16.3667 117.025 16.9167 116.991 17.4C116.958 17.8833 116.941 18.2 116.941 18.35C116.941 18.5167 116.883 18.6417 116.766 18.725C116.65 18.8083 116.525 18.85 116.391 18.85H115.491C114.975 18.85 114.55 18.8 114.216 18.7C113.9 18.5833 113.641 18.425 113.441 18.225C113.258 18.025 113.125 17.7833 113.041 17.5C112.975 17.2 112.941 16.8583 112.941 16.475C112.941 16.225 112.95 15.875 112.966 15.425C113 14.9583 113.05 14.325 113.116 13.525C113.183 12.7083 113.258 11.6833 113.341 10.45C113.441 9.2 113.558 7.65833 113.691 5.825C113.725 5.34167 113.9 5.1 114.216 5.1H115.191C115.658 5.1 116.05 5.15 116.366 5.25C116.683 5.35 116.941 5.49167 117.141 5.675C117.341 5.84167 117.483 6.04167 117.566 6.275C117.666 6.50833 117.733 6.75 117.766 7C117.966 6.61667 118.2 6.29167 118.466 6.025C118.75 5.74167 119.041 5.51667 119.341 5.35C119.641 5.16667 119.95 5.04167 120.266 4.975C120.583 4.89167 120.875 4.85 121.141 4.85C121.458 4.85 121.775 4.90833 122.091 5.025C122.425 5.14167 122.725 5.31667 122.991 5.55C123.258 5.78333 123.466 6.08333 123.616 6.45C123.783 6.81667 123.866 7.25 123.866 7.75C123.866 8.2 123.8 8.625 123.666 9.025C123.533 9.425 123.341 9.78333 123.091 10.1C122.841 10.4 122.533 10.6417 122.166 10.825C121.816 10.9917 121.425 11.075 120.991 11.075Z" fill="#E17373"/>
<path d="M129.654 7.4C129.654 7.78333 129.629 8.24167 129.579 8.775C129.529 9.29167 129.471 9.81667 129.404 10.35C129.354 10.8667 129.304 11.3583 129.254 11.825C129.204 12.275 129.179 12.625 129.179 12.875C129.179 13.5083 129.329 13.9833 129.629 14.3C129.946 14.6 130.329 14.75 130.779 14.75C131.563 14.75 132.188 14.3417 132.654 13.525C133.121 12.7083 133.413 11.625 133.529 10.275L133.929 5.6C133.946 5.41667 134.004 5.29167 134.104 5.225C134.221 5.14167 134.346 5.1 134.479 5.1H135.379C135.729 5.1 136.054 5.13333 136.354 5.2C136.671 5.25 136.946 5.35833 137.179 5.525C137.413 5.675 137.596 5.88333 137.729 6.15C137.863 6.41667 137.929 6.75833 137.929 7.175C137.929 7.34167 137.913 7.65833 137.879 8.125C137.863 8.575 137.821 9.23333 137.754 10.1C137.704 10.95 137.629 12.0333 137.529 13.35C137.429 14.65 137.313 16.2417 137.179 18.125C137.096 19.225 136.846 20.1333 136.429 20.85C136.029 21.5833 135.521 22.1583 134.904 22.575C134.288 23.0083 133.596 23.3083 132.829 23.475C132.063 23.6417 131.279 23.725 130.479 23.725C129.629 23.725 128.846 23.65 128.129 23.5C127.429 23.35 126.821 23.1417 126.304 22.875C125.788 22.6083 125.379 22.3 125.079 21.95C124.796 21.6 124.654 21.225 124.654 20.825C124.654 20.5083 124.721 20.2333 124.854 20C125.004 19.7667 125.196 19.575 125.429 19.425C125.663 19.275 125.929 19.1583 126.229 19.075C126.546 19.0083 126.871 18.975 127.204 18.975C127.371 18.975 127.488 19.0583 127.554 19.225C127.638 19.3917 127.754 19.575 127.904 19.775C128.071 19.9917 128.329 20.1833 128.679 20.35C129.029 20.5167 129.554 20.6 130.254 20.6C130.871 20.6 131.371 20.45 131.754 20.15C132.138 19.85 132.429 19.4667 132.629 19C132.846 18.5333 132.988 18.025 133.054 17.475C133.121 16.925 133.154 16.4 133.154 15.9C132.888 16.3667 132.588 16.75 132.254 17.05C131.938 17.3333 131.604 17.5583 131.254 17.725C130.904 17.875 130.554 17.975 130.204 18.025C129.854 18.075 129.521 18.1 129.204 18.1C128.588 18.1 128.021 18.0167 127.504 17.85C127.004 17.6833 126.571 17.4167 126.204 17.05C125.838 16.6667 125.554 16.175 125.354 15.575C125.154 14.975 125.054 14.25 125.054 13.4C125.054 13.0833 125.071 12.6667 125.104 12.15C125.138 11.6167 125.179 11.025 125.229 10.375C125.279 9.70833 125.329 8.99167 125.379 8.225C125.446 7.45833 125.513 6.675 125.579 5.875C125.613 5.35833 125.846 5.1 126.279 5.1H127.079C127.613 5.1 128.046 5.15 128.379 5.25C128.713 5.35 128.971 5.5 129.154 5.7C129.354 5.88333 129.488 6.125 129.554 6.425C129.621 6.70833 129.654 7.03333 129.654 7.4Z" fill="#E17373"/>
</g>
<defs>
<filter id="filter0_d_167_85" x="0" y="0" width="141.929" height="31.725" filterUnits="userSpaceOnUse" color-interpolation-filters="sRGB">
<feFlood flood-opacity="0" result="BackgroundImageFix"/>
<feColorMatrix in="SourceAlpha" type="matrix" values="0 0 0 0 0 0 0 0 0 0 0 0 0 0 0 0 0 0 127 0" result="hardAlpha"/>
<feOffset dy="4"/>
<feGaussianBlur stdDeviation="2"/>
<feComposite in2="hardAlpha" operator="out"/>
<feColorMatrix type="matrix" values="0 0 0 0 0 0 0 0 0 0 0 0 0 0 0 0 0 0 0.25 0"/>
<feBlend mode="normal" in2="BackgroundImageFix" result="effect1_dropShadow_167_85"/>
<feBlend mode="normal" in="SourceGraphic" in2="effect1_dropShadow_167_85" result="shape"/>
</filter>
</defs>
</svg>
