<svg width="292" height="14" viewBox="0 0 292 14" fill="none" xmlns="http://www.w3.org/2000/svg">
<path d="M9.3165 7.635C9.2665 7.635 9.1565 7.63 8.9865 7.62C8.8165 7.61 8.6915 7.605 8.6115 7.605C8.5115 7.605 8.4165 7.605 8.3265 7.605C8.2465 7.595 8.1665 7.58 8.0865 7.56C8.0065 7.56 7.9265 7.55 7.8465 7.53C7.7765 7.51 7.7015 7.485 7.6215 7.455C7.4915 7.385 7.3865 7.3 7.3065 7.2C7.2565 7.13 7.2115 7.065 7.1715 7.005C7.1415 6.945 7.1265 6.875 7.1265 6.795C7.1065 6.675 7.1115 6.535 7.1415 6.375C7.1815 6.215 7.2365 6.095 7.3065 6.015C7.3365 5.965 7.3615 5.925 7.3815 5.895C7.4115 5.865 7.4465 5.83 7.4865 5.79C7.5465 5.74 7.6115 5.705 7.6815 5.685C7.7515 5.655 7.8165 5.63 7.8765 5.61C7.9865 5.59 8.0865 5.58 8.1765 5.58C8.2765 5.58 8.3715 5.58 8.4615 5.58H9.3465V4.5C9.3465 4.38 9.3415 4.27 9.3315 4.17C9.3215 4.07 9.3165 3.965 9.3165 3.855C9.3165 3.615 9.3165 3.38 9.3165 3.15C9.3165 2.91 9.3265 2.67 9.3465 2.43C9.3465 2.28 9.3565 2.125 9.3765 1.965C9.4065 1.805 9.4465 1.655 9.4965 1.515C9.5365 1.395 9.6065 1.28 9.7065 1.17C9.8365 1.05 9.9865 0.99 10.1565 0.99H10.1865C10.3965 0.99 10.5665 1.03 10.6965 1.11C10.8265 1.18 10.9315 1.28 11.0115 1.41C11.1015 1.53 11.1615 1.67 11.1915 1.83C11.2315 1.99 11.2565 2.15 11.2665 2.31C11.2965 2.57 11.3115 2.84 11.3115 3.12C11.3115 3.4 11.3115 3.675 11.3115 3.945V10.53C11.3115 10.87 11.3165 11.22 11.3265 11.58C11.3365 11.93 11.2865 12.265 11.1765 12.585C11.1265 12.715 11.0615 12.82 10.9815 12.9C10.9515 12.92 10.9065 12.945 10.8465 12.975C10.7865 13.005 10.7265 13.03 10.6665 13.05C10.6065 13.07 10.5465 13.085 10.4865 13.095C10.4365 13.105 10.3865 13.11 10.3365 13.11C10.1065 13.11 9.9215 13.04 9.7815 12.9C9.6515 12.77 9.5515 12.61 9.4815 12.42C9.4115 12.22 9.3665 12.015 9.3465 11.805C9.3265 11.595 9.3165 11.41 9.3165 11.25V10.71C9.3165 10.53 9.3165 10.33 9.3165 10.11C9.3165 9.88 9.3165 9.65 9.3165 9.42C9.3265 9.18 9.3315 8.95 9.3315 8.73C9.3315 8.5 9.3265 8.29 9.3165 8.1V7.635ZM4.1415 10.44C4.1315 10.32 4.1265 10.2 4.1265 10.08C4.1265 9.96 4.1265 9.84 4.1265 9.72V4.95C4.1265 4.79 4.1265 4.63 4.1265 4.47C4.1265 4.31 4.1165 4.145 4.0965 3.975C4.0865 3.925 4.0715 3.855 4.0515 3.765C4.0415 3.675 4.0115 3.62 3.9615 3.6C3.9115 3.57 3.8515 3.56 3.7815 3.57C3.7215 3.57 3.6615 3.565 3.6015 3.555C3.5315 3.545 3.4615 3.545 3.3915 3.555C3.3315 3.565 3.2665 3.565 3.1965 3.555H2.4915C2.3215 3.565 2.1515 3.565 1.9815 3.555C1.8115 3.545 1.6415 3.545 1.4715 3.555C1.3915 3.565 1.3165 3.57 1.2465 3.57C1.1865 3.56 1.1165 3.555 1.0365 3.555C0.9265 3.555 0.8115 3.55 0.6915 3.54C0.5715 3.53 0.4615 3.49 0.3615 3.42C0.2215 3.32 0.1265 3.195 0.0765 3.045C0.0265 2.895 0.0015 2.74 0.0015 2.58C-0.0085 2.39 0.0315 2.2 0.1215 2.01C0.1715 1.89 0.2365 1.805 0.3165 1.755C0.3665 1.705 0.4365 1.665 0.5265 1.635C0.6265 1.595 0.7115 1.565 0.7815 1.545C0.9915 1.495 1.2115 1.47 1.4415 1.47C1.6715 1.46 1.8965 1.455 2.1165 1.455H4.7265C4.8565 1.475 4.9915 1.495 5.1315 1.515C5.2815 1.525 5.4165 1.555 5.5365 1.605C5.6165 1.635 5.6915 1.675 5.7615 1.725C5.8415 1.775 5.9065 1.835 5.9565 1.905C6.0465 2.045 6.0965 2.185 6.1065 2.325C6.1265 2.465 6.1465 2.62 6.1665 2.79C6.1865 3.07 6.1965 3.35 6.1965 3.63C6.1965 3.9 6.1965 4.175 6.1965 4.455V9.375C6.1965 9.385 6.1965 9.465 6.1965 9.615C6.2065 9.755 6.2115 9.925 6.2115 10.125C6.2115 10.315 6.2115 10.52 6.2115 10.74C6.2115 10.95 6.2065 11.135 6.1965 11.295C6.1865 11.395 6.1715 11.5 6.1515 11.61C6.1315 11.72 6.0965 11.825 6.0465 11.925C6.0065 12.025 5.9465 12.115 5.8665 12.195C5.7865 12.275 5.6815 12.34 5.5515 12.39C5.3815 12.46 5.2115 12.495 5.0415 12.495C4.9115 12.495 4.7815 12.47 4.6515 12.42C4.5215 12.36 4.4315 12.275 4.3815 12.165C4.2215 11.845 4.1415 11.49 4.1415 11.1V10.44Z" fill="black"/>
<path d="M21.3469 5.625C21.5369 5.725 21.7219 5.845 21.9019 5.985C22.0819 6.115 22.2519 6.255 22.4119 6.405C22.4919 6.485 22.5469 6.585 22.5769 6.705C22.6069 6.825 22.6069 6.945 22.5769 7.065C22.5569 7.185 22.5069 7.295 22.4269 7.395C22.3569 7.485 22.2619 7.545 22.1419 7.575C21.8219 7.655 21.4869 7.65 21.1369 7.56C20.7969 7.47 20.4819 7.355 20.1919 7.215C19.9219 7.075 19.6719 6.945 19.4419 6.825C19.2119 6.695 18.9819 6.56 18.7519 6.42C18.6819 6.37 18.5869 6.315 18.4669 6.255C18.3569 6.185 18.2469 6.115 18.1369 6.045C18.0069 5.965 17.8669 5.885 17.7169 5.805C17.5469 5.895 17.3819 5.98 17.2219 6.06C17.0819 6.13 16.9419 6.2 16.8019 6.27C16.6719 6.33 16.5669 6.385 16.4869 6.435C16.2269 6.585 15.9869 6.715 15.7669 6.825C15.5469 6.935 15.3069 7.06 15.0469 7.2C14.8469 7.3 14.6419 7.41 14.4319 7.53C14.2319 7.64 14.0169 7.685 13.7869 7.665C13.6069 7.645 13.4319 7.59 13.2619 7.5C13.0919 7.41 12.9869 7.255 12.9469 7.035C12.9269 6.915 12.9369 6.785 12.9769 6.645C13.0169 6.475 13.0819 6.335 13.1719 6.225C13.2719 6.115 13.3919 6.015 13.5319 5.925L14.5669 5.34C14.7369 5.24 14.8869 5.16 15.0169 5.1C15.1469 5.03 15.3019 4.945 15.4819 4.845C15.6519 4.745 15.8469 4.635 16.0669 4.515C16.2969 4.385 16.5119 4.28 16.7119 4.2V2.985H15.1219C14.9619 2.985 14.8219 2.99 14.7019 3C14.5919 3 14.4619 2.99 14.3119 2.97C14.2019 2.95 14.0819 2.94 13.9519 2.94C13.8219 2.94 13.7019 2.91 13.5919 2.85C13.4819 2.79 13.3919 2.685 13.3219 2.535C13.2619 2.425 13.2269 2.295 13.2169 2.145C13.2069 1.995 13.2269 1.86 13.2769 1.74C13.3569 1.56 13.4869 1.425 13.6669 1.335C13.8469 1.245 14.0319 1.2 14.2219 1.2H14.5669C14.7269 1.21 14.8419 1.215 14.9119 1.215C14.9919 1.205 15.1119 1.2 15.2719 1.2H20.4619C20.6219 1.2 20.8069 1.195 21.0169 1.185C21.2269 1.175 21.4269 1.19 21.6169 1.23C21.8169 1.27 21.9919 1.345 22.1419 1.455C22.3019 1.565 22.4069 1.74 22.4569 1.98C22.5169 2.26 22.4719 2.475 22.3219 2.625C22.1819 2.765 21.9969 2.87 21.7669 2.94C21.5469 3 21.3119 3.035 21.0619 3.045C20.8119 3.045 20.6069 3.04 20.4469 3.03C20.2869 3.02 20.1169 3.015 19.9369 3.015C19.7669 3.005 19.6019 3 19.4419 3C19.2619 3 19.0819 3.005 18.9019 3.015V4.23C19.0419 4.31 19.1719 4.38 19.2919 4.44C19.3519 4.47 19.4069 4.505 19.4569 4.545C19.5169 4.575 19.5769 4.61 19.6369 4.65C19.7369 4.7 19.8319 4.75 19.9219 4.8C20.0219 4.85 20.1219 4.905 20.2219 4.965C20.4119 5.075 20.5969 5.185 20.7769 5.295C20.9669 5.405 21.1569 5.515 21.3469 5.625ZM13.6219 10.35C13.3919 10.34 13.1719 10.31 12.9619 10.26C12.7619 10.2 12.5969 10.07 12.4669 9.87C12.3569 9.7 12.3019 9.52 12.3019 9.33C12.3119 9.13 12.3869 8.96 12.5269 8.82C12.6069 8.74 12.7069 8.68 12.8269 8.64C12.9469 8.6 13.0619 8.57 13.1719 8.55C13.2819 8.53 13.3769 8.52 13.4569 8.52C13.5469 8.52 13.5969 8.52 13.6069 8.52H21.7819C21.9419 8.51 22.1119 8.51 22.2919 8.52C22.4819 8.53 22.6569 8.565 22.8169 8.625C22.9769 8.675 23.1119 8.765 23.2219 8.895C23.3319 9.015 23.3869 9.185 23.3869 9.405C23.3869 9.655 23.3019 9.845 23.1319 9.975C22.9619 10.095 22.7569 10.185 22.5169 10.245C22.2869 10.295 22.0469 10.325 21.7969 10.335C21.5469 10.335 21.3419 10.335 21.1819 10.335H20.5969C20.3969 10.345 20.2019 10.35 20.0119 10.35C19.8219 10.34 19.6269 10.335 19.4269 10.335H18.8569C18.8669 10.615 18.8769 10.91 18.8869 11.22C18.8969 11.53 18.8819 11.805 18.8419 12.045C18.8219 12.235 18.7719 12.415 18.6919 12.585C18.6219 12.765 18.5019 12.91 18.3319 13.02C18.1819 13.12 18.0069 13.17 17.8069 13.17C17.6069 13.18 17.4269 13.14 17.2669 13.05C17.1369 12.97 17.0369 12.855 16.9669 12.705C16.9069 12.555 16.8669 12.41 16.8469 12.27C16.8269 12.16 16.8169 12.04 16.8169 11.91C16.8269 11.78 16.8319 11.66 16.8319 11.55C16.8219 11.37 16.8169 11.175 16.8169 10.965C16.8169 10.745 16.8169 10.53 16.8169 10.32H16.4419C16.1619 10.32 15.9069 10.325 15.6769 10.335C15.4569 10.335 15.2419 10.34 15.0319 10.35C14.8219 10.35 14.6019 10.35 14.3719 10.35C14.1519 10.35 13.9019 10.35 13.6219 10.35Z" fill="black"/>
<path d="M31.2764 4.635C31.8164 4.655 32.2714 4.785 32.6414 5.025C33.0114 5.265 33.3114 5.575 33.5414 5.955C33.7714 6.335 33.9314 6.765 34.0214 7.245C34.1114 7.725 34.1464 8.21 34.1264 8.7C34.1164 9.19 34.0464 9.67 33.9164 10.14C33.7964 10.61 33.6364 11.025 33.4364 11.385C33.2164 11.775 32.9064 12.075 32.5064 12.285C32.1164 12.485 31.6964 12.6 31.2464 12.63C30.7964 12.66 30.3514 12.6 29.9114 12.45C29.4814 12.3 29.1164 12.065 28.8164 11.745C28.5564 11.465 28.3714 11.175 28.2614 10.875C28.1514 10.565 28.0714 10.225 28.0214 9.855C27.9714 9.485 27.9314 9.13 27.9014 8.79C27.8714 8.44 27.8664 8.095 27.8864 7.755C27.9064 7.415 27.9614 7.08 28.0514 6.75C28.1514 6.42 28.3014 6.09 28.5014 5.76C28.6114 5.57 28.7664 5.405 28.9664 5.265C29.1664 5.115 29.3914 4.995 29.6414 4.905C29.8914 4.805 30.1564 4.735 30.4364 4.695C30.7264 4.645 31.0064 4.625 31.2764 4.635ZM38.2964 5.73C38.3464 5.73 38.3914 5.735 38.4314 5.745C38.4814 5.755 38.5314 5.76 38.5814 5.76C38.6314 5.77 38.6864 5.78 38.7464 5.79C38.8064 5.79 38.8664 5.795 38.9264 5.805C39.0364 5.825 39.1464 5.865 39.2564 5.925C39.3664 5.975 39.4464 6.055 39.4964 6.165C39.5664 6.275 39.6014 6.405 39.6014 6.555C39.6014 6.635 39.5964 6.71 39.5864 6.78C39.5864 6.84 39.5764 6.91 39.5564 6.99C39.5364 7.07 39.5114 7.155 39.4814 7.245C39.4614 7.335 39.4164 7.405 39.3464 7.455C39.2064 7.555 39.0714 7.62 38.9414 7.65C38.7814 7.67 38.5864 7.675 38.3564 7.665C38.1264 7.655 37.9314 7.655 37.7714 7.665C37.7614 7.665 37.7514 7.67 37.7414 7.68H37.7264L37.7114 7.695V7.74C37.7014 7.99 37.6964 8.28 37.6964 8.61C37.7064 8.94 37.7114 9.235 37.7114 9.495C37.7314 10.015 37.7314 10.525 37.7114 11.025V11.235C37.7114 11.365 37.7064 11.51 37.6964 11.67C37.6964 11.82 37.6864 11.97 37.6664 12.12C37.6464 12.27 37.6114 12.415 37.5614 12.555C37.5114 12.685 37.4414 12.795 37.3514 12.885C37.2314 13.025 37.0714 13.095 36.8714 13.095C36.8714 13.095 36.8614 13.09 36.8414 13.08C36.6014 13.07 36.4064 13 36.2564 12.87C36.1164 12.74 36.0064 12.58 35.9264 12.39C35.8564 12.2 35.8114 12.005 35.7914 11.805C35.7714 11.595 35.7614 11.41 35.7614 11.25V2.34C35.7614 2.33 35.7614 2.285 35.7614 2.205C35.7614 2.115 35.7714 2.015 35.7914 1.905C35.8114 1.785 35.8414 1.665 35.8814 1.545C35.9314 1.415 35.9964 1.31 36.0764 1.23C36.1464 1.16 36.2464 1.11 36.3764 1.08C36.5164 1.04 36.6414 1.02 36.7514 1.02C36.9714 1.02 37.1564 1.095 37.3064 1.245C37.4464 1.385 37.5264 1.535 37.5464 1.695C37.5764 1.845 37.6014 2.005 37.6214 2.175C37.6314 2.215 37.6364 2.275 37.6364 2.355C37.6564 2.525 37.6664 2.7 37.6664 2.88C37.6764 3.06 37.6864 3.24 37.6964 3.42C37.6964 3.53 37.6964 3.64 37.6964 3.75C37.7064 3.85 37.7114 3.955 37.7114 4.065C37.7014 4.125 37.6964 4.185 37.6964 4.245C37.7064 4.295 37.7114 4.345 37.7114 4.395V5.37C37.7114 5.42 37.7114 5.475 37.7114 5.535C37.7114 5.595 37.7214 5.65 37.7414 5.7C37.7414 5.71 37.7914 5.715 37.8914 5.715C37.9914 5.715 38.0464 5.715 38.0564 5.715C38.1464 5.735 38.2164 5.74 38.2664 5.73H38.2964ZM33.3764 2.235C33.5764 2.235 33.7764 2.265 33.9764 2.325C34.1764 2.385 34.3314 2.515 34.4414 2.715C34.5114 2.845 34.5364 3.01 34.5164 3.21C34.4964 3.4 34.4364 3.56 34.3364 3.69C34.2364 3.81 34.0814 3.895 33.8714 3.945C33.6614 3.995 33.4414 4.03 33.2114 4.05C32.9814 4.06 32.7664 4.06 32.5664 4.05C32.3764 4.04 32.2464 4.035 32.1764 4.035C32.0964 4.045 32.0164 4.05 31.9364 4.05C31.8664 4.05 31.7864 4.05 31.6964 4.05H31.2164C31.1364 4.04 31.0564 4.035 30.9764 4.035C30.9064 4.035 30.8314 4.035 30.7514 4.035L28.9814 4.005C28.4714 4.005 28.1064 3.94 27.8864 3.81C27.6664 3.68 27.5364 3.475 27.4964 3.195C27.4564 2.905 27.5314 2.67 27.7214 2.49C27.8614 2.37 27.9764 2.295 28.0664 2.265C28.1664 2.235 28.2914 2.22 28.4414 2.22C28.4814 2.22 28.5214 2.225 28.5614 2.235C28.6014 2.235 28.6414 2.235 28.6814 2.235H29.0564C29.1964 2.235 29.3614 2.235 29.5514 2.235C29.7414 2.225 29.9064 2.215 30.0464 2.205C30.0464 2.165 30.0464 2.11 30.0464 2.04C30.0564 1.96 30.0614 1.88 30.0614 1.8C30.0714 1.72 30.0764 1.645 30.0764 1.575C30.0864 1.495 30.0914 1.44 30.0914 1.41C30.1114 1.24 30.1664 1.085 30.2564 0.944999C30.4664 0.655 30.7264 0.52 31.0364 0.539999C31.1764 0.56 31.3164 0.585 31.4564 0.614999C31.5964 0.635 31.7114 0.705 31.8014 0.824999C31.9114 0.985 31.9614 1.205 31.9514 1.485C31.9514 1.755 31.9614 2 31.9814 2.22H32.4164C32.4964 2.22 32.6114 2.225 32.7614 2.235C32.9114 2.235 33.0264 2.235 33.1064 2.235H33.3764ZM31.2164 10.98C31.4364 10.95 31.6264 10.865 31.7864 10.725C31.9464 10.575 32.0764 10.4 32.1764 10.2C32.2764 10 32.3464 9.785 32.3864 9.555C32.4264 9.325 32.4464 9.11 32.4464 8.91C32.4464 8.74 32.4364 8.55 32.4164 8.34C32.4064 8.12 32.3814 7.91 32.3414 7.71C32.3014 7.5 32.2364 7.31 32.1464 7.14C32.0564 6.96 31.9364 6.815 31.7864 6.705C31.6464 6.615 31.4814 6.56 31.2914 6.54C31.1014 6.51 30.9064 6.515 30.7064 6.555C30.5164 6.595 30.3414 6.665 30.1814 6.765C30.0214 6.855 29.9064 6.98 29.8364 7.14C29.6464 7.55 29.5464 7.96 29.5364 8.37C29.5364 8.78 29.5814 9.2 29.6714 9.63C29.7214 9.85 29.7914 10.08 29.8814 10.32C29.9714 10.55 30.1114 10.73 30.3014 10.86C30.3414 10.89 30.4014 10.915 30.4814 10.935C30.5714 10.945 30.6614 10.955 30.7514 10.965C30.8514 10.975 30.9414 10.985 31.0214 10.995C31.1114 10.995 31.1764 10.99 31.2164 10.98Z" fill="black"/>
<path d="M46.2318 10.65C46.2618 10.7 46.2868 10.755 46.3068 10.815C46.3368 10.865 46.3618 10.925 46.3818 10.995C46.4118 11.105 46.4318 11.225 46.4418 11.355C46.4518 11.485 46.4218 11.62 46.3518 11.76C46.1918 12.07 45.9718 12.235 45.6918 12.255H45.6768C45.4968 12.255 45.3368 12.195 45.1968 12.075C45.0668 11.955 44.9268 11.81 44.7768 11.64C44.6268 11.48 44.4918 11.32 44.3718 11.16C44.2518 11 44.1418 10.855 44.0418 10.725C44.0318 10.705 44.0168 10.685 43.9968 10.665C43.9868 10.635 43.9718 10.6 43.9518 10.56C43.7018 10.18 43.5168 9.915 43.3968 9.765C43.2768 9.615 43.2068 9.535 43.1868 9.525C43.1668 9.545 43.1168 9.6 43.0368 9.69C42.9668 9.77 42.9218 9.82 42.9018 9.84C42.8818 9.87 42.8618 9.9 42.8418 9.93C42.8218 9.95 42.8018 9.97 42.7818 9.99C42.6918 10.09 42.6168 10.195 42.5568 10.305C42.5068 10.405 42.4418 10.51 42.3618 10.62C42.2818 10.73 42.1968 10.835 42.1068 10.935C42.0268 11.035 41.9418 11.135 41.8518 11.235C41.8118 11.275 41.7718 11.325 41.7318 11.385C41.5818 11.555 41.4218 11.72 41.2518 11.88C41.0918 12.04 40.9018 12.16 40.6818 12.24C40.5918 12.28 40.4918 12.3 40.3818 12.3C40.1518 12.3 39.9468 12.21 39.7668 12.03C39.5968 11.86 39.5118 11.65 39.5118 11.4C39.5218 11.22 39.5668 11.05 39.6468 10.89C39.7368 10.73 39.8218 10.58 39.9018 10.44L39.9318 10.38C39.9618 10.33 39.9918 10.285 40.0218 10.245C40.0518 10.205 40.0818 10.165 40.1118 10.125C40.1318 10.095 40.1468 10.07 40.1568 10.05C40.1768 10.02 40.1968 9.995 40.2168 9.975C40.3368 9.795 40.4418 9.65 40.5318 9.54C40.5518 9.52 40.5618 9.505 40.5618 9.495C40.5718 9.475 40.5868 9.455 40.6068 9.435C40.6268 9.395 40.6468 9.37 40.6668 9.36L40.6968 9.315C40.7368 9.265 40.7718 9.22 40.8018 9.18C40.8318 9.13 40.8618 9.08 40.8918 9.03C40.9618 8.92 41.0218 8.82 41.0718 8.73C41.1318 8.63 41.1868 8.535 41.2368 8.445C41.2968 8.335 41.3568 8.23 41.4168 8.13C41.4768 8.02 41.5468 7.915 41.6268 7.815C41.6768 7.735 41.7268 7.655 41.7768 7.575C41.8368 7.495 41.8918 7.415 41.9418 7.335L42.0018 7.245C42.0718 7.135 42.1218 7.04 42.1518 6.96C42.1918 6.87 42.2168 6.77 42.2268 6.66C42.2468 6.5 42.2568 6.345 42.2568 6.195C42.2568 6.035 42.2568 5.865 42.2568 5.685V3.21C42.2568 3.11 42.2568 3.015 42.2568 2.925C42.2568 2.835 42.2618 2.74 42.2718 2.64C42.2718 2.53 42.2818 2.42 42.3018 2.31C42.3218 2.2 42.3468 2.1 42.3768 2.01C42.4268 1.88 42.4918 1.75 42.5718 1.62C42.6218 1.54 42.6918 1.48 42.7818 1.44C42.8818 1.4 42.9868 1.37 43.0968 1.35L43.1268 1.335C43.2068 1.315 43.2768 1.31 43.3368 1.32C43.4068 1.32 43.4818 1.335 43.5618 1.365C43.6618 1.405 43.7368 1.45 43.7868 1.5C43.8368 1.54 43.8768 1.595 43.9068 1.665C43.9368 1.735 43.9668 1.81 43.9968 1.89C44.0868 2.08 44.1468 2.325 44.1768 2.625C44.2168 3.045 44.2418 3.49 44.2518 3.96C44.2618 4.42 44.2668 4.86 44.2668 5.28C44.2768 5.54 44.2818 5.8 44.2818 6.06C44.2818 6.31 44.2918 6.56 44.3118 6.81C44.3218 7.03 44.3768 7.235 44.4768 7.425C44.5868 7.615 44.6968 7.805 44.8068 7.995C44.9168 8.215 45.0318 8.435 45.1518 8.655C45.2718 8.865 45.3968 9.075 45.5268 9.285C45.5768 9.385 45.6268 9.485 45.6768 9.585C45.7368 9.675 45.7968 9.77 45.8568 9.87C45.8768 9.92 45.8968 9.965 45.9168 10.005C45.9468 10.045 45.9718 10.085 45.9918 10.125C46.0118 10.175 46.0368 10.23 46.0668 10.29C46.0968 10.34 46.1218 10.39 46.1418 10.44L46.1868 10.56L46.2318 10.65ZM50.0118 11.91C49.9918 12.03 49.9768 12.15 49.9668 12.27C49.9568 12.38 49.9318 12.495 49.8918 12.615C49.8718 12.655 49.8568 12.69 49.8468 12.72C49.8368 12.75 49.8218 12.785 49.8018 12.825C49.7318 12.965 49.6418 13.075 49.5318 13.155C49.3018 13.295 49.0468 13.33 48.7668 13.26C48.6068 13.23 48.4768 13.17 48.3768 13.08C48.2868 13 48.2168 12.895 48.1668 12.765C48.1268 12.645 48.0918 12.525 48.0618 12.405C48.0418 12.285 48.0318 12.18 48.0318 12.09C48.0318 12 48.0318 11.95 48.0318 11.94V2.67C48.0318 2.55 48.0318 2.42 48.0318 2.28C48.0318 2.14 48.0418 2 48.0618 1.86C48.0818 1.72 48.1118 1.59 48.1518 1.47C48.1918 1.35 48.2468 1.255 48.3168 1.185C48.4268 1.075 48.5418 1.01 48.6618 0.99C48.7818 0.96 48.9118 0.944999 49.0518 0.944999C49.2218 0.944999 49.3768 0.994999 49.5168 1.095C49.6668 1.185 49.7718 1.315 49.8318 1.485C49.9218 1.695 49.9718 1.915 49.9818 2.145C49.9918 2.375 50.0018 2.605 50.0118 2.835V2.91C50.0318 3.68 50.0368 4.47 50.0268 5.28C50.0168 6.09 50.0118 6.855 50.0118 7.575V11.37C50.0118 11.46 50.0118 11.55 50.0118 11.64C50.0218 11.73 50.0218 11.82 50.0118 11.91Z" fill="black"/>
<path d="M51.7354 2.235C51.7354 2.105 51.7554 1.975 51.7954 1.845C51.8354 1.705 51.8954 1.58 51.9754 1.47C52.0554 1.35 52.1554 1.255 52.2754 1.185C52.3954 1.105 52.5354 1.065 52.6954 1.065C53.0454 1.065 53.2854 1.18 53.4154 1.41C53.5554 1.63 53.6404 1.91 53.6704 2.25L53.7604 3.63C53.7804 3.84 53.8204 3.99 53.8804 4.08C53.9404 4.16 54.1004 4.2 54.3604 4.2H58.9354C59.0654 4.2 59.2204 4.205 59.4004 4.215C59.5904 4.225 59.7704 4.26 59.9404 4.32C60.1204 4.37 60.2704 4.45 60.3904 4.56C60.5204 4.67 60.5854 4.825 60.5854 5.025C60.5854 5.225 60.5354 5.38 60.4354 5.49C60.3354 5.59 60.2004 5.665 60.0304 5.715C59.8704 5.765 59.6904 5.795 59.4904 5.805C59.2904 5.815 59.0904 5.82 58.8904 5.82H53.7604C53.5504 5.82 53.3254 5.815 53.0854 5.805C52.8454 5.785 52.6254 5.725 52.4254 5.625C52.2054 5.515 52.0354 5.345 51.9154 5.115C51.8054 4.885 51.7504 4.64 51.7504 4.38C51.7504 4.33 51.7504 4.215 51.7504 4.035C51.7504 3.845 51.7454 3.64 51.7354 3.42C51.7354 3.2 51.7354 2.98 51.7354 2.76C51.7354 2.54 51.7354 2.365 51.7354 2.235ZM60.4054 11.295C60.6254 11.295 60.8404 11.37 61.0504 11.52C61.2604 11.66 61.3554 11.89 61.3354 12.21C61.3254 12.36 61.2854 12.485 61.2154 12.585C61.1554 12.685 61.0754 12.765 60.9754 12.825C60.8754 12.895 60.7704 12.94 60.6604 12.96C60.5504 12.99 60.4454 13.005 60.3454 13.005H53.0854C52.6254 13.005 52.3054 12.915 52.1254 12.735C51.9454 12.565 51.8554 12.365 51.8554 12.135V10.41C51.8554 10.12 51.9454 9.885 52.1254 9.705C52.3154 9.515 52.5154 9.42 52.7254 9.42C53.0554 9.42 53.2904 9.515 53.4304 9.705C53.5804 9.895 53.6654 10.105 53.6854 10.335L53.7454 11.265L60.4054 11.295ZM60.6454 6.915C60.8154 6.915 60.9754 6.93 61.1254 6.96C61.2854 6.98 61.4204 7.025 61.5304 7.095C61.6504 7.165 61.7454 7.26 61.8154 7.38C61.8854 7.49 61.9204 7.64 61.9204 7.83C61.9204 8.01 61.8704 8.155 61.7704 8.265C61.6804 8.365 61.5604 8.445 61.4104 8.505C61.2604 8.565 61.0954 8.605 60.9154 8.625C60.7454 8.635 60.5854 8.64 60.4354 8.64L51.8704 8.625C51.7904 8.625 51.6854 8.62 51.5554 8.61C51.4254 8.59 51.2954 8.555 51.1654 8.505C51.0454 8.445 50.9404 8.365 50.8504 8.265C50.7604 8.155 50.7154 8.015 50.7154 7.845C50.7154 7.525 50.8254 7.3 51.0454 7.17C51.2754 7.03 51.5404 6.95 51.8404 6.93C52.0604 6.92 52.2854 6.915 52.5154 6.915C52.7554 6.905 53.0304 6.9 53.3404 6.9C53.6504 6.9 54.0104 6.9 54.4204 6.9C54.8404 6.9 55.3404 6.905 55.9204 6.915C56.5004 6.915 57.1754 6.915 57.9454 6.915C58.7254 6.915 59.6254 6.915 60.6454 6.915Z" fill="black"/>
<path d="M71.937 1.635C72.347 1.635 72.697 1.67 72.987 1.74C73.277 1.81 73.507 1.99 73.677 2.28C73.837 2.55 73.862 2.82 73.752 3.09C73.612 3.37 73.362 3.535 73.002 3.585C72.762 3.625 72.487 3.65 72.177 3.66C71.867 3.66 71.457 3.65 70.947 3.63C70.937 3.8 70.932 3.98 70.932 4.17C70.932 4.35 70.932 4.52 70.932 4.68C70.932 4.83 70.932 4.96 70.932 5.07C70.942 5.18 70.947 5.25 70.947 5.28V6.96C70.947 7.04 70.952 7.15 70.962 7.29C70.972 7.42 70.982 7.52 70.992 7.59C71.072 7.67 71.182 7.79 71.322 7.95C71.462 8.1 71.572 8.225 71.652 8.325C71.752 8.445 71.852 8.57 71.952 8.7C72.062 8.83 72.172 8.975 72.282 9.135C72.362 9.225 72.432 9.315 72.492 9.405C72.552 9.495 72.607 9.575 72.657 9.645C72.847 9.915 73.042 10.21 73.242 10.53C73.442 10.85 73.577 11.17 73.647 11.49C73.677 11.63 73.677 11.785 73.647 11.955C73.627 12.115 73.557 12.25 73.437 12.36C73.267 12.51 73.077 12.585 72.867 12.585C72.637 12.585 72.417 12.525 72.207 12.405C71.997 12.275 71.827 12.14 71.697 12C71.507 11.8 71.327 11.59 71.157 11.37C70.997 11.15 70.837 10.935 70.677 10.725C70.567 10.565 70.452 10.41 70.332 10.26C70.212 10.1 70.087 9.945 69.957 9.795C69.937 9.755 69.917 9.73 69.897 9.72C69.897 9.73 69.892 9.735 69.882 9.735C69.882 9.735 69.882 9.74 69.882 9.75C69.832 9.83 69.772 9.91 69.702 9.99C69.642 10.06 69.587 10.135 69.537 10.215C69.457 10.305 69.382 10.4 69.312 10.5C69.252 10.59 69.192 10.68 69.132 10.77C68.992 10.98 68.852 11.19 68.712 11.4C68.572 11.6 68.412 11.79 68.232 11.97C67.802 12.4 67.397 12.615 67.017 12.615C66.917 12.615 66.822 12.6 66.732 12.57C66.502 12.51 66.347 12.37 66.267 12.15C66.187 11.98 66.157 11.795 66.177 11.595C66.207 11.395 66.257 11.22 66.327 11.07C66.407 10.9 66.497 10.74 66.597 10.59C66.697 10.44 66.802 10.29 66.912 10.14C66.982 10.05 67.047 9.96 67.107 9.87C67.177 9.78 67.237 9.69 67.287 9.6C67.377 9.45 67.497 9.275 67.647 9.075C67.807 8.865 67.962 8.665 68.112 8.475C68.272 8.275 68.417 8.095 68.547 7.935C68.677 7.775 68.767 7.66 68.817 7.59V3.63H67.902C67.522 3.63 67.257 3.63 67.107 3.63C66.967 3.62 66.862 3.605 66.792 3.585C66.412 3.525 66.157 3.31 66.027 2.94C65.917 2.62 65.957 2.34 66.147 2.1C66.317 1.86 66.557 1.71 66.867 1.65C66.917 1.64 66.967 1.635 67.017 1.635C67.067 1.625 67.122 1.62 67.182 1.62C67.282 1.62 67.352 1.625 67.392 1.635H71.937ZM76.992 11.745C76.972 11.865 76.957 11.985 76.947 12.105C76.937 12.215 76.912 12.33 76.872 12.45C76.852 12.49 76.837 12.525 76.827 12.555C76.817 12.585 76.802 12.62 76.782 12.66C76.712 12.8 76.622 12.91 76.512 12.99C76.282 13.13 76.027 13.165 75.747 13.095C75.587 13.065 75.457 13.005 75.357 12.915C75.267 12.835 75.197 12.73 75.147 12.6C75.107 12.48 75.072 12.36 75.042 12.24C75.022 12.12 75.012 12.015 75.012 11.925C75.012 11.835 75.012 11.785 75.012 11.775V2.67C75.012 2.55 75.012 2.42 75.012 2.28C75.012 2.14 75.022 2 75.042 1.86C75.062 1.72 75.092 1.59 75.132 1.47C75.172 1.35 75.227 1.255 75.297 1.185C75.407 1.075 75.522 1.01 75.642 0.99C75.762 0.96 75.892 0.944999 76.032 0.944999C76.202 0.944999 76.357 0.994999 76.497 1.095C76.647 1.185 76.752 1.315 76.812 1.485C76.902 1.695 76.952 1.915 76.962 2.145C76.972 2.375 76.982 2.605 76.992 2.835V2.91C77.012 3.68 77.017 4.47 77.007 5.28C76.997 6.09 76.992 6.855 76.992 7.575V11.205C76.992 11.295 76.992 11.385 76.992 11.475C77.002 11.565 77.002 11.655 76.992 11.745Z" fill="black"/>
<path d="M83.3644 1.32C83.9644 1.64 84.3894 2.08 84.6394 2.64C84.8994 3.2 84.9994 3.87 84.9394 4.65C84.8794 5.65 84.5944 6.395 84.0844 6.885C83.5844 7.375 82.8144 7.62 81.7744 7.62C81.5044 7.62 81.2544 7.625 81.0244 7.635C80.8044 7.635 80.5944 7.62 80.3944 7.59C80.1944 7.56 79.9894 7.51 79.7794 7.44C79.5694 7.36 79.3444 7.24 79.1044 7.08C78.6344 6.77 78.3094 6.365 78.1294 5.865C77.9594 5.365 77.8744 4.85 77.8744 4.32C77.8744 3.79 77.9694 3.295 78.1594 2.835C78.3494 2.365 78.6594 1.965 79.0894 1.635C79.4394 1.355 79.8294 1.15 80.2594 1.02C80.6994 0.889999 81.1394 0.844999 81.5794 0.884999C81.7794 0.905 81.9494 0.925 82.0894 0.944999C82.2394 0.954999 82.3794 0.974999 82.5094 1.005C82.6394 1.035 82.7694 1.075 82.8994 1.125C83.0294 1.175 83.1844 1.24 83.3644 1.32ZM87.1894 9C87.4894 8.99 87.7244 9.015 87.8944 9.075C88.0744 9.135 88.2144 9.215 88.3144 9.315C88.4144 9.415 88.4794 9.525 88.5094 9.645C88.5394 9.765 88.5544 9.885 88.5544 10.005V11.745C88.5744 11.965 88.5744 12.185 88.5544 12.405C88.5344 12.615 88.4494 12.785 88.2994 12.915C88.1594 13.045 87.9744 13.11 87.7444 13.11C87.6944 13.11 87.6044 13.105 87.4744 13.095C87.3444 13.095 87.2544 13.085 87.2044 13.065C87.0744 13.025 86.9694 12.965 86.8894 12.885C86.8194 12.805 86.7644 12.715 86.7244 12.615C86.6844 12.515 86.6594 12.41 86.6494 12.3C86.6394 12.18 86.6294 12.065 86.6194 11.955C86.6194 11.915 86.6144 11.84 86.6044 11.73C86.6044 11.61 86.5994 11.49 86.5894 11.37C86.5894 11.24 86.5844 11.12 86.5744 11.01C86.5744 10.9 86.5694 10.825 86.5594 10.785C86.5294 10.775 86.4444 10.765 86.3044 10.755C86.1744 10.745 85.9244 10.74 85.5544 10.74C85.2344 10.74 85.0344 10.745 84.9544 10.755C84.8844 10.755 84.8444 10.76 84.8344 10.77H79.4194L79.4044 10.755C79.4044 10.755 79.3694 10.745 79.2994 10.725C79.2394 10.705 79.1694 10.675 79.0894 10.635C79.0094 10.595 78.9294 10.54 78.8494 10.47C78.7794 10.4 78.7394 10.31 78.7294 10.2C78.6794 9.82 78.7444 9.52 78.9244 9.3C79.0444 9.16 79.1744 9.08 79.3144 9.06C79.4544 9.03 79.5294 9.015 79.5394 9.015L87.1894 9ZM83.1544 4.815C83.1544 4.595 83.1444 4.39 83.1244 4.2C83.1044 4 83.0594 3.82 82.9894 3.66C82.9294 3.49 82.8344 3.34 82.7044 3.21C82.5744 3.08 82.4044 2.975 82.1944 2.895C81.9644 2.815 81.7144 2.775 81.4444 2.775C81.1744 2.775 80.9194 2.825 80.6794 2.925C80.4394 3.015 80.2294 3.16 80.0494 3.36C79.8694 3.55 79.7544 3.8 79.7044 4.11C79.6744 4.32 79.6744 4.535 79.7044 4.755C79.7444 4.965 79.8194 5.16 79.9294 5.34C80.0494 5.51 80.2094 5.655 80.4094 5.775C80.6194 5.895 80.8794 5.97 81.1894 6C81.3994 6.02 81.6094 6.02 81.8194 6C82.0294 5.97 82.2244 5.91 82.4044 5.82C82.5844 5.73 82.7394 5.605 82.8694 5.445C82.9994 5.275 83.0944 5.065 83.1544 4.815ZM86.2444 6.705C86.1044 6.705 85.9644 6.68 85.8244 6.63C85.6944 6.58 85.5794 6.47 85.4794 6.3C85.4494 6.26 85.4244 6.205 85.4044 6.135C85.3944 6.065 85.3844 5.995 85.3744 5.925C85.3744 5.845 85.3744 5.77 85.3744 5.7C85.3844 5.63 85.3944 5.575 85.4044 5.535C85.4244 5.425 85.4794 5.33 85.5694 5.25C85.6594 5.16 85.7644 5.09 85.8844 5.04C85.9244 5.03 86.0044 5.02 86.1244 5.01C86.2544 5 86.3894 4.995 86.5294 4.995H87.0544V3.975L86.2444 3.96C86.1044 3.96 85.9644 3.935 85.8244 3.885C85.6844 3.835 85.5644 3.725 85.4644 3.555C85.3844 3.425 85.3444 3.29 85.3444 3.15C85.3444 3.01 85.3744 2.88 85.4344 2.76C85.5044 2.64 85.5944 2.54 85.7044 2.46C85.8244 2.38 85.9644 2.335 86.1244 2.325L87.0994 2.28L87.1144 1.74C87.1144 1.62 87.1294 1.505 87.1594 1.395C87.1894 1.285 87.2644 1.185 87.3844 1.095C87.4644 1.035 87.5594 0.995 87.6694 0.975C87.7894 0.955 87.8994 0.94 87.9994 0.93C88.2494 0.899999 88.4644 0.985 88.6444 1.185C88.7144 1.275 88.7644 1.36 88.7944 1.44C88.8344 1.56 88.8494 1.71 88.8394 1.89C88.8394 2.07 88.8394 2.225 88.8394 2.355V6.6C88.8394 6.6 88.8394 6.665 88.8394 6.795C88.8394 6.925 88.8294 7.07 88.8094 7.23C88.7894 7.39 88.7544 7.55 88.7044 7.71C88.6644 7.86 88.5944 7.965 88.4944 8.025C88.4244 8.065 88.3394 8.095 88.2394 8.115C88.1394 8.135 88.0494 8.145 87.9694 8.145C87.7994 8.145 87.6344 8.09 87.4744 7.98C87.3544 7.9 87.2694 7.805 87.2194 7.695C87.1894 7.635 87.1644 7.56 87.1444 7.47C87.1244 7.38 87.1094 7.29 87.0994 7.2C87.0894 7.1 87.0794 7.005 87.0694 6.915C87.0594 6.825 87.0544 6.755 87.0544 6.705H86.2444Z" fill="black"/>
<path d="M99.7623 11.985C99.9123 12.005 100.047 12.05 100.167 12.12C100.287 12.18 100.372 12.295 100.422 12.465C100.542 12.835 100.412 13.105 100.032 13.275C99.9223 13.325 99.8073 13.355 99.6873 13.365C99.5673 13.375 99.4523 13.38 99.3423 13.38H92.4423C92.2423 13.38 92.0373 13.375 91.8273 13.365C91.6173 13.365 91.4023 13.36 91.1823 13.35C90.9823 13.34 90.8123 13.26 90.6723 13.11C90.5323 12.96 90.4523 12.765 90.4323 12.525L90.3873 11.415C90.3773 11.305 90.3773 11.17 90.3873 11.01C90.3973 10.85 90.4473 10.72 90.5373 10.62C90.6773 10.46 90.8623 10.36 91.0923 10.32C91.3223 10.28 91.5473 10.26 91.7673 10.26C91.9073 10.26 92.1373 10.26 92.4573 10.26C92.7773 10.26 93.2123 10.265 93.7623 10.275C94.3123 10.275 94.9923 10.275 95.8023 10.275C96.6223 10.275 97.5973 10.275 98.7273 10.275V9.705H91.4373C91.3373 9.705 91.2473 9.705 91.1673 9.705C91.0873 9.705 91.0123 9.695 90.9423 9.675C90.8523 9.645 90.7723 9.62 90.7023 9.6C90.6323 9.58 90.5723 9.53 90.5223 9.45C90.3823 9.22 90.3473 8.995 90.4173 8.775C90.4473 8.685 90.4923 8.615 90.5523 8.565C90.6123 8.515 90.6773 8.475 90.7473 8.445C90.8273 8.415 90.9073 8.395 90.9873 8.385C91.0673 8.375 91.1323 8.365 91.1823 8.355C91.3323 8.325 91.4873 8.31 91.6473 8.31C91.8673 8.31 92.1173 8.31 92.3973 8.31C92.6873 8.31 93.0873 8.315 93.5973 8.325C94.1173 8.325 94.7923 8.325 95.6223 8.325C96.4623 8.325 97.5473 8.325 98.8773 8.325C99.3873 8.325 99.7723 8.41 100.032 8.58C100.302 8.74 100.437 9.005 100.437 9.375V10.485C100.437 10.625 100.402 10.77 100.332 10.92C100.272 11.06 100.162 11.18 100.002 11.28C99.8823 11.36 99.7573 11.405 99.6273 11.415C99.4973 11.415 99.3673 11.415 99.2373 11.415H92.2173V11.985H99.7623ZM90.4473 2.985C90.4473 2.575 90.5623 2.23 90.7923 1.95C91.0323 1.66 91.3673 1.43 91.7973 1.26C92.2373 1.08 92.7723 0.95 93.4023 0.87C94.0323 0.789999 94.7473 0.749999 95.5473 0.749999C96.3073 0.749999 97.0023 0.784999 97.6323 0.855C98.2623 0.915 98.8023 1.03 99.2523 1.2C99.7023 1.36 100.047 1.585 100.287 1.875C100.537 2.165 100.662 2.535 100.662 2.985C100.662 3.435 100.557 3.805 100.347 4.095C100.137 4.385 99.8173 4.615 99.3873 4.785C98.9573 4.945 98.4223 5.06 97.7823 5.13C97.1423 5.19 96.3973 5.22 95.5473 5.22C94.8373 5.22 94.1723 5.19 93.5523 5.13C92.9423 5.06 92.4023 4.945 91.9323 4.785C91.4723 4.615 91.1073 4.385 90.8373 4.095C90.5773 3.805 90.4473 3.435 90.4473 2.985ZM91.0323 5.88C91.1123 5.87 91.2023 5.865 91.3023 5.865C91.4023 5.855 91.5073 5.85 91.6173 5.85H95.2923C95.8223 5.84 96.3423 5.835 96.8523 5.835C97.2823 5.835 97.7323 5.835 98.2023 5.835C98.6723 5.835 99.0773 5.84 99.4173 5.85H99.4923C99.6923 5.86 99.8923 5.865 100.092 5.865C100.292 5.865 100.492 5.905 100.692 5.985C100.832 6.035 100.942 6.12 101.022 6.24C101.112 6.36 101.157 6.495 101.157 6.645C101.157 6.895 101.057 7.105 100.857 7.275C100.697 7.415 100.502 7.495 100.272 7.515C100.042 7.535 99.8273 7.535 99.6273 7.515H91.0173C91.0073 7.515 90.9623 7.515 90.8823 7.515C90.8023 7.515 90.7073 7.505 90.5973 7.485C90.4973 7.465 90.3873 7.435 90.2673 7.395C90.1573 7.355 90.0673 7.295 89.9973 7.215C89.8773 7.095 89.8173 6.925 89.8173 6.705C89.8173 6.495 89.8823 6.325 90.0123 6.195C90.1423 6.065 90.2773 5.99 90.4173 5.97C90.5573 5.94 90.7023 5.915 90.8523 5.895C90.8823 5.895 90.9123 5.895 90.9423 5.895C90.9723 5.885 91.0023 5.88 91.0323 5.88ZM98.6073 2.985C98.6073 2.825 98.5123 2.695 98.3223 2.595C98.1423 2.495 97.9073 2.42 97.6173 2.37C97.3273 2.31 96.9973 2.27 96.6273 2.25C96.2673 2.23 95.9073 2.22 95.5473 2.22C95.1873 2.22 94.8323 2.23 94.4823 2.25C94.1323 2.27 93.8173 2.31 93.5373 2.37C93.2573 2.42 93.0273 2.495 92.8473 2.595C92.6773 2.695 92.5923 2.825 92.5923 2.985C92.5923 3.125 92.6773 3.24 92.8473 3.33C93.0173 3.42 93.2423 3.49 93.5223 3.54C93.8023 3.59 94.1123 3.625 94.4523 3.645C94.8023 3.665 95.1573 3.675 95.5173 3.675C95.8773 3.675 96.2373 3.675 96.5973 3.675C96.9673 3.665 97.3023 3.64 97.6023 3.6C97.9023 3.56 98.1423 3.495 98.3223 3.405C98.5123 3.305 98.6073 3.165 98.6073 2.985Z" fill="black"/>
<path d="M115.416 11.205C115.416 11.205 115.446 11.215 115.506 11.235C115.576 11.255 115.651 11.29 115.731 11.34C115.811 11.38 115.886 11.44 115.956 11.52C116.026 11.59 116.071 11.675 116.091 11.775C116.141 12.155 116.076 12.45 115.896 12.66C115.776 12.8 115.646 12.885 115.506 12.915C115.366 12.945 115.291 12.96 115.281 12.96H107.466C107.056 12.96 106.736 12.895 106.506 12.765C106.276 12.645 106.161 12.47 106.161 12.24V10.155C106.161 10.095 106.156 10.02 106.146 9.93C106.146 9.84 106.146 9.745 106.146 9.645C106.146 9.535 106.146 9.435 106.146 9.345C106.156 9.255 106.161 9.18 106.161 9.12C106.181 8.91 106.281 8.74 106.461 8.61C106.641 8.48 106.846 8.415 107.076 8.415C107.126 8.415 107.186 8.42 107.256 8.43C107.336 8.43 107.401 8.44 107.451 8.46C107.581 8.5 107.686 8.57 107.766 8.67C107.846 8.76 107.906 8.865 107.946 8.985C107.986 9.105 108.011 9.235 108.021 9.375C108.031 9.505 108.041 9.625 108.051 9.735C108.051 9.775 108.051 9.87 108.051 10.02C108.051 10.16 108.051 10.315 108.051 10.485C108.051 10.645 108.051 10.795 108.051 10.935C108.051 11.065 108.051 11.145 108.051 11.175C108.081 11.185 108.161 11.2 108.291 11.22C108.431 11.23 108.686 11.235 109.056 11.235C109.376 11.235 109.661 11.23 109.911 11.22C110.161 11.21 110.291 11.205 110.301 11.205H115.416ZM105.426 7.74C105.286 7.68 105.186 7.565 105.126 7.395C105.046 7.195 105.031 6.995 105.081 6.795C105.141 6.595 105.231 6.405 105.351 6.225C105.471 6.045 105.606 5.875 105.756 5.715C105.916 5.555 106.051 5.405 106.161 5.265C106.331 5.055 106.496 4.845 106.656 4.635C106.816 4.425 106.981 4.21 107.151 3.99C107.271 3.82 107.396 3.62 107.526 3.39C107.656 3.16 107.731 2.935 107.751 2.715C107.751 2.655 107.756 2.58 107.766 2.49C107.776 2.39 107.781 2.29 107.781 2.19C107.791 2.08 107.801 1.98 107.811 1.89C107.821 1.8 107.836 1.725 107.856 1.665C107.916 1.465 108.011 1.33 108.141 1.26C108.281 1.18 108.491 1.14 108.771 1.14C108.931 1.14 109.111 1.17 109.311 1.23C109.511 1.28 109.646 1.385 109.716 1.545C109.786 1.725 109.806 1.935 109.776 2.175C109.756 2.405 109.776 2.615 109.836 2.805C109.886 2.955 109.961 3.11 110.061 3.27C110.161 3.43 110.266 3.59 110.376 3.75C110.566 4.02 110.756 4.315 110.946 4.635C111.136 4.945 111.311 5.21 111.471 5.43C111.631 5.64 111.786 5.86 111.936 6.09C112.086 6.31 112.186 6.55 112.236 6.81C112.286 7.03 112.261 7.215 112.161 7.365C112.071 7.505 111.946 7.61 111.786 7.68C111.626 7.74 111.451 7.755 111.261 7.725C111.071 7.685 110.906 7.595 110.766 7.455C110.396 7.075 110.061 6.67 109.761 6.24C109.461 5.8 109.151 5.37 108.831 4.95C108.831 4.95 108.786 5 108.696 5.1C108.606 5.2 108.496 5.33 108.366 5.49C108.236 5.65 108.091 5.825 107.931 6.015C107.771 6.205 107.621 6.385 107.481 6.555C107.341 6.725 107.216 6.875 107.106 7.005C107.006 7.125 106.946 7.2 106.926 7.23C106.816 7.36 106.691 7.475 106.551 7.575C106.411 7.675 106.256 7.745 106.086 7.785C105.976 7.805 105.861 7.815 105.741 7.815C105.631 7.815 105.526 7.79 105.426 7.74ZM113.541 5.235C113.251 5.215 112.991 5.2 112.761 5.19C112.531 5.17 112.351 5.06 112.221 4.86C112.161 4.76 112.131 4.635 112.131 4.485C112.131 4.335 112.141 4.205 112.161 4.095C112.191 3.985 112.246 3.895 112.326 3.825C112.406 3.745 112.546 3.68 112.746 3.63C112.786 3.62 112.861 3.615 112.971 3.615C113.081 3.605 113.196 3.595 113.316 3.585C113.446 3.575 113.566 3.57 113.676 3.57C113.786 3.56 113.861 3.555 113.901 3.555V2.265C113.891 2.155 113.886 2.045 113.886 1.935C113.896 1.825 113.916 1.715 113.946 1.605C113.966 1.525 113.986 1.45 114.006 1.38C114.026 1.31 114.071 1.235 114.141 1.155C114.221 1.055 114.331 0.985 114.471 0.944999C114.621 0.904999 114.781 0.895 114.951 0.915C115.271 0.965 115.476 1.09 115.566 1.29C115.626 1.41 115.661 1.56 115.671 1.74C115.691 1.91 115.701 2.015 115.701 2.055V7.695H115.686C115.686 7.705 115.681 7.74 115.671 7.8C115.661 7.86 115.641 7.935 115.611 8.025C115.581 8.105 115.536 8.19 115.476 8.28C115.416 8.37 115.336 8.445 115.236 8.505C115.096 8.585 114.956 8.625 114.816 8.625C114.646 8.625 114.481 8.57 114.321 8.46C114.201 8.38 114.116 8.28 114.066 8.16C114.006 8.05 113.966 7.94 113.946 7.83C113.926 7.72 113.911 7.61 113.901 7.5V5.235H113.541Z" fill="black"/>
<path d="M122.545 6.045C122.675 6.125 122.765 6.24 122.815 6.39C122.875 6.53 122.9 6.68 122.89 6.84C122.88 7 122.835 7.15 122.755 7.29C122.685 7.43 122.58 7.53 122.44 7.59C122.22 7.7 121.99 7.755 121.75 7.755C121.51 7.755 121.275 7.755 121.045 7.755H119.245C119.075 7.755 118.895 7.75 118.705 7.74C118.525 7.73 118.345 7.71 118.165 7.68C117.985 7.64 117.815 7.585 117.655 7.515C117.495 7.445 117.36 7.355 117.25 7.245C117.15 7.135 117.075 6.995 117.025 6.825C116.975 6.645 116.94 6.47 116.92 6.3C116.9 6.12 116.89 5.965 116.89 5.835C116.9 5.705 116.905 5.635 116.905 5.625V2.28C116.905 2.27 116.9 2.23 116.89 2.16C116.89 2.09 116.895 2.01 116.905 1.92C116.915 1.83 116.93 1.74 116.95 1.65C116.97 1.56 116.995 1.49 117.025 1.44C117.115 1.31 117.205 1.215 117.295 1.155C117.385 1.095 117.505 1.055 117.655 1.035C117.695 1.035 117.74 1.035 117.79 1.035C117.85 1.025 117.91 1.02 117.97 1.02C118.03 1.02 118.1 1.015 118.18 1.005H121.48C121.69 1.005 121.875 1.025 122.035 1.065C122.125 1.085 122.215 1.11 122.305 1.14C122.395 1.16 122.475 1.21 122.545 1.29C122.665 1.41 122.74 1.555 122.77 1.725C122.79 1.805 122.8 1.875 122.8 1.935C122.81 1.995 122.805 2.06 122.785 2.13C122.765 2.33 122.685 2.5 122.545 2.64C122.405 2.78 122.22 2.85 121.99 2.85C121.97 2.85 121.93 2.85 121.87 2.85C121.82 2.85 121.695 2.85 121.495 2.85C121.305 2.84 121.01 2.835 120.61 2.835C120.22 2.835 119.67 2.835 118.96 2.835V3.39C119.28 3.41 119.545 3.415 119.755 3.405C119.975 3.395 120.09 3.39 120.1 3.39H120.805C120.855 3.39 120.905 3.395 120.955 3.405C121.005 3.405 121.06 3.4 121.12 3.39H121.51C121.62 3.39 121.73 3.4 121.84 3.42C121.96 3.44 122.07 3.475 122.17 3.525C122.32 3.605 122.415 3.725 122.455 3.885C122.505 4.045 122.52 4.195 122.5 4.335C122.49 4.405 122.48 4.48 122.47 4.56C122.47 4.63 122.445 4.69 122.395 4.74C122.285 4.89 122.165 4.985 122.035 5.025C121.915 5.055 121.785 5.07 121.645 5.07H118.96V5.505C118.96 5.555 118.965 5.61 118.975 5.67C118.985 5.72 119.01 5.765 119.05 5.805C119.1 5.845 119.16 5.87 119.23 5.88C119.3 5.89 119.36 5.895 119.41 5.895H121.42C121.59 5.895 121.755 5.895 121.915 5.895C122.075 5.895 122.23 5.92 122.38 5.97C122.44 5.98 122.495 6.005 122.545 6.045ZM125.335 6.96C125.325 7.07 125.31 7.185 125.29 7.305C125.27 7.415 125.23 7.525 125.17 7.635C125.1 7.765 125.015 7.86 124.915 7.92C124.845 7.97 124.785 8.01 124.735 8.04C124.685 8.07 124.615 8.085 124.525 8.085C124.385 8.085 124.245 8.045 124.105 7.965C124.005 7.905 123.925 7.83 123.865 7.74C123.805 7.65 123.76 7.565 123.73 7.485C123.7 7.395 123.68 7.32 123.67 7.26C123.66 7.2 123.655 7.165 123.655 7.155V2.22C123.645 2.17 123.645 2.06 123.655 1.89C123.675 1.71 123.715 1.56 123.775 1.44C123.875 1.23 124.08 1.11 124.39 1.08C124.56 1.06 124.7 1.07 124.81 1.11C124.92 1.15 125.015 1.215 125.095 1.305C125.165 1.385 125.21 1.465 125.23 1.545C125.25 1.615 125.27 1.69 125.29 1.77C125.32 1.87 125.335 1.975 125.335 2.085C125.345 2.195 125.35 2.305 125.35 2.415C125.35 2.415 125.345 2.465 125.335 2.565C125.335 2.665 125.335 2.785 125.335 2.925C125.335 3.055 125.335 3.185 125.335 3.315C125.335 3.445 125.335 3.545 125.335 3.615C125.385 3.625 125.475 3.635 125.605 3.645C125.735 3.645 125.87 3.65 126.01 3.66L126.025 2.37C126.015 2.26 126.01 2.155 126.01 2.055C126.02 1.945 126.04 1.835 126.07 1.725C126.11 1.575 126.2 1.425 126.34 1.275C126.5 1.075 126.735 0.995 127.045 1.035C127.305 1.075 127.485 1.205 127.585 1.425C127.645 1.545 127.68 1.69 127.69 1.86C127.71 2.03 127.715 2.135 127.705 2.175V7.2C127.705 7.21 127.7 7.245 127.69 7.305C127.69 7.365 127.675 7.44 127.645 7.53C127.615 7.61 127.57 7.695 127.51 7.785C127.46 7.875 127.385 7.95 127.285 8.01C127.175 8.08 127.06 8.115 126.94 8.115C126.74 8.115 126.575 8.065 126.445 7.965C126.335 7.885 126.25 7.785 126.19 7.665C126.14 7.575 126.1 7.47 126.07 7.35C126.05 7.22 126.035 7.09 126.025 6.96C126.015 6.82 126.01 6.685 126.01 6.555C126.01 6.425 126.01 6.315 126.01 6.225V5.295H125.335V6.96ZM126.085 9.105C126.495 9.105 126.825 9.17 127.075 9.3C127.325 9.42 127.45 9.595 127.45 9.825V11.835C127.47 12.065 127.47 12.285 127.45 12.495C127.43 12.705 127.345 12.875 127.195 13.005C127.055 13.135 126.87 13.2 126.64 13.2C126.59 13.2 126.5 13.195 126.37 13.185C126.24 13.185 126.15 13.175 126.1 13.155C125.97 13.115 125.865 13.055 125.785 12.975C125.715 12.895 125.66 12.805 125.62 12.705C125.58 12.605 125.55 12.5 125.53 12.39C125.52 12.27 125.51 12.155 125.5 12.045C125.5 12.005 125.495 11.93 125.485 11.82C125.485 11.7 125.485 11.58 125.485 11.46C125.485 11.33 125.48 11.21 125.47 11.1C125.47 10.99 125.465 10.915 125.455 10.875C125.425 10.865 125.34 10.855 125.2 10.845C125.07 10.835 124.82 10.83 124.45 10.83C124.13 10.83 123.93 10.835 123.85 10.845C123.78 10.855 123.74 10.86 123.73 10.86H118.315L118.3 10.845C118.3 10.845 118.265 10.835 118.195 10.815C118.135 10.795 118.065 10.765 117.985 10.725C117.905 10.685 117.825 10.63 117.745 10.56C117.675 10.49 117.635 10.4 117.625 10.29C117.575 9.91 117.64 9.61 117.82 9.39C117.94 9.25 118.07 9.17 118.21 9.15C118.35 9.12 118.425 9.105 118.435 9.105H126.085Z" fill="black"/>
<path d="M141.108 3.27C141.268 3.5 141.408 3.76 141.528 4.05C141.648 4.33 141.693 4.66 141.663 5.04C141.623 5.48 141.503 5.86 141.303 6.18C141.103 6.49 140.843 6.75 140.523 6.96C140.213 7.17 139.853 7.335 139.443 7.455C139.033 7.565 138.598 7.63 138.138 7.65H137.388C137.008 7.65 136.583 7.615 136.113 7.545C135.653 7.465 135.213 7.32 134.793 7.11C134.383 6.89 134.038 6.59 133.758 6.21C133.488 5.83 133.353 5.33 133.353 4.71C133.353 4.42 133.383 4.16 133.443 3.93C133.513 3.69 133.608 3.47 133.728 3.27H133.128C132.898 3.27 132.698 3.195 132.528 3.045C132.368 2.885 132.288 2.695 132.288 2.475C132.288 2.255 132.368 2.07 132.528 1.92C132.698 1.76 132.898 1.68 133.128 1.68H136.323V0.959999C136.323 0.869999 136.338 0.779999 136.368 0.69C136.398 0.59 136.453 0.504999 136.533 0.435C136.613 0.364999 136.728 0.309999 136.878 0.269999C137.028 0.219999 137.223 0.194999 137.463 0.194999C137.703 0.194999 137.898 0.219999 138.048 0.269999C138.198 0.309999 138.313 0.364999 138.393 0.435C138.483 0.504999 138.538 0.59 138.558 0.69C138.588 0.779999 138.603 0.869999 138.603 0.959999V1.68H141.813C142.043 1.68 142.243 1.76 142.413 1.92C142.583 2.07 142.668 2.255 142.668 2.475C142.668 2.695 142.583 2.885 142.413 3.045C142.243 3.195 142.043 3.27 141.813 3.27H141.108ZM141.618 8.505C141.778 8.495 141.943 8.5 142.113 8.52C142.293 8.53 142.458 8.565 142.608 8.625C142.758 8.685 142.878 8.775 142.968 8.895C143.068 9.015 143.118 9.18 143.118 9.39C143.118 9.64 143.033 9.83 142.863 9.96C142.693 10.08 142.488 10.17 142.248 10.23C142.018 10.28 141.773 10.31 141.513 10.32C141.263 10.32 141.058 10.32 140.898 10.32C140.808 10.32 140.713 10.325 140.613 10.335C140.523 10.335 140.428 10.335 140.328 10.335C140.038 10.335 139.748 10.335 139.458 10.335C139.168 10.335 138.878 10.33 138.588 10.32C138.598 10.63 138.608 10.915 138.618 11.175C138.628 11.435 138.613 11.695 138.573 11.955C138.543 12.145 138.493 12.33 138.423 12.51C138.353 12.68 138.233 12.82 138.063 12.93C137.913 13.03 137.738 13.08 137.538 13.08C137.338 13.08 137.158 13.035 136.998 12.945C136.868 12.865 136.768 12.75 136.698 12.6C136.638 12.45 136.593 12.305 136.563 12.165C136.543 12.055 136.538 11.935 136.548 11.805C136.558 11.675 136.558 11.555 136.548 11.445V10.32C136.228 10.32 135.938 10.32 135.678 10.32C135.418 10.32 135.163 10.325 134.913 10.335C134.673 10.335 134.428 10.335 134.178 10.335C133.928 10.335 133.653 10.335 133.353 10.335C133.123 10.335 132.903 10.305 132.693 10.245C132.483 10.185 132.318 10.055 132.198 9.855C132.088 9.685 132.033 9.505 132.033 9.315C132.043 9.125 132.118 8.955 132.258 8.805C132.328 8.725 132.423 8.665 132.543 8.625C132.663 8.585 132.778 8.56 132.888 8.55C133.008 8.53 133.108 8.52 133.188 8.52C133.278 8.52 133.328 8.52 133.338 8.52L141.618 8.505ZM139.638 5.16C139.678 4.84 139.658 4.57 139.578 4.35C139.508 4.12 139.383 3.935 139.203 3.795C139.023 3.655 138.798 3.55 138.528 3.48C138.268 3.41 137.978 3.365 137.658 3.345C137.378 3.335 137.103 3.345 136.833 3.375C136.573 3.395 136.338 3.45 136.128 3.54C135.918 3.63 135.738 3.755 135.588 3.915C135.448 4.075 135.358 4.28 135.318 4.53C135.288 4.82 135.318 5.07 135.408 5.28C135.498 5.49 135.633 5.66 135.813 5.79C136.003 5.92 136.233 6.015 136.503 6.075C136.783 6.135 137.088 6.165 137.418 6.165C137.688 6.165 137.948 6.15 138.198 6.12C138.448 6.09 138.673 6.04 138.873 5.97C139.073 5.89 139.238 5.785 139.368 5.655C139.508 5.525 139.598 5.36 139.638 5.16Z" fill="black"/>
<path d="M157.338 11.805C157.498 11.825 157.638 11.865 157.758 11.925C157.878 11.985 157.963 12.095 158.013 12.255C158.133 12.615 158.003 12.87 157.623 13.02C157.503 13.07 157.383 13.1 157.263 13.11C157.143 13.12 157.028 13.125 156.918 13.125H149.943C149.743 13.125 149.533 13.12 149.313 13.11C149.103 13.11 148.888 13.105 148.668 13.095C148.458 13.085 148.283 13.01 148.143 12.87C148.003 12.73 147.923 12.545 147.903 12.315L147.858 11.265C147.848 11.155 147.848 11.025 147.858 10.875C147.868 10.725 147.918 10.6 148.008 10.5C148.148 10.35 148.333 10.255 148.563 10.215C148.803 10.175 149.033 10.155 149.253 10.155C149.393 10.155 149.623 10.155 149.943 10.155C150.273 10.155 150.718 10.16 151.278 10.17C151.838 10.17 152.528 10.17 153.348 10.17C154.178 10.17 155.163 10.17 156.303 10.17V9.63H148.923C148.823 9.63 148.733 9.63 148.653 9.63C148.573 9.63 148.493 9.62 148.413 9.6C148.323 9.58 148.243 9.56 148.173 9.54C148.103 9.52 148.043 9.47 147.993 9.39C147.853 9.18 147.818 8.965 147.888 8.745C147.918 8.665 147.963 8.605 148.023 8.565C148.083 8.515 148.153 8.475 148.233 8.445C148.313 8.415 148.388 8.395 148.458 8.385C148.538 8.375 148.608 8.365 148.668 8.355C148.818 8.325 148.973 8.31 149.133 8.31C149.273 8.31 149.423 8.31 149.583 8.31C149.753 8.31 149.953 8.315 150.183 8.325C150.413 8.325 150.678 8.325 150.978 8.325C151.288 8.325 151.648 8.325 152.058 8.325C152.068 8.215 152.073 8.11 152.073 8.01C152.083 7.9 152.088 7.79 152.088 7.68C152.028 7.68 151.893 7.68 151.683 7.68C151.473 7.67 151.228 7.665 150.948 7.665C150.678 7.665 150.383 7.665 150.063 7.665C149.753 7.655 149.458 7.65 149.178 7.65C148.908 7.64 148.673 7.63 148.473 7.62C148.273 7.61 148.143 7.6 148.083 7.59C147.923 7.57 147.793 7.56 147.693 7.56C147.603 7.56 147.493 7.5 147.363 7.38C147.233 7.26 147.168 7.105 147.168 6.915C147.168 6.705 147.233 6.535 147.363 6.405C147.433 6.325 147.528 6.27 147.648 6.24C147.768 6.2 147.883 6.175 147.993 6.165C148.103 6.145 148.198 6.14 148.278 6.15C148.368 6.15 148.418 6.15 148.428 6.15H157.008C157.158 6.15 157.308 6.15 157.458 6.15C157.608 6.15 157.753 6.155 157.893 6.165C158.033 6.175 158.168 6.19 158.298 6.21C158.438 6.22 158.563 6.275 158.673 6.375C158.783 6.455 158.843 6.545 158.853 6.645C158.873 6.745 158.883 6.855 158.883 6.975C158.883 7.125 158.838 7.245 158.748 7.335C158.668 7.425 158.553 7.495 158.403 7.545C158.203 7.625 157.978 7.66 157.728 7.65C157.488 7.64 157.268 7.64 157.068 7.65C156.568 7.67 156.083 7.68 155.613 7.68C155.153 7.68 154.668 7.68 154.158 7.68C154.158 7.79 154.158 7.9 154.158 8.01C154.158 8.11 154.153 8.215 154.143 8.325H156.453C156.963 8.325 157.353 8.405 157.623 8.565C157.893 8.715 158.028 8.965 158.028 9.315V10.38C158.028 10.52 157.993 10.66 157.923 10.8C157.863 10.93 157.753 11.04 157.593 11.13C157.463 11.21 157.333 11.255 157.203 11.265C157.073 11.265 156.943 11.265 156.813 11.265H149.703V11.805H157.338ZM156.558 4.035C156.748 4.125 156.928 4.225 157.098 4.335C157.278 4.445 157.448 4.555 157.608 4.665C157.688 4.735 157.733 4.825 157.743 4.935C157.763 5.045 157.748 5.155 157.698 5.265C157.658 5.365 157.593 5.455 157.503 5.535C157.413 5.615 157.308 5.67 157.188 5.7C156.868 5.75 156.568 5.75 156.288 5.7C156.018 5.64 155.738 5.545 155.448 5.415C155.178 5.295 154.918 5.18 154.668 5.07C154.428 4.96 154.193 4.84 153.963 4.71C153.893 4.67 153.798 4.62 153.678 4.56C153.568 4.5 153.458 4.445 153.348 4.395C153.218 4.335 153.078 4.27 152.928 4.2C152.758 4.28 152.593 4.355 152.433 4.425C152.293 4.485 152.153 4.55 152.013 4.62C151.883 4.68 151.778 4.73 151.698 4.77C151.438 4.91 151.198 5.03 150.978 5.13C150.758 5.22 150.518 5.325 150.258 5.445C150.058 5.525 149.853 5.615 149.643 5.715C149.443 5.805 149.228 5.85 148.998 5.85C148.818 5.84 148.643 5.795 148.473 5.715C148.303 5.625 148.198 5.485 148.158 5.295C148.148 5.195 148.158 5.08 148.188 4.95C148.228 4.81 148.293 4.695 148.383 4.605C148.483 4.515 148.603 4.425 148.743 4.335L149.778 3.825C149.948 3.745 150.098 3.675 150.228 3.615C150.358 3.555 150.513 3.485 150.693 3.405C150.773 3.355 150.863 3.305 150.963 3.255C151.063 3.195 151.168 3.14 151.278 3.09H150.333C150.173 3.09 150.033 3.09 149.913 3.09C149.803 3.09 149.673 3.08 149.523 3.06C149.413 3.04 149.293 3.03 149.163 3.03C149.033 3.03 148.913 3.005 148.803 2.955C148.743 2.935 148.688 2.9 148.638 2.85C148.598 2.79 148.563 2.73 148.533 2.67C148.473 2.57 148.438 2.46 148.428 2.34C148.418 2.22 148.438 2.105 148.488 1.995C148.568 1.845 148.698 1.73 148.878 1.65C149.058 1.57 149.243 1.53 149.433 1.53H149.778C149.938 1.55 150.053 1.555 150.123 1.545C150.203 1.535 150.323 1.53 150.483 1.53H151.818V0.93C151.818 0.629999 151.948 0.424999 152.208 0.315C152.468 0.205 152.748 0.165 153.048 0.194999C153.318 0.224999 153.523 0.285 153.663 0.375C153.813 0.455 153.893 0.595 153.903 0.795C153.913 0.875 153.918 0.985 153.918 1.125C153.928 1.255 153.933 1.39 153.933 1.53H155.673C155.833 1.53 156.018 1.525 156.228 1.515C156.438 1.505 156.638 1.52 156.828 1.56C157.028 1.59 157.203 1.655 157.353 1.755C157.513 1.845 157.618 1.995 157.668 2.205C157.728 2.445 157.683 2.63 157.533 2.76C157.393 2.88 157.208 2.97 156.978 3.03C156.758 3.08 156.523 3.11 156.273 3.12C156.023 3.12 155.818 3.12 155.658 3.12C155.498 3.11 155.328 3.105 155.148 3.105C154.978 3.105 154.813 3.105 154.653 3.105C154.723 3.145 154.788 3.17 154.848 3.18C154.948 3.23 155.043 3.28 155.133 3.33C155.233 3.37 155.333 3.415 155.433 3.465C155.623 3.555 155.808 3.65 155.988 3.75C156.178 3.84 156.368 3.935 156.558 4.035Z" fill="black"/>
<path d="M159.546 7.74C159.406 7.68 159.306 7.565 159.246 7.395C159.166 7.195 159.151 6.995 159.201 6.795C159.261 6.595 159.351 6.405 159.471 6.225C159.591 6.045 159.726 5.875 159.876 5.715C160.036 5.555 160.171 5.405 160.281 5.265C160.451 5.055 160.616 4.845 160.776 4.635C160.936 4.425 161.101 4.21 161.271 3.99C161.391 3.82 161.516 3.62 161.646 3.39C161.776 3.16 161.851 2.935 161.871 2.715C161.871 2.655 161.876 2.58 161.886 2.49C161.896 2.39 161.901 2.29 161.901 2.19C161.911 2.08 161.921 1.98 161.931 1.89C161.941 1.8 161.956 1.725 161.976 1.665C162.036 1.465 162.131 1.33 162.261 1.26C162.401 1.18 162.611 1.14 162.891 1.14C163.051 1.14 163.231 1.17 163.431 1.23C163.631 1.28 163.766 1.385 163.836 1.545C163.906 1.725 163.926 1.935 163.896 2.175C163.876 2.405 163.896 2.615 163.956 2.805C164.006 2.955 164.081 3.11 164.181 3.27C164.281 3.43 164.386 3.59 164.496 3.75C164.686 4.02 164.876 4.315 165.066 4.635C165.256 4.945 165.431 5.21 165.591 5.43C165.751 5.64 165.906 5.86 166.056 6.09C166.206 6.31 166.306 6.55 166.356 6.81C166.406 7.03 166.381 7.215 166.281 7.365C166.191 7.505 166.066 7.61 165.906 7.68C165.746 7.74 165.571 7.755 165.381 7.725C165.191 7.685 165.026 7.595 164.886 7.455C164.516 7.075 164.181 6.67 163.881 6.24C163.581 5.8 163.271 5.37 162.951 4.95C162.951 4.95 162.906 5 162.816 5.1C162.726 5.2 162.616 5.33 162.486 5.49C162.356 5.65 162.211 5.825 162.051 6.015C161.891 6.205 161.741 6.385 161.601 6.555C161.461 6.725 161.336 6.875 161.226 7.005C161.126 7.125 161.066 7.2 161.046 7.23C160.936 7.36 160.811 7.475 160.671 7.575C160.531 7.675 160.376 7.745 160.206 7.785C160.096 7.805 159.981 7.815 159.861 7.815C159.751 7.815 159.646 7.79 159.546 7.74ZM161.856 12.96C161.446 12.96 161.116 12.87 160.866 12.69C160.616 12.52 160.491 12.32 160.491 12.09V9.93C160.471 9.71 160.471 9.485 160.491 9.255C160.511 9.045 160.591 8.875 160.731 8.745C160.881 8.615 161.071 8.55 161.301 8.55C161.351 8.55 161.441 8.555 161.571 8.565C161.701 8.565 161.791 8.575 161.841 8.595C161.971 8.635 162.071 8.695 162.141 8.775C162.221 8.855 162.281 8.95 162.321 9.06C162.361 9.16 162.386 9.27 162.396 9.39C162.406 9.5 162.416 9.61 162.426 9.72C162.426 9.76 162.426 9.855 162.426 10.005C162.436 10.145 162.441 10.3 162.441 10.47C162.451 10.63 162.456 10.78 162.456 10.92C162.466 11.06 162.476 11.145 162.486 11.175C162.516 11.185 162.596 11.2 162.726 11.22C162.866 11.23 163.121 11.235 163.491 11.235C163.811 11.235 164.006 11.23 164.076 11.22C164.156 11.21 164.201 11.205 164.211 11.205H169.116C169.116 11.205 169.146 11.215 169.206 11.235C169.276 11.255 169.351 11.29 169.431 11.34C169.511 11.38 169.586 11.44 169.656 11.52C169.726 11.59 169.771 11.675 169.791 11.775C169.841 12.155 169.776 12.45 169.596 12.66C169.476 12.8 169.346 12.885 169.206 12.915C169.066 12.945 168.991 12.96 168.981 12.96H161.856ZM169.476 5.73V7.29C169.466 7.4 169.451 7.515 169.431 7.635C169.411 7.745 169.371 7.855 169.311 7.965C169.241 8.095 169.156 8.19 169.056 8.25C168.896 8.36 168.726 8.415 168.546 8.415C168.396 8.415 168.256 8.375 168.126 8.295C168.026 8.235 167.946 8.16 167.886 8.07C167.826 7.98 167.776 7.895 167.736 7.815C167.706 7.735 167.686 7.665 167.676 7.605C167.666 7.535 167.661 7.5 167.661 7.5V2.235C167.661 2.185 167.666 2.075 167.676 1.905C167.696 1.725 167.736 1.575 167.796 1.455C167.896 1.245 168.101 1.125 168.411 1.095C168.581 1.075 168.741 1.085 168.891 1.125C169.041 1.165 169.156 1.23 169.236 1.32C169.296 1.4 169.336 1.48 169.356 1.56C169.386 1.63 169.411 1.705 169.431 1.785C169.461 1.885 169.476 1.99 169.476 2.1C169.486 2.21 169.486 2.32 169.476 2.43V4.05C169.516 4.05 169.591 4.055 169.701 4.065C169.811 4.075 169.926 4.085 170.046 4.095C170.176 4.095 170.296 4.1 170.406 4.11C170.516 4.12 170.591 4.13 170.631 4.14C170.831 4.18 170.971 4.24 171.051 4.32C171.131 4.39 171.186 4.48 171.216 4.59C171.236 4.7 171.246 4.83 171.246 4.98C171.246 5.12 171.216 5.24 171.156 5.34C171.036 5.54 170.856 5.655 170.616 5.685C170.376 5.715 170.111 5.73 169.821 5.73H169.476Z" fill="black"/>
<path d="M176.267 10.74C176.267 10.29 176.397 9.915 176.657 9.615C176.927 9.315 177.287 9.08 177.737 8.91C178.187 8.73 178.717 8.605 179.327 8.535C179.937 8.465 180.587 8.43 181.277 8.43C181.967 8.43 182.617 8.455 183.227 8.505C183.837 8.555 184.367 8.665 184.817 8.835C185.267 8.995 185.622 9.225 185.882 9.525C186.152 9.825 186.287 10.23 186.287 10.74C186.287 11.24 186.152 11.64 185.882 11.94C185.622 12.24 185.267 12.47 184.817 12.63C184.367 12.8 183.837 12.91 183.227 12.96C182.617 13.02 181.967 13.05 181.277 13.05C180.587 13.05 179.937 13.02 179.327 12.96C178.717 12.91 178.187 12.8 177.737 12.63C177.287 12.47 176.927 12.24 176.657 11.94C176.397 11.64 176.267 11.24 176.267 10.74ZM179.987 2.85C179.987 2.85 179.982 2.92 179.972 3.06C179.972 3.2 179.972 3.355 179.972 3.525C179.972 3.695 179.972 3.855 179.972 4.005C179.982 4.155 179.987 4.24 179.987 4.26C180.037 4.31 180.127 4.395 180.257 4.515C180.387 4.625 180.497 4.72 180.587 4.8C180.687 4.88 180.787 4.97 180.887 5.07C180.997 5.16 181.107 5.26 181.217 5.37C181.287 5.44 181.352 5.51 181.412 5.58C181.472 5.64 181.527 5.695 181.577 5.745C181.767 5.935 181.957 6.14 182.147 6.36C182.337 6.58 182.467 6.805 182.537 7.035C182.567 7.125 182.572 7.225 182.552 7.335C182.532 7.445 182.467 7.54 182.357 7.62C182.187 7.72 182.007 7.77 181.817 7.77C181.597 7.77 181.387 7.725 181.187 7.635C180.987 7.545 180.827 7.455 180.707 7.365C180.517 7.225 180.342 7.08 180.182 6.93C180.022 6.77 179.862 6.61 179.702 6.45C179.592 6.34 179.467 6.215 179.327 6.075C179.187 5.925 179.047 5.795 178.907 5.685L178.502 6.09C178.432 6.16 178.362 6.23 178.292 6.3C178.222 6.36 178.157 6.425 178.097 6.495C177.967 6.635 177.832 6.78 177.692 6.93C177.552 7.07 177.392 7.205 177.212 7.335C176.802 7.635 176.417 7.785 176.057 7.785C176.007 7.785 175.962 7.785 175.922 7.785C175.892 7.785 175.852 7.775 175.802 7.755C175.582 7.705 175.437 7.615 175.367 7.485C175.297 7.375 175.272 7.25 175.292 7.11C175.322 6.97 175.367 6.845 175.427 6.735C175.507 6.625 175.597 6.52 175.697 6.42C175.797 6.31 175.897 6.2 175.997 6.09C176.087 5.99 176.227 5.85 176.417 5.67C176.617 5.48 176.817 5.29 177.017 5.1C177.217 4.9 177.402 4.72 177.572 4.56C177.742 4.4 177.847 4.3 177.887 4.26V2.85H176.927C176.807 2.85 176.667 2.855 176.507 2.865C176.347 2.865 176.187 2.855 176.027 2.835C175.877 2.815 175.737 2.775 175.607 2.715C175.477 2.645 175.382 2.535 175.322 2.385C175.272 2.275 175.237 2.15 175.217 2.01C175.207 1.87 175.217 1.74 175.247 1.62C175.287 1.48 175.377 1.385 175.517 1.335C175.657 1.275 175.792 1.235 175.922 1.215C175.942 1.215 176.022 1.215 176.162 1.215C176.312 1.215 176.472 1.215 176.642 1.215C176.812 1.215 176.972 1.215 177.122 1.215C177.272 1.215 177.362 1.21 177.392 1.2H180.902C181.302 1.2 181.637 1.225 181.907 1.275C182.187 1.325 182.412 1.45 182.582 1.65C182.632 1.71 182.662 1.79 182.672 1.89C182.692 1.99 182.692 2.095 182.672 2.205C182.662 2.305 182.632 2.4 182.582 2.49C182.542 2.58 182.482 2.645 182.402 2.685C182.322 2.715 182.227 2.75 182.117 2.79C182.007 2.82 181.912 2.84 181.832 2.85C181.692 2.86 181.547 2.865 181.397 2.865C181.257 2.855 181.117 2.85 180.977 2.85H179.987ZM186.017 5.505V7.02C186.007 7.13 185.992 7.245 185.972 7.365C185.952 7.475 185.912 7.585 185.852 7.695C185.792 7.815 185.707 7.915 185.597 7.995C185.517 8.045 185.422 8.085 185.312 8.115C185.212 8.135 185.122 8.145 185.042 8.145C184.962 8.145 184.877 8.14 184.787 8.13C184.697 8.11 184.622 8.08 184.562 8.04C184.462 7.98 184.382 7.905 184.322 7.815C184.262 7.725 184.212 7.64 184.172 7.56C184.142 7.47 184.122 7.395 184.112 7.335C184.102 7.265 184.097 7.23 184.097 7.23V2.13C184.087 2.09 184.092 1.98 184.112 1.8C184.132 1.62 184.172 1.47 184.232 1.35C184.282 1.25 184.367 1.17 184.487 1.11C184.617 1.05 184.752 1.01 184.892 0.99C185.062 0.969999 185.232 0.979999 185.402 1.02C185.572 1.06 185.697 1.125 185.777 1.215C185.837 1.295 185.877 1.375 185.897 1.455C185.927 1.525 185.952 1.6 185.972 1.68C186.002 1.78 186.017 1.885 186.017 1.995C186.027 2.105 186.027 2.215 186.017 2.325V3.495C186.017 3.545 186.012 3.6 186.002 3.66C186.002 3.71 186.007 3.77 186.017 3.84C186.057 3.84 186.132 3.845 186.242 3.855C186.352 3.855 186.467 3.86 186.587 3.87C186.707 3.87 186.822 3.875 186.932 3.885C187.042 3.895 187.122 3.905 187.172 3.915C187.372 3.955 187.512 4.015 187.592 4.095C187.672 4.165 187.722 4.255 187.742 4.365C187.772 4.475 187.787 4.605 187.787 4.755C187.787 4.895 187.757 5.015 187.697 5.115C187.577 5.315 187.397 5.43 187.157 5.46C186.917 5.48 186.652 5.495 186.362 5.505H186.017ZM184.262 10.74C184.262 10.57 184.172 10.435 183.992 10.335C183.812 10.235 183.577 10.16 183.287 10.11C183.007 10.06 182.687 10.03 182.327 10.02C181.977 10 181.627 9.99 181.277 9.99C180.927 9.99 180.577 10 180.227 10.02C179.887 10.03 179.577 10.06 179.297 10.11C179.027 10.16 178.807 10.235 178.637 10.335C178.467 10.435 178.382 10.57 178.382 10.74C178.382 10.89 178.467 11.015 178.637 11.115C178.807 11.215 179.027 11.29 179.297 11.34C179.577 11.39 179.887 11.425 180.227 11.445C180.577 11.465 180.927 11.475 181.277 11.475C181.627 11.475 181.977 11.475 182.327 11.475C182.687 11.475 183.007 11.455 183.287 11.415C183.577 11.375 183.812 11.305 183.992 11.205C184.172 11.095 184.262 10.94 184.262 10.74Z" fill="black"/>
<path d="M190.687 8.025C190.587 8.045 190.517 8.1 190.477 8.19C190.437 8.28 190.412 8.385 190.402 8.505C190.392 8.615 190.392 8.725 190.402 8.835C190.412 8.945 190.417 9.035 190.417 9.105C190.417 9.225 190.417 9.345 190.417 9.465C190.417 9.585 190.427 9.715 190.447 9.855C190.447 9.915 190.442 10 190.432 10.11C190.432 10.21 190.457 10.285 190.507 10.335C190.507 10.355 190.517 10.37 190.537 10.38C190.557 10.39 190.577 10.395 190.597 10.395C190.707 10.395 190.802 10.395 190.882 10.395C190.972 10.395 191.057 10.395 191.137 10.395C191.217 10.395 191.297 10.395 191.377 10.395C191.467 10.385 191.567 10.375 191.677 10.365C191.857 10.365 192.052 10.365 192.262 10.365C192.482 10.365 192.702 10.365 192.922 10.365C193.152 10.365 193.377 10.37 193.597 10.38C193.817 10.38 194.012 10.385 194.182 10.395C194.322 10.415 194.427 10.45 194.497 10.5C194.577 10.55 194.642 10.615 194.692 10.695C194.752 10.775 194.792 10.865 194.812 10.965C194.832 11.055 194.842 11.155 194.842 11.265C194.862 11.385 194.852 11.5 194.812 11.61C194.782 11.71 194.742 11.79 194.692 11.85C194.642 11.91 194.582 11.965 194.512 12.015C194.452 12.055 194.382 12.1 194.302 12.15C194.102 12.24 193.902 12.285 193.702 12.285C193.512 12.275 193.312 12.28 193.102 12.3C193.012 12.3 192.897 12.305 192.757 12.315C192.627 12.315 192.487 12.315 192.337 12.315C192.187 12.315 192.042 12.315 191.902 12.315C191.762 12.315 191.647 12.31 191.557 12.3C191.477 12.29 191.417 12.285 191.377 12.285C191.337 12.285 191.302 12.285 191.272 12.285C191.242 12.285 191.207 12.29 191.167 12.3C191.137 12.3 191.087 12.3 191.017 12.3C190.877 12.28 190.742 12.275 190.612 12.285C190.482 12.295 190.347 12.3 190.207 12.3C189.967 12.28 189.727 12.255 189.487 12.225C189.247 12.195 189.027 12.11 188.827 11.97C188.687 11.89 188.582 11.755 188.512 11.565C188.452 11.445 188.407 11.31 188.377 11.16C188.347 11.01 188.342 10.865 188.362 10.725C188.372 10.275 188.367 9.775 188.347 9.225C188.337 8.675 188.332 8.165 188.332 7.695C188.332 7.515 188.327 7.315 188.317 7.095C188.317 6.865 188.362 6.675 188.452 6.525C188.542 6.385 188.642 6.285 188.752 6.225C188.862 6.155 188.977 6.11 189.097 6.09C189.227 6.07 189.357 6.065 189.487 6.075C189.627 6.075 189.767 6.075 189.907 6.075H191.287C191.407 6.075 191.522 6.075 191.632 6.075C191.742 6.065 191.862 6.045 191.992 6.015C192.082 5.985 192.142 5.925 192.172 5.835C192.222 5.575 192.247 5.29 192.247 4.98C192.257 4.67 192.252 4.385 192.232 4.125C192.232 4.015 192.232 3.875 192.232 3.705C192.232 3.535 192.202 3.405 192.142 3.315C192.072 3.215 191.917 3.165 191.677 3.165L189.337 3.195C189.197 3.195 189.042 3.18 188.872 3.15C188.702 3.11 188.572 3.035 188.482 2.925C188.452 2.875 188.422 2.83 188.392 2.79C188.362 2.74 188.332 2.675 188.302 2.595C188.222 2.325 188.242 2.08 188.362 1.86C188.492 1.64 188.697 1.5 188.977 1.44C189.217 1.39 189.457 1.375 189.697 1.395C189.937 1.405 190.177 1.4 190.417 1.38H192.232C192.432 1.38 192.637 1.38 192.847 1.38C193.057 1.38 193.262 1.41 193.462 1.47C193.672 1.53 193.852 1.68 194.002 1.92C194.022 1.97 194.037 2.015 194.047 2.055C194.057 2.095 194.072 2.145 194.092 2.205C194.112 2.255 194.127 2.3 194.137 2.34C194.147 2.38 194.152 2.425 194.152 2.475C194.172 2.645 194.182 2.845 194.182 3.075C194.182 3.305 194.182 3.495 194.182 3.645C194.182 3.965 194.187 4.315 194.197 4.695C194.207 5.075 194.212 5.425 194.212 5.745C194.212 6.075 194.207 6.395 194.197 6.705C194.197 7.015 194.152 7.285 194.062 7.515C193.962 7.715 193.822 7.845 193.642 7.905C193.472 7.985 193.287 8.02 193.087 8.01C192.887 8 192.702 7.995 192.532 7.995C192.302 7.995 192.097 8 191.917 8.01C191.737 8.02 191.557 8.025 191.377 8.025C191.297 8.025 191.227 8.025 191.167 8.025C191.117 8.015 191.067 8.01 191.017 8.01C190.977 8 190.932 8 190.882 8.01C190.832 8.01 190.767 8.015 190.687 8.025ZM196.732 2.85C196.732 2.72 196.732 2.58 196.732 2.43C196.742 2.27 196.757 2.115 196.777 1.965C196.807 1.805 196.842 1.66 196.882 1.53C196.932 1.39 197.002 1.275 197.092 1.185C197.222 1.055 197.382 0.99 197.572 0.99H197.602C197.852 1 198.047 1.075 198.187 1.215C198.327 1.345 198.432 1.505 198.502 1.695C198.582 1.885 198.632 2.085 198.652 2.295C198.672 2.495 198.682 2.675 198.682 2.835V11.715C198.682 11.725 198.682 11.775 198.682 11.865C198.682 11.945 198.672 12.045 198.652 12.165C198.632 12.285 198.602 12.405 198.562 12.525C198.522 12.645 198.457 12.745 198.367 12.825C198.297 12.895 198.197 12.95 198.067 12.99C197.937 13.03 197.817 13.05 197.707 13.05C197.467 13.05 197.277 12.97 197.137 12.81C197.007 12.67 196.922 12.535 196.882 12.405C196.852 12.265 196.827 12.11 196.807 11.94C196.807 11.85 196.802 11.72 196.792 11.55C196.792 11.37 196.792 11.175 196.792 10.965C196.792 10.755 196.792 10.55 196.792 10.35C196.792 10.14 196.792 9.965 196.792 9.825H195.577C195.347 9.825 195.167 9.79 195.037 9.72C194.917 9.65 194.832 9.56 194.782 9.45C194.752 9.39 194.722 9.33 194.692 9.27C194.672 9.2 194.662 9.13 194.662 9.06C194.662 8.99 194.662 8.93 194.662 8.88C194.662 8.83 194.672 8.77 194.692 8.7C194.712 8.62 194.737 8.535 194.767 8.445C194.797 8.355 194.842 8.285 194.902 8.235C195.032 8.135 195.172 8.07 195.322 8.04C195.402 8.03 195.502 8.02 195.622 8.01C195.752 8 195.887 7.995 196.027 7.995C196.167 7.985 196.302 7.98 196.432 7.98C196.562 7.97 196.667 7.96 196.747 7.95C196.747 7.77 196.742 7.51 196.732 7.17C196.732 6.83 196.732 6.465 196.732 6.075L195.592 6.045C195.402 6.035 195.232 6.01 195.082 5.97C194.932 5.93 194.832 5.855 194.782 5.745C194.712 5.605 194.677 5.47 194.677 5.34C194.677 5.27 194.677 5.21 194.677 5.16C194.677 5.11 194.687 5.05 194.707 4.98C194.727 4.9 194.752 4.82 194.782 4.74C194.812 4.66 194.857 4.595 194.917 4.545C195.047 4.445 195.187 4.38 195.337 4.35C195.447 4.33 195.637 4.32 195.907 4.32C196.187 4.31 196.457 4.3 196.717 4.29C196.717 4.16 196.717 4.02 196.717 3.87C196.717 3.71 196.717 3.565 196.717 3.435C196.717 3.295 196.717 3.175 196.717 3.075C196.727 2.965 196.732 2.89 196.732 2.85Z" fill="black"/>
<path d="M201.013 12.825C201.003 12.825 200.988 12.815 200.968 12.795C200.868 12.715 200.798 12.605 200.758 12.465C200.728 12.325 200.713 12.2 200.713 12.09C200.703 11.91 200.688 11.73 200.668 11.55C200.658 11.37 200.653 11.195 200.653 11.025C200.653 10.765 200.653 10.53 200.653 10.32C200.653 10.11 200.678 9.88 200.728 9.63C200.758 9.47 200.808 9.345 200.878 9.255C200.948 9.155 201.058 9.075 201.208 9.015C201.488 8.905 201.768 8.85 202.048 8.85H208.813C209.003 8.86 209.198 8.875 209.398 8.895C209.598 8.915 209.788 8.965 209.968 9.045C210.168 9.125 210.298 9.24 210.358 9.39C210.428 9.53 210.473 9.7 210.493 9.9C210.503 10.07 210.508 10.265 210.508 10.485C210.518 10.705 210.518 10.93 210.508 11.16C210.498 11.38 210.483 11.6 210.463 11.82C210.443 12.04 210.408 12.24 210.358 12.42C210.328 12.53 210.293 12.625 210.253 12.705C210.213 12.795 210.133 12.86 210.013 12.9C209.903 12.94 209.788 12.965 209.668 12.975C209.558 12.985 209.448 12.99 209.338 12.99L201.823 12.96C201.693 12.95 201.553 12.945 201.403 12.945C201.253 12.945 201.123 12.905 201.013 12.825ZM201.718 3.495C201.548 3.485 201.383 3.46 201.223 3.42C201.063 3.37 200.923 3.305 200.803 3.225C200.683 3.145 200.598 3.04 200.548 2.91C200.498 2.78 200.498 2.62 200.548 2.43C200.628 2.11 200.823 1.87 201.133 1.71C201.363 1.58 201.603 1.505 201.853 1.485C202.113 1.465 202.373 1.455 202.633 1.455C202.713 1.445 202.793 1.44 202.873 1.44C202.963 1.44 203.048 1.44 203.128 1.44C203.208 1.43 203.288 1.425 203.368 1.425C203.458 1.425 203.548 1.425 203.638 1.425C203.718 1.425 203.928 1.425 204.268 1.425C204.618 1.425 204.993 1.43 205.393 1.44C205.793 1.44 206.163 1.445 206.503 1.455C206.843 1.455 207.053 1.455 207.133 1.455C207.293 1.465 207.448 1.475 207.598 1.485C207.758 1.485 207.918 1.485 208.078 1.485C208.318 1.485 208.558 1.5 208.798 1.53C209.038 1.55 209.273 1.595 209.503 1.665C209.723 1.735 209.848 1.85 209.878 2.01C209.918 2.16 209.953 2.335 209.983 2.535C210.013 2.755 210.033 2.95 210.043 3.12C210.063 3.29 210.068 3.455 210.058 3.615C210.058 3.775 210.048 3.94 210.028 4.11C210.008 4.28 209.988 4.475 209.968 4.695C209.948 4.895 209.913 5.075 209.863 5.235C209.813 5.395 209.688 5.515 209.488 5.595C209.328 5.655 209.133 5.69 208.903 5.7C208.673 5.71 208.493 5.645 208.363 5.505C208.253 5.395 208.188 5.25 208.168 5.07C208.158 4.88 208.143 4.71 208.123 4.56C208.103 4.42 208.098 4.27 208.108 4.11C208.118 3.95 208.083 3.815 208.003 3.705C207.933 3.615 207.838 3.555 207.718 3.525C207.608 3.485 207.488 3.465 207.358 3.465C207.238 3.455 207.113 3.455 206.983 3.465C206.863 3.465 206.758 3.465 206.668 3.465H202.858C202.798 3.465 202.728 3.47 202.648 3.48C202.568 3.48 202.488 3.485 202.408 3.495C202.218 3.515 201.988 3.515 201.718 3.495ZM209.353 6.195C209.513 6.195 209.693 6.195 209.893 6.195C210.103 6.195 210.293 6.22 210.463 6.27C210.633 6.32 210.778 6.41 210.898 6.54C211.018 6.66 211.078 6.85 211.078 7.11C211.078 7.35 210.978 7.56 210.778 7.74C210.618 7.88 210.423 7.96 210.193 7.98C209.973 7.99 209.763 7.99 209.563 7.98C209.553 7.98 209.523 7.98 209.473 7.98C209.433 7.97 209.328 7.965 209.158 7.965C208.998 7.965 208.743 7.965 208.393 7.965C208.043 7.965 207.553 7.965 206.923 7.965C206.303 7.965 205.513 7.965 204.553 7.965C203.593 7.965 202.418 7.965 201.028 7.965C201.018 7.965 200.973 7.965 200.893 7.965C200.813 7.965 200.718 7.955 200.608 7.935C200.508 7.915 200.403 7.89 200.293 7.86C200.183 7.82 200.093 7.76 200.023 7.68C199.903 7.55 199.843 7.375 199.843 7.155C199.843 6.945 199.908 6.775 200.038 6.645C200.168 6.525 200.303 6.425 200.443 6.345C200.583 6.265 200.728 6.215 200.878 6.195C200.908 6.195 200.938 6.2 200.968 6.21C200.998 6.21 201.028 6.205 201.058 6.195C201.198 6.175 201.348 6.175 201.508 6.195C201.668 6.205 201.833 6.205 202.003 6.195C202.523 6.175 203.048 6.17 203.578 6.18C204.118 6.19 204.678 6.195 205.258 6.195C205.888 6.195 206.558 6.19 207.268 6.18C207.978 6.17 208.673 6.175 209.353 6.195ZM202.438 11.115C202.438 11.165 202.438 11.215 202.438 11.265C202.448 11.315 202.468 11.35 202.498 11.37C202.518 11.39 202.548 11.405 202.588 11.415C202.638 11.415 202.688 11.415 202.738 11.415C202.788 11.415 202.848 11.41 202.918 11.4H207.313C207.453 11.41 207.588 11.42 207.718 11.43C207.828 11.44 207.943 11.445 208.063 11.445C208.183 11.445 208.293 11.435 208.393 11.415C208.493 11.405 208.553 11.375 208.573 11.325C208.593 11.275 208.608 11.205 208.618 11.115C208.628 11.035 208.633 10.945 208.633 10.845C208.633 10.735 208.603 10.64 208.543 10.56C208.473 10.48 208.373 10.44 208.243 10.44C208.123 10.43 208.013 10.43 207.913 10.44H204.043C203.823 10.42 203.608 10.415 203.398 10.425C203.188 10.425 202.973 10.43 202.753 10.44C202.673 10.44 202.608 10.445 202.558 10.455C202.518 10.455 202.488 10.5 202.468 10.59C202.448 10.66 202.438 10.73 202.438 10.8C202.438 10.86 202.438 10.92 202.438 10.98C202.448 11 202.448 11.02 202.438 11.04C202.438 11.06 202.438 11.085 202.438 11.115Z" fill="black"/>
<path d="M221.398 11.985C221.548 12.005 221.683 12.05 221.803 12.12C221.923 12.18 222.008 12.295 222.058 12.465C222.178 12.835 222.048 13.105 221.668 13.275C221.558 13.325 221.443 13.355 221.323 13.365C221.203 13.375 221.088 13.38 220.978 13.38H214.078C213.878 13.38 213.673 13.375 213.463 13.365C213.253 13.365 213.038 13.36 212.818 13.35C212.618 13.34 212.448 13.26 212.308 13.11C212.168 12.96 212.088 12.765 212.068 12.525L212.023 11.415C212.013 11.305 212.013 11.17 212.023 11.01C212.033 10.85 212.083 10.72 212.173 10.62C212.313 10.46 212.498 10.36 212.728 10.32C212.958 10.28 213.183 10.26 213.403 10.26C213.543 10.26 213.773 10.26 214.093 10.26C214.413 10.26 214.848 10.265 215.398 10.275C215.948 10.275 216.628 10.275 217.438 10.275C218.258 10.275 219.233 10.275 220.363 10.275V9.705H213.073C212.973 9.705 212.883 9.705 212.803 9.705C212.723 9.705 212.648 9.695 212.578 9.675C212.488 9.645 212.408 9.62 212.338 9.6C212.268 9.58 212.208 9.53 212.158 9.45C212.018 9.22 211.983 8.995 212.053 8.775C212.083 8.685 212.128 8.615 212.188 8.565C212.248 8.515 212.313 8.475 212.383 8.445C212.463 8.415 212.543 8.395 212.623 8.385C212.703 8.375 212.768 8.365 212.818 8.355C212.968 8.325 213.123 8.31 213.283 8.31C213.503 8.31 213.753 8.31 214.033 8.31C214.323 8.31 214.723 8.315 215.233 8.325C215.753 8.325 216.428 8.325 217.258 8.325C218.098 8.325 219.183 8.325 220.513 8.325C221.023 8.325 221.408 8.41 221.668 8.58C221.938 8.74 222.073 9.005 222.073 9.375V10.485C222.073 10.625 222.038 10.77 221.968 10.92C221.908 11.06 221.798 11.18 221.638 11.28C221.518 11.36 221.393 11.405 221.263 11.415C221.133 11.415 221.003 11.415 220.873 11.415H213.853V11.985H221.398ZM212.083 2.985C212.083 2.575 212.198 2.23 212.428 1.95C212.668 1.66 213.003 1.43 213.433 1.26C213.873 1.08 214.408 0.95 215.038 0.87C215.668 0.789999 216.383 0.749999 217.183 0.749999C217.943 0.749999 218.638 0.784999 219.268 0.855C219.898 0.915 220.438 1.03 220.888 1.2C221.338 1.36 221.683 1.585 221.923 1.875C222.173 2.165 222.298 2.535 222.298 2.985C222.298 3.435 222.193 3.805 221.983 4.095C221.773 4.385 221.453 4.615 221.023 4.785C220.593 4.945 220.058 5.06 219.418 5.13C218.778 5.19 218.033 5.22 217.183 5.22C216.473 5.22 215.808 5.19 215.188 5.13C214.578 5.06 214.038 4.945 213.568 4.785C213.108 4.615 212.743 4.385 212.473 4.095C212.213 3.805 212.083 3.435 212.083 2.985ZM212.668 5.88C212.748 5.87 212.838 5.865 212.938 5.865C213.038 5.855 213.143 5.85 213.253 5.85H216.928C217.458 5.84 217.978 5.835 218.488 5.835C218.918 5.835 219.368 5.835 219.838 5.835C220.308 5.835 220.713 5.84 221.053 5.85H221.128C221.328 5.86 221.528 5.865 221.728 5.865C221.928 5.865 222.128 5.905 222.328 5.985C222.468 6.035 222.578 6.12 222.658 6.24C222.748 6.36 222.793 6.495 222.793 6.645C222.793 6.895 222.693 7.105 222.493 7.275C222.333 7.415 222.138 7.495 221.908 7.515C221.678 7.535 221.463 7.535 221.263 7.515H212.653C212.643 7.515 212.598 7.515 212.518 7.515C212.438 7.515 212.343 7.505 212.233 7.485C212.133 7.465 212.023 7.435 211.903 7.395C211.793 7.355 211.703 7.295 211.633 7.215C211.513 7.095 211.453 6.925 211.453 6.705C211.453 6.495 211.518 6.325 211.648 6.195C211.778 6.065 211.913 5.99 212.053 5.97C212.193 5.94 212.338 5.915 212.488 5.895C212.518 5.895 212.548 5.895 212.578 5.895C212.608 5.885 212.638 5.88 212.668 5.88ZM220.243 2.985C220.243 2.825 220.148 2.695 219.958 2.595C219.778 2.495 219.543 2.42 219.253 2.37C218.963 2.31 218.633 2.27 218.263 2.25C217.903 2.23 217.543 2.22 217.183 2.22C216.823 2.22 216.468 2.23 216.118 2.25C215.768 2.27 215.453 2.31 215.173 2.37C214.893 2.42 214.663 2.495 214.483 2.595C214.313 2.695 214.228 2.825 214.228 2.985C214.228 3.125 214.313 3.24 214.483 3.33C214.653 3.42 214.878 3.49 215.158 3.54C215.438 3.59 215.748 3.625 216.088 3.645C216.438 3.665 216.793 3.675 217.153 3.675C217.513 3.675 217.873 3.675 218.233 3.675C218.603 3.665 218.938 3.64 219.238 3.6C219.538 3.56 219.778 3.495 219.958 3.405C220.148 3.305 220.243 3.165 220.243 2.985Z" fill="black"/>
<path d="M228.081 6.525C228.311 6.525 228.576 6.53 228.876 6.54C229.176 6.55 229.496 6.56 229.836 6.57C229.846 6.48 229.851 6.39 229.851 6.3C229.851 6.21 229.851 6.115 229.851 6.015C229.751 5.985 229.641 5.945 229.521 5.895C229.271 5.795 229.036 5.68 228.816 5.55C228.596 5.42 228.406 5.27 228.246 5.1C228.086 4.93 227.956 4.73 227.856 4.5C227.766 4.27 227.721 4.005 227.721 3.705C227.721 3.355 227.771 3.05 227.871 2.79H227.841C227.601 2.79 227.391 2.715 227.211 2.565C227.041 2.405 226.956 2.21 226.956 1.98C226.956 1.76 227.041 1.575 227.211 1.425C227.391 1.265 227.601 1.185 227.841 1.185H229.821V0.69C229.821 0.5 229.906 0.339999 230.076 0.21C230.246 0.07 230.451 0 230.691 0C230.931 0 231.136 0.07 231.306 0.21C231.486 0.339999 231.576 0.5 231.576 0.69V1.185H233.646C233.896 1.185 234.106 1.265 234.276 1.425C234.456 1.575 234.546 1.76 234.546 1.98C234.546 2.21 234.456 2.405 234.276 2.565C234.106 2.715 233.896 2.79 233.646 2.79H233.631C233.681 2.93 233.716 3.075 233.736 3.225C233.766 3.375 233.781 3.535 233.781 3.705C233.781 4.125 233.686 4.48 233.496 4.77C233.316 5.05 233.051 5.315 232.701 5.565C232.431 5.765 232.146 5.915 231.846 6.015V6.03C231.836 6.14 231.831 6.24 231.831 6.33C231.831 6.42 231.826 6.51 231.816 6.6C231.936 6.6 232.036 6.6 232.116 6.6C232.196 6.59 232.281 6.585 232.371 6.585C232.461 6.575 232.571 6.57 232.701 6.57C232.831 6.57 233.011 6.575 233.241 6.585C233.431 6.585 233.616 6.585 233.796 6.585C233.976 6.585 234.151 6.625 234.321 6.705C234.601 6.835 234.741 7.055 234.741 7.365C234.741 7.615 234.651 7.84 234.471 8.04C234.331 8.19 234.156 8.275 233.946 8.295C233.746 8.315 233.556 8.315 233.376 8.295H228.081C228.071 8.295 228.031 8.295 227.961 8.295C227.891 8.295 227.806 8.285 227.706 8.265C227.616 8.245 227.521 8.215 227.421 8.175C227.321 8.125 227.241 8.055 227.181 7.965C227.061 7.845 227.001 7.67 227.001 7.44C227.001 7.33 227.016 7.24 227.046 7.17C227.086 7.09 227.131 7.015 227.181 6.945C227.291 6.815 227.436 6.72 227.616 6.66C227.796 6.59 227.951 6.545 228.081 6.525ZM228.591 10.95V10.935C228.581 10.935 228.541 10.925 228.471 10.905C228.411 10.885 228.341 10.855 228.261 10.815C228.181 10.775 228.101 10.72 228.021 10.65C227.951 10.58 227.911 10.49 227.901 10.38C227.851 9.99 227.911 9.69 228.081 9.48C228.201 9.34 228.331 9.26 228.471 9.24C228.611 9.21 228.686 9.195 228.696 9.195L236.346 9.18C236.766 9.18 237.066 9.265 237.246 9.435C237.436 9.595 237.541 9.855 237.561 10.215V11.775C237.581 11.995 237.581 12.215 237.561 12.435C237.541 12.645 237.456 12.815 237.306 12.945C237.166 13.075 236.981 13.14 236.751 13.14C236.701 13.14 236.611 13.135 236.481 13.125C236.361 13.125 236.276 13.115 236.226 13.095C236.086 13.055 235.976 12.995 235.896 12.915C235.826 12.835 235.771 12.745 235.731 12.645C235.691 12.545 235.666 12.44 235.656 12.33C235.646 12.21 235.636 12.095 235.626 11.985C235.626 11.945 235.621 11.875 235.611 11.775C235.611 11.675 235.606 11.575 235.596 11.475C235.596 11.365 235.591 11.265 235.581 11.175C235.581 11.075 235.576 11.005 235.566 10.965C235.546 10.965 235.481 10.965 235.371 10.965C235.261 10.965 235.121 10.965 234.951 10.965C234.791 10.965 234.611 10.965 234.411 10.965C234.211 10.955 234.021 10.95 233.841 10.95H228.591ZM235.716 2.7C235.716 2.59 235.716 2.465 235.716 2.325C235.716 2.185 235.721 2.05 235.731 1.92C235.751 1.78 235.781 1.65 235.821 1.53C235.861 1.41 235.911 1.32 235.971 1.26C236.081 1.16 236.191 1.1 236.301 1.08C236.421 1.05 236.551 1.035 236.691 1.035C236.861 1.035 237.011 1.085 237.141 1.185C237.281 1.275 237.381 1.395 237.441 1.545C237.521 1.755 237.566 1.97 237.576 2.19C237.586 2.41 237.596 2.63 237.606 2.85C237.606 3.19 237.606 3.51 237.606 3.81C237.616 4.11 237.621 4.405 237.621 4.695C237.821 4.695 238.006 4.7 238.176 4.71C238.356 4.71 238.501 4.715 238.611 4.725C238.741 4.735 238.856 4.785 238.956 4.875C239.066 4.965 239.151 5.075 239.211 5.205C239.271 5.325 239.301 5.455 239.301 5.595C239.301 5.735 239.261 5.855 239.181 5.955C239.041 6.145 238.826 6.27 238.536 6.33C238.256 6.38 237.956 6.405 237.636 6.405V6.885C237.636 7.095 237.621 7.26 237.591 7.38C237.561 7.49 237.526 7.6 237.486 7.71C237.476 7.74 237.466 7.77 237.456 7.8C237.446 7.83 237.431 7.865 237.411 7.905C237.341 8.045 237.251 8.15 237.141 8.22C237.031 8.29 236.911 8.335 236.781 8.355C236.661 8.365 236.536 8.36 236.406 8.34C236.266 8.3 236.146 8.24 236.046 8.16C235.956 8.08 235.886 7.98 235.836 7.86C235.796 7.73 235.766 7.61 235.746 7.5C235.726 7.38 235.716 7.28 235.716 7.2C235.716 7.11 235.716 7.06 235.716 7.05V2.7ZM231.021 4.515C231.161 4.485 231.291 4.46 231.411 4.44C231.531 4.42 231.631 4.385 231.711 4.335C231.801 4.275 231.866 4.2 231.906 4.11C231.956 4.01 231.981 3.875 231.981 3.705C231.981 3.385 231.891 3.16 231.711 3.03C231.531 2.9 231.316 2.82 231.066 2.79H230.286C230.066 2.82 229.881 2.9 229.731 3.03C229.581 3.16 229.506 3.385 229.506 3.705C229.506 3.945 229.546 4.13 229.626 4.26C229.716 4.39 229.831 4.48 229.971 4.53C230.121 4.58 230.286 4.6 230.466 4.59C230.646 4.57 230.831 4.545 231.021 4.515Z" fill="black"/>
<path d="M245.231 1.35C245.841 1.7 246.276 2.15 246.536 2.7C246.666 2.97 246.751 3.27 246.791 3.6C246.831 3.93 246.841 4.3 246.821 4.71C246.791 5.16 246.691 5.565 246.521 5.925C246.351 6.285 246.126 6.595 245.846 6.855C245.576 7.105 245.256 7.3 244.886 7.44C244.516 7.57 244.121 7.635 243.701 7.635H242.936C242.836 7.635 242.736 7.635 242.636 7.635C242.536 7.625 242.431 7.61 242.321 7.59C242.211 7.59 242.106 7.575 242.006 7.545C241.906 7.515 241.801 7.49 241.691 7.47C241.581 7.42 241.471 7.365 241.361 7.305C241.261 7.245 241.141 7.175 241.001 7.095C240.541 6.795 240.221 6.39 240.041 5.88C239.961 5.65 239.901 5.405 239.861 5.145C239.821 4.885 239.801 4.63 239.801 4.38C239.801 4.11 239.821 3.85 239.861 3.6C239.911 3.35 239.991 3.11 240.101 2.88C240.181 2.64 240.301 2.43 240.461 2.25C240.621 2.06 240.801 1.88 241.001 1.71C241.181 1.56 241.366 1.435 241.556 1.335C241.746 1.225 241.956 1.14 242.186 1.08C242.386 0.999999 242.601 0.949999 242.831 0.93C243.061 0.91 243.281 0.91 243.491 0.93C243.601 0.96 243.691 0.98 243.761 0.99C243.841 0.99 243.916 0.99 243.986 0.99C244.066 1.01 244.136 1.025 244.196 1.035C244.266 1.035 244.331 1.05 244.391 1.08C244.461 1.1 244.526 1.12 244.586 1.14C244.656 1.15 244.721 1.17 244.781 1.2C244.841 1.22 244.911 1.245 244.991 1.275C245.071 1.305 245.151 1.33 245.231 1.35ZM250.241 11.19C250.381 11.19 250.496 11.25 250.586 11.37C250.676 11.49 250.736 11.635 250.766 11.805C250.786 12.005 250.776 12.17 250.736 12.3C250.696 12.42 250.636 12.535 250.556 12.645C250.406 12.775 250.276 12.855 250.166 12.885C250.116 12.885 250.071 12.895 250.031 12.915C249.991 12.935 249.936 12.945 249.866 12.945H242.531C242.321 12.945 242.136 12.94 241.976 12.93C241.826 12.92 241.691 12.885 241.571 12.825C241.461 12.765 241.371 12.675 241.301 12.555C241.241 12.445 241.211 12.335 241.211 12.225V9.135C241.271 8.915 241.371 8.75 241.511 8.64C241.621 8.57 241.721 8.52 241.811 8.49C241.911 8.45 242.021 8.43 242.141 8.43C242.161 8.43 242.221 8.44 242.321 8.46C242.431 8.47 242.501 8.475 242.531 8.475C242.591 8.495 242.646 8.52 242.696 8.55C242.756 8.57 242.811 8.615 242.861 8.685C242.881 8.725 242.906 8.77 242.936 8.82C242.966 8.86 242.991 8.91 243.011 8.97C243.041 9.04 243.056 9.105 243.056 9.165C243.066 9.225 243.081 9.285 243.101 9.345V11.145H243.401C243.461 11.155 243.531 11.16 243.611 11.16C243.681 11.17 243.756 11.175 243.836 11.175C243.916 11.175 244.006 11.175 244.106 11.175C244.166 11.175 244.316 11.175 244.556 11.175C244.806 11.175 245.101 11.175 245.441 11.175C245.791 11.165 246.171 11.16 246.581 11.16C246.991 11.16 247.381 11.16 247.751 11.16C248.131 11.16 248.471 11.165 248.771 11.175C249.081 11.175 249.311 11.175 249.461 11.175H249.836C249.856 11.175 249.901 11.18 249.971 11.19C250.041 11.19 250.131 11.19 250.241 11.19ZM245.021 4.245C245.001 4.135 244.981 4.04 244.961 3.96C244.941 3.87 244.921 3.78 244.901 3.69C244.851 3.61 244.806 3.53 244.766 3.45C244.726 3.37 244.671 3.3 244.601 3.24C244.541 3.18 244.471 3.13 244.391 3.09C244.311 3.04 244.216 2.99 244.106 2.94C243.976 2.91 243.851 2.885 243.731 2.865C243.611 2.835 243.486 2.82 243.356 2.82C243.216 2.82 243.081 2.835 242.951 2.865C242.821 2.885 242.701 2.91 242.591 2.94C242.471 3.01 242.356 3.08 242.246 3.15C242.146 3.22 242.056 3.31 241.976 3.42C241.876 3.5 241.801 3.605 241.751 3.735C241.701 3.855 241.651 4 241.601 4.17C241.601 4.28 241.601 4.385 241.601 4.485C241.601 4.585 241.611 4.69 241.631 4.8C241.631 4.9 241.651 5 241.691 5.1C241.731 5.2 241.781 5.29 241.841 5.37C241.911 5.46 241.986 5.54 242.066 5.61C242.146 5.67 242.231 5.73 242.321 5.79C242.431 5.85 242.546 5.905 242.666 5.955C242.786 5.995 242.931 6.025 243.101 6.045C243.211 6.045 243.316 6.045 243.416 6.045C243.516 6.035 243.621 6.02 243.731 6C243.931 6 244.126 5.945 244.316 5.835C244.396 5.795 244.476 5.745 244.556 5.685C244.646 5.615 244.721 5.54 244.781 5.46C244.911 5.28 244.991 5.085 245.021 4.875V4.245ZM250.676 7.305C250.676 7.405 250.666 7.505 250.646 7.605C250.626 7.705 250.606 7.81 250.586 7.92C250.496 8.24 250.286 8.435 249.956 8.505C249.636 8.575 249.376 8.505 249.176 8.295C248.986 8.085 248.871 7.835 248.831 7.545C248.811 7.465 248.796 7.385 248.786 7.305C248.786 7.215 248.786 7.13 248.786 7.05V6.54L248.831 2.67C248.831 2.53 248.826 2.38 248.816 2.22C248.816 2.05 248.826 1.89 248.846 1.74C248.876 1.58 248.931 1.435 249.011 1.305C249.091 1.175 249.216 1.07 249.386 0.99C249.466 0.94 249.551 0.915 249.641 0.915C249.741 0.905 249.846 0.91 249.956 0.93C250.186 0.96 250.356 1.055 250.466 1.215C250.586 1.375 250.656 1.56 250.676 1.77V7.305Z" fill="black"/>
<path d="M255.596 4.635C256.136 4.655 256.591 4.785 256.961 5.025C257.331 5.265 257.631 5.575 257.861 5.955C258.091 6.335 258.251 6.765 258.341 7.245C258.431 7.725 258.466 8.21 258.446 8.7C258.436 9.19 258.366 9.67 258.236 10.14C258.116 10.61 257.956 11.025 257.756 11.385C257.536 11.775 257.226 12.075 256.826 12.285C256.436 12.485 256.016 12.6 255.566 12.63C255.116 12.66 254.671 12.6 254.231 12.45C253.801 12.3 253.436 12.065 253.136 11.745C252.876 11.465 252.691 11.175 252.581 10.875C252.471 10.565 252.391 10.225 252.341 9.855C252.291 9.485 252.251 9.13 252.221 8.79C252.191 8.44 252.186 8.095 252.206 7.755C252.226 7.415 252.281 7.08 252.371 6.75C252.471 6.42 252.621 6.09 252.821 5.76C252.931 5.57 253.086 5.405 253.286 5.265C253.486 5.115 253.711 4.995 253.961 4.905C254.211 4.805 254.476 4.735 254.756 4.695C255.046 4.645 255.326 4.625 255.596 4.635ZM262.616 5.73C262.666 5.73 262.711 5.735 262.751 5.745C262.801 5.755 262.851 5.76 262.901 5.76C262.951 5.77 263.006 5.78 263.066 5.79C263.126 5.79 263.186 5.795 263.246 5.805C263.356 5.825 263.466 5.865 263.576 5.925C263.686 5.975 263.766 6.055 263.816 6.165C263.886 6.275 263.921 6.405 263.921 6.555C263.921 6.635 263.916 6.71 263.906 6.78C263.906 6.84 263.896 6.91 263.876 6.99C263.856 7.07 263.831 7.155 263.801 7.245C263.781 7.335 263.736 7.405 263.666 7.455C263.526 7.555 263.391 7.62 263.261 7.65C263.101 7.67 262.906 7.675 262.676 7.665C262.446 7.655 262.251 7.655 262.091 7.665C262.081 7.665 262.071 7.67 262.061 7.68H262.046L262.031 7.695V7.74C262.021 7.99 262.016 8.28 262.016 8.61C262.026 8.94 262.031 9.235 262.031 9.495C262.051 10.015 262.051 10.525 262.031 11.025V11.235C262.031 11.365 262.026 11.51 262.016 11.67C262.016 11.82 262.006 11.97 261.986 12.12C261.966 12.27 261.931 12.415 261.881 12.555C261.831 12.685 261.761 12.795 261.671 12.885C261.551 13.025 261.391 13.095 261.191 13.095C261.191 13.095 261.181 13.09 261.161 13.08C260.921 13.07 260.726 13 260.576 12.87C260.436 12.74 260.326 12.58 260.246 12.39C260.176 12.2 260.131 12.005 260.111 11.805C260.091 11.595 260.081 11.41 260.081 11.25V2.34C260.081 2.33 260.081 2.285 260.081 2.205C260.081 2.115 260.091 2.015 260.111 1.905C260.131 1.785 260.161 1.665 260.201 1.545C260.251 1.415 260.316 1.31 260.396 1.23C260.466 1.16 260.566 1.11 260.696 1.08C260.836 1.04 260.961 1.02 261.071 1.02C261.291 1.02 261.476 1.095 261.626 1.245C261.766 1.385 261.846 1.535 261.866 1.695C261.896 1.845 261.921 2.005 261.941 2.175C261.951 2.215 261.956 2.275 261.956 2.355C261.976 2.525 261.986 2.7 261.986 2.88C261.996 3.06 262.006 3.24 262.016 3.42C262.016 3.53 262.016 3.64 262.016 3.75C262.026 3.85 262.031 3.955 262.031 4.065C262.021 4.125 262.016 4.185 262.016 4.245C262.026 4.295 262.031 4.345 262.031 4.395V5.37C262.031 5.42 262.031 5.475 262.031 5.535C262.031 5.595 262.041 5.65 262.061 5.7C262.061 5.71 262.111 5.715 262.211 5.715C262.311 5.715 262.366 5.715 262.376 5.715C262.466 5.735 262.536 5.74 262.586 5.73H262.616ZM257.696 2.235C257.896 2.235 258.096 2.265 258.296 2.325C258.496 2.385 258.651 2.515 258.761 2.715C258.831 2.845 258.856 3.01 258.836 3.21C258.816 3.4 258.756 3.56 258.656 3.69C258.556 3.81 258.401 3.895 258.191 3.945C257.981 3.995 257.761 4.03 257.531 4.05C257.301 4.06 257.086 4.06 256.886 4.05C256.696 4.04 256.566 4.035 256.496 4.035C256.416 4.045 256.336 4.05 256.256 4.05C256.186 4.05 256.106 4.05 256.016 4.05H255.536C255.456 4.04 255.376 4.035 255.296 4.035C255.226 4.035 255.151 4.035 255.071 4.035L253.301 4.005C252.791 4.005 252.426 3.94 252.206 3.81C251.986 3.68 251.856 3.475 251.816 3.195C251.776 2.905 251.851 2.67 252.041 2.49C252.181 2.37 252.296 2.295 252.386 2.265C252.486 2.235 252.611 2.22 252.761 2.22C252.801 2.22 252.841 2.225 252.881 2.235C252.921 2.235 252.961 2.235 253.001 2.235H253.376C253.516 2.235 253.681 2.235 253.871 2.235C254.061 2.225 254.226 2.215 254.366 2.205C254.366 2.165 254.366 2.11 254.366 2.04C254.376 1.96 254.381 1.88 254.381 1.8C254.391 1.72 254.396 1.645 254.396 1.575C254.406 1.495 254.411 1.44 254.411 1.41C254.431 1.24 254.486 1.085 254.576 0.944999C254.786 0.655 255.046 0.52 255.356 0.539999C255.496 0.56 255.636 0.585 255.776 0.614999C255.916 0.635 256.031 0.705 256.121 0.824999C256.231 0.985 256.281 1.205 256.271 1.485C256.271 1.755 256.281 2 256.301 2.22H256.736C256.816 2.22 256.931 2.225 257.081 2.235C257.231 2.235 257.346 2.235 257.426 2.235H257.696ZM255.536 10.98C255.756 10.95 255.946 10.865 256.106 10.725C256.266 10.575 256.396 10.4 256.496 10.2C256.596 10 256.666 9.785 256.706 9.555C256.746 9.325 256.766 9.11 256.766 8.91C256.766 8.74 256.756 8.55 256.736 8.34C256.726 8.12 256.701 7.91 256.661 7.71C256.621 7.5 256.556 7.31 256.466 7.14C256.376 6.96 256.256 6.815 256.106 6.705C255.966 6.615 255.801 6.56 255.611 6.54C255.421 6.51 255.226 6.515 255.026 6.555C254.836 6.595 254.661 6.665 254.501 6.765C254.341 6.855 254.226 6.98 254.156 7.14C253.966 7.55 253.866 7.96 253.856 8.37C253.856 8.78 253.901 9.2 253.991 9.63C254.041 9.85 254.111 10.08 254.201 10.32C254.291 10.55 254.431 10.73 254.621 10.86C254.661 10.89 254.721 10.915 254.801 10.935C254.891 10.945 254.981 10.955 255.071 10.965C255.171 10.975 255.261 10.985 255.341 10.995C255.431 10.995 255.496 10.99 255.536 10.98Z" fill="black"/>
<path d="M272.816 11.1C272.816 11.35 272.806 11.55 272.786 11.7C272.776 11.85 272.731 12.04 272.651 12.27C272.601 12.42 272.516 12.545 272.396 12.645C272.276 12.745 272.106 12.795 271.886 12.795C271.826 12.795 271.746 12.785 271.646 12.765C271.546 12.755 271.471 12.73 271.421 12.69C271.321 12.63 271.241 12.535 271.181 12.405C271.131 12.265 271.091 12.12 271.061 11.97C271.031 11.82 271.011 11.675 271.001 11.535C271.001 11.395 271.001 11.285 271.001 11.205V7.2L270.026 7.155C269.936 7.155 269.841 7.145 269.741 7.125C269.651 7.095 269.561 7.05 269.471 6.99C269.391 6.93 269.321 6.85 269.261 6.75C269.201 6.65 269.166 6.525 269.156 6.375C269.136 6.195 269.146 6.005 269.186 5.805C269.236 5.595 269.376 5.435 269.606 5.325C269.696 5.275 269.806 5.245 269.936 5.235C270.076 5.225 270.196 5.225 270.296 5.235H271.001V2.505C271.001 2.375 271.001 2.245 271.001 2.115C271.001 1.975 271.016 1.84 271.046 1.71C271.066 1.66 271.081 1.615 271.091 1.575C271.111 1.535 271.131 1.49 271.151 1.44C271.261 1.26 271.416 1.135 271.616 1.065C271.666 1.045 271.716 1.035 271.766 1.035C271.826 1.025 271.881 1.02 271.931 1.02C272.261 1.02 272.511 1.17 272.681 1.47C272.721 1.53 272.746 1.615 272.756 1.725C272.776 1.835 272.791 1.95 272.801 2.07C272.811 2.18 272.816 2.28 272.816 2.37C272.816 2.45 272.816 2.5 272.816 2.52V11.1ZM275.201 12.375C275.141 12.505 275.046 12.615 274.916 12.705C274.716 12.835 274.496 12.87 274.256 12.81C274.106 12.78 273.986 12.715 273.896 12.615C273.806 12.525 273.736 12.42 273.686 12.3C273.646 12.18 273.621 12.05 273.611 11.91C273.601 11.77 273.596 11.635 273.596 11.505V2.67C273.596 2.56 273.596 2.435 273.596 2.295C273.596 2.145 273.606 2.005 273.626 1.875C273.646 1.735 273.671 1.605 273.701 1.485C273.741 1.365 273.796 1.27 273.866 1.2C273.976 1.1 274.081 1.04 274.181 1.02C274.281 0.99 274.401 0.975 274.541 0.975C274.711 0.975 274.851 1.025 274.961 1.125C275.071 1.215 275.156 1.34 275.216 1.5C275.306 1.71 275.356 1.925 275.366 2.145C275.376 2.365 275.386 2.59 275.396 2.82V2.895C275.416 3.655 275.421 4.385 275.411 5.085C275.401 5.785 275.396 6.49 275.396 7.2V10.95C275.396 11.21 275.386 11.46 275.366 11.7C275.356 11.94 275.301 12.165 275.201 12.375ZM267.401 9.495C267.391 9.505 267.341 9.57 267.251 9.69C267.171 9.8 267.081 9.925 266.981 10.065C266.891 10.195 266.801 10.315 266.711 10.425C266.631 10.535 266.586 10.595 266.576 10.605C266.496 10.715 266.416 10.825 266.336 10.935C266.266 11.035 266.191 11.135 266.111 11.235C266.091 11.255 266.071 11.28 266.051 11.31C266.041 11.34 266.026 11.365 266.006 11.385C265.866 11.555 265.721 11.72 265.571 11.88C265.421 12.04 265.246 12.16 265.046 12.24C264.966 12.28 264.876 12.3 264.776 12.3C264.676 12.3 264.591 12.275 264.521 12.225C264.461 12.175 264.391 12.11 264.311 12.03C264.151 11.85 264.071 11.64 264.071 11.4C264.081 11.22 264.121 11.05 264.191 10.89C264.271 10.73 264.351 10.58 264.431 10.44C264.451 10.42 264.506 10.335 264.596 10.185C264.696 10.035 264.811 9.85 264.941 9.63C265.071 9.41 265.206 9.175 265.346 8.925C265.496 8.665 265.636 8.425 265.766 8.205C265.906 7.975 266.026 7.775 266.126 7.605C266.226 7.435 266.296 7.33 266.336 7.29C266.396 7.18 266.441 7.075 266.471 6.975C266.511 6.875 266.536 6.77 266.546 6.66C266.566 6.5 266.576 6.345 266.576 6.195C266.576 6.035 266.576 5.865 266.576 5.685V3.03C266.576 2.93 266.576 2.835 266.576 2.745C266.576 2.655 266.581 2.56 266.591 2.46C266.591 2.35 266.601 2.24 266.621 2.13C266.641 2.02 266.661 1.92 266.681 1.83C266.701 1.77 266.726 1.705 266.756 1.635C266.796 1.565 266.831 1.5 266.861 1.44C266.911 1.36 266.976 1.3 267.056 1.26C267.146 1.22 267.241 1.19 267.341 1.17L267.371 1.155C267.451 1.135 267.516 1.13 267.566 1.14C267.616 1.14 267.681 1.155 267.761 1.185C267.841 1.215 267.911 1.26 267.971 1.32C268.011 1.36 268.046 1.415 268.076 1.485C268.106 1.555 268.136 1.63 268.166 1.71C268.206 1.81 268.236 1.925 268.256 2.055C268.286 2.175 268.306 2.305 268.316 2.445C268.356 2.865 268.381 3.34 268.391 3.87C268.401 4.39 268.406 4.86 268.406 5.28C268.416 5.54 268.421 5.8 268.421 6.06C268.421 6.31 268.431 6.56 268.451 6.81C268.461 7.03 268.511 7.235 268.601 7.425C268.701 7.615 268.801 7.805 268.901 7.995C269.001 8.215 269.106 8.44 269.216 8.67C269.326 8.9 269.436 9.12 269.546 9.33C269.556 9.36 269.591 9.43 269.651 9.54C269.711 9.65 269.771 9.77 269.831 9.9C269.901 10.02 269.961 10.135 270.011 10.245C270.071 10.345 270.106 10.41 270.116 10.44L270.146 10.56L270.191 10.65C270.251 10.76 270.296 10.875 270.326 10.995C270.356 11.105 270.376 11.225 270.386 11.355C270.396 11.485 270.366 11.62 270.296 11.76C270.156 12.07 269.956 12.235 269.696 12.255H269.681C269.521 12.255 269.381 12.195 269.261 12.075C269.141 11.955 269.011 11.81 268.871 11.64C268.731 11.48 268.596 11.295 268.466 11.085C268.336 10.875 268.221 10.7 268.121 10.56C267.891 10.18 267.716 9.915 267.596 9.765C267.476 9.605 267.411 9.515 267.401 9.495Z" fill="black"/>
<path d="M286.497 10.35C286.527 10.36 286.557 10.365 286.587 10.365C286.617 10.355 286.647 10.35 286.677 10.35C286.847 10.37 287.002 10.405 287.142 10.455C287.292 10.495 287.437 10.58 287.577 10.71C287.717 10.83 287.787 11 287.787 11.22C287.787 11.33 287.767 11.45 287.727 11.58C287.697 11.7 287.652 11.795 287.592 11.865C287.512 11.945 287.412 12.005 287.292 12.045C287.182 12.085 287.067 12.115 286.947 12.135C286.837 12.145 286.737 12.15 286.647 12.15C286.567 12.15 286.522 12.15 286.512 12.15H278.277C278.227 12.15 278.152 12.155 278.052 12.165C277.952 12.165 277.877 12.165 277.827 12.165C277.607 12.175 277.377 12.175 277.137 12.165C276.897 12.145 276.692 12.065 276.522 11.925C276.312 11.735 276.207 11.52 276.207 11.28C276.207 11.13 276.252 10.975 276.342 10.815C276.432 10.655 276.552 10.545 276.702 10.485C276.902 10.405 277.107 10.365 277.317 10.365C277.537 10.365 277.757 10.36 277.977 10.35H278.052C278.202 10.35 278.377 10.35 278.577 10.35C278.787 10.34 278.972 10.335 279.132 10.335C279.122 10.295 279.117 10.245 279.117 10.185V8.73C279.117 8.64 279.132 8.55 279.162 8.46C279.182 8.38 279.217 8.3 279.267 8.22C279.317 8.13 279.387 8.045 279.477 7.965C279.107 7.875 278.757 7.735 278.427 7.545C278.107 7.355 277.827 7.085 277.587 6.735C277.357 6.425 277.202 6.095 277.122 5.745C277.052 5.395 277.017 5.03 277.017 4.65C277.017 3.87 277.222 3.22 277.632 2.7C278.052 2.17 278.622 1.79 279.342 1.56C279.822 1.4 280.307 1.3 280.797 1.26C281.297 1.21 281.797 1.205 282.297 1.245C282.707 1.275 283.117 1.315 283.527 1.365C283.937 1.415 284.332 1.525 284.712 1.695C284.882 1.775 285.047 1.87 285.207 1.98C285.367 2.09 285.517 2.22 285.657 2.37C286.007 2.75 286.247 3.16 286.377 3.6C286.507 4.04 286.552 4.51 286.512 5.01C286.452 5.79 286.222 6.415 285.822 6.885C285.422 7.345 284.922 7.68 284.322 7.89C284.432 7.95 284.522 8.03 284.592 8.13C284.662 8.23 284.702 8.35 284.712 8.49C284.722 8.65 284.727 8.9 284.727 9.24C284.737 9.57 284.742 9.94 284.742 10.35H285.342C285.522 10.36 285.717 10.36 285.927 10.35C286.147 10.33 286.337 10.33 286.497 10.35ZM284.547 5.235C284.577 5.105 284.587 4.98 284.577 4.86C284.557 4.34 284.392 3.955 284.082 3.705C283.782 3.445 283.392 3.285 282.912 3.225C282.632 3.195 282.287 3.165 281.877 3.135C281.467 3.095 281.062 3.105 280.662 3.165C280.272 3.225 279.927 3.35 279.627 3.54C279.327 3.72 279.147 4.01 279.087 4.41C279.057 4.65 279.057 4.88 279.087 5.1C279.127 5.32 279.212 5.515 279.342 5.685C279.472 5.855 279.652 6 279.882 6.12C280.112 6.24 280.407 6.315 280.767 6.345C281.117 6.385 281.472 6.42 281.832 6.45C282.202 6.48 282.562 6.46 282.912 6.39C283.082 6.36 283.252 6.32 283.422 6.27C283.602 6.21 283.767 6.135 283.917 6.045C284.067 5.955 284.197 5.845 284.307 5.715C284.417 5.575 284.497 5.415 284.547 5.235ZM282.522 8.16C282.262 8.16 281.987 8.165 281.697 8.175C281.417 8.175 281.132 8.165 280.842 8.145C280.912 8.265 280.952 8.38 280.962 8.49C280.972 8.65 280.977 8.9 280.977 9.24C280.987 9.57 280.992 9.94 280.992 10.35H282.882C282.872 10.31 282.867 10.255 282.867 10.185V8.73C282.867 8.67 282.877 8.605 282.897 8.535C282.917 8.485 282.937 8.425 282.957 8.355C282.977 8.285 283.012 8.215 283.062 8.145C282.972 8.155 282.882 8.16 282.792 8.16C282.702 8.16 282.612 8.16 282.522 8.16Z" fill="black"/>
<path d="M289.129 1.5C289.209 1.37 289.319 1.275 289.459 1.215C289.599 1.155 289.734 1.125 289.864 1.125C289.974 1.125 290.079 1.13 290.179 1.14C290.289 1.14 290.394 1.15 290.494 1.17C290.704 1.23 290.854 1.365 290.944 1.575C291.034 1.775 291.089 2.01 291.109 2.28C291.139 2.54 291.144 2.8 291.124 3.06C291.114 3.32 291.109 3.53 291.109 3.69V8.115C291.109 8.315 291.109 8.515 291.109 8.715C291.109 8.915 291.074 9.105 291.004 9.285C290.934 9.455 290.804 9.58 290.614 9.66C290.424 9.74 290.224 9.78 290.014 9.78C289.804 9.77 289.604 9.725 289.414 9.645C289.224 9.555 289.094 9.43 289.024 9.27C288.994 9.18 288.969 9.07 288.949 8.94C288.939 8.8 288.929 8.675 288.919 8.565C288.909 8.395 288.904 8.22 288.904 8.04C288.914 7.85 288.919 7.66 288.919 7.47V2.445C288.919 2.325 288.934 2.17 288.964 1.98C288.994 1.79 289.049 1.63 289.129 1.5ZM290.854 11.145C290.884 11.195 290.909 11.245 290.929 11.295C290.959 11.335 290.984 11.385 291.004 11.445C291.034 11.555 291.054 11.67 291.064 11.79C291.074 11.91 291.064 12.03 291.034 12.15C291.004 12.26 290.954 12.365 290.884 12.465C290.814 12.565 290.719 12.64 290.599 12.69C290.489 12.74 290.359 12.77 290.209 12.78C290.059 12.79 289.914 12.78 289.774 12.75C289.634 12.72 289.504 12.665 289.384 12.585C289.264 12.505 289.179 12.4 289.129 12.27C289.079 12.13 289.049 11.97 289.039 11.79C289.039 11.6 289.064 11.435 289.114 11.295C289.174 11.145 289.269 11.045 289.399 10.995C289.529 10.935 289.669 10.905 289.819 10.905C290.009 10.895 290.194 10.9 290.374 10.92C290.564 10.94 290.724 11.015 290.854 11.145Z" fill="black"/>
</svg>
